  0
SECTION
  2
HEADER
  9
$ACADVER
  1
AC1012
  9
$DWGCODEPAGE
  3
ansi_1252
  9
$INSBASE
 10
0.0
 20
0.0
 30
0.0
  9
$EXTMIN
 10
-5.8913329306
 20
8.3843923915
 30
0.0
  9
$EXTMAX
 10
-1.1413329306
 20
10.6343923915
 30
0.0
  9
$LIMMIN
 10
0.0
 20
0.0
  9
$LIMMAX
 10
12.0
 20
9.0
  9
$ORTHOMODE
 70
     0
  9
$REGENMODE
 70
     1
  9
$FILLMODE
 70
     1
  9
$QTEXTMODE
 70
     0
  9
$MIRRTEXT
 70
     1
  9
$DRAGMODE
 70
     2
  9
$LTSCALE
 40
1.0
  9
$OSMODE
 70
    37
  9
$ATTMODE
 70
     1
  9
$TEXTSIZE
 40
0.1377952756
  9
$TRACEWID
 40
0.05
  9
$TEXTSTYLE
  7
STANDARD
  9
$CLAYER
  8
0
  9
$CELTYPE
  6
BYLAYER
  9
$CECOLOR
 62
   256
  9
$CELTSCALE
 40
1.0
  9
$DELOBJ
 70
     1
  9
$DISPSILH
 70
     0
  9
$DIMSCALE
 40
1.0
  9
$DIMASZ
 40
0.13
  9
$DIMEXO
 40
0.0393700787
  9
$DIMDLI
 40
0.38
  9
$DIMRND
 40
0.0
  9
$DIMDLE
 40
0.0
  9
$DIMEXE
 40
0.0393700787
  9
$DIMTP
 40
0.0
  9
$DIMTM
 40
0.0
  9
$DIMTXT
 40
0.1377952756
  9
$DIMCEN
 40
0.09
  9
$DIMTSZ
 40
0.0
  9
$DIMTOL
 70
     0
  9
$DIMLIM
 70
     0
  9
$DIMTIH
 70
     1
  9
$DIMTOH
 70
     1
  9
$DIMSE1
 70
     0
  9
$DIMSE2
 70
     0
  9
$DIMTAD
 70
     1
  9
$DIMZIN
 70
     0
  9
$DIMBLK
  1

  9
$DIMASO
 70
     1
  9
$DIMSHO
 70
     1
  9
$DIMPOST
  1

  9
$DIMAPOST
  1

  9
$DIMALT
 70
     0
  9
$DIMALTD
 70
     2
  9
$DIMALTF
 40
25.4
  9
$DIMLFAC
 40
1.0
  9
$DIMTOFL
 70
     0
  9
$DIMTVP
 40
0.0
  9
$DIMTIX
 70
     0
  9
$DIMSOXD
 70
     0
  9
$DIMSAH
 70
     0
  9
$DIMBLK1
  1

  9
$DIMBLK2
  1

  9
$DIMSTYLE
  2
STANDARD
  9
$DIMCLRD
 70
     0
  9
$DIMCLRE
 70
     0
  9
$DIMCLRT
 70
     0
  9
$DIMTFAC
 40
1.0
  9
$DIMGAP
 40
0.06
  9
$DIMJUST
 70
     0
  9
$DIMSD1
 70
     0
  9
$DIMSD2
 70
     0
  9
$DIMTOLJ
 70
     1
  9
$DIMTZIN
 70
     0
  9
$DIMALTZ
 70
     0
  9
$DIMALTTZ
 70
     0
  9
$DIMFIT
 70
     3
  9
$DIMUPT
 70
     0
  9
$DIMUNIT
 70
     2
  9
$DIMDEC
 70
     2
  9
$DIMTDEC
 70
     2
  9
$DIMALTU
 70
     2
  9
$DIMALTTD
 70
     2
  9
$DIMTXSTY
  7
STANDARD
  9
$DIMAUNIT
 70
     0
  9
$LUNITS
 70
     2
  9
$LUPREC
 70
     4
  9
$SKETCHINC
 40
0.1
  9
$FILLETRAD
 40
0.5
  9
$AUNITS
 70
     0
  9
$AUPREC
 70
     3
  9
$MENU
  1
.
  9
$ELEVATION
 40
0.0
  9
$PELEVATION
 40
0.0
  9
$THICKNESS
 40
0.0
  9
$LIMCHECK
 70
     0
  9
$CHAMFERA
 40
0.0
  9
$CHAMFERB
 40
0.0
  9
$CHAMFERC
 40
0.0
  9
$CHAMFERD
 40
0.0
  9
$SKPOLY
 70
     0
  9
$TDCREATE
 40
2456968.476770278
  9
$TDUPDATE
 40
2456968.47682221
  9
$TDINDWG
 40
0.0000000116
  9
$TDUSRTIMER
 40
0.0000000116
  9
$USRTIMER
 70
     1
  9
$ANGBASE
 50
0.0
  9
$ANGDIR
 70
     0
  9
$PDMODE
 70
     0
  9
$PDSIZE
 40
-1.0
  9
$PLINEWID
 40
0.0
  9
$COORDS
 70
     1
  9
$SPLFRAME
 70
     0
  9
$SPLINETYPE
 70
     6
  9
$SPLINESEGS
 70
     8
  9
$ATTDIA
 70
     0
  9
$ATTREQ
 70
     1
  9
$HANDLING
 70
     1
  9
$HANDSEED
  5
DD
  9
$SURFTAB1
 70
     6
  9
$SURFTAB2
 70
     6
  9
$SURFTYPE
 70
     6
  9
$SURFU
 70
     6
  9
$SURFV
 70
     6
  9
$UCSNAME
  2

  9
$UCSORG
 10
0.0
 20
0.0
 30
0.0
  9
$UCSXDIR
 10
1.0
 20
0.0
 30
0.0
  9
$UCSYDIR
 10
0.0
 20
1.0
 30
0.0
  9
$PUCSNAME
  2

  9
$PUCSORG
 10
0.0
 20
0.0
 30
0.0
  9
$PUCSXDIR
 10
1.0
 20
0.0
 30
0.0
  9
$PUCSYDIR
 10
0.0
 20
1.0
 30
0.0
  9
$USERI1
 70
     0
  9
$USERI2
 70
     0
  9
$USERI3
 70
     0
  9
$USERI4
 70
     0
  9
$USERI5
 70
     0
  9
$USERR1
 40
0.0
  9
$USERR2
 40
0.0
  9
$USERR3
 40
0.0
  9
$USERR4
 40
0.0
  9
$USERR5
 40
0.0
  9
$WORLDVIEW
 70
     1
  9
$SHADEDGE
 70
     3
  9
$SHADEDIF
 70
    70
  9
$TILEMODE
 70
     1
  9
$MAXACTVP
 70
    64
  9
$PINSBASE
 10
0.0
 20
0.0
 30
0.0
  9
$PLIMCHECK
 70
     0
  9
$PEXTMIN
 10
1.0000000000E+20
 20
1.0000000000E+20
 30
1.0000000000E+20
  9
$PEXTMAX
 10
-1.0000000000E+20
 20
-1.0000000000E+20
 30
-1.0000000000E+20
  9
$PLIMMIN
 10
0.0
 20
0.0
  9
$PLIMMAX
 10
12.0
 20
9.0
  9
$UNITMODE
 70
     0
  9
$VISRETAIN
 70
     1
  9
$PLINEGEN
 70
     0
  9
$PSLTSCALE
 70
     1
  9
$TREEDEPTH
 70
  3020
  9
$PICKSTYLE
 70
     1
  9
$CMLSTYLE
  2
STANDARD
  9
$CMLJUST
 70
     0
  9
$CMLSCALE
 40
1.0
  9
$SAVEIMAGES
 70
     1
  0
ENDSEC
  0
SECTION
  2
CLASSES
  0
CLASS
  1
ACDBDICTIONARYWDFLT
  2
AcDbDictionaryWithDefault
  3
ObjectDBX Classes
 90
    32768
280
     0
281
     0
  0
CLASS
  1
VISUALSTYLE
  2
AcDbVisualStyle
  3
ObjectDBX Classes
 90
     4095
280
     0
281
     0
  0
CLASS
  1
MATERIAL
  2
AcDbMaterial
  3
ObjectDBX Classes
 90
     1153
280
     0
281
     0
  0
CLASS
  1
SCALE
  2
AcDbScale
  3
ObjectDBX Classes
 90
     1153
280
     0
281
     0
  0
CLASS
  1
SUN
  2
AcDbSun
  3
SCENEOE
 90
     1153
280
     0
281
     0
  0
CLASS
  1
XRECORD
  2
AcDbXrecord
  3
ObjectDBX Classes
 90
    32768
280
     0
281
     0
  0
ENDSEC
  0
SECTION
  2
TABLES
  0
TABLE
  2
VPORT
  5
8
330
0
100
AcDbSymbolTable
 70
     1
  0
VPORT
  5
29
330
8
100
AcDbSymbolTableRecord
100
AcDbViewportTableRecord
  2
*ACTIVE
 70
     0
 10
0.0
 20
0.0
 11
1.0
 21
1.0
 12
-3.5163329306
 22
9.5093923915
 13
0.0
 23
0.0
 14
0.5
 24
0.5
 15
0.5
 25
0.5
 16
0.0
 26
0.0
 36
1.0
 17
0.0
 27
0.0
 37
0.0
 40
2.295
 41
2.1111111111
 42
50.0
 43
0.0
 44
0.0
 50
0.0
 51
0.0
 71
     0
 72
   100
 73
     1
 74
     3
 75
     0
 76
     0
 77
     0
 78
     0
  0
ENDTAB
  0
TABLE
  2
LTYPE
  5
5
330
0
100
AcDbSymbolTable
 70
     6
  0
LTYPE
  5
14
330
5
100
AcDbSymbolTableRecord
100
AcDbLinetypeTableRecord
  2
BYBLOCK
 70
     0
  3

 72
    65
 73
     0
 40
0.0
  0
LTYPE
  5
15
330
5
100
AcDbSymbolTableRecord
100
AcDbLinetypeTableRecord
  2
BYLAYER
 70
     0
  3

 72
    65
 73
     0
 40
0.0
  0
LTYPE
  5
16
330
5
100
AcDbSymbolTableRecord
100
AcDbLinetypeTableRecord
  2
CONTINUOUS
 70
     0
  3
Solid line
 72
    65
 73
     0
 40
0.0
  0
LTYPE
  5
6A
330
5
100
AcDbSymbolTableRecord
100
AcDbLinetypeTableRecord
  2
HIDDEN
 70
     0
  3
Hidden __ __ __ __ __ __ __ __ __ __ __ __ __ __
 72
    65
 73
     2
 40
0.075
 49
0.05
 74
     0
 49
-0.025
 74
     0
  0
LTYPE
  5
6B
330
5
100
AcDbSymbolTableRecord
100
AcDbLinetypeTableRecord
  2
PHANTOM
 70
     0
  3
Phantom ______  __  __  ______  __  __  ______
 72
    65
 73
     6
 40
0.5
 49
0.25
 74
     0
 49
-0.05
 74
     0
 49
0.05
 74
     0
 49
-0.05
 74
     0
 49
0.05
 74
     0
 49
-0.05
 74
     0
  0
LTYPE
  5
6C
330
5
100
AcDbSymbolTableRecord
100
AcDbLinetypeTableRecord
  2
CENTER
 70
     0
  3
Center ____ _ ____ _ ____ _ ____ _ ____ _ ____
 72
    65
 73
     4
 40
0.4
 49
0.25
 74
     0
 49
-0.05
 74
     0
 49
0.05
 74
     0
 49
-0.05
 74
     0
  0
LTYPE
  5
6D
330
5
100
AcDbSymbolTableRecord
100
AcDbLinetypeTableRecord
  2
CENTERX2
 70
     0
  3
Center (2x) ________  __  ________  __  _____
 72
    65
 73
     4
 40
0.8
 49
0.5
 74
     0
 49
-0.1
 74
     0
 49
0.1
 74
     0
 49
-0.1
 74
     0
  0
LTYPE
  5
6E
330
5
100
AcDbSymbolTableRecord
100
AcDbLinetypeTableRecord
  2
DOT2
 70
     0
  3
Dot (.5x) ........................................
 72
    65
 73
     2
 40
0.025
 49
0.0
 74
     0
 49
-0.025
 74
     0
  0
ENDTAB
  0
TABLE
  2
LAYER
  5
2
330
0
100
AcDbSymbolTable
 70
     1
  0
LAYER
  5
10
330
2
100
AcDbSymbolTableRecord
100
AcDbLayerTableRecord
  2
0
 70
     0
 62
     7
  6
CONTINUOUS
  0
ENDTAB
  0
TABLE
  2
STYLE
  5
3
330
0
100
AcDbSymbolTable
 70
     1
  0
STYLE
  5
11
330
3
100
AcDbSymbolTableRecord
100
AcDbTextStyleTableRecord
  2
STANDARD
 70
     0
 40
0.0
 41
1.0
 50
0.0
 71
     0
 42
0.1377952756
  3
txt
  4

  0
ENDTAB
  0
TABLE
  2
VIEW
  5
6
330
0
100
AcDbSymbolTable
 70
     0
  0
ENDTAB
  0
TABLE
  2
UCS
  5
7
330
0
100
AcDbSymbolTable
 70
     0
  0
ENDTAB
  0
TABLE
  2
APPID
  5
9
330
0
100
AcDbSymbolTable
 70
     1
  0
APPID
  5
12
330
9
100
AcDbSymbolTableRecord
100
AcDbRegAppTableRecord
  2
ACAD
 70
     0
  0
ENDTAB
  0
TABLE
  2
DIMSTYLE
  5
A
330
0
100
AcDbSymbolTable
 70
     1
  0
DIMSTYLE
105
27
330
A
100
AcDbSymbolTableRecord
100
AcDbDimStyleTableRecord
  2
STANDARD
 70
     0
  3

  4

  5

  6

  7

 40
1.0
 41
0.18
 42
0.0625
 43
0.38
 44
0.18
 45
0.0
 46
0.0
 47
0.0
 48
0.0
140
0.18
141
0.09
142
0.0
143
25.4
144
1.0
145
0.0
146
1.0
147
0.09
 71
     0
 72
     0
 73
     1
 74
     1
 75
     0
 76
     0
 77
     0
 78
     0
170
     0
171
     2
172
     0
173
     0
174
     0
175
     0
176
     0
177
     0
178
     0
270
     2
271
     4
272
     4
273
     2
274
     2
340
11
275
     0
280
     0
281
     0
282
     0
283
     1
284
     0
285
     0
286
     0
287
     3
288
     0
  0
ENDTAB
  0
TABLE
  2
BLOCK_RECORD
  5
1
330
0
100
AcDbSymbolTable
 70
     1
  0
BLOCK_RECORD
  5
1F
330
1
100
AcDbSymbolTableRecord
100
AcDbBlockTableRecord
  2
*MODEL_SPACE
  0
BLOCK_RECORD
  5
1B
330
1
100
AcDbSymbolTableRecord
100
AcDbBlockTableRecord
  2
*PAPER_SPACE
  0
BLOCK_RECORD
  5
23
330
1
100
AcDbSymbolTableRecord
100
AcDbBlockTableRecord
  2
*PAPER_SPACE0
  0
ENDTAB
  0
ENDSEC
  0
SECTION
  2
BLOCKS
  0
BLOCK
  5
20
330
1F
100
AcDbEntity
  8
0
100
AcDbBlockBegin
  2
*MODEL_SPACE
 70
     0
 10
0.0
 20
0.0
 30
0.0
  3
*MODEL_SPACE
  1

  0
ENDBLK
  5
21
330
1F
100
AcDbEntity
  8
0
100
AcDbBlockEnd
  0
BLOCK
  5
1C
330
1B
100
AcDbEntity
 67
     1
  8
0
100
AcDbBlockBegin
  2
*PAPER_SPACE
 70
     0
 10
0.0
 20
0.0
 30
0.0
  3
*PAPER_SPACE
  1

  0
ENDBLK
  5
1D
330
1B
100
AcDbEntity
 67
     1
  8
0
100
AcDbBlockEnd
  0
BLOCK
  5
24
330
23
100
AcDbEntity
  8
0
100
AcDbBlockBegin
  2
*PAPER_SPACE0
 70
     0
 10
0.0
 20
0.0
 30
0.0
  3
*PAPER_SPACE0
  1
*PAPER_SPACE0
  0
ENDBLK
  5
25
330
23
100
AcDbEntity
  8
0
100
AcDbBlockEnd
  0
ENDSEC
  0
SECTION
  2
ENTITIES
  0
SPLINE
  5
70
330
1F
100
AcDbEntity
  8
0
  6
CONTINUOUS
 62
     7
100
AcDbSpline
210
0.0
220
0.0
230
1.0
 70
     8
 71
     3
 72
     8
 73
     4
 74
     0
 42
0.000000001
 43
0.00000001
 40
0.0
 40
0.0
 40
0.0
 40
0.0
 40
1.0
 40
1.0
 40
1.0
 40
1.0
 10
-2.077395076909089
 20
8.936688111215084
 30
0.0
 10
-1.941884288453577
 20
9.124465917573865
 30
0.0
 10
-1.865018786785729
 20
9.367504587386069
 30
0.0
 10
-1.867910006827465
 20
9.599054407431817
 30
0.0
  0
SPLINE
  5
71
330
1F
100
AcDbEntity
  8
0
  6
CONTINUOUS
 62
     7
100
AcDbSpline
210
0.0
220
0.0
230
1.0
 70
     8
 71
     3
 72
     8
 73
     4
 74
     0
 42
0.000000001
 43
0.00000001
 40
0.0
 40
0.0
 40
0.0
 40
0.0
 40
1.009909674130267
 40
1.009909674130267
 40
1.009909674130267
 40
1.009909674130267
 10
-1.867910006827465
 20
9.599054407431817
 30
0.0
 10
-1.87094668530249
 20
9.84227611508086
 30
0.0
 10
-1.954329123519569
 20
10.09584685678842
 30
0.0
 10
-2.099415450021188
 20
10.29107999520598
 30
0.0
  0
SPLINE
  5
73
330
1F
100
AcDbEntity
  8
0
  6
CONTINUOUS
 62
     7
100
AcDbSpline
210
0.0
220
0.0
230
1.0
 70
     8
 71
     3
 72
     8
 73
     4
 74
     0
 42
0.000000001
 43
0.00000001
 40
0.0
 40
0.0
 40
0.0
 40
0.0
 40
0.989781357235523
 40
0.989781357235523
 40
0.989781357235523
 40
0.989781357235523
 10
-2.169441072778812
 20
10.23904087699403
 30
0.0
 10
-2.037688410288505
 20
10.06174997430443
 30
0.0
 10
-1.959560143097222
 20
9.832766397105019
 30
0.0
 10
-1.955345170259877
 20
9.611920155873042
 30
0.0
  0
SPLINE
  5
74
330
1F
100
AcDbEntity
  8
0
  6
CONTINUOUS
 62
     7
100
AcDbSpline
210
0.0
220
0.0
230
1.0
 70
     8
 71
     3
 72
     8
 73
     4
 74
     0
 42
0.000000001
 43
0.00000001
 40
0.0
 40
0.0
 40
0.0
 40
0.0
 40
1.0
 40
1.0
 40
1.0
 40
1.0
 10
-1.955345170259877
 20
9.611920155873042
 30
0.0
 10
-1.95251261822821
 20
9.385069586868287
 30
0.0
 10
-2.027818167674643
 20
9.146963336532416
 30
0.0
 10
-2.160578788490888
 20
8.962996432984989
 30
0.0
  0
SPLINE
  5
76
330
1F
100
AcDbEntity
  8
0
  6
CONTINUOUS
 62
     7
100
AcDbSpline
210
0.0
220
0.0
230
1.0
 70
     8
 71
     3
 72
     8
 73
     4
 74
     0
 42
0.000000001
 43
0.00000001
 40
0.0
 40
0.0
 40
0.0
 40
0.0
 40
1.0
 40
1.0
 40
1.0
 40
1.0
 10
-3.4452765804
 20
10.0159498808
 30
0.0
 10
-3.444785392061983
 20
10.06199006008454
 30
0.0
 10
-3.441799220171762
 20
10.11004254093354
 30
0.0
 10
-3.435643662280784
 20
10.16031300308057
 30
0.0
  0
SPLINE
  5
77
330
1F
100
AcDbEntity
  8
0
  6
CONTINUOUS
 62
     7
100
AcDbSpline
210
0.0
220
0.0
230
1.0
 70
     8
 71
     3
 72
     8
 73
     4
 74
     0
 42
0.000000001
 43
0.00000001
 40
0.0
 40
0.0
 40
0.0
 40
0.0
 40
0.8142360521720581
 40
0.8142360521720581
 40
0.8142360521720581
 40
0.8142360521720581
 10
-3.435643662280784
 20
10.16031300308057
 30
0.0
 10
-3.364751238950145
 20
10.21850563059835
 30
0.0
 10
-3.374846885292849
 20
10.29565150360076
 30
0.0
 10
-3.332983759737069
 20
10.35178929566525
 30
0.0
  0
SPLINE
  5
79
330
1F
100
AcDbEntity
  8
0
  6
CONTINUOUS
 62
     7
100
AcDbSpline
210
0.0
220
0.0
230
1.0
 70
     8
 71
     3
 72
     8
 73
     4
 74
     0
 42
0.000000001
 43
0.00000001
 40
0.3383766526862391
 40
0.3383766526862391
 40
0.3383766526862391
 40
0.3383766526862391
 40
1.0
 40
1.0
 40
1.0
 40
1.0
 10
-3.351831528059063
 20
10.38354626053754
 30
0.0
 10
-3.385456322551837
 20
10.37876616120204
 30
0.0
 10
-3.410832726672768
 20
10.36849978911336
 30
0.0
 10
-3.421453075081249
 20
10.35363158995751
 30
0.0
  0
SPLINE
  5
7A
330
1F
100
AcDbEntity
  8
0
  6
CONTINUOUS
 62
     7
100
AcDbSpline
210
0.0
220
0.0
230
1.0
 70
     8
 71
     3
 72
     8
 73
     4
 74
     0
 42
0.000000001
 43
0.00000001
 40
0.0
 40
0.0
 40
0.0
 40
0.0
 40
0.851527851415359
 40
0.851527851415359
 40
0.851527851415359
 40
0.851527851415359
 10
-3.421453075081249
 20
10.35363158995751
 30
0.0
 10
-3.421453075081248
 20
10.39886984575712
 30
0.0
 10
-3.462700159944514
 20
10.45382675960365
 30
0.0
 10
-3.49674620100688
 20
10.51825143823002
 30
0.0
  0
SPLINE
  5
7C
330
1F
100
AcDbEntity
  8
0
  6
CONTINUOUS
 62
     7
100
AcDbSpline
210
0.0
220
0.0
230
1.0
 70
     8
 71
     3
 72
     8
 73
     4
 74
     0
 42
0.000000001
 43
0.00000001
 40
0.1489394158691652
 40
0.1489394158691652
 40
0.1489394158691652
 40
0.1489394158691652
 40
1.0
 40
1.0
 40
1.0
 40
1.0
 10
-3.531712356528274
 20
10.5189706860703
 30
0.0
 10
-3.567715673862782
 20
10.45713953783473
 30
0.0
 10
-3.609940262240137
 20
10.40909105079441
 30
0.0
 10
-3.609940262240137
 20
10.35363158995751
 30
0.0
  0
SPLINE
  5
7D
330
1F
100
AcDbEntity
  8
0
  6
CONTINUOUS
 62
     7
100
AcDbSpline
210
0.0
220
0.0
230
1.0
 70
     8
 71
     3
 72
     8
 73
     4
 74
     0
 42
0.000000001
 43
0.00000001
 40
0.0
 40
0.0
 40
0.0
 40
0.0
 40
0.6576588960097095
 40
0.6576588960097095
 40
0.6576588960097095
 40
0.6576588960097095
 10
-3.609940262240137
 20
10.35363158995751
 30
0.0
 10
-3.620500559536454
 20
10.36841069876948
 30
0.0
 10
-3.645639379211313
 20
10.37864296364373
 30
0.0
 10
-3.678963290926397
 20
10.38345974268073
 30
0.0
  0
SPLINE
  5
7F
330
1F
100
AcDbEntity
  8
0
  6
CONTINUOUS
 62
     7
100
AcDbSpline
210
0.0
220
0.0
230
1.0
 70
     8
 71
     3
 72
     8
 73
     4
 74
     0
 42
0.000000001
 43
0.00000001
 40
0.1684921175789701
 40
0.1684921175789701
 40
0.1684921175789701
 40
0.1684921175789701
 40
1.0
 40
1.0
 40
1.0
 40
1.0
 10
-3.69737186456455
 20
10.35108461182957
 30
0.0
 10
-3.646702127926401
 20
10.28846688063334
 30
0.0
 10
-3.656623334760629
 20
10.20787103671322
 30
0.0
 10
-3.592876267073205
 20
10.16681143309276
 30
0.0
  0
SPLINE
  5
80
330
1F
100
AcDbEntity
  8
0
  6
CONTINUOUS
 62
     7
100
AcDbSpline
210
0.0
220
0.0
230
1.0
 70
     8
 71
     3
 72
     8
 73
     4
 74
     0
 42
0.000000001
 43
0.00000001
 40
0.0
 40
0.0
 40
0.0
 40
0.0
 40
1.0
 40
1.0
 40
1.0
 40
1.0
 10
-3.592876267073205
 20
10.16681143309276
 30
0.0
 10
-3.586451122705253
 20
10.11429725242738
 30
0.0
 10
-3.583545652268502
 20
10.0640331155294
 30
0.0
 10
-3.5832378962
 20
10.0159498808
 30
0.0
  0
SPLINE
  5
82
330
1F
100
AcDbEntity
  8
0
  6
CONTINUOUS
 62
     7
100
AcDbSpline
210
0.0
220
0.0
230
1.0
 70
     8
 71
     3
 72
     8
 73
     4
 74
     0
 42
0.000000001
 43
0.00000001
 40
0.0
 40
0.0
 40
0.0
 40
0.0
 40
1.0
 40
1.0
 40
1.0
 40
1.0
 10
-3.6372136424
 20
10.0159498808
 30
0.0
 10
-3.6416757783894
 20
10.07955069635832
 30
0.0
 10
-3.655490994774311
 20
10.14038170708327
 30
0.0
 10
-3.683011280965746
 20
10.18895002289832
 30
0.0
  0
SPLINE
  5
83
330
1F
100
AcDbEntity
  8
0
  6
CONTINUOUS
 62
     7
100
AcDbSpline
210
0.0
220
0.0
230
1.0
 70
     8
 71
     3
 72
     8
 73
     4
 74
     0
 42
0.000000001
 43
0.00000001
 40
0.0
 40
0.0
 40
0.0
 40
0.0
 40
1.0
 40
1.0
 40
1.0
 40
1.0
 10
-3.683011280965746
 20
10.18895002289832
 30
0.0
 10
-3.797768529679656
 20
10.39145112650726
 30
0.0
 10
-4.101019508913528
 20
10.34891513528263
 30
0.0
 10
-4.170445442544431
 20
10.20700206559009
 30
0.0
  0
SPLINE
  5
84
330
1F
100
AcDbEntity
  8
0
  6
CONTINUOUS
 62
     7
100
AcDbSpline
210
0.0
220
0.0
230
1.0
 70
     8
 71
     3
 72
     8
 73
     4
 74
     0
 42
0.000000001
 43
0.00000001
 40
0.0
 40
0.0
 40
0.0
 40
0.0
 40
0.9498693598268744
 40
0.9498693598268744
 40
0.9498693598268744
 40
0.9498693598268744
 10
-4.170445442544431
 20
10.20700206559009
 30
0.0
 10
-4.230449353525767
 20
10.10127315445607
 30
0.0
 10
-4.181039089676039
 20
9.909874398131661
 30
0.0
 10
-3.988571775921055
 20
9.915610893889045
 30
0.0
  0
SPLINE
  5
86
330
1F
100
AcDbEntity
  8
0
  6
CONTINUOUS
 62
     7
100
AcDbSpline
210
0.0
220
0.0
230
1.0
 70
     8
 71
     3
 72
     8
 73
     4
 74
     0
 42
0.000000001
 43
0.00000001
 40
0.0416871232833852
 40
0.0416871232833852
 40
0.0416871232833852
 40
0.0416871232833852
 40
1.0
 40
1.0
 40
1.0
 40
1.0
 10
-3.971230730413629
 20
9.944448952331113
 30
0.0
 10
-4.067211686634455
 20
10.13904729343502
 30
0.0
 10
-3.85160462588132
 20
10.18481153364953
 30
0.0
 10
-3.785287940845409
 20
10.08967502086345
 30
0.0
  0
SPLINE
  5
87
330
1F
100
AcDbEntity
  8
0
  6
CONTINUOUS
 62
     7
100
AcDbSpline
210
0.0
220
0.0
230
1.0
 70
     8
 71
     3
 72
     8
 73
     4
 74
     0
 42
0.000000001
 43
0.00000001
 40
0.0
 40
0.0
 40
0.0
 40
0.0
 40
1.0
 40
1.0
 40
1.0
 40
1.0
 10
-3.785287940845409
 20
10.08967502086345
 30
0.0
 10
-3.769659559102001
 20
10.06725746576335
 30
0.0
 10
-3.759635129909534
 20
10.04230697558465
 30
0.0
 10
-3.7547723221
 20
10.0159498808
 30
0.0
  0
SPLINE
  5
89
330
1F
100
AcDbEntity
  8
0
  6
CONTINUOUS
 62
     7
100
AcDbSpline
210
0.0
220
0.0
230
1.0
 70
     8
 71
     3
 72
     8
 73
     4
 74
     0
 42
0.000000001
 43
0.00000001
 40
0.0
 40
0.0
 40
0.0
 40
0.0
 40
1.0
 40
1.0
 40
1.0
 40
1.0
 10
-3.8142822282
 20
10.0159498808
 30
0.0
 10
-3.860400055264992
 20
10.01594988088327
 30
0.0
 10
-3.897789038654902
 20
9.988859057291483
 30
0.0
 10
-3.897789038654902
 20
9.955434696387021
 30
0.0
  0
SPLINE
  5
8A
330
1F
100
AcDbEntity
  8
0
  6
CONTINUOUS
 62
     7
100
AcDbSpline
210
0.0
220
0.0
230
1.0
 70
     8
 71
     3
 72
     8
 73
     4
 74
     0
 42
0.000000001
 43
0.00000001
 40
0.0
 40
0.0
 40
0.0
 40
0.0
 40
1.0
 40
1.0
 40
1.0
 40
1.0
 10
-3.897789038654902
 20
9.955434696387021
 30
0.0
 10
-3.897789038654902
 20
9.922009026810336
 30
0.0
 10
-3.860400055264992
 20
9.894918857554657
 30
0.0
 10
-3.8142822282
 20
9.8949188575
 30
0.0
  0
SPLINE
  5
8C
330
1F
100
AcDbEntity
  8
0
  6
CONTINUOUS
 62
     7
100
AcDbSpline
210
0.0
220
0.0
230
1.0
 70
     8
 71
     3
 72
     8
 73
     4
 74
     0
 42
0.000000001
 43
0.00000001
 40
0.0
 40
0.0
 40
0.0
 40
0.0
 40
1.0
 40
1.0
 40
1.0
 40
1.0
 10
-3.7653924152
 20
9.8949188575
 30
0.0
 10
-3.79273755744829
 20
9.813185952270484
 30
0.0
 10
-3.858842517213132
 20
9.733466657306248
 30
0.0
 10
-3.953746117814686
 20
9.683566113172931
 30
0.0
  0
SPLINE
  5
8D
330
1F
100
AcDbEntity
  8
0
  6
CONTINUOUS
 62
     7
100
AcDbSpline
210
0.0
220
0.0
230
1.0
 70
     8
 71
     3
 72
     8
 73
     4
 74
     0
 42
0.000000001
 43
0.00000001
 40
0.0
 40
0.0
 40
0.0
 40
0.0
 40
0.9242540781053386
 40
0.9242540781053386
 40
0.9242540781053386
 40
0.9242540781053386
 10
-3.953746117814686
 20
9.683566113172931
 30
0.0
 10
-4.223460884578169
 20
9.541761603642815
 30
0.0
 10
-4.351816142973012
 20
9.762304781395311
 30
0.0
 10
-4.3055853592385
 20
9.915285864326606
 30
0.0
  0
SPLINE
  5
8F
330
1F
100
AcDbEntity
  8
0
  6
CONTINUOUS
 62
     7
100
AcDbSpline
210
0.0
220
0.0
230
1.0
 70
     8
 71
     3
 72
     8
 73
     4
 74
     0
 42
0.000000001
 43
0.00000001
 40
0.0277279286870675
 40
0.0277279286870675
 40
0.0277279286870675
 40
0.0277279286870675
 40
1.0
 40
1.0
 40
1.0
 40
1.0
 10
-4.330681791626116
 20
9.940165398122513
 30
0.0
 10
-4.78032219460622
 20
9.80001371424657
 30
0.0
 10
-4.607737589136429
 20
9.316439591101068
 30
0.0
 10
-4.293693138498871
 20
9.280458863327205
 30
0.0
  0
SPLINE
  5
90
330
1F
100
AcDbEntity
  8
0
  6
CONTINUOUS
 62
     7
100
AcDbSpline
210
0.0
220
0.0
230
1.0
 70
     8
 71
     3
 72
     8
 73
     4
 74
     0
 42
0.000000001
 43
0.00000001
 40
0.0
 40
0.0
 40
0.0
 40
0.0
 40
1.0
 40
1.0
 40
1.0
 40
1.0
 10
-4.293693138498871
 20
9.280458863327205
 30
0.0
 10
-4.004899715597078
 20
9.247366468942122
 30
0.0
 10
-3.701073138699155
 20
9.448916822184447
 30
0.0
 10
-3.643910336202213
 20
9.852025380702388
 30
0.0
  0
SPLINE
  5
91
330
1F
100
AcDbEntity
  8
0
  6
CONTINUOUS
 62
     7
100
AcDbSpline
210
0.0
220
0.0
230
1.0
 70
     8
 71
     3
 72
     8
 73
     4
 74
     0
 42
0.000000001
 43
0.00000001
 40
0.0
 40
0.0
 40
0.0
 40
0.0
 40
1.0
 40
1.0
 40
1.0
 40
1.0
 10
-3.643910336202213
 20
9.852025380702388
 30
0.0
 10
-3.641915919741472
 20
9.866076158086596
 30
0.0
 10
-3.640229259364072
 20
9.880418769375494
 30
0.0
 10
-3.6389120808
 20
9.8949188575
 30
0.0
  0
SPLINE
  5
93
330
1F
100
AcDbEntity
  8
0
  6
CONTINUOUS
 62
     7
100
AcDbSpline
210
0.0
220
0.0
230
1.0
 70
     8
 71
     3
 72
     8
 73
     4
 74
     0
 42
0.000000001
 43
0.00000001
 40
0.0
 40
0.0
 40
0.0
 40
0.0
 40
1.0
 40
1.0
 40
1.0
 40
1.0
 10
-3.5889120808
 20
9.8949188575
 30
0.0
 10
-3.615317814497317
 20
9.622752987634968
 30
0.0
 10
-3.729081344773441
 20
9.430938283248938
 30
0.0
 10
-3.796386138850449
 20
9.30562048595713
 30
0.0
  0
SPLINE
  5
94
330
1F
100
AcDbEntity
  8
0
  6
CONTINUOUS
 62
     7
100
AcDbSpline
210
0.0
220
0.0
230
1.0
 70
     8
 71
     3
 72
     8
 73
     4
 74
     0
 42
0.000000001
 43
0.00000001
 40
0.0
 40
0.0
 40
0.0
 40
0.0
 40
1.0
 40
1.0
 40
1.0
 40
1.0
 10
-3.796386138850449
 20
9.30562048595713
 30
0.0
 10
-3.884222473248916
 20
9.142071574702907
 30
0.0
 10
-3.812934299051316
 20
8.980954176430345
 30
0.0
 10
-3.778213043978485
 20
8.908859642034225
 30
0.0
  0
SPLINE
  5
95
330
1F
100
AcDbEntity
  8
0
  6
CONTINUOUS
 62
     7
100
AcDbSpline
210
0.0
220
0.0
230
1.0
 70
     8
 71
     3
 72
     8
 73
     4
 74
     0
 42
0.000000001
 43
0.00000001
 40
0.0
 40
0.0
 40
0.0
 40
0.0
 40
0.8959119979510318
 40
0.8959119979510318
 40
0.8959119979510318
 40
0.8959119979510318
 10
-3.778213043978485
 20
8.908859642034225
 30
0.0
 10
-3.742933673352744
 20
8.835596632998195
 30
0.0
 10
-3.597146972010384
 20
8.56266412869968
 30
0.0
 10
-3.534513107975452
 20
8.426056856088454
 30
0.0
  0
SPLINE
  5
97
330
1F
100
AcDbEntity
  8
0
  6
CONTINUOUS
 62
     7
100
AcDbSpline
210
0.0
220
0.0
230
1.0
 70
     8
 71
     3
 72
     8
 73
     4
 74
     0
 42
0.000000001
 43
0.00000001
 40
0.1040346900492377
 40
0.1040346900492377
 40
0.1040346900492377
 40
0.1040346900492377
 40
1.0
 40
1.0
 40
1.0
 40
1.0
 10
-3.498163953607762
 20
8.426032470743465
 30
0.0
 10
-3.435311857990888
 20
8.562631645834527
 30
0.0
 10
-3.288439020372086
 20
8.835592273420996
 30
0.0
 10
-3.253158918363348
 20
8.908859642034225
 30
0.0
  0
SPLINE
  5
98
330
1F
100
AcDbEntity
  8
0
  6
CONTINUOUS
 62
     7
100
AcDbSpline
210
0.0
220
0.0
230
1.0
 70
     8
 71
     3
 72
     8
 73
     4
 74
     0
 42
0.000000001
 43
0.00000001
 40
0.0
 40
0.0
 40
0.0
 40
0.0
 40
1.0
 40
1.0
 40
1.0
 40
1.0
 10
-3.253158918363348
 20
8.908859642034225
 30
0.0
 10
-3.218447478332149
 20
8.980954176430345
 30
0.0
 10
-3.147154941893819
 20
9.142071574702907
 30
0.0
 10
-3.234991276292283
 20
9.30562048595713
 30
0.0
  0
SPLINE
  5
99
330
1F
100
AcDbEntity
  8
0
  6
CONTINUOUS
 62
     7
100
AcDbSpline
210
0.0
220
0.0
230
1.0
 70
     8
 71
     3
 72
     8
 73
     4
 74
     0
 42
0.000000001
 43
0.00000001
 40
0.0
 40
0.0
 40
0.0
 40
0.0
 40
1.0
 40
1.0
 40
1.0
 40
1.0
 10
-3.234991276292283
 20
9.30562048595713
 30
0.0
 10
-3.302750833965176
 20
9.431798080896382
 30
0.0
 10
-3.415930914543951
 20
9.621516510500687
 30
0.0
 10
-3.4405189025
 20
9.8949188575
 30
0.0
  0
SPLINE
  5
9B
330
1F
100
AcDbEntity
  8
0
  6
CONTINUOUS
 62
     7
100
AcDbSpline
210
0.0
220
0.0
230
1.0
 70
     8
 71
     3
 72
     8
 73
     4
 74
     0
 42
0.000000001
 43
0.00000001
 40
0.0
 40
0.0
 40
0.0
 40
0.0
 40
1.0
 40
1.0
 40
1.0
 40
1.0
 10
-3.3905189025
 20
9.8949188575
 30
0.0
 10
-3.389189291514357
 20
9.88042487651251
 30
0.0
 10
-3.387514845411001
 20
9.866076158086596
 30
0.0
 10
-3.385520428950254
 20
9.852025380702388
 30
0.0
  0
SPLINE
  5
9C
330
1F
100
AcDbEntity
  8
0
  6
CONTINUOUS
 62
     7
100
AcDbSpline
210
0.0
220
0.0
230
1.0
 70
     8
 71
     3
 72
     8
 73
     4
 74
     0
 42
0.000000001
 43
0.00000001
 40
0.0
 40
0.0
 40
0.0
 40
0.0
 40
1.0
 40
1.0
 40
1.0
 40
1.0
 10
-3.385520428950254
 20
9.852025380702388
 30
0.0
 10
-3.328363079254224
 20
9.448923583657571
 30
0.0
 10
-3.024536720468351
 20
9.247366468942122
 30
0.0
 10
-2.735742643230435
 20
9.280458863327205
 30
0.0
  0
SPLINE
  5
9D
330
1F
100
AcDbEntity
  8
0
  6
CONTINUOUS
 62
     7
100
AcDbSpline
210
0.0
220
0.0
230
1.0
 70
     8
 71
     3
 72
     8
 73
     4
 74
     0
 42
0.000000001
 43
0.00000001
 40
0.0
 40
0.0
 40
0.0
 40
0.0
 40
0.9722736940769768
 40
0.9722736940769768
 40
0.9722736940769768
 40
0.9722736940769768
 10
-2.735742643230435
 20
9.280458863327205
 30
0.0
 10
-2.421695759857776
 20
9.316446225156913
 30
0.0
 10
-2.249105276346727
 20
9.80002146618076
 30
0.0
 10
-2.698766828707011
 20
9.940166595216969
 30
0.0
  0
SPLINE
  5
9F
330
1F
100
AcDbEntity
  8
0
  6
CONTINUOUS
 62
     7
100
AcDbSpline
210
0.0
220
0.0
230
1.0
 70
     8
 71
     3
 72
     8
 73
     4
 74
     0
 42
0.000000001
 43
0.00000001
 40
0.0757441460652191
 40
0.0757441460652191
 40
0.0757441460652191
 40
0.0757441460652191
 40
1.0
 40
1.0
 40
1.0
 40
1.0
 10
-2.723862704896721
 20
9.915286746095354
 30
0.0
 10
-2.67763054408459
 20
9.762305628884539
 30
0.0
 10
-2.805987316966409
 20
9.541761331184594
 30
0.0
 10
-3.075700787628465
 20
9.683566113172931
 30
0.0
  0
SPLINE
  5
A0
330
1F
100
AcDbEntity
  8
0
  6
CONTINUOUS
 62
     7
100
AcDbSpline
210
0.0
220
0.0
230
1.0
 70
     8
 71
     3
 72
     8
 73
     4
 74
     0
 42
0.000000001
 43
0.00000001
 40
0.0
 40
0.0
 40
0.0
 40
0.0
 40
1.0
 40
1.0
 40
1.0
 40
1.0
 10
-3.075700787628465
 20
9.683566113172931
 30
0.0
 10
-3.170606133126312
 20
9.733466657306248
 30
0.0
 10
-3.236704331418029
 20
9.813185952270484
 30
0.0
 10
-3.2640562351
 20
9.8949188575
 30
0.0
  0
SPLINE
  5
A2
330
1F
100
AcDbEntity
  8
0
  6
CONTINUOUS
 62
     7
100
AcDbSpline
210
0.0
220
0.0
230
1.0
 70
     8
 71
     3
 72
     8
 73
     4
 74
     0
 42
0.000000001
 43
0.00000001
 40
0.0
 40
0.0
 40
0.0
 40
0.0
 40
1.0
 40
1.0
 40
1.0
 40
1.0
 10
-3.2105843245
 20
9.8949188575
 30
0.0
 10
-3.164465188741774
 20
9.894918857554657
 30
0.0
 10
-3.12707555101575
 20
9.92200291967332
 30
0.0
 10
-3.12707555101575
 20
9.955434696387021
 30
0.0
  0
SPLINE
  5
A3
330
1F
100
AcDbEntity
  8
0
  6
CONTINUOUS
 62
     7
100
AcDbSpline
210
0.0
220
0.0
230
1.0
 70
     8
 71
     3
 72
     8
 73
     4
 74
     0
 42
0.000000001
 43
0.00000001
 40
0.0
 40
0.0
 40
0.0
 40
0.0
 40
1.0
 40
1.0
 40
1.0
 40
1.0
 10
-3.12707555101575
 20
9.955434696387021
 30
0.0
 10
-3.12707555101575
 20
9.98885338637854
 30
0.0
 10
-3.164465188741774
 20
10.01594988088327
 30
0.0
 10
-3.2105843245
 20
10.0159498808
 30
0.0
  0
SPLINE
  5
A5
330
1F
100
AcDbEntity
  8
0
  6
CONTINUOUS
 62
     7
100
AcDbSpline
210
0.0
220
0.0
230
1.0
 70
     8
 71
     3
 72
     8
 73
     4
 74
     0
 42
0.000000001
 43
0.00000001
 40
0.0
 40
0.0
 40
0.0
 40
0.0
 40
1.0
 40
1.0
 40
1.0
 40
1.0
 10
-3.2746697849
 20
10.0159498808
 30
0.0
 10
-3.269802396716045
 20
10.04230697558465
 30
0.0
 10
-3.259782329764318
 20
10.06725746576335
 30
0.0
 10
-3.244161363830143
 20
10.08967502086345
 30
0.0
  0
SPLINE
  5
A6
330
1F
100
AcDbEntity
  8
0
  6
CONTINUOUS
 62
     7
100
AcDbSpline
210
0.0
220
0.0
230
1.0
 70
     8
 71
     3
 72
     8
 73
     4
 74
     0
 42
0.000000001
 43
0.00000001
 40
0.0
 40
0.0
 40
0.0
 40
0.0
 40
0.9583122422211736
 40
0.9583122422211736
 40
0.9583122422211736
 40
0.9583122422211736
 10
-3.244161363830143
 20
10.08967502086345
 30
0.0
 10
-3.177843050546795
 20
10.18481147066
 30
0.0
 10
-2.962230352811831
 20
10.13904735403563
 30
0.0
 10
-3.058215720395739
 20
9.944449338796732
 30
0.0
  0
SPLINE
  5
A8
330
1F
100
AcDbEntity
  8
0
  6
CONTINUOUS
 62
     7
100
AcDbSpline
210
0.0
220
0.0
230
1.0
 70
     8
 71
     3
 72
     8
 73
     4
 74
     0
 42
0.000000001
 43
0.00000001
 40
0.0501308233677709
 40
0.0501308233677709
 40
0.0501308233677709
 40
0.0501308233677709
 40
1.0
 40
1.0
 40
1.0
 40
1.0
 10
-3.040874759520094
 20
9.915610938928548
 30
0.0
 10
-2.848403321894602
 20
9.909875115891051
 30
0.0
 10
-2.798992198732782
 20
10.10127959736218
 30
0.0
 10
-2.859001899122796
 20
10.20700206559009
 30
0.0
  0
SPLINE
  5
A9
330
1F
100
AcDbEntity
  8
0
  6
CONTINUOUS
 62
     7
100
AcDbSpline
210
0.0
220
0.0
230
1.0
 70
     8
 71
     3
 72
     8
 73
     4
 74
     0
 42
0.000000001
 43
0.00000001
 40
0.0
 40
0.0
 40
0.0
 40
0.0
 40
1.0
 40
1.0
 40
1.0
 40
1.0
 10
-2.859001899122796
 20
10.20700206559009
 30
0.0
 10
-2.928428487089807
 20
10.34891513528263
 30
0.0
 10
-3.231679466323682
 20
10.39144610993042
 30
0.0
 10
-3.346436715037587
 20
10.18895002289832
 30
0.0
  0
SPLINE
  5
AA
330
1F
100
AcDbEntity
  8
0
  6
CONTINUOUS
 62
     7
100
AcDbSpline
210
0.0
220
0.0
230
1.0
 70
     8
 71
     3
 72
     8
 73
     4
 74
     0
 42
0.000000001
 43
0.00000001
 40
0.0
 40
0.0
 40
0.0
 40
0.0
 40
1.0
 40
1.0
 40
1.0
 40
1.0
 10
-3.346436715037587
 20
10.18895002289832
 30
0.0
 10
-3.37395089409201
 20
10.14038170708327
 30
0.0
 10
-3.387770254605602
 20
10.07955069635832
 30
0.0
 10
-3.392233045
 20
10.0159498808
 30
0.0
  0
SPLINE
  5
AC
330
1F
100
AcDbEntity
  8
0
  6
CONTINUOUS
 62
     7
100
AcDbSpline
210
0.0
220
0.0
230
1.0
 70
     8
 71
     3
 72
     8
 73
     4
 74
     0
 42
0.000000001
 43
0.00000001
 40
0.0
 40
0.0
 40
0.0
 40
0.0
 40
1.0
 40
1.0
 40
1.0
 40
1.0
 10
-4.857067722309113
 20
8.924295089484989
 30
0.0
 10
-4.997746091021215
 20
9.11923364669448
 30
0.0
 10
-5.077542809233333
 20
9.371540382416654
 30
0.0
 10
-5.074541325837306
 20
9.611920156074701
 30
0.0
  0
SPLINE
  5
AD
330
1F
100
AcDbEntity
  8
0
  6
CONTINUOUS
 62
     7
100
AcDbSpline
210
0.0
220
0.0
230
1.0
 70
     8
 71
     3
 72
     8
 73
     4
 74
     0
 42
0.000000001
 43
0.00000001
 40
0.0
 40
0.0
 40
0.0
 40
0.0
 40
0.9897813581330663
 40
0.9897813581330663
 40
0.9897813581330663
 40
0.9897813581330663
 10
-5.074541325837306
 20
9.611920156074701
 30
0.0
 10
-5.070326357433795
 20
9.832766387056214
 30
0.0
 10
-4.992198230464784
 20
10.06175005439211
 30
0.0
 10
-4.860445442531125
 20
10.23904085100992
 30
0.0
  0
SPLINE
  5
AF
330
1F
100
AcDbEntity
  8
0
  6
CONTINUOUS
 62
     7
100
AcDbSpline
210
0.0
220
0.0
230
1.0
 70
     8
 71
     3
 72
     8
 73
     4
 74
     0
 42
0.000000001
 43
0.00000001
 40
0.0
 40
0.0
 40
0.0
 40
0.0
 40
1.009909674130294
 40
1.009909674130294
 40
1.009909674130294
 40
1.009909674130294
 10
-4.930471026668876
 20
10.29108002119008
 30
0.0
 10
-5.075557504210191
 20
10.09584698221418
 30
0.0
 10
-5.158939810602878
 20
9.842276125336038
 30
0.0
 10
-5.161976489205947
 20
9.599054407431801
 30
0.0
  0
SPLINE
  5
B0
330
1F
100
AcDbEntity
  8
0
  6
CONTINUOUS
 62
     7
100
AcDbSpline
210
0.0
220
0.0
230
1.0
 70
     8
 71
     3
 72
     8
 73
     4
 74
     0
 42
0.000000001
 43
0.00000001
 40
0.0
 40
0.0
 40
0.0
 40
0.0
 40
1.0
 40
1.0
 40
1.0
 40
1.0
 10
-5.161976489205947
 20
9.599054407431801
 30
0.0
 10
-5.165036640095689
 20
9.353975382796804
 30
0.0
 10
-5.083679970619062
 20
9.096736227377086
 30
0.0
 10
-4.940251433890888
 20
8.897986767715011
 30
0.0
  0
SPLINE
  5
B6
330
1F
100
AcDbEntity
  8
0
  6
CONTINUOUS
 62
     7
100
AcDbSpline
210
0.0
220
0.0
230
1.0
 70
     8
 71
     3
 72
     8
 73
     4
 74
     0
 42
0.000000001
 43
0.00000001
 40
0.0
 40
0.0
 40
0.0
 40
0.0
 40
1.0
 40
1.0
 40
1.0
 40
1.0
 10
-5.372904008011313
 20
8.720895841802378
 30
0.0
 10
-5.555680427395203
 20
8.974169557467189
 30
0.0
 10
-5.659355944967115
 20
9.301979001399516
 30
0.0
 10
-5.655456551359969
 20
9.614292288358927
 30
0.0
  0
SPLINE
  5
B7
330
1F
100
AcDbEntity
  8
0
  6
CONTINUOUS
 62
     7
100
AcDbSpline
210
0.0
220
0.0
230
1.0
 70
     8
 71
     3
 72
     8
 73
     4
 74
     0
 42
0.000000001
 43
0.00000001
 40
0.0
 40
0.0
 40
0.0
 40
0.0
 40
0.9922252816489084
 40
0.9922252816489084
 40
0.9922252816489084
 40
0.9922252816489084
 10
-5.655456551359969
 20
9.614292288358927
 30
0.0
 10
-5.650351472491145
 20
9.905864470485447
 30
0.0
 10
-5.547378242843087
 20
10.20837831385794
 30
0.0
 10
-5.373437057358815
 20
10.44243997923125
 30
0.0
  0
SPLINE
  5
B9
330
1F
100
AcDbEntity
  8
0
  6
CONTINUOUS
 62
     7
100
AcDbSpline
210
0.0
220
0.0
230
1.0
 70
     8
 71
     3
 72
     8
 73
     4
 74
     0
 42
0.000000001
 43
0.00000001
 40
0.0
 40
0.0
 40
0.0
 40
0.0
 40
1.007594664177815
 40
1.007594664177815
 40
1.007594664177815
 40
1.007594664177815
 10
-5.443462726841186
 20
10.49447903456875
 30
0.0
 10
-5.630740337462293
 20
10.24247138434518
 30
0.0
 10
-5.738966463307142
 20
9.915361292486445
 30
0.0
 10
-5.742886496033343
 20
9.601410034213698
 30
0.0
  0
SPLINE
  5
BA
330
1F
100
AcDbEntity
  8
0
  6
CONTINUOUS
 62
     7
100
AcDbSpline
210
0.0
220
0.0
230
1.0
 70
     8
 71
     3
 72
     8
 73
     4
 74
     0
 42
0.000000001
 43
0.00000001
 40
0.0
 40
0.0
 40
0.0
 40
0.0
 40
1.0
 40
1.0
 40
1.0
 40
1.0
 10
-5.742886496033343
 20
9.601410034213698
 30
0.0
 10
-5.746844491966945
 20
9.284403263326984
 30
0.0
 10
-5.641610922325957
 20
8.951667458218033
 30
0.0
 10
-5.456087716989698
 20
8.694587511800817
 30
0.0
  0
SPLINE
  5
BC
330
1F
100
AcDbEntity
  8
0
  6
CONTINUOUS
 62
     7
100
AcDbSpline
210
0.0
220
0.0
230
1.0
 70
     8
 71
     3
 72
     8
 73
     4
 74
     0
 42
0.000000001
 43
0.00000001
 40
0.0
 40
0.0
 40
0.0
 40
0.0
 40
1.0
 40
1.0
 40
1.0
 40
1.0
 10
-1.561553582311309
 20
8.733305320197623
 30
0.0
 10
-1.383951499083139
 20
8.979408948913765
 30
0.0
 10
-1.283210995158736
 20
9.297938224263655
 30
0.0
 10
-1.287000000000072
 20
9.601410034213679
 30
0.0
  0
SPLINE
  5
BD
330
1F
100
AcDbEntity
  8
0
  6
CONTINUOUS
 62
     7
100
AcDbSpline
210
0.0
220
0.0
230
1.0
 70
     8
 71
     3
 72
     8
 73
     4
 74
     0
 42
0.000000001
 43
0.00000001
 40
0.0
 40
0.0
 40
0.0
 40
0.0
 40
1.007594664177832
 40
1.007594664177832
 40
1.007594664177832
 40
1.007594664177832
 10
-1.287000000000072
 20
9.601410034213679
 30
0.0
 10
-1.290920032726264
 20
9.915361292486429
 30
0.0
 10
-1.399146158571113
 20
10.24247138434517
 30
0.0
 10
-1.586423769158812
 20
10.49447903456875
 30
0.0
  0
SPLINE
  5
BF
330
1F
100
AcDbEntity
  8
0
  6
CONTINUOUS
 62
     7
100
AcDbSpline
210
0.0
220
0.0
230
1.0
 70
     8
 71
     3
 72
     8
 73
     4
 74
     0
 42
0.000000001
 43
0.00000001
 40
0.0
 40
0.0
 40
0.0
 40
0.0
 40
0.9922252816489012
 40
0.9922252816489012
 40
0.9922252816489012
 40
0.9922252816489012
 10
-1.656449438641188
 20
10.44243997923125
 30
0.0
 10
-1.482508253190319
 20
10.20837831385794
 30
0.0
 10
-1.379535023542271
 20
9.905864470485447
 30
0.0
 10
-1.374429944673434
 20
9.614292288358934
 30
0.0
  0
SPLINE
  5
C0
330
1F
100
AcDbEntity
  8
0
  6
CONTINUOUS
 62
     7
100
AcDbSpline
210
0.0
220
0.0
230
1.0
 70
     8
 71
     3
 72
     8
 73
     4
 74
     0
 42
0.000000001
 43
0.00000001
 40
0.0
 40
0.0
 40
0.0
 40
0.0
 40
1.0
 40
1.0
 40
1.0
 40
1.0
 10
-1.374429944673434
 20
9.614292288358934
 30
0.0
 10
-1.370699542084189
 20
9.315513962337132
 30
0.0
 10
-1.469881994074207
 20
9.001911048206463
 30
0.0
 10
-1.644737291289701
 20
8.759613650199185
 30
0.0
  0
LINE
  5
C1
330
1F
100
AcDbEntity
  8
0
  6
CONTINUOUS
 62
     7
100
AcDbLine
 10
-3.392233045
 20
10.0159498808
 30
0.0
 11
-3.4452765804
 21
10.0159498808
 31
0.0
  0
LINE
  5
C2
330
1F
100
AcDbEntity
  8
0
  6
CONTINUOUS
 62
     7
100
AcDbLine
 10
-3.5832378962
 20
10.0159498808
 30
0.0
 11
-3.6372136424
 21
10.0159498808
 31
0.0
  0
LINE
  5
C3
330
1F
100
AcDbEntity
  8
0
  6
CONTINUOUS
 62
     7
100
AcDbLine
 10
-3.7547723221
 20
10.0159498808
 30
0.0
 11
-3.8142822282
 21
10.0159498808
 31
0.0
  0
LINE
  5
C4
330
1F
100
AcDbEntity
  8
0
  6
CONTINUOUS
 62
     7
100
AcDbLine
 10
-3.8142822282
 20
9.8949188575
 30
0.0
 11
-3.7653924152
 21
9.8949188575
 31
0.0
  0
LINE
  5
C5
330
1F
100
AcDbEntity
  8
0
  6
CONTINUOUS
 62
     7
100
AcDbLine
 10
-3.6389120808
 20
9.8949188575
 30
0.0
 11
-3.5889120808
 21
9.8949188575
 31
0.0
  0
LINE
  5
C6
330
1F
100
AcDbEntity
  8
0
  6
CONTINUOUS
 62
     7
100
AcDbLine
 10
-3.4405189025
 20
9.8949188575
 30
0.0
 11
-3.3905189025
 21
9.8949188575
 31
0.0
  0
LINE
  5
C7
330
1F
100
AcDbEntity
  8
0
  6
CONTINUOUS
 62
     7
100
AcDbLine
 10
-3.2640562351
 20
9.8949188575
 30
0.0
 11
-3.2105843245
 21
9.8949188575
 31
0.0
  0
LINE
  5
C8
330
1F
100
AcDbEntity
  8
0
  6
CONTINUOUS
 62
     7
100
AcDbLine
 10
-3.2105843245
 20
10.0159498808
 30
0.0
 11
-3.2746697849
 21
10.0159498808
 31
0.0
  0
LINE
  5
C9
330
1F
100
AcDbEntity
  8
0
  6
CONTINUOUS
 62
     7
100
AcDbLine
 10
-1.1413329306
 20
10.6343923915
 30
0.0
 11
-5.8913329306
 21
10.6343923915
 31
0.0
  0
LINE
  5
CA
330
1F
100
AcDbEntity
  8
0
  6
CONTINUOUS
 62
     7
100
AcDbLine
 10
-1.1413329306
 20
8.3843923915
 30
0.0
 11
-1.1413329306
 21
10.6343923915
 31
0.0
  0
LINE
  5
CB
330
1F
100
AcDbEntity
  8
0
  6
CONTINUOUS
 62
     7
100
AcDbLine
 10
-5.8913329306
 20
8.3843923915
 30
0.0
 11
-1.1413329306
 21
8.3843923915
 31
0.0
  0
LINE
  5
CC
330
1F
100
AcDbEntity
  8
0
  6
CONTINUOUS
 62
     7
100
AcDbLine
 10
-5.8913329306
 20
10.6343923915
 30
0.0
 11
-5.8913329306
 21
8.3843923915
 31
0.0
  0
ARC
  5
CD
330
1F
100
AcDbEntity
  8
0
  6
CONTINUOUS
 62
     7
100
AcDbCircle
 10
-2.1189869327
 20
8.9498422721
 30
0.0
 40
0.0436224072778915
100
AcDbArc
 50
162.449518971
 51
342.4495189711
  0
ARC
  5
CE
330
1F
100
AcDbEntity
  8
0
  6
CONTINUOUS
 62
     7
100
AcDbCircle
 10
-2.1344282614
 20
10.2650604361
 30
0.0
 40
0.0436224072778842
100
AcDbArc
 50
36.617662808
 51
216.617662808
  0
ARC
  5
CF
330
1F
100
AcDbEntity
  8
0
  6
CONTINUOUS
 62
     7
100
AcDbCircle
 10
-3.3490166304
 20
10.3637453426
 30
0.0
 40
0.0200000000000061
100
AcDbArc
 50
323.2873360646
 51
98.0909516947
  0
ARC
  5
D0
330
1F
100
AcDbEntity
  8
0
  6
CONTINUOUS
 62
     7
100
AcDbCircle
 10
-3.5144288939
 20
10.5089067942
 30
0.0
 40
0.0200000000000026
100
AcDbArc
 50
27.8547822178
 51
149.7884213702
  0
ARC
  5
D1
330
1F
100
AcDbEntity
  8
0
  6
CONTINUOUS
 62
     7
100
AcDbCircle
 10
-3.6818244409
 20
10.3636654551
 30
0.0
 40
0.020000000000001
100
AcDbArc
 50
81.7751906235
 51
218.9794903993
  0
ARC
  5
D2
330
1F
100
AcDbEntity
  8
0
  6
CONTINUOUS
 62
     7
100
AcDbCircle
 10
-3.9891676121
 20
9.9356020164
 30
0.0
 40
0.0200000000000049
100
AcDbArc
 50
271.707197518
 51
26.253712122
  0
ARC
  5
D3
330
1F
100
AcDbEntity
  8
0
  6
CONTINUOUS
 62
     7
100
AcDbCircle
 10
-4.3247302571
 20
9.92107144
 30
0.0
 40
0.0199999999999957
100
AcDbArc
 50
343.185217215
 51
107.3121136746
  0
ARC
  5
D4
330
1F
100
AcDbEntity
  8
0
  6
CONTINUOUS
 62
     7
100
AcDbCircle
 10
-3.5163329306
 20
8.4343923915
 30
0.0
 40
0.020000000000001
100
AcDbArc
 50
204.6312581241
 51
335.2918665172
  0
ARC
  5
D5
330
1F
100
AcDbEntity
  8
0
  6
CONTINUOUS
 62
     7
100
AcDbCircle
 10
-2.7047178544
 20
9.9210724785
 30
0.0
 40
0.0199999999999969
100
AcDbArc
 50
72.689413189
 51
196.8152518421
  0
ARC
  5
D6
330
1F
100
AcDbEntity
  8
0
  6
CONTINUOUS
 62
     7
100
AcDbCircle
 10
-3.0402790059
 20
9.9356020639
 30
0.0
 40
0.020000000000001
100
AcDbArc
 50
153.7452051151
 51
268.2930391007
  0
ARC
  5
D7
330
1F
100
AcDbEntity
  8
0
  6
CONTINUOUS
 62
     7
100
AcDbCircle
 10
-4.8986595781
 20
8.9111409286
 30
0.0
 40
0.0436224072778918
100
AcDbArc
 50
197.550481029
 51
17.550481029
  0
ARC
  5
D8
330
1F
100
AcDbEntity
  8
0
  6
CONTINUOUS
 62
     7
100
AcDbCircle
 10
-4.8954582346
 20
10.2650604361
 30
0.0
 40
0.0436224072778926
100
AcDbArc
 50
323.382294671
 51
143.382294671
  0
ARC
  5
D9
330
1F
100
AcDbEntity
  8
0
  6
CONTINUOUS
 62
     7
100
AcDbCircle
 10
-5.4144958625
 20
8.7077416768
 30
0.0
 40
0.0436224072778879
100
AcDbArc
 50
197.5504866966
 51
17.550486701
  0
ARC
  5
DA
330
1F
100
AcDbEntity
  8
0
  6
CONTINUOUS
 62
     7
100
AcDbCircle
 10
-5.4084498921
 20
10.4684595069
 30
0.0
 40
0.0436224072778949
100
AcDbArc
 50
323.3823886366
 51
143.3823886366
  0
ARC
  5
DB
330
1F
100
AcDbEntity
  8
0
  6
CONTINUOUS
 62
     7
100
AcDbCircle
 10
-1.6031454368
 20
8.7464594852
 30
0.0
 40
0.0436224072778917
100
AcDbArc
 50
162.4495133034
 51
342.449513299
  0
ARC
  5
DC
330
1F
100
AcDbEntity
  8
0
  6
CONTINUOUS
 62
     7
100
AcDbCircle
 10
-1.6214366039
 20
10.4684595069
 30
0.0
 40
0.0436224072778962
100
AcDbArc
 50
36.6176113634
 51
216.6176113634
  0
ENDSEC
  0
SECTION
  2
OBJECTS
  0
DICTIONARY
  5
C
330
0
100
AcDbDictionary
  3
ACAD_GROUP
350
D
  3
ACAD_MLINESTYLE
350
17
  3
ACAD_SCALELIST
350
47
1001
ACAD
1000
TREAT_AS_HARD
1070
     0
  0
DICTIONARY
  5
D
102
{ACAD_REACTORS
330
C
102
}
330
C
100
AcDbDictionary
1001
ACAD
1000
TREAT_AS_HARD
1070
     0
  0
DICTIONARY
  5
17
102
{ACAD_REACTORS
330
C
102
}
330
C
100
AcDbDictionary
  3
STANDARD
350
18
1001
ACAD
1000
TREAT_AS_HARD
1070
     0
  0
DICTIONARY
  5
47
102
{ACAD_REACTORS
330
C
102
}
330
C
100
AcDbDictionary
1001
ACAD
1000
TREAT_AS_HARD
1070
     0
  0
MLINESTYLE
  5
18
102
{ACAD_REACTORS
330
17
102
}
330
17
100
AcDbMlineStyle
  2
Standard
 70
     0
  3

 62
   256
 51
90.0
 52
90.0
 71
     2
 49
0.5
 62
   256
  6
BYLAYER
 49
-0.5
 62
   256
  6
BYLAYER
  0
ENDSEC
  0
EOF
