  0
SECTION
  2
HEADER
  9
$ACADVER
  1
AC1014
  9
$HANDSEED
  5
FFFF
  9
$MEASUREMENT
 70
     1
  0
ENDSEC
  0
SECTION
  2
TABLES
  0
TABLE
  2
VPORT
  5
8
330
0
100
AcDbSymbolTable
 70
     4
  0
VPORT
  5
2E
330
8
100
AcDbSymbolTableRecord
100
AcDbViewportTableRecord
  2
*ACTIVE
 70
     0
 10
0.0
 20
0.0
 11
1.0
 21
1.0
 12
210.0
 22
148.5
 13
0.0
 23
0.0
 14
10.0
 24
10.0
 15
10.0
 25
10.0
 16
0.0
 26
0.0
 36
1.0
 17
0.0
 27
0.0
 37
0.0
 40
341.0
 41
1.24
 42
50.0
 43
0.0
 44
0.0
 50
0.0
 51
0.0
 71
     0
 72
   100
 73
     1
 74
     3
 75
     0
 76
     0
 77
     0
 78
     0
  0
ENDTAB
  0
TABLE
  2
LTYPE
  5
5
330
0
100
AcDbSymbolTable
 70
     1
  0
LTYPE
  5
14
330
5
100
AcDbSymbolTableRecord
100
AcDbLinetypeTableRecord
  2
BYBLOCK
 70
     0
  3

 72
    65
 73
     0
 40
0.0
  0
LTYPE
  5
15
330
5
100
AcDbSymbolTableRecord
100
AcDbLinetypeTableRecord
  2
BYLAYER
 70
     0
  3

 72
    65
 73
     0
 40
0.0
  0
LTYPE
  5
16
330
5
100
AcDbSymbolTableRecord
100
AcDbLinetypeTableRecord
  2
CONTINUOUS
 70
     0
  3
Solid line
 72
    65
 73
     0
 40
0.0
  0
ENDTAB
  0
TABLE
  2
LAYER
  5
2
100
AcDbSymbolTable
 70
2
  0
LAYER
  5
50
100
AcDbSymbolTableRecord
100
AcDbLayerTableRecord
  2
0
 70
0
  6
CONTINUOUS
  0
LAYER
  5
51
100
AcDbSymbolTableRecord
100
AcDbLayerTableRecord
  2
Layer_1
 70
0
  6
CONTINUOUS
  0
ENDTAB
  0
TABLE
  2
STYLE
  5
3
330
0
100
AcDbSymbolTable
 70
     1
  0
STYLE
  5
11
330
3
100
AcDbSymbolTableRecord
100
AcDbTextStyleTableRecord
  2
STANDARD
 70
     0
 40
0.0
 41
1.0
 50
0.0
 71
     0
 42
2.5
  3
txt
  4

  0
ENDTAB
  0
TABLE
  2
VIEW
  5
6
330
0
100
AcDbSymbolTable
 70
     0
  0
ENDTAB
  0
TABLE
  2
UCS
  5
7
330
0
100
AcDbSymbolTable
 70
     0
  0
ENDTAB
  0
TABLE
  2
APPID
  5
9
330
0
100
AcDbSymbolTable
 70
     2
  0
APPID
  5
12
330
9
100
AcDbSymbolTableRecord
100
AcDbRegAppTableRecord
  2
ACAD
 70
     0
  0
ENDTAB
  0
TABLE
  2
DIMSTYLE
  5
A
330
0
100
AcDbSymbolTable
 70
     1
  0
DIMSTYLE
105
27
330
A
100
AcDbSymbolTableRecord
100
AcDbDimStyleTableRecord
  2
ISO-25
 70
     0
  3

  4

  5

  6

  7

 40
1.0
 41
2.5
 42
0.625
 43
3.75
 44
1.25
 45
0.0
 46
0.0
 47
0.0
 48
0.0
140
2.5
141
2.5
142
0.0
143
0.03937007874016
144
1.0
145
0.0
146
1.0
147
0.625
 71
     0
 72
     0
 73
     0
 74
     0
 75
     0
 76
     0
 77
     1
 78
     8
170
     0
171
     3
172
     1
173
     0
174
     0
175
     0
176
     0
177
     0
178
     0
270
     2
271
     2
272
     2
273
     2
274
     3
340
11
275
     0
280
     0
281
     0
282
     0
283
     0
284
     8
285
     0
286
     0
287
     3
288
     0
  0
ENDTAB
  0
TABLE
  2
BLOCK_RECORD
  5
1
330
0
100
AcDbSymbolTable
 70
     1
  0
BLOCK_RECORD
  5
1F
330
1
100
AcDbSymbolTableRecord
100
AcDbBlockTableRecord
  2
*MODEL_SPACE
  0
BLOCK_RECORD
  5
1B
330
1
100
AcDbSymbolTableRecord
100
AcDbBlockTableRecord
  2
*PAPER_SPACE
  0
ENDTAB
  0
ENDSEC
  0
SECTION
  2
BLOCKS
  0
BLOCK
  5
20
330
1F
100
AcDbEntity
  8
0
100
AcDbBlockBegin
  2
*MODEL_SPACE
 70
     0
 10
0.0
 20
0.0
 30
0.0
  3
*MODEL_SPACE
  1

  0
ENDBLK
  5
21
330
1F
100
AcDbEntity
  8
0
100
AcDbBlockEnd
  0
BLOCK
  5
1C
330
1B
100
AcDbEntity
 67
     1
  8
0
100
AcDbBlockBegin
  2
*PAPER_SPACE
  1

  0
ENDBLK
  5
1D
330
1B
100
AcDbEntity
 67
     1
  8
0
100
AcDbBlockEnd
  0
ENDSEC
  0
SECTION
  2
ENTITIES
  0
SPLINE
  5
100
100
AcDbEntity
  8
Layer_1
 62
1
100
AcDbSpline
 70
0
 71
3
 72
25
 73
21
 74
19
 40
0.000000
 40
0.000000
 40
0.000000
 40
0.000000
 40
0.032715
 40
0.064963
 40
0.097678
 40
0.130393
 40
0.162641
 40
0.195356
 40
0.228071
 40
0.260318
 40
0.293034
 40
0.325749
 40
0.357996
 40
0.390712
 40
0.423427
 40
0.455674
 40
0.488390
 40
0.521105
 40
0.553352
 40
0.586068
 40
0.586068
 40
0.586068
 40
0.586068
 10
1.534226
 20
5.729570
 30
0.0
 10
1.533106
 20
5.740531
 30
0.0
 10
1.530882
 20
5.762296
 30
0.0
 10
1.513626
 20
5.791058
 30
0.0
 10
1.488359
 20
5.812442
 30
0.0
 10
1.457072
 20
5.823783
 30
0.0
 10
1.423873
 20
5.823783
 30
0.0
 10
1.392629
 20
5.812442
 30
0.0
 10
1.367188
 20
5.791058
 30
0.0
 10
1.350582
 20
5.762296
 30
0.0
 10
1.344784
 20
5.729570
 30
0.0
 10
1.350582
 20
5.696845
 30
0.0
 10
1.367188
 20
5.668083
 30
0.0
 10
1.392629
 20
5.646699
 30
0.0
 10
1.423873
 20
5.635357
 30
0.0
 10
1.457072
 20
5.635357
 30
0.0
 10
1.488359
 20
5.646699
 30
0.0
 10
1.513626
 20
5.668083
 30
0.0
 10
1.530882
 20
5.696845
 30
0.0
 10
1.533106
 20
5.718610
 30
0.0
 10
1.534226
 20
5.729570
 30
0.0
 11
1.534226
 21
5.729570
 31
0.0
 11
1.528519
 21
5.761784
 31
0.0
 11
1.512396
 21
5.789711
 31
0.0
 11
1.487351
 21
5.810760
 31
0.0
 11
1.456600
 21
5.821925
 31
0.0
 11
1.424353
 21
5.821925
 31
0.0
 11
1.393601
 21
5.810760
 31
0.0
 11
1.368557
 21
5.789711
 31
0.0
 11
1.352433
 21
5.761784
 31
0.0
 11
1.346726
 21
5.729570
 31
0.0
 11
1.352433
 21
5.697356
 31
0.0
 11
1.368557
 21
5.669430
 31
0.0
 11
1.393601
 21
5.648380
 31
0.0
 11
1.424353
 21
5.637216
 31
0.0
 11
1.456600
 21
5.637216
 31
0.0
 11
1.487351
 21
5.648380
 31
0.0
 11
1.512396
 21
5.669430
 31
0.0
 11
1.528519
 21
5.697356
 31
0.0
 11
1.534226
 21
5.729570
 31
0.0
  0
LWPOLYLINE
  5
101
100
AcDbEntity
  8
Layer_1
 62
1
100
AcDbPolyline
 90
2
 70
1
 10
1.534226
 20
5.729570
 30
0.0
 10
1.534226
 20
5.729570
 30
0.0
  0
LWPOLYLINE
  5
102
100
AcDbEntity
  8
Layer_1
 62
1
100
AcDbPolyline
 90
2
 70
1
 10
6.784226
 20
5.729570
 30
0.0
 10
6.784226
 20
5.729570
 30
0.0
  0
LWPOLYLINE
  5
103
100
AcDbEntity
  8
Layer_1
 62
1
100
AcDbPolyline
 90
2
 70
0
 10
1.065476
 20
4.715278
 30
0.0
 10
7.065476
 20
4.715278
 30
0.0
  0
LWPOLYLINE
  5
104
100
AcDbEntity
  8
Layer_1
 62
1
100
AcDbPolyline
 90
3
 70
0
 10
1.065476
 20
4.715278
 30
0.0
 10
1.065476
 20
6.715278
 30
0.0
 10
7.065476
 20
6.715278
 30
0.0
  0
SPLINE
  5
105
100
AcDbEntity
  8
Layer_1
 62
1
100
AcDbSpline
 70
0
 71
3
 72
25
 73
21
 74
19
 40
0.000000
 40
0.000000
 40
0.000000
 40
0.000000
 40
0.032715
 40
0.064963
 40
0.097678
 40
0.130393
 40
0.162641
 40
0.195356
 40
0.228071
 40
0.260318
 40
0.293034
 40
0.325749
 40
0.357996
 40
0.390712
 40
0.423427
 40
0.455674
 40
0.488390
 40
0.521105
 40
0.553352
 40
0.586068
 40
0.586068
 40
0.586068
 40
0.586068
 10
6.784226
 20
5.729570
 30
0.0
 10
6.783106
 20
5.740531
 30
0.0
 10
6.780882
 20
5.762296
 30
0.0
 10
6.763626
 20
5.791058
 30
0.0
 10
6.738359
 20
5.812442
 30
0.0
 10
6.707072
 20
5.823783
 30
0.0
 10
6.673873
 20
5.823783
 30
0.0
 10
6.642629
 20
5.812442
 30
0.0
 10
6.617188
 20
5.791058
 30
0.0
 10
6.600582
 20
5.762296
 30
0.0
 10
6.594784
 20
5.729570
 30
0.0
 10
6.600582
 20
5.696845
 30
0.0
 10
6.617188
 20
5.668083
 30
0.0
 10
6.642629
 20
5.646699
 30
0.0
 10
6.673873
 20
5.635357
 30
0.0
 10
6.707072
 20
5.635357
 30
0.0
 10
6.738359
 20
5.646699
 30
0.0
 10
6.763626
 20
5.668083
 30
0.0
 10
6.780882
 20
5.696845
 30
0.0
 10
6.783106
 20
5.718610
 30
0.0
 10
6.784226
 20
5.729570
 30
0.0
 11
6.784226
 21
5.729570
 31
0.0
 11
6.778519
 21
5.761784
 31
0.0
 11
6.762396
 21
5.789711
 31
0.0
 11
6.737351
 21
5.810760
 31
0.0
 11
6.706600
 21
5.821925
 31
0.0
 11
6.674353
 21
5.821925
 31
0.0
 11
6.643601
 21
5.810760
 31
0.0
 11
6.618557
 21
5.789711
 31
0.0
 11
6.602433
 21
5.761784
 31
0.0
 11
6.596726
 21
5.729570
 31
0.0
 11
6.602433
 21
5.697356
 31
0.0
 11
6.618557
 21
5.669430
 31
0.0
 11
6.643601
 21
5.648380
 31
0.0
 11
6.674353
 21
5.637216
 31
0.0
 11
6.706600
 21
5.637216
 31
0.0
 11
6.737351
 21
5.648380
 31
0.0
 11
6.762396
 21
5.669430
 31
0.0
 11
6.778519
 21
5.697356
 31
0.0
 11
6.784226
 21
5.729570
 31
0.0
  0
LWPOLYLINE
  5
106
100
AcDbEntity
  8
Layer_1
 62
1
100
AcDbPolyline
 90
2
 70
0
 10
7.065476
 20
4.715278
 30
0.0
 10
7.065476
 20
6.715278
 30
0.0
  0
SPLINE
  5
107
100
AcDbEntity
  8
Layer_1
 62
1
100
AcDbSpline
 70
0
 71
3
 72
25
 73
21
 74
19
 40
0.000000
 40
0.000000
 40
0.000000
 40
0.000000
 40
0.109051
 40
0.216542
 40
0.325593
 40
0.434644
 40
0.542135
 40
0.651186
 40
0.760238
 40
0.867728
 40
0.976780
 40
1.085831
 40
1.193321
 40
1.302373
 40
1.411424
 40
1.518915
 40
1.627966
 40
1.737017
 40
1.844508
 40
1.953559
 40
1.953559
 40
1.953559
 40
1.953559
 10
3.677976
 20
5.623270
 30
0.0
 10
3.674242
 20
5.659806
 30
0.0
 10
3.666828
 20
5.732355
 30
0.0
 10
3.609308
 20
5.828229
 30
0.0
 10
3.525087
 20
5.899509
 30
0.0
 10
3.420796
 20
5.937314
 30
0.0
 10
3.310132
 20
5.937314
 30
0.0
 10
3.205987
 20
5.899509
 30
0.0
 10
3.121184
 20
5.828229
 30
0.0
 10
3.065830
 20
5.732355
 30
0.0
 10
3.046503
 20
5.623270
 30
0.0
 10
3.065830
 20
5.514186
 30
0.0
 10
3.121184
 20
5.418311
 30
0.0
 10
3.205987
 20
5.347031
 30
0.0
 10
3.310132
 20
5.309227
 30
0.0
 10
3.420796
 20
5.309227
 30
0.0
 10
3.525087
 20
5.347031
 30
0.0
 10
3.609308
 20
5.418311
 30
0.0
 10
3.666828
 20
5.514186
 30
0.0
 10
3.674242
 20
5.586734
 30
0.0
 10
3.677976
 20
5.623270
 30
0.0
 11
3.677976
 21
5.623270
 31
0.0
 11
3.658953
 21
5.730650
 31
0.0
 11
3.605208
 21
5.823739
 31
0.0
 11
3.521726
 21
5.893903
 31
0.0
 11
3.419221
 21
5.931118
 31
0.0
 11
3.311731
 21
5.931118
 31
0.0
 11
3.209226
 21
5.893903
 31
0.0
 11
3.125744
 21
5.823739
 31
0.0
 11
3.071999
 21
5.730650
 31
0.0
 11
3.052976
 21
5.623270
 31
0.0
 11
3.071999
 21
5.515891
 31
0.0
 11
3.125744
 21
5.422801
 31
0.0
 11
3.209226
 21
5.352637
 31
0.0
 11
3.311731
 21
5.315422
 31
0.0
 11
3.419221
 21
5.315422
 31
0.0
 11
3.521726
 21
5.352637
 31
0.0
 11
3.605208
 21
5.422801
 31
0.0
 11
3.658953
 21
5.515891
 31
0.0
 11
3.677976
 21
5.623270
 31
0.0
  0
LWPOLYLINE
  5
108
100
AcDbEntity
  8
Layer_1
 62
1
100
AcDbPolyline
 90
2
 70
1
 10
3.677976
 20
5.623270
 30
0.0
 10
3.677976
 20
5.623270
 30
0.0
  0
SPLINE
  5
109
100
AcDbEntity
  8
Layer_1
 62
1
100
AcDbSpline
 70
0
 71
3
 72
25
 73
21
 74
19
 40
0.000000
 40
0.000000
 40
0.000000
 40
0.000000
 40
0.109051
 40
0.216542
 40
0.325593
 40
0.434644
 40
0.542135
 40
0.651186
 40
0.760238
 40
0.867728
 40
0.976779
 40
1.085831
 40
1.193321
 40
1.302373
 40
1.411424
 40
1.518915
 40
1.627966
 40
1.737017
 40
1.844508
 40
1.953559
 40
1.953559
 40
1.953559
 40
1.953559
 10
4.490476
 20
5.623270
 30
0.0
 10
4.486742
 20
5.659806
 30
0.0
 10
4.479328
 20
5.732355
 30
0.0
 10
4.421808
 20
5.828229
 30
0.0
 10
4.337587
 20
5.899509
 30
0.0
 10
4.233296
 20
5.937314
 30
0.0
 10
4.122632
 20
5.937314
 30
0.0
 10
4.018487
 20
5.899509
 30
0.0
 10
3.933684
 20
5.828229
 30
0.0
 10
3.878330
 20
5.732355
 30
0.0
 10
3.859003
 20
5.623270
 30
0.0
 10
3.878330
 20
5.514186
 30
0.0
 10
3.933684
 20
5.418311
 30
0.0
 10
4.018487
 20
5.347031
 30
0.0
 10
4.122632
 20
5.309227
 30
0.0
 10
4.233296
 20
5.309227
 30
0.0
 10
4.337587
 20
5.347031
 30
0.0
 10
4.421808
 20
5.418311
 30
0.0
 10
4.479328
 20
5.514186
 30
0.0
 10
4.486742
 20
5.586734
 30
0.0
 10
4.490476
 20
5.623270
 30
0.0
 11
4.490476
 21
5.623270
 31
0.0
 11
4.471453
 21
5.730650
 31
0.0
 11
4.417708
 21
5.823739
 31
0.0
 11
4.334226
 21
5.893903
 31
0.0
 11
4.231721
 21
5.931118
 31
0.0
 11
4.124231
 21
5.931118
 31
0.0
 11
4.021726
 21
5.893903
 31
0.0
 11
3.938244
 21
5.823739
 31
0.0
 11
3.884499
 21
5.730650
 31
0.0
 11
3.865476
 21
5.623270
 31
0.0
 11
3.884499
 21
5.515891
 31
0.0
 11
3.938244
 21
5.422801
 31
0.0
 11
4.021726
 21
5.352637
 31
0.0
 11
4.124231
 21
5.315422
 31
0.0
 11
4.231721
 21
5.315422
 31
0.0
 11
4.334226
 21
5.352637
 31
0.0
 11
4.417708
 21
5.422801
 31
0.0
 11
4.471453
 21
5.515891
 31
0.0
 11
4.490476
 21
5.623270
 31
0.0
  0
LWPOLYLINE
  5
10a
100
AcDbEntity
  8
Layer_1
 62
1
100
AcDbPolyline
 90
2
 70
1
 10
4.490476
 20
5.623270
 30
0.0
 10
4.490476
 20
5.623270
 30
0.0
  0
SPLINE
  5
10b
100
AcDbEntity
  8
Layer_1
 62
1
100
AcDbSpline
 70
0
 71
3
 72
25
 73
21
 74
19
 40
0.000000
 40
0.000000
 40
0.000000
 40
0.000000
 40
0.109064
 40
0.216567
 40
0.325632
 40
0.434696
 40
0.542199
 40
0.651264
 40
0.760328
 40
0.867831
 40
0.976896
 40
1.085960
 40
1.193463
 40
1.302527
 40
1.411592
 40
1.519095
 40
1.628159
 40
1.737224
 40
1.844727
 40
1.953791
 40
1.953791
 40
1.953791
 40
1.953791
 10
5.302976
 20
5.623270
 30
0.0
 10
5.299248
 20
5.659811
 30
0.0
 10
5.291846
 20
5.732370
 30
0.0
 10
5.234330
 20
5.828264
 30
0.0
 10
5.150105
 20
5.899559
 30
0.0
 10
5.045803
 20
5.937373
 30
0.0
 10
4.935125
 20
5.937373
 30
0.0
 10
4.830969
 20
5.899559
 30
0.0
 10
4.746162
 20
5.828264
 30
0.0
 10
4.690809
 20
5.732370
 30
0.0
 10
4.671513
 20
5.623270
 30
0.0
 10
4.690809
 20
5.514170
 30
0.0
 10
4.746162
 20
5.418277
 30
0.0
 10
4.830969
 20
5.346981
 30
0.0
 10
4.935125
 20
5.309167
 30
0.0
 10
5.045803
 20
5.309167
 30
0.0
 10
5.150105
 20
5.346981
 30
0.0
 10
5.234330
 20
5.418277
 30
0.0
 10
5.291846
 20
5.514170
 30
0.0
 10
5.299248
 20
5.586729
 30
0.0
 10
5.302976
 20
5.623270
 30
0.0
 11
5.302976
 21
5.623270
 31
0.0
 11
5.283969
 21
5.730666
 31
0.0
 11
5.230229
 21
5.823773
 31
0.0
 11
5.146743
 21
5.893952
 31
0.0
 11
5.044228
 21
5.931176
 31
0.0
 11
4.936725
 21
5.931176
 31
0.0
 11
4.834209
 21
5.893952
 31
0.0
 11
4.750723
 21
5.823773
 31
0.0
 11
4.696984
 21
5.730666
 31
0.0
 11
4.677976
 21
5.623270
 31
0.0
 11
4.696984
 21
5.515875
 31
0.0
 11
4.750723
 21
5.422768
 31
0.0
 11
4.834209
 21
5.352588
 31
0.0
 11
4.936725
 21
5.315364
 31
0.0
 11
5.044228
 21
5.315364
 31
0.0
 11
5.146743
 21
5.352588
 31
0.0
 11
5.230229
 21
5.422768
 31
0.0
 11
5.283969
 21
5.515875
 31
0.0
 11
5.302976
 21
5.623270
 31
0.0
  0
LWPOLYLINE
  5
10c
100
AcDbEntity
  8
Layer_1
 62
1
100
AcDbPolyline
 90
2
 70
1
 10
5.302976
 20
5.623270
 30
0.0
 10
5.302976
 20
5.623270
 30
0.0
  0
SPLINE
  5
10d
100
AcDbEntity
  8
Layer_1
 62
1
100
AcDbSpline
 70
0
 71
3
 72
25
 73
21
 74
19
 40
0.000000
 40
0.000000
 40
0.000000
 40
0.000000
 40
0.109051
 40
0.216542
 40
0.325593
 40
0.434644
 40
0.542135
 40
0.651186
 40
0.760238
 40
0.867728
 40
0.976779
 40
1.085831
 40
1.193321
 40
1.302373
 40
1.411424
 40
1.518915
 40
1.627966
 40
1.737017
 40
1.844508
 40
1.953559
 40
1.953559
 40
1.953559
 40
1.953559
 10
6.115476
 20
5.623270
 30
0.0
 10
6.111742
 20
5.659806
 30
0.0
 10
6.104328
 20
5.732355
 30
0.0
 10
6.046807
 20
5.828229
 30
0.0
 10
5.962587
 20
5.899509
 30
0.0
 10
5.858296
 20
5.937314
 30
0.0
 10
5.747632
 20
5.937314
 30
0.0
 10
5.643487
 20
5.899509
 30
0.0
 10
5.558684
 20
5.828229
 30
0.0
 10
5.503330
 20
5.732355
 30
0.0
 10
5.484003
 20
5.623270
 30
0.0
 10
5.503330
 20
5.514186
 30
0.0
 10
5.558684
 20
5.418311
 30
0.0
 10
5.643487
 20
5.347031
 30
0.0
 10
5.747632
 20
5.309227
 30
0.0
 10
5.858296
 20
5.309227
 30
0.0
 10
5.962587
 20
5.347031
 30
0.0
 10
6.046807
 20
5.418311
 30
0.0
 10
6.104328
 20
5.514186
 30
0.0
 10
6.111742
 20
5.586734
 30
0.0
 10
6.115476
 20
5.623270
 30
0.0
 11
6.115476
 21
5.623270
 31
0.0
 11
6.096453
 21
5.730650
 31
0.0
 11
6.042708
 21
5.823739
 31
0.0
 11
5.959226
 21
5.893903
 31
0.0
 11
5.856721
 21
5.931118
 31
0.0
 11
5.749231
 21
5.931118
 31
0.0
 11
5.646726
 21
5.893903
 31
0.0
 11
5.563244
 21
5.823739
 31
0.0
 11
5.509499
 21
5.730650
 31
0.0
 11
5.490476
 21
5.623270
 31
0.0
 11
5.509499
 21
5.515891
 31
0.0
 11
5.563244
 21
5.422801
 31
0.0
 11
5.646726
 21
5.352637
 31
0.0
 11
5.749231
 21
5.315422
 31
0.0
 11
5.856721
 21
5.315422
 31
0.0
 11
5.959226
 21
5.352637
 31
0.0
 11
6.042708
 21
5.422801
 31
0.0
 11
6.096453
 21
5.515891
 31
0.0
 11
6.115476
 21
5.623270
 31
0.0
  0
LWPOLYLINE
  5
10e
100
AcDbEntity
  8
Layer_1
 62
1
100
AcDbPolyline
 90
2
 70
1
 10
6.115476
 20
5.623270
 30
0.0
 10
6.115476
 20
5.623270
 30
0.0
  0
SPLINE
  5
10f
100
AcDbEntity
  8
Layer_1
 62
1
100
AcDbSpline
 70
0
 71
3
 72
25
 73
21
 74
19
 40
0.000000
 40
0.000000
 40
0.000000
 40
0.000000
 40
0.054526
 40
0.108271
 40
0.162797
 40
0.217322
 40
0.271068
 40
0.325593
 40
0.380119
 40
0.433864
 40
0.488390
 40
0.542915
 40
0.596661
 40
0.651186
 40
0.705712
 40
0.759457
 40
0.813983
 40
0.868509
 40
0.922254
 40
0.976779
 40
0.976779
 40
0.976779
 40
0.976779
 10
2.271726
 20
5.479570
 30
0.0
 10
2.269859
 20
5.497838
 30
0.0
 10
2.266152
 20
5.534113
 30
0.0
 10
2.237392
 20
5.582050
 30
0.0
 10
2.195282
 20
5.617690
 30
0.0
 10
2.143136
 20
5.636592
 30
0.0
 10
2.087804
 20
5.636592
 30
0.0
 10
2.035732
 20
5.617690
 30
0.0
 10
1.993330
 20
5.582050
 30
0.0
 10
1.965653
 20
5.534113
 30
0.0
 10
1.955990
 20
5.479570
 30
0.0
 10
1.965653
 20
5.425028
 30
0.0
 10
1.993330
 20
5.377091
 30
0.0
 10
2.035732
 20
5.341451
 30
0.0
 10
2.087804
 20
5.322549
 30
0.0
 10
2.143136
 20
5.322549
 30
0.0
 10
2.195282
 20
5.341451
 30
0.0
 10
2.237392
 20
5.377091
 30
0.0
 10
2.266152
 20
5.425028
 30
0.0
 10
2.269859
 20
5.461302
 30
0.0
 10
2.271726
 20
5.479570
 30
0.0
 11
2.271726
 21
5.479570
 31
0.0
 11
2.262215
 21
5.533260
 31
0.0
 11
2.235342
 21
5.579805
 31
0.0
 11
2.193601
 21
5.614887
 31
0.0
 11
2.142349
 21
5.633494
 31
0.0
 11
2.088603
 21
5.633494
 31
0.0
 11
2.037351
 21
5.614887
 31
0.0
 11
1.995610
 21
5.579805
 31
0.0
 11
1.968738
 21
5.533260
 31
0.0
 11
1.959226
 21
5.479570
 31
0.0
 11
1.968738
 21
5.425881
 31
0.0
 11
1.995610
 21
5.379336
 31
0.0
 11
2.037351
 21
5.344254
 31
0.0
 11
2.088603
 21
5.325646
 31
0.0
 11
2.142349
 21
5.325646
 31
0.0
 11
2.193601
 21
5.344254
 31
0.0
 11
2.235342
 21
5.379336
 31
0.0
 11
2.262215
 21
5.425881
 31
0.0
 11
2.271726
 21
5.479570
 31
0.0
  0
LWPOLYLINE
  5
110
100
AcDbEntity
  8
Layer_1
 62
1
100
AcDbPolyline
 90
2
 70
1
 10
2.271726
 20
5.479570
 30
0.0
 10
2.271726
 20
5.479570
 30
0.0
  0
SPLINE
  5
111
100
AcDbEntity
  8
Layer_1
 62
1
100
AcDbSpline
 70
0
 71
3
 72
25
 73
21
 74
19
 40
0.000000
 40
0.000000
 40
0.000000
 40
0.000000
 40
0.012214
 40
0.024253
 40
0.036466
 40
0.048680
 40
0.060719
 40
0.072933
 40
0.085147
 40
0.097186
 40
0.109399
 40
0.121613
 40
0.133652
 40
0.145866
 40
0.158079
 40
0.170118
 40
0.182332
 40
0.194546
 40
0.206585
 40
0.218799
 40
0.218799
 40
0.218799
 40
0.218799
 10
3.400476
 20
5.993349
 30
0.0
 10
3.400058
 20
5.997441
 30
0.0
 10
3.399228
 20
6.005567
 30
0.0
 10
3.392785
 20
6.016305
 30
0.0
 10
3.383353
 20
6.024288
 30
0.0
 10
3.371672
 20
6.028522
 30
0.0
 10
3.359278
 20
6.028522
 30
0.0
 10
3.347613
 20
6.024288
 30
0.0
 10
3.338115
 20
6.016305
 30
0.0
 10
3.331916
 20
6.005567
 30
0.0
 10
3.329751
 20
5.993349
 30
0.0
 10
3.331916
 20
5.981132
 30
0.0
 10
3.338115
 20
5.970394
 30
0.0
 10
3.347613
 20
5.962410
 30
0.0
 10
3.359278
 20
5.958176
 30
0.0
 10
3.371672
 20
5.958176
 30
0.0
 10
3.383353
 20
5.962410
 30
0.0
 10
3.392785
 20
5.970394
 30
0.0
 10
3.399228
 20
5.981132
 30
0.0
 10
3.400058
 20
5.989257
 30
0.0
 10
3.400476
 20
5.993349
 30
0.0
 11
3.400476
 21
5.993349
 31
0.0
 11
3.398346
 21
6.005376
 31
0.0
 11
3.392326
 21
6.015802
 31
0.0
 11
3.382976
 21
6.023660
 31
0.0
 11
3.371496
 21
6.027828
 31
0.0
 11
3.359457
 21
6.027828
 31
0.0
 11
3.347976
 21
6.023660
 31
0.0
 11
3.338626
 21
6.015802
 31
0.0
 11
3.332607
 21
6.005376
 31
0.0
 11
3.330476
 21
5.993349
 31
0.0
 11
3.332607
 21
5.981323
 31
0.0
 11
3.338626
 21
5.970897
 31
0.0
 11
3.347976
 21
5.963038
 31
0.0
 11
3.359457
 21
5.958870
 31
0.0
 11
3.371496
 21
5.958870
 31
0.0
 11
3.382976
 21
5.963038
 31
0.0
 11
3.392326
 21
5.970897
 31
0.0
 11
3.398346
 21
5.981323
 31
0.0
 11
3.400476
 21
5.993349
 31
0.0
  0
LWPOLYLINE
  5
112
100
AcDbEntity
  8
Layer_1
 62
1
100
AcDbPolyline
 90
2
 70
1
 10
3.400476
 20
5.993349
 30
0.0
 10
3.400476
 20
5.993349
 30
0.0
  0
SPLINE
  5
113
100
AcDbEntity
  8
Layer_1
 62
1
100
AcDbSpline
 70
0
 71
3
 72
25
 73
21
 74
19
 40
0.000000
 40
0.000000
 40
0.000000
 40
0.000000
 40
0.012214
 40
0.024253
 40
0.036466
 40
0.048680
 40
0.060719
 40
0.072933
 40
0.085147
 40
0.097186
 40
0.109399
 40
0.121613
 40
0.133652
 40
0.145866
 40
0.158079
 40
0.170118
 40
0.182332
 40
0.194546
 40
0.206585
 40
0.218799
 40
0.218799
 40
0.218799
 40
0.218799
 10
4.212878
 20
5.993349
 30
0.0
 10
4.212460
 20
5.997441
 30
0.0
 10
4.211629
 20
6.005567
 30
0.0
 10
4.205187
 20
6.016305
 30
0.0
 10
4.195754
 20
6.024288
 30
0.0
 10
4.184074
 20
6.028522
 30
0.0
 10
4.171679
 20
6.028522
 30
0.0
 10
4.160015
 20
6.024288
 30
0.0
 10
4.150517
 20
6.016305
 30
0.0
 10
4.144317
 20
6.005567
 30
0.0
 10
4.142153
 20
5.993349
 30
0.0
 10
4.144317
 20
5.981132
 30
0.0
 10
4.150517
 20
5.970394
 30
0.0
 10
4.160015
 20
5.962410
 30
0.0
 10
4.171679
 20
5.958176
 30
0.0
 10
4.184074
 20
5.958176
 30
0.0
 10
4.195754
 20
5.962410
 30
0.0
 10
4.205187
 20
5.970394
 30
0.0
 10
4.211629
 20
5.981132
 30
0.0
 10
4.212460
 20
5.989257
 30
0.0
 10
4.212878
 20
5.993349
 30
0.0
 11
4.212878
 21
5.993349
 31
0.0
 11
4.210747
 21
6.005376
 31
0.0
 11
4.204728
 21
6.015802
 31
0.0
 11
4.195378
 21
6.023660
 31
0.0
 11
4.183897
 21
6.027828
 31
0.0
 11
4.171858
 21
6.027828
 31
0.0
 11
4.160378
 21
6.023660
 31
0.0
 11
4.151028
 21
6.015802
 31
0.0
 11
4.145008
 21
6.005376
 31
0.0
 11
4.142878
 21
5.993349
 31
0.0
 11
4.145008
 21
5.981323
 31
0.0
 11
4.151028
 21
5.970897
 31
0.0
 11
4.160378
 21
5.963038
 31
0.0
 11
4.171858
 21
5.958870
 31
0.0
 11
4.183897
 21
5.958870
 31
0.0
 11
4.195378
 21
5.963038
 31
0.0
 11
4.204728
 21
5.970897
 31
0.0
 11
4.210747
 21
5.981323
 31
0.0
 11
4.212878
 21
5.993349
 31
0.0
  0
LWPOLYLINE
  5
114
100
AcDbEntity
  8
Layer_1
 62
1
100
AcDbPolyline
 90
2
 70
1
 10
4.212878
 20
5.993349
 30
0.0
 10
4.212878
 20
5.993349
 30
0.0
  0
SPLINE
  5
115
100
AcDbEntity
  8
Layer_1
 62
1
100
AcDbSpline
 70
0
 71
3
 72
25
 73
21
 74
19
 40
0.000000
 40
0.000000
 40
0.000000
 40
0.000000
 40
0.012214
 40
0.024253
 40
0.036466
 40
0.048680
 40
0.060719
 40
0.072933
 40
0.085147
 40
0.097186
 40
0.109399
 40
0.121613
 40
0.133652
 40
0.145866
 40
0.158079
 40
0.170118
 40
0.182332
 40
0.194546
 40
0.206585
 40
0.218799
 40
0.218799
 40
0.218799
 40
0.218799
 10
5.025279
 20
5.993349
 30
0.0
 10
5.024861
 20
5.997441
 30
0.0
 10
5.024031
 20
6.005567
 30
0.0
 10
5.017588
 20
6.016305
 30
0.0
 10
5.008156
 20
6.024288
 30
0.0
 10
4.996475
 20
6.028522
 30
0.0
 10
4.984081
 20
6.028522
 30
0.0
 10
4.972416
 20
6.024288
 30
0.0
 10
4.962919
 20
6.016305
 30
0.0
 10
4.956719
 20
6.005567
 30
0.0
 10
4.954554
 20
5.993349
 30
0.0
 10
4.956719
 20
5.981132
 30
0.0
 10
4.962919
 20
5.970394
 30
0.0
 10
4.972416
 20
5.962410
 30
0.0
 10
4.984081
 20
5.958176
 30
0.0
 10
4.996475
 20
5.958176
 30
0.0
 10
5.008156
 20
5.962410
 30
0.0
 10
5.017588
 20
5.970394
 30
0.0
 10
5.024031
 20
5.981132
 30
0.0
 10
5.024861
 20
5.989257
 30
0.0
 10
5.025279
 20
5.993349
 30
0.0
 11
5.025279
 21
5.993349
 31
0.0
 11
5.023149
 21
6.005376
 31
0.0
 11
5.017129
 21
6.015802
 31
0.0
 11
5.007779
 21
6.023660
 31
0.0
 11
4.996299
 21
6.027828
 31
0.0
 11
4.984260
 21
6.027828
 31
0.0
 11
4.972779
 21
6.023660
 31
0.0
 11
4.963429
 21
6.015802
 31
0.0
 11
4.957410
 21
6.005376
 31
0.0
 11
4.955279
 21
5.993349
 31
0.0
 11
4.957410
 21
5.981323
 31
0.0
 11
4.963429
 21
5.970897
 31
0.0
 11
4.972779
 21
5.963038
 31
0.0
 11
4.984260
 21
5.958870
 31
0.0
 11
4.996299
 21
5.958870
 31
0.0
 11
5.007779
 21
5.963038
 31
0.0
 11
5.017129
 21
5.970897
 31
0.0
 11
5.023149
 21
5.981323
 31
0.0
 11
5.025279
 21
5.993349
 31
0.0
  0
LWPOLYLINE
  5
116
100
AcDbEntity
  8
Layer_1
 62
1
100
AcDbPolyline
 90
2
 70
1
 10
5.025279
 20
5.993349
 30
0.0
 10
5.025279
 20
5.993349
 30
0.0
  0
SPLINE
  5
117
100
AcDbEntity
  8
Layer_1
 62
1
100
AcDbSpline
 70
0
 71
3
 72
25
 73
21
 74
19
 40
0.000000
 40
0.000000
 40
0.000000
 40
0.000000
 40
0.012214
 40
0.024253
 40
0.036466
 40
0.048680
 40
0.060719
 40
0.072933
 40
0.085147
 40
0.097186
 40
0.109399
 40
0.121613
 40
0.133652
 40
0.145866
 40
0.158079
 40
0.170118
 40
0.182332
 40
0.194546
 40
0.206585
 40
0.218799
 40
0.218799
 40
0.218799
 40
0.218799
 10
3.065830
 20
5.463821
 30
0.0
 10
3.065412
 20
5.467913
 30
0.0
 10
3.064582
 20
5.476039
 30
0.0
 10
3.058140
 20
5.486777
 30
0.0
 10
3.048707
 20
5.494760
 30
0.0
 10
3.037026
 20
5.498994
 30
0.0
 10
3.024632
 20
5.498994
 30
0.0
 10
3.012968
 20
5.494760
 30
0.0
 10
3.003470
 20
5.486777
 30
0.0
 10
2.997270
 20
5.476039
 30
0.0
 10
2.995105
 20
5.463821
 30
0.0
 10
2.997270
 20
5.451604
 30
0.0
 10
3.003470
 20
5.440866
 30
0.0
 10
3.012968
 20
5.432883
 30
0.0
 10
3.024632
 20
5.428649
 30
0.0
 10
3.037026
 20
5.428649
 30
0.0
 10
3.048707
 20
5.432883
 30
0.0
 10
3.058140
 20
5.440866
 30
0.0
 10
3.064582
 20
5.451604
 30
0.0
 10
3.065412
 20
5.459729
 30
0.0
 10
3.065830
 20
5.463821
 30
0.0
 11
3.065830
 21
5.463821
 31
0.0
 11
3.063700
 21
5.475848
 31
0.0
 11
3.057680
 21
5.486274
 31
0.0
 11
3.048330
 21
5.494132
 31
0.0
 11
3.036850
 21
5.498300
 31
0.0
 11
3.024811
 21
5.498300
 31
0.0
 11
3.013330
 21
5.494132
 31
0.0
 11
3.003981
 21
5.486274
 31
0.0
 11
2.997961
 21
5.475848
 31
0.0
 11
2.995830
 21
5.463821
 31
0.0
 11
2.997961
 21
5.451795
 31
0.0
 11
3.003981
 21
5.441369
 31
0.0
 11
3.013330
 21
5.433510
 31
0.0
 11
3.024811
 21
5.429342
 31
0.0
 11
3.036850
 21
5.429342
 31
0.0
 11
3.048330
 21
5.433510
 31
0.0
 11
3.057680
 21
5.441369
 31
0.0
 11
3.063700
 21
5.451795
 31
0.0
 11
3.065830
 21
5.463821
 31
0.0
  0
LWPOLYLINE
  5
118
100
AcDbEntity
  8
Layer_1
 62
1
100
AcDbPolyline
 90
2
 70
1
 10
3.065830
 20
5.463821
 30
0.0
 10
3.065830
 20
5.463821
 30
0.0
  0
SPLINE
  5
119
100
AcDbEntity
  8
Layer_1
 62
1
100
AcDbSpline
 70
0
 71
3
 72
25
 73
21
 74
19
 40
0.000000
 40
0.000000
 40
0.000000
 40
0.000000
 40
0.012214
 40
0.024253
 40
0.036466
 40
0.048680
 40
0.060719
 40
0.072933
 40
0.085147
 40
0.097186
 40
0.109399
 40
0.121613
 40
0.133652
 40
0.145866
 40
0.158079
 40
0.170118
 40
0.182332
 40
0.194546
 40
0.206585
 40
0.218799
 40
0.218799
 40
0.218799
 40
0.218799
 10
3.878232
 20
5.463821
 30
0.0
 10
3.877814
 20
5.467913
 30
0.0
 10
3.876983
 20
5.476039
 30
0.0
 10
3.870541
 20
5.486777
 30
0.0
 10
3.861108
 20
5.494760
 30
0.0
 10
3.849428
 20
5.498994
 30
0.0
 10
3.837033
 20
5.498994
 30
0.0
 10
3.825369
 20
5.494760
 30
0.0
 10
3.815871
 20
5.486777
 30
0.0
 10
3.809672
 20
5.476039
 30
0.0
 10
3.807507
 20
5.463821
 30
0.0
 10
3.809672
 20
5.451604
 30
0.0
 10
3.815871
 20
5.440866
 30
0.0
 10
3.825369
 20
5.432883
 30
0.0
 10
3.837033
 20
5.428649
 30
0.0
 10
3.849428
 20
5.428649
 30
0.0
 10
3.861108
 20
5.432883
 30
0.0
 10
3.870541
 20
5.440866
 30
0.0
 10
3.876983
 20
5.451604
 30
0.0
 10
3.877814
 20
5.459729
 30
0.0
 10
3.878232
 20
5.463821
 30
0.0
 11
3.878232
 21
5.463821
 31
0.0
 11
3.876101
 21
5.475848
 31
0.0
 11
3.870082
 21
5.486274
 31
0.0
 11
3.860732
 21
5.494132
 31
0.0
 11
3.849251
 21
5.498300
 31
0.0
 11
3.837213
 21
5.498300
 31
0.0
 11
3.825732
 21
5.494132
 31
0.0
 11
3.816382
 21
5.486274
 31
0.0
 11
3.810363
 21
5.475848
 31
0.0
 11
3.808232
 21
5.463821
 31
0.0
 11
3.810363
 21
5.451795
 31
0.0
 11
3.816382
 21
5.441369
 31
0.0
 11
3.825732
 21
5.433510
 31
0.0
 11
3.837213
 21
5.429342
 31
0.0
 11
3.849251
 21
5.429342
 31
0.0
 11
3.860732
 21
5.433510
 31
0.0
 11
3.870082
 21
5.441369
 31
0.0
 11
3.876101
 21
5.451795
 31
0.0
 11
3.878232
 21
5.463821
 31
0.0
  0
LWPOLYLINE
  5
11a
100
AcDbEntity
  8
Layer_1
 62
1
100
AcDbPolyline
 90
2
 70
1
 10
3.878232
 20
5.463821
 30
0.0
 10
3.878232
 20
5.463821
 30
0.0
  0
SPLINE
  5
11b
100
AcDbEntity
  8
Layer_1
 62
1
100
AcDbSpline
 70
0
 71
3
 72
25
 73
21
 74
19
 40
0.000000
 40
0.000000
 40
0.000000
 40
0.000000
 40
0.012214
 40
0.024253
 40
0.036466
 40
0.048680
 40
0.060719
 40
0.072933
 40
0.085147
 40
0.097186
 40
0.109399
 40
0.121613
 40
0.133652
 40
0.145866
 40
0.158079
 40
0.170118
 40
0.182332
 40
0.194546
 40
0.206585
 40
0.218799
 40
0.218799
 40
0.218799
 40
0.218799
 10
5.359925
 20
5.463821
 30
0.0
 10
5.359507
 20
5.467913
 30
0.0
 10
5.358676
 20
5.476039
 30
0.0
 10
5.352234
 20
5.486777
 30
0.0
 10
5.342801
 20
5.494760
 30
0.0
 10
5.331121
 20
5.498994
 30
0.0
 10
5.318726
 20
5.498994
 30
0.0
 10
5.307062
 20
5.494760
 30
0.0
 10
5.297564
 20
5.486777
 30
0.0
 10
5.291364
 20
5.476039
 30
0.0
 10
5.289200
 20
5.463821
 30
0.0
 10
5.291364
 20
5.451604
 30
0.0
 10
5.297564
 20
5.440866
 30
0.0
 10
5.307062
 20
5.432883
 30
0.0
 10
5.318726
 20
5.428649
 30
0.0
 10
5.331121
 20
5.428649
 30
0.0
 10
5.342801
 20
5.432883
 30
0.0
 10
5.352234
 20
5.440866
 30
0.0
 10
5.358676
 20
5.451604
 30
0.0
 10
5.359507
 20
5.459729
 30
0.0
 10
5.359925
 20
5.463821
 30
0.0
 11
5.359925
 21
5.463821
 31
0.0
 11
5.357794
 21
5.475848
 31
0.0
 11
5.351775
 21
5.486274
 31
0.0
 11
5.342425
 21
5.494132
 31
0.0
 11
5.330944
 21
5.498300
 31
0.0
 11
5.318905
 21
5.498300
 31
0.0
 11
5.307425
 21
5.494132
 31
0.0
 11
5.298075
 21
5.486274
 31
0.0
 11
5.292055
 21
5.475848
 31
0.0
 11
5.289925
 21
5.463821
 31
0.0
 11
5.292055
 21
5.451795
 31
0.0
 11
5.298075
 21
5.441369
 31
0.0
 11
5.307425
 21
5.433510
 31
0.0
 11
5.318905
 21
5.429342
 31
0.0
 11
5.330944
 21
5.429342
 31
0.0
 11
5.342425
 21
5.433510
 31
0.0
 11
5.351775
 21
5.441369
 31
0.0
 11
5.357794
 21
5.451795
 31
0.0
 11
5.359925
 21
5.463821
 31
0.0
  0
LWPOLYLINE
  5
11c
100
AcDbEntity
  8
Layer_1
 62
1
100
AcDbPolyline
 90
2
 70
1
 10
5.359925
 20
5.463821
 30
0.0
 10
5.359925
 20
5.463821
 30
0.0
  0
SPLINE
  5
11d
100
AcDbEntity
  8
Layer_1
 62
1
100
AcDbSpline
 70
0
 71
3
 72
25
 73
21
 74
19
 40
0.000000
 40
0.000000
 40
0.000000
 40
0.000000
 40
0.012214
 40
0.024253
 40
0.036466
 40
0.048680
 40
0.060719
 40
0.072933
 40
0.085147
 40
0.097186
 40
0.109399
 40
0.121613
 40
0.133652
 40
0.145866
 40
0.158079
 40
0.170118
 40
0.182332
 40
0.194546
 40
0.206585
 40
0.218799
 40
0.218799
 40
0.218799
 40
0.218799
 10
5.837681
 20
5.993349
 30
0.0
 10
5.837263
 20
5.997441
 30
0.0
 10
5.836432
 20
6.005567
 30
0.0
 10
5.829990
 20
6.016305
 30
0.0
 10
5.820557
 20
6.024288
 30
0.0
 10
5.808877
 20
6.028522
 30
0.0
 10
5.796482
 20
6.028522
 30
0.0
 10
5.784818
 20
6.024288
 30
0.0
 10
5.775320
 20
6.016305
 30
0.0
 10
5.769120
 20
6.005567
 30
0.0
 10
5.766956
 20
5.993349
 30
0.0
 10
5.769120
 20
5.981132
 30
0.0
 10
5.775320
 20
5.970394
 30
0.0
 10
5.784818
 20
5.962410
 30
0.0
 10
5.796482
 20
5.958176
 30
0.0
 10
5.808877
 20
5.958176
 30
0.0
 10
5.820557
 20
5.962410
 30
0.0
 10
5.829990
 20
5.970394
 30
0.0
 10
5.836432
 20
5.981132
 30
0.0
 10
5.837263
 20
5.989257
 30
0.0
 10
5.837681
 20
5.993349
 30
0.0
 11
5.837681
 21
5.993349
 31
0.0
 11
5.835550
 21
6.005376
 31
0.0
 11
5.829531
 21
6.015802
 31
0.0
 11
5.820181
 21
6.023660
 31
0.0
 11
5.808700
 21
6.027828
 31
0.0
 11
5.796661
 21
6.027828
 31
0.0
 11
5.785181
 21
6.023660
 31
0.0
 11
5.775831
 21
6.015802
 31
0.0
 11
5.769811
 21
6.005376
 31
0.0
 11
5.767681
 21
5.993349
 31
0.0
 11
5.769811
 21
5.981323
 31
0.0
 11
5.775831
 21
5.970897
 31
0.0
 11
5.785181
 21
5.963038
 31
0.0
 11
5.796661
 21
5.958870
 31
0.0
 11
5.808700
 21
5.958870
 31
0.0
 11
5.820181
 21
5.963038
 31
0.0
 11
5.829531
 21
5.970897
 31
0.0
 11
5.835550
 21
5.981323
 31
0.0
 11
5.837681
 21
5.993349
 31
0.0
  0
LWPOLYLINE
  5
11e
100
AcDbEntity
  8
Layer_1
 62
1
100
AcDbPolyline
 90
2
 70
1
 10
5.837681
 20
5.993349
 30
0.0
 10
5.837681
 20
5.993349
 30
0.0
  0
LWPOLYLINE
  5
11f
100
AcDbEntity
  8
Layer_1
 62
1
100
AcDbPolyline
 90
2
 70
1
 10
6.172327
 20
5.463821
 30
0.0
 10
6.172327
 20
5.463821
 30
0.0
  0
LWPOLYLINE
  5
120
100
AcDbEntity
  8
Layer_1
 62
1
100
AcDbPolyline
 90
2
 70
0
 10
2.915476
 20
5.229570
 30
0.0
 10
2.415476
 20
5.229570
 30
0.0
  0
LWPOLYLINE
  5
121
100
AcDbEntity
  8
Layer_1
 62
1
100
AcDbPolyline
 90
2
 70
0
 10
2.915476
 20
5.729570
 30
0.0
 10
2.915476
 20
5.229570
 30
0.0
  0
LWPOLYLINE
  5
122
100
AcDbEntity
  8
Layer_1
 62
1
100
AcDbPolyline
 90
2
 70
0
 10
2.415476
 20
5.729570
 30
0.0
 10
2.915476
 20
5.729570
 30
0.0
  0
SPLINE
  5
123
100
AcDbEntity
  8
Layer_1
 62
1
100
AcDbSpline
 70
0
 71
3
 72
25
 73
21
 74
19
 40
0.000000
 40
0.000000
 40
0.000000
 40
0.000000
 40
0.012214
 40
0.024253
 40
0.036466
 40
0.048680
 40
0.060719
 40
0.072933
 40
0.085147
 40
0.097186
 40
0.109399
 40
0.121613
 40
0.133652
 40
0.145866
 40
0.158079
 40
0.170118
 40
0.182332
 40
0.194546
 40
0.206585
 40
0.218799
 40
0.218799
 40
0.218799
 40
0.218799
 10
6.172327
 20
5.463821
 30
0.0
 10
6.171908
 20
5.467913
 30
0.0
 10
6.171078
 20
5.476039
 30
0.0
 10
6.164636
 20
5.486777
 30
0.0
 10
6.155203
 20
5.494760
 30
0.0
 10
6.143522
 20
5.498994
 30
0.0
 10
6.131128
 20
5.498994
 30
0.0
 10
6.119464
 20
5.494760
 30
0.0
 10
6.109966
 20
5.486777
 30
0.0
 10
6.103766
 20
5.476039
 30
0.0
 10
6.101602
 20
5.463821
 30
0.0
 10
6.103766
 20
5.451604
 30
0.0
 10
6.109966
 20
5.440866
 30
0.0
 10
6.119464
 20
5.432883
 30
0.0
 10
6.131128
 20
5.428649
 30
0.0
 10
6.143522
 20
5.428649
 30
0.0
 10
6.155203
 20
5.432883
 30
0.0
 10
6.164636
 20
5.440866
 30
0.0
 10
6.171078
 20
5.451604
 30
0.0
 10
6.171908
 20
5.459729
 30
0.0
 10
6.172327
 20
5.463821
 30
0.0
 11
6.172327
 21
5.463821
 31
0.0
 11
6.170196
 21
5.475848
 31
0.0
 11
6.164176
 21
5.486274
 31
0.0
 11
6.154827
 21
5.494132
 31
0.0
 11
6.143346
 21
5.498300
 31
0.0
 11
6.131307
 21
5.498300
 31
0.0
 11
6.119827
 21
5.494132
 31
0.0
 11
6.110477
 21
5.486274
 31
0.0
 11
6.104457
 21
5.475848
 31
0.0
 11
6.102327
 21
5.463821
 31
0.0
 11
6.104457
 21
5.451795
 31
0.0
 11
6.110477
 21
5.441369
 31
0.0
 11
6.119827
 21
5.433510
 31
0.0
 11
6.131307
 21
5.429342
 31
0.0
 11
6.143346
 21
5.429342
 31
0.0
 11
6.154827
 21
5.433510
 31
0.0
 11
6.164176
 21
5.441369
 31
0.0
 11
6.170196
 21
5.451795
 31
0.0
 11
6.172327
 21
5.463821
 31
0.0
  0
LWPOLYLINE
  5
124
100
AcDbEntity
  8
Layer_1
 62
1
100
AcDbPolyline
 90
2
 70
0
 10
2.415476
 20
5.229570
 30
0.0
 10
2.415476
 20
5.729570
 30
0.0
  0
ENDSEC
  0
SECTION
  2
OBJECTS
  0
DICTIONARY
  5
C
330
0
100
AcDbDictionary
  3
ACAD_GROUP
350
D
  3
ACAD_MLINESTYLE
350
17
  0
DICTIONARY
  5
D
330
C
100
AcDbDictionary
  0
DICTIONARY
  5
1A
330
C
100
AcDbDictionary
  0
DICTIONARY
  5
17
330
C
100
AcDbDictionary
  3
STANDARD
350
18
  0
DICTIONARY
  5
19
330
C
100
AcDbDictionary
  0
ENDSEC
  0
EOF
