<?xml version="1.0" encoding="UTF-8" standalone="no"?>
<!-- Created with Inkscape (http://www.inkscape.org/) -->

<svg
   xmlns:dc="http://purl.org/dc/elements/1.1/"
   xmlns:cc="http://creativecommons.org/ns#"
   xmlns:rdf="http://www.w3.org/1999/02/22-rdf-syntax-ns#"
   xmlns:svg="http://www.w3.org/2000/svg"
   xmlns="http://www.w3.org/2000/svg"
   xmlns:sodipodi="http://sodipodi.sourceforge.net/DTD/sodipodi-0.dtd"
   xmlns:inkscape="http://www.inkscape.org/namespaces/inkscape"
   width="744.09448819"
   height="1052.3622047"
   id="svg2"
   version="1.1"
   inkscape:version="0.48.5 r10040"
   sodipodi:docname="New document 1">
  <defs
     id="defs4">
    <symbol
       id="*PAPER_SPACE0" />
    <symbol
       id="*PAPER_SPACE" />
    <symbol
       id="*MODEL_SPACE" />
    <pattern
       id="Hatch"
       x="0"
       y="0"
       patternUnits="userSpaceOnUse"
       width="8"
       height="8">
      <path
         id="path3099"
         d="M8 4 l-4,4"
         stroke-width="0.25"
         stroke="#000000"
         linecap="square" />
      <path
         id="path3101"
         d="M6 2 l-4,4"
         stroke-width="0.25"
         stroke="#000000"
         linecap="square" />
      <path
         id="path3103"
         d="M4 0 l-4,4"
         stroke-width="0.25"
         stroke="#000000"
         linecap="square" />
    </pattern>
    <marker
       orient="auto"
       id="DistanceX"
       style="overflow:visible"
       refX="0.0"
       refY="0.0">
      <path
         id="path3096"
         d="M 3,-3 L -3,3 M 0,-5 L  0,5"
         style="stroke:#000000; stroke-width:0.5" />
    </marker>
  </defs>
  <sodipodi:namedview
     id="base"
     pagecolor="#ffffff"
     bordercolor="#666666"
     borderopacity="1.0"
     inkscape:pageopacity="0.0"
     inkscape:pageshadow="2"
     inkscape:zoom="0.98994949"
     inkscape:cx="144.50118"
     inkscape:cy="528.47513"
     inkscape:document-units="px"
     inkscape:current-layer="layer1"
     showgrid="false"
     inkscape:window-width="1920"
     inkscape:window-height="1018"
     inkscape:window-x="-8"
     inkscape:window-y="-8"
     inkscape:window-maximized="1" />
  <metadata
     id="metadata7">
    <rdf:RDF>
      <cc:Work
         rdf:about="">
        <dc:format>image/svg+xml</dc:format>
        <dc:type
           rdf:resource="http://purl.org/dc/dcmitype/StillImage" />
        <dc:title></dc:title>
      </cc:Work>
    </rdf:RDF>
  </metadata>
  <g
     inkscape:label="Layer 1"
     inkscape:groupmode="layer"
     id="layer1">
    <g
       id="g3108"
       inkscape:label="0"
       transform="translate(361.87231,-496.85362)">
      <path
         id="path3110"
         d="m -223.79196,1033.5545 a 8.4375,8.4375 0 1 0 -16.875,0 8.4375,8.4375 0 1 0 16.875,0 z"
         style="fill:none;stroke:#ff0000;stroke-linecap:round;stroke-opacity:1;stroke-width:0.09;stroke-miterlimit:4;stroke-dasharray:none"
         inkscape:connector-curvature="0" />
      <path
         id="path3112"
         d="m 248.70804,1033.5545 a 8.4375,8.4375 0 1 0 -16.875,0 8.4375,8.4375 0 1 0 16.875,0 z"
         style="fill:none;stroke:#ff0000;stroke-linecap:round;stroke-opacity:1;stroke-width:0.09;stroke-miterlimit:4;stroke-dasharray:none"
         inkscape:connector-curvature="0" />
      <path
         id="path3114"
         d="m -265.97946,1124.8408 540,0"
         style="fill:none;stroke:#ff0000;stroke-linecap:round;stroke-opacity:1;stroke-width:0.09;stroke-miterlimit:4;stroke-dasharray:none"
         inkscape:connector-curvature="0" />
      <path
         id="path3116"
         d="m -265.97946,1124.8408 0,-180"
         style="fill:none;stroke:#ff0000;stroke-linecap:round;stroke-opacity:1;stroke-width:0.09;stroke-miterlimit:4;stroke-dasharray:none"
         inkscape:connector-curvature="0" />
      <path
         id="path3118"
         d="m -265.97946,944.8408 540,0"
         style="fill:none;stroke:#ff0000;stroke-linecap:round;stroke-opacity:1;stroke-width:0.09;stroke-miterlimit:4;stroke-dasharray:none"
         inkscape:connector-curvature="0" />
      <path
         id="path3120"
         d="m 274.02054,1124.8408 0,-180"
         style="fill:none;stroke:#ff0000;stroke-linecap:round;stroke-opacity:1;stroke-width:0.09;stroke-miterlimit:4;stroke-dasharray:none"
         inkscape:connector-curvature="0" />
      <path
         id="path3122"
         d="m -30.854459,1043.1215 a 28.125,28.125 0 1 0 -56.25,0 28.125,28.125 0 1 0 56.25,0 z"
         style="fill:none;stroke:#ff0000;stroke-linecap:round;stroke-opacity:1;stroke-width:0.09;stroke-miterlimit:4;stroke-dasharray:none"
         inkscape:connector-curvature="0" />
      <path
         id="path3124"
         d="m 42.270541,1043.1215 a 28.125,28.125 0 1 0 -56.25,0 28.125,28.125 0 1 0 56.25,0 z"
         style="fill:none;stroke:#ff0000;stroke-linecap:round;stroke-opacity:1;stroke-width:0.09;stroke-miterlimit:4;stroke-dasharray:none"
         inkscape:connector-curvature="0" />
      <path
         id="path3126"
         d="m 115.39554,1043.1215 a 28.125,28.125 0 1 0 -56.249999,0 28.125,28.125 0 1 0 56.249999,0 z"
         style="fill:none;stroke:#ff0000;stroke-linecap:round;stroke-opacity:1;stroke-width:0.09;stroke-miterlimit:4;stroke-dasharray:none"
         inkscape:connector-curvature="0" />
      <path
         id="path3128"
         d="m 188.52054,1043.1215 a 28.125,28.125 0 1 0 -56.25,0 28.125,28.125 0 1 0 56.25,0 z"
         style="fill:none;stroke:#ff0000;stroke-linecap:round;stroke-opacity:1;stroke-width:0.09;stroke-miterlimit:4;stroke-dasharray:none"
         inkscape:connector-curvature="0" />
      <path
         id="path3130"
         d="m -157.41696,1056.0545 a 14.0625,14.0625 0 1 0 -28.125,0 14.0625,14.0625 0 1 0 28.125,0 z"
         style="fill:none;stroke:#ff0000;stroke-linecap:round;stroke-opacity:1;stroke-width:0.09;stroke-miterlimit:4;stroke-dasharray:none"
         inkscape:connector-curvature="0" />
      <path
         id="path3132"
         d="m -55.829459,1009.8144 a 3.15,3.15 0 1 0 -6.3,0 3.15,3.15 0 1 0 6.3,0 z"
         style="fill:none;stroke:#ff0000;stroke-linecap:round;stroke-opacity:1;stroke-width:0.09;stroke-miterlimit:4;stroke-dasharray:none"
         inkscape:connector-curvature="0" />
      <path
         id="path3134"
         d="m 17.286683,1009.8144 a 3.15,3.15 0 1 0 -6.3,0 3.15,3.15 0 1 0 6.3,0 z"
         style="fill:none;stroke:#ff0000;stroke-linecap:round;stroke-opacity:1;stroke-width:0.09;stroke-miterlimit:4;stroke-dasharray:none"
         inkscape:connector-curvature="0" />
      <path
         id="path3136"
         d="m 90.402824,1009.8144 a 3.15,3.15 0 1 0 -6.3,0 3.15,3.15 0 1 0 6.3,0 z"
         style="fill:none;stroke:#ff0000;stroke-linecap:round;stroke-opacity:1;stroke-width:0.09;stroke-miterlimit:4;stroke-dasharray:none"
         inkscape:connector-curvature="0" />
      <path
         id="path3138"
         d="m -85.947569,1057.4719 a 3.15,3.15 0 1 0 -6.3,0 3.15,3.15 0 1 0 6.3,0 z"
         style="fill:none;stroke:#ff0000;stroke-linecap:round;stroke-opacity:1;stroke-width:0.09;stroke-miterlimit:4;stroke-dasharray:none"
         inkscape:connector-curvature="0" />
      <path
         id="path3140"
         d="m -12.831428,1057.4719 a 3.15,3.15 0 1 0 -6.3,0 3.15,3.15 0 1 0 6.3,0 z"
         style="fill:none;stroke:#ff0000;stroke-linecap:round;stroke-opacity:1;stroke-width:0.09;stroke-miterlimit:4;stroke-dasharray:none"
         inkscape:connector-curvature="0" />
      <path
         id="path3142"
         d="m 120.52093,1057.4719 a 3.15,3.15 0 1 0 -6.3,0 3.15,3.15 0 1 0 6.3,0 z"
         style="fill:none;stroke:#ff0000;stroke-linecap:round;stroke-opacity:1;stroke-width:0.09;stroke-miterlimit:4;stroke-dasharray:none"
         inkscape:connector-curvature="0" />
      <path
         id="path3144"
         d="m 163.51897,1009.8144 a 3.15,3.15 0 1 0 -6.3,0 3.15,3.15 0 1 0 6.3,0 z"
         style="fill:none;stroke:#ff0000;stroke-linecap:round;stroke-opacity:1;stroke-width:0.09;stroke-miterlimit:4;stroke-dasharray:none"
         inkscape:connector-curvature="0" />
      <path
         id="path3146"
         d="m 193.63708,1057.4719 a 3.15,3.15 0 1 0 -6.3,0 3.15,3.15 0 1 0 6.3,0 z"
         style="fill:none;stroke:#ff0000;stroke-linecap:round;stroke-opacity:1;stroke-width:0.09;stroke-miterlimit:4;stroke-dasharray:none"
         inkscape:connector-curvature="0" />
      <path
         id="path3148"
         d="m -99.479459,1078.5545 -45.000001,0"
         style="fill:none;stroke:#ff0000;stroke-linecap:round;stroke-opacity:1;stroke-width:0.09;stroke-miterlimit:4;stroke-dasharray:none"
         inkscape:connector-curvature="0" />
      <path
         id="path3150"
         d="m -99.479459,1033.5545 0,45"
         style="fill:none;stroke:#ff0000;stroke-linecap:round;stroke-opacity:1;stroke-width:0.09;stroke-miterlimit:4;stroke-dasharray:none"
         inkscape:connector-curvature="0" />
      <path
         id="path3152"
         d="m -144.47946,1033.5545 45.000001,0"
         style="fill:none;stroke:#ff0000;stroke-linecap:round;stroke-opacity:1;stroke-width:0.09;stroke-miterlimit:4;stroke-dasharray:none"
         inkscape:connector-curvature="0" />
      <path
         id="path3154"
         d="m -144.47946,1078.5545 0,-45"
         style="fill:none;stroke:#ff0000;stroke-linecap:round;stroke-opacity:1;stroke-width:0.09;stroke-miterlimit:4;stroke-dasharray:none"
         inkscape:connector-curvature="0" />
    </g>
    <text
       xml:space="preserve"
       style="font-size:18px;font-style:normal;font-variant:normal;font-weight:normal;font-stretch:normal;line-height:125%;letter-spacing:0px;word-spacing:0px;fill:#000000;fill-opacity:1;stroke:none;font-family:DIN Engschrift Std;-inkscape-font-specification:DIN Engschrift Std"
       x="294.06128"
       y="494.50504"
       id="text3193"
       sodipodi:linespacing="125%"><tspan
         sodipodi:role="line"
         id="tspan3195"
         x="294.06128"
         y="494.50504">IN 1</tspan></text>
    <text
       xml:space="preserve"
       style="font-size:18px;font-style:normal;font-variant:normal;font-weight:normal;font-stretch:normal;line-height:125%;letter-spacing:0px;word-spacing:0px;fill:#000000;fill-opacity:1;stroke:none;font-family:DIN Engschrift Std;-inkscape-font-specification:DIN Engschrift Std"
       x="361.00476"
       y="494.50476"
       id="text3197"
       sodipodi:linespacing="125%"><tspan
         sodipodi:role="line"
         id="tspan3199"
         x="361.00476"
         y="494.50476">OUT 1</tspan></text>
    <text
       xml:space="preserve"
       style="font-size:18px;font-style:normal;font-variant:normal;font-weight:normal;font-stretch:normal;line-height:125%;letter-spacing:0px;word-spacing:0px;fill:#000000;fill-opacity:1;stroke:none;font-family:DIN Engschrift Std;-inkscape-font-specification:DIN Engschrift Std"
       x="438.1535"
       y="494.55887"
       id="text3201"
       sodipodi:linespacing="125%"><tspan
         sodipodi:role="line"
         id="tspan3203"
         x="438.1535"
         y="494.55887">IN 2</tspan></text>
    <text
       xml:space="preserve"
       style="font-size:18px;font-style:normal;font-variant:normal;font-weight:normal;font-stretch:normal;line-height:125%;letter-spacing:0px;word-spacing:0px;fill:#000000;fill-opacity:1;stroke:none;font-family:DIN Engschrift Std;-inkscape-font-specification:DIN Engschrift Std"
       x="506.52554"
       y="494.50476"
       id="text3205"
       sodipodi:linespacing="125%"><tspan
         sodipodi:role="line"
         id="tspan3207"
         x="506.52554"
         y="494.50476">OUT 2</tspan></text>
    <text
       xml:space="preserve"
       style="font-size:18px;font-style:normal;font-variant:normal;font-weight:normal;font-stretch:normal;line-height:125%;letter-spacing:0px;word-spacing:0px;fill:#000000;fill-opacity:1;stroke:none;font-family:DIN Engschrift Std;-inkscape-font-specification:DIN Engschrift Std"
       x="377.61444"
       y="595.78137"
       id="text3983"
       sodipodi:linespacing="125%"><tspan
         sodipodi:role="line"
         id="tspan3985"
         x="377.61444"
         y="595.78137">ISOTOPE 192</tspan></text>
  </g>
</svg>
