G04 ================== begin FILE IDENTIFICATION RECORD ==================*
G04 Layout Name:  D:\misc\Janko\worklib\janko\physical\jankomid1.brd*
G04 Film Name:    TOP*
G04 File Format:  Gerber RS274X*
G04 File Origin:  15.2-s023*
G04 Origin Date:  Fri Nov 12 13:56:14 2010*
G04 ================== end FILE IDENTIFICATION RECORD ====================*
%FSLAX53Y53*MOIN*%
%IR0*IPPOS*OFA0.00000B0.00000*MIA0B0*SFA1.00000B1.00000*%
%ADD11C,.125*%
%ADD10C,.076*%
G75*
%LPD*%
G75*
G36*
G01X721Y174D02*
X179D01*
G02X174Y179I0J5D01*
G01Y721D01*
G02X179Y726I5J0D01*
G01X721D01*
G02X726Y721I0J-5D01*
G01Y179D01*
G02X721Y174I-5J0D01*
G37*
G36*
G01Y1824D02*
X179D01*
G02X174Y1829I0J5D01*
G01Y2371D01*
G02X179Y2376I5J0D01*
G01X721D01*
G02X726Y2371I0J-5D01*
G01Y1829D01*
G02X721Y1824I-5J0D01*
G37*
G36*
G01X1191Y1551D02*
G02X1196Y1546I0J-5D01*
G01Y1004D01*
G02X1191Y999I-5J0D01*
G01X650D01*
G02X645Y1004I0J5D01*
G01Y1546D01*
G02X650Y1551I5J0D01*
G01X1191D01*
G37*
G36*
G01Y2649D02*
X650D01*
G02X645Y2654I0J5D01*
G01Y3196D01*
G02X650Y3201I5J0D01*
G01X1191D01*
G02X1196Y3196I0J-5D01*
G01Y2654D01*
G02X1191Y2649I-5J0D01*
G37*
G36*
G01X1662Y174D02*
X1120D01*
G02X1115Y179I0J5D01*
G01Y721D01*
G02X1120Y726I5J0D01*
G01X1662D01*
G02X1667Y721I0J-5D01*
G01Y179D01*
G02X1662Y174I-5J0D01*
G37*
G36*
G01Y1824D02*
X1120D01*
G02X1115Y1829I0J5D01*
G01Y2371D01*
G02X1120Y2376I5J0D01*
G01X1662D01*
G02X1667Y2371I0J-5D01*
G01Y1829D01*
G02X1662Y1824I-5J0D01*
G37*
G36*
G01X2132Y999D02*
X1591D01*
G02X1586Y1004I0J5D01*
G01Y1546D01*
G02X1591Y1551I5J0D01*
G01X2132D01*
G02X2137Y1546I0J-5D01*
G01Y1004D01*
G02X2132Y999I-5J0D01*
G37*
G36*
G01Y2649D02*
X1591D01*
G02X1586Y2654I0J5D01*
G01Y3196D01*
G02X1591Y3201I5J0D01*
G01X2132D01*
G02X2137Y3196I0J-5D01*
G01Y2654D01*
G02X2132Y2649I-5J0D01*
G37*
G36*
G01X2603Y174D02*
X2061D01*
G02X2056Y179I0J5D01*
G01Y721D01*
G02X2061Y726I5J0D01*
G01X2603D01*
G02X2608Y721I0J-5D01*
G01Y179D01*
G02X2603Y174I-5J0D01*
G37*
G36*
G01Y1824D02*
X2061D01*
G02X2056Y1829I0J5D01*
G01Y2371D01*
G02X2061Y2376I5J0D01*
G01X2603D01*
G02X2608Y2371I0J-5D01*
G01Y1829D01*
G02X2603Y1824I-5J0D01*
G37*
G36*
G01X3073Y999D02*
X2532D01*
G02X2527Y1004I0J5D01*
G01Y1546D01*
G02X2532Y1551I5J0D01*
G01X3073D01*
G02X3078Y1546I0J-5D01*
G01Y1004D01*
G02X3073Y999I-5J0D01*
G37*
G36*
G01Y2649D02*
X2532D01*
G02X2527Y2654I0J5D01*
G01Y3196D01*
G02X2532Y3201I5J0D01*
G01X3073D01*
G02X3078Y3196I0J-5D01*
G01Y2654D01*
G02X3073Y2649I-5J0D01*
G37*
G36*
G01X3544Y174D02*
X3002D01*
G02X2997Y179I0J5D01*
G01Y721D01*
G02X3002Y726I5J0D01*
G01X3544D01*
G02X3549Y721I0J-5D01*
G01Y179D01*
G02X3544Y174I-5J0D01*
G37*
G36*
G01Y1824D02*
X3002D01*
G02X2997Y1829I0J5D01*
G01Y2371D01*
G02X3002Y2376I5J0D01*
G01X3544D01*
G02X3549Y2371I0J-5D01*
G01Y1829D01*
G02X3544Y1824I-5J0D01*
G37*
G36*
G01X4014Y999D02*
X3473D01*
G02X3468Y1004I0J5D01*
G01Y1546D01*
G02X3473Y1551I5J0D01*
G01X4014D01*
G02X4019Y1546I0J-5D01*
G01Y1004D01*
G02X4014Y999I-5J0D01*
G37*
G36*
G01Y2649D02*
X3473D01*
G02X3468Y2654I0J5D01*
G01Y3196D01*
G02X3473Y3201I5J0D01*
G01X4014D01*
G02X4019Y3196I0J-5D01*
G01Y2654D01*
G02X4014Y2649I-5J0D01*
G37*
G54D10*
X250Y1000D03*
X230Y1350D03*
X250Y4500D03*
Y8000D03*
X5630Y740D03*
Y4030D03*
X5620Y7360D03*
X11510Y3790D03*
X11500Y7040D03*
X11610Y520D03*
G54D11*
X7500Y150D03*
Y8650D03*
M02*
