G04 ================== begin FILE IDENTIFICATION RECORD ==================*
G04 Layout Name:  D:\misc\Janko\worklib\janko\physical\jankomid30nohexes.brd*
G04 Film Name:    TOP*
G04 File Format:  Gerber RS274X*
G04 File Origin:  15.2-s023*
G04 Origin Date:  Wed Nov 03 10:06:29 2010*
G04 ================== end FILE IDENTIFICATION RECORD ====================*
%FSLAX53Y53*MOIN*%
%IR0*IPPOS*OFA0.00000B0.00000*MIA0B0*SFA1.00000B1.00000*%
%ADD15R,.07X.1*%
%ADD14R,.06X.052*%
%ADD13R,.052X.06*%
%ADD10C,.07*%
%ADD12C,.076*%
%ADD11R,.07X.07*%
%ADD16C,.02*%
%ADD17C,.03*%
%ADD18C,.05*%
G75*
%LPD*%
G75*
G54D10*
X130Y8450D03*
Y8350D03*
Y8650D03*
Y8550D03*
G54D11*
Y8250D03*
X2230Y970D03*
X2220Y2630D03*
X2230Y4290D03*
X2190Y5950D03*
X2230Y7580D03*
X5980Y2630D03*
X5950Y5900D03*
X6450Y1060D03*
X6490Y4360D03*
Y7600D03*
X9750Y960D03*
X9760Y2610D03*
X9770Y4290D03*
X9760Y5920D03*
X9780Y7570D03*
G54D12*
X250Y1000D03*
X220Y1370D03*
X330Y2760D03*
X420Y2960D03*
X250Y4500D03*
X380Y4710D03*
X410Y6480D03*
X250Y8000D03*
X450Y1260D03*
X520Y2620D03*
X460Y5940D03*
X490Y6400D03*
X653Y6623D03*
X520Y8140D03*
X930Y330D03*
X900Y650D03*
X920Y2080D03*
X930Y2210D03*
X910Y2430D03*
X920Y3750D03*
X916Y5424D03*
X890Y5780D03*
X860Y5640D03*
X1300Y920D03*
X1310Y8280D03*
X1380Y1300D03*
X1360Y2630D03*
X1380Y2980D03*
X1390Y4290D03*
Y4760D03*
X1360Y5950D03*
X1410Y6480D03*
X1593Y6670D03*
X1370Y7580D03*
X1440Y8120D03*
X1870Y250D03*
X1830Y1970D03*
X1880Y3600D03*
X1850Y5290D03*
X1750Y7420D03*
X2340Y1310D03*
X2440Y1650D03*
X2330Y2850D03*
X2540Y3330D03*
X2340Y4770D03*
Y6500D03*
Y8080D03*
X2810Y170D03*
X2800Y1980D03*
X2780Y4020D03*
X2760Y5270D03*
X2573Y6643D03*
X2800Y7170D03*
X3300Y1080D03*
X3260Y2660D03*
X3270Y4660D03*
X3250Y6490D03*
X3280Y7790D03*
X3340Y8090D03*
X3200Y8280D03*
X3730Y180D03*
X3460Y3310D03*
X3730Y5290D03*
X3493Y6653D03*
X3750Y2070D03*
X4210Y1340D03*
Y2920D03*
X4170Y4740D03*
X4200Y6460D03*
Y8050D03*
X4403Y3323D03*
X4413Y6623D03*
X4670Y450D03*
X4680Y2130D03*
X4664Y5306D03*
X5160Y1060D03*
X5155Y1415D03*
X5100Y2630D03*
X5150Y2930D03*
X5160Y4460D03*
X5140Y4760D03*
X5110Y5900D03*
X5160Y6400D03*
Y8060D03*
X5320Y3290D03*
X5293Y6617D03*
X5640Y250D03*
X5630Y740D03*
X5620Y1950D03*
X5630Y4030D03*
X5610Y5290D03*
X5620Y7360D03*
X6130Y1500D03*
X6100Y3060D03*
X6130Y4830D03*
X6090Y6440D03*
Y8080D03*
X6240Y1660D03*
X6273Y3323D03*
X6303Y6633D03*
X6520Y290D03*
X6570Y480D03*
Y2190D03*
Y3850D03*
Y5300D03*
X7020Y2680D03*
X7040Y6410D03*
X6920Y8350D03*
X7050Y1470D03*
X7230Y1660D03*
X7273Y3343D03*
X7110Y4870D03*
X7283Y6657D03*
X7050Y8110D03*
X7460Y270D03*
X7520Y5300D03*
X7470Y7240D03*
X7500Y7360D03*
X7960Y1450D03*
Y2750D03*
X8150Y3300D03*
X7970Y4670D03*
Y6310D03*
X8093Y6583D03*
X7980Y8100D03*
X8440Y500D03*
X8450Y1860D03*
Y5490D03*
X8870Y960D03*
X8920Y1440D03*
X8900Y2610D03*
X8910Y3040D03*
X8930Y4320D03*
X9000Y4920D03*
X8910Y5920D03*
X8920Y6440D03*
X9133Y6633D03*
X8920Y7570D03*
X8930Y8110D03*
X9350Y160D03*
X9330Y1880D03*
X9220Y3370D03*
X9384Y5406D03*
X9880Y1170D03*
X10000Y1660D03*
X9880Y3050D03*
X9980Y3290D03*
X9940Y4910D03*
X9880Y6440D03*
X9860Y8110D03*
X10280Y140D03*
X10340Y300D03*
X10330Y2210D03*
X10320Y3950D03*
X10330Y5340D03*
X10310Y5580D03*
X10083Y6643D03*
X10350Y7260D03*
X10820Y1420D03*
X10900Y2640D03*
X10920Y3300D03*
X10800Y4320D03*
X10850Y5970D03*
X10800Y6350D03*
Y7570D03*
Y7670D03*
X10820Y8120D03*
X11240Y270D03*
X10980Y1690D03*
X11210Y4020D03*
X10970Y4940D03*
X11053Y6633D03*
X11230Y6830D03*
X11200Y7370D03*
X11280Y2020D03*
X11430Y2480D03*
X11510Y3790D03*
X11460Y5130D03*
X11270Y5400D03*
X11250Y5670D03*
X11500Y7040D03*
X11610Y520D03*
X11650Y1680D03*
X11610Y2050D03*
X11550Y5320D03*
G54D13*
X717Y190D03*
X643D03*
X647Y1260D03*
X573D03*
X643Y1910D03*
X717D03*
X573Y2950D03*
X647D03*
X643Y3560D03*
X717D03*
X573Y4710D03*
X647D03*
X713Y5330D03*
Y6480D03*
X653Y6730D03*
X727D03*
X683Y8200D03*
X787Y5330D03*
Y6480D03*
X757Y8200D03*
X1613Y180D03*
X1617Y1300D03*
X1543D03*
X1573Y1870D03*
X1513Y2980D03*
X1587D03*
X1627Y3530D03*
X1553D03*
X1523Y4760D03*
X1597D03*
X1573Y5200D03*
X1623Y6480D03*
X1593Y6770D03*
X1603Y8200D03*
X1687Y180D03*
X1647Y1870D03*
Y5200D03*
X1697Y6480D03*
X1667Y6770D03*
X1677Y8200D03*
X2483Y170D03*
X2393Y750D03*
X2467D03*
X2463Y1210D03*
X2473Y2950D03*
X2403Y4020D03*
X2477D03*
X2483Y4770D03*
X2503Y5170D03*
X2493Y5570D03*
Y7230D03*
X2503Y8200D03*
X2557Y170D03*
X2537Y1210D03*
X2583Y1690D03*
X2657D03*
X2573Y2220D03*
X2647D03*
X2547Y2950D03*
X2543Y3420D03*
X2617D03*
X2557Y4770D03*
X2577Y5170D03*
X2567Y5570D03*
X2563Y6500D03*
X2637D03*
X2563Y6740D03*
X2637D03*
X2567Y7230D03*
X2577Y8200D03*
X3413Y2830D03*
X3433Y4660D03*
X3587Y270D03*
X3513D03*
X3547Y1100D03*
X3473D03*
X3523Y1870D03*
X3597D03*
X3487Y2830D03*
X3463Y3410D03*
X3537D03*
X3507Y4660D03*
X3463Y5210D03*
X3537D03*
X3483Y6490D03*
X3557D03*
X3493Y6750D03*
X3567D03*
X3553Y8200D03*
X3627D03*
X3943Y620D03*
X4017D03*
X4313Y1350D03*
X4323Y1850D03*
X4333Y4950D03*
X4477Y280D03*
X4403D03*
X4387Y1350D03*
X4397Y1850D03*
X4373Y2930D03*
X4447D03*
X4403Y3420D03*
X4477D03*
X4413Y5120D03*
X4487D03*
X4407Y4950D03*
X4463Y6460D03*
X4537D03*
X4413Y6720D03*
X4487D03*
X4353Y8200D03*
X4427D03*
X5417Y190D03*
X5343D03*
X5283Y1500D03*
X5357D03*
X5303Y1690D03*
X5377D03*
X5303Y2930D03*
X5377D03*
X5323Y3400D03*
X5397D03*
X5263Y4890D03*
X5337D03*
X5293Y5120D03*
X5367D03*
X5333Y6400D03*
X5407D03*
X5293Y6710D03*
X5367D03*
X5313Y8200D03*
X5387D03*
X6347Y220D03*
X6273D03*
X6213Y1510D03*
X6287D03*
X6323Y1850D03*
X6397D03*
X6373Y2190D03*
X6253Y2880D03*
X6327D03*
X6273Y3410D03*
X6347D03*
X6253Y4930D03*
X6327D03*
X6313Y5120D03*
X6387D03*
X6273Y5590D03*
X6347D03*
X6323Y6440D03*
X6397D03*
X6303Y6720D03*
X6377D03*
X6273Y8200D03*
X6347D03*
X6633Y580D03*
X6707D03*
X6447Y2190D03*
X6623Y3970D03*
X6697D03*
X6683Y7240D03*
X6757D03*
X7307Y200D03*
X7233D03*
X7297Y1470D03*
X7223D03*
X7263Y1850D03*
X7153Y2840D03*
X7227D03*
X7273Y3560D03*
X7223Y4920D03*
X7297D03*
X7243Y5110D03*
X7317D03*
X7273Y6410D03*
X7283Y6770D03*
X7303Y8200D03*
X7337Y1850D03*
X7347Y3560D03*
Y6410D03*
X7357Y6770D03*
X7377Y8200D03*
X8173Y280D03*
X8177Y1450D03*
X8103D03*
X8187Y1860D03*
X8113D03*
X8177Y2740D03*
X8103D03*
X8143Y3430D03*
X8217D03*
X8093Y4900D03*
X8167D03*
X8183Y5130D03*
X8123Y6310D03*
X8197D03*
X8093Y6690D03*
X8167D03*
X8173Y8200D03*
X8247Y280D03*
X8257Y5130D03*
X8247Y8200D03*
X9077Y160D03*
X9003D03*
X9063Y1440D03*
X9073Y1650D03*
X9117Y3040D03*
X9043D03*
X9133Y4950D03*
X9113Y6440D03*
X9133Y6730D03*
Y8200D03*
X9137Y1440D03*
X9147Y1650D03*
X9297Y3500D03*
X9223D03*
X9207Y4950D03*
X9153Y5150D03*
X9227D03*
X9187Y6440D03*
X9207Y6730D03*
Y8200D03*
X10013Y1430D03*
X9993Y2940D03*
X10033Y3950D03*
X10003Y7260D03*
X10083Y130D03*
X10157D03*
X10143Y530D03*
X10217D03*
X10087Y1430D03*
X10137Y1830D03*
X10063D03*
X10113Y2210D03*
X10187D03*
X10067Y2940D03*
X10083Y3610D03*
X10157D03*
X10107Y3950D03*
X10053Y4950D03*
X10127D03*
X10103Y5130D03*
X10177D03*
X10063Y5580D03*
X10137D03*
X10053Y6440D03*
X10127D03*
X10083Y6740D03*
X10157D03*
X10077Y7260D03*
X10063Y8200D03*
X10137D03*
X10933Y1470D03*
X11087Y190D03*
X11013D03*
X11007Y1470D03*
X11097Y1900D03*
X11023D03*
X11017Y2870D03*
X10943D03*
X11003Y3540D03*
X11077D03*
X10973Y4850D03*
X11047D03*
X11073Y5310D03*
X11147D03*
X10943Y6350D03*
X11017D03*
X11053Y6720D03*
X11127D03*
X11053Y8200D03*
X11127D03*
G54D14*
X790Y4017D03*
Y3943D03*
X960Y5617D03*
Y5543D03*
X740Y5617D03*
Y5543D03*
X4030Y2203D03*
Y2277D03*
X3950Y3907D03*
Y3833D03*
X3840Y4027D03*
Y3953D03*
X7610Y3887D03*
Y3813D03*
X7660Y617D03*
Y543D03*
X7680Y2177D03*
Y2103D03*
X7640Y5517D03*
Y5443D03*
X7660Y7157D03*
Y7083D03*
X8340Y7023D03*
Y7097D03*
X11290Y2193D03*
Y2267D03*
G54D15*
X1630Y670D03*
X1530D03*
Y970D03*
X1630D03*
X1620Y2330D03*
X1520D03*
Y2630D03*
X1620D03*
X1630Y3990D03*
X1530D03*
Y4290D03*
X1630D03*
X1590Y5650D03*
X1490D03*
Y5950D03*
X1590D03*
X1630Y7280D03*
X1530D03*
Y7580D03*
X1630D03*
X1930Y670D03*
X1830D03*
X1730D03*
Y970D03*
X1830D03*
X1930D03*
X1920Y2330D03*
X1820D03*
X1720D03*
Y2630D03*
X1820D03*
X1920D03*
X1930Y3990D03*
X1830D03*
X1730D03*
Y4290D03*
X1830D03*
X1930D03*
X1890Y5650D03*
X1790D03*
X1690D03*
Y5950D03*
X1790D03*
X1890D03*
X1930Y7280D03*
X1830D03*
X1730D03*
Y7580D03*
X1830D03*
X1930D03*
X2230Y670D03*
X2130D03*
X2030D03*
Y970D03*
X2130D03*
X2220Y2330D03*
X2120D03*
X2020D03*
Y2630D03*
X2120D03*
X2230Y3990D03*
X2130D03*
X2030D03*
Y4290D03*
X2130D03*
X2190Y5650D03*
X2090D03*
X1990D03*
Y5950D03*
X2090D03*
X2230Y7280D03*
X2130D03*
X2030D03*
Y7580D03*
X2130D03*
X5480Y2330D03*
X5380D03*
X5280D03*
Y2630D03*
X5380D03*
X5480D03*
X5450Y5600D03*
X5350D03*
X5250D03*
Y5900D03*
X5350D03*
X5450D03*
X5750Y760D03*
Y1060D03*
X5780Y2330D03*
X5680D03*
X5580D03*
Y2630D03*
X5680D03*
X5780D03*
X5790Y4060D03*
Y4360D03*
X5750Y5600D03*
X5650D03*
X5550D03*
Y5900D03*
X5650D03*
X5750D03*
X5790Y7300D03*
Y7600D03*
X6050Y760D03*
X5950D03*
X5850D03*
Y1060D03*
X5950D03*
X6050D03*
X5980Y2330D03*
X5880D03*
Y2630D03*
X6090Y4060D03*
X5990D03*
X5890D03*
Y4360D03*
X5990D03*
X6090D03*
X5950Y5600D03*
X5850D03*
Y5900D03*
X6090Y7300D03*
X5990D03*
X5890D03*
Y7600D03*
X5990D03*
X6090D03*
X6350Y760D03*
X6250D03*
X6150D03*
Y1060D03*
X6250D03*
X6350D03*
X6390Y4060D03*
X6290D03*
X6190D03*
Y4360D03*
X6290D03*
X6390D03*
Y7300D03*
X6290D03*
X6190D03*
Y7600D03*
X6290D03*
X6390D03*
X6450Y760D03*
X6490Y4060D03*
Y7300D03*
X9050Y660D03*
Y960D03*
X9060Y2310D03*
Y2610D03*
X9070Y3990D03*
Y4290D03*
X9060Y5620D03*
Y5920D03*
X9080Y7270D03*
Y7570D03*
X9350Y660D03*
X9250D03*
X9150D03*
Y960D03*
X9250D03*
X9350D03*
X9360Y2310D03*
X9260D03*
X9160D03*
Y2610D03*
X9260D03*
X9360D03*
X9370Y3990D03*
X9270D03*
X9170D03*
Y4290D03*
X9270D03*
X9370D03*
X9360Y5620D03*
X9260D03*
X9160D03*
Y5920D03*
X9260D03*
X9360D03*
X9380Y7270D03*
X9280D03*
X9180D03*
Y7570D03*
X9280D03*
X9380D03*
X9650Y660D03*
X9550D03*
X9450D03*
Y960D03*
X9550D03*
X9650D03*
X9660Y2310D03*
X9560D03*
X9460D03*
Y2610D03*
X9560D03*
X9660D03*
X9670Y3990D03*
X9570D03*
X9470D03*
Y4290D03*
X9570D03*
X9670D03*
X9660Y5620D03*
X9560D03*
X9460D03*
Y5920D03*
X9560D03*
X9660D03*
X9680Y7270D03*
X9580D03*
X9480D03*
Y7570D03*
X9580D03*
X9680D03*
X9750Y660D03*
X9760Y2310D03*
X9770Y3990D03*
X9760Y5620D03*
X9780Y7270D03*
G54D16*
G01X650Y2250D02*
Y2016D01*
X350Y1716D01*
Y1220D01*
X820Y750D01*
X1360D01*
X1500Y890D01*
X2100D01*
X2130Y920D01*
Y970D01*
G01Y4290D02*
Y4258D01*
X2082Y4210D01*
X323D01*
X175Y4062D01*
Y2625D01*
X550Y2250D01*
X650D01*
G01X2230Y4290D02*
X2195Y4255D01*
Y4228D01*
X2177Y4210D01*
Y4207D01*
X2120Y4150D01*
X837D01*
X817Y4170D01*
X340D01*
X215Y4045D01*
Y2875D01*
X330Y2760D01*
G01X800Y4130D02*
X360D01*
X270Y4040D01*
Y2920D01*
X420Y2770D01*
Y2450D01*
X550Y2320D01*
X1400D01*
X1470Y2250D01*
X1570D01*
X1620Y2300D01*
Y2330D01*
G01X740Y5760D02*
X220Y6280D01*
Y7250D01*
X250Y7280D01*
X1530D01*
G01X11200Y7370D02*
X11510Y7680D01*
Y8440D01*
X11300Y8650D01*
X130D01*
G01X3200Y8280D02*
Y8370D01*
X3020Y8550D01*
X130D01*
G01X2220Y2630D02*
Y2540D01*
X2190Y2510D01*
X1530D01*
X1380Y2360D01*
X840D01*
X580Y2620D01*
X520D01*
G01X930Y2210D02*
X890Y2250D01*
X650D01*
G01X677Y5033D02*
X630Y5080D01*
Y5470D01*
X690Y5530D01*
X750D01*
G01X2120Y2630D02*
Y2580D01*
X2090Y2550D01*
X1390D01*
X1270Y2430D01*
X910D01*
G01X790Y4017D02*
Y4120D01*
X800Y4130D01*
G01D02*
X820Y4110D01*
X1240D01*
X1360Y3990D01*
X1530D01*
G01X960Y5543D02*
X740D01*
G01X890Y5780D02*
X940Y5830D01*
X2540D01*
X2700Y5670D01*
X4580D01*
X5055Y5194D01*
X5084D01*
X5098Y5208D01*
X5155D01*
X5280Y5280D01*
X5310D01*
X5350Y5320D01*
Y5600D01*
G01X740Y5617D02*
Y5760D01*
G01D02*
X790Y5710D01*
X1420D01*
X1440Y5730D01*
X1540D01*
X1590Y5680D01*
Y5650D01*
G01X1490D02*
X1450Y5610D01*
X967D01*
X960Y5617D01*
G01X860Y5640D02*
X883Y5617D01*
X960D01*
G01X1310Y8280D02*
X1420Y8390D01*
X2950D01*
X3130Y8210D01*
X3230D01*
X3410Y8390D01*
X6880D01*
X6920Y8350D01*
G01X1520Y2330D02*
Y2393D01*
X1587Y2460D01*
X2310D01*
X2395Y2375D01*
X4030D01*
G01X4020Y830D02*
X1710D01*
X1630Y750D01*
Y670D01*
G01Y3990D02*
Y4030D01*
X1700Y4100D01*
X2130D01*
X2170Y4140D01*
X2460D01*
X2500Y4100D01*
X3840D01*
G01X1630Y7280D02*
X1620Y7290D01*
Y7390D01*
X1650Y7420D01*
X1750D01*
G01X6350Y1060D02*
Y1020D01*
X6290Y960D01*
X2760D01*
X2685Y1035D01*
X2135D01*
X2130Y1030D01*
Y970D01*
G01X5880Y2630D02*
Y2570D01*
X5840Y2530D01*
X2620D01*
X2430Y2720D01*
X2160D01*
X2120Y2680D01*
Y2630D01*
G01X2130Y4290D02*
Y4340D01*
X2210Y4420D01*
X2340D01*
X2430Y4330D01*
X5450D01*
X5530Y4250D01*
X6360D01*
X6380Y4270D01*
Y4350D01*
X6390Y4360D01*
G01X5960Y5890D02*
Y5798D01*
X5932Y5770D01*
X5733D01*
X5703Y5740D01*
X4930D01*
X4740Y5930D01*
X2413D01*
X2393Y5950D01*
X2190D01*
G01X2090D02*
X2120Y5980D01*
Y6040D01*
X2140Y6060D01*
X2340D01*
X2430Y5970D01*
X4830D01*
X5020Y5780D01*
X5687D01*
X5717Y5810D01*
X5817D01*
X5850Y5843D01*
Y5900D01*
G01X2130Y7580D02*
X2140Y7590D01*
Y7650D01*
X2160Y7670D01*
X2350D01*
X2370Y7650D01*
X3280D01*
G01X6450Y1060D02*
Y980D01*
X6380Y910D01*
X2630D01*
X2570Y970D01*
X2230D01*
G01X5980Y2630D02*
Y2600D01*
X5860Y2480D01*
X2500D01*
X2340Y2640D01*
X2230D01*
X2220Y2630D01*
G01X6490Y4360D02*
Y4280D01*
X6420Y4210D01*
X5700D01*
X5510Y4210D01*
X5430Y4290D01*
X2230D01*
G01X6490Y7600D02*
Y7570D01*
X6400Y7480D01*
X5700D01*
X5610Y7570D01*
X2240D01*
X2230Y7580D01*
G01X3280Y7650D02*
X3330D01*
X3370Y7610D01*
X5630D01*
X5720Y7520D01*
X6370D01*
X6390Y7540D01*
Y7600D01*
G01X3280Y7790D02*
Y7650D01*
G01X5890Y4060D02*
Y3970D01*
X5830Y3910D01*
X5510D01*
X5450Y3970D01*
X4120D01*
X4057Y3907D01*
X3950D01*
G01X3840Y3953D02*
X3833D01*
X3761Y3881D01*
G01X3840Y4100D02*
Y4027D01*
G01X5790Y4060D02*
X5680Y4170D01*
X3910D01*
X3840Y4100D01*
G01X4017Y620D02*
Y827D01*
X4020Y830D01*
G01X5750Y760D02*
Y660D01*
X5720Y630D01*
X5440D01*
X5240Y830D01*
X4020D01*
G01X4030Y2203D02*
Y1580D01*
G01Y2375D02*
Y2277D01*
G01Y2375D02*
X4035Y2370D01*
X4570D01*
X5040Y1900D01*
X5230D01*
X5380Y2050D01*
Y2330D01*
G01X7680Y2290D02*
X7620Y2350D01*
X6320D01*
X6210Y2460D01*
X6204D01*
X6194Y2470D01*
X5910D01*
X5870Y2430D01*
X5310D01*
X5280Y2400D01*
Y2330D01*
G01X5320Y3290D02*
Y3397D01*
X5323Y3400D01*
G01D02*
Y3453D01*
X5350Y3480D01*
X5570D01*
X6090Y4000D01*
G01X7640Y5517D02*
Y5630D01*
X7580Y5690D01*
X6760D01*
X6720Y5730D01*
X5750D01*
X5700Y5680D01*
X5270D01*
X5250Y5660D01*
Y5600D01*
G01X6090Y7300D02*
Y7270D01*
X6030Y7210D01*
X6000D01*
X5910Y7120D01*
Y6880D01*
X5880Y6850D01*
X5409D01*
X5311Y6752D01*
Y6729D01*
X5300Y6717D01*
G01X9180Y7270D02*
X9150Y7300D01*
Y7330D01*
X9120Y7360D01*
X7660D01*
X7580Y7440D01*
X5860D01*
X5790Y7370D01*
Y7300D01*
G01X7660Y770D02*
X6600D01*
X6580Y790D01*
Y850D01*
X6560Y870D01*
X5870D01*
X5850Y850D01*
Y760D01*
G01X9660Y2610D02*
Y2550D01*
X9620Y2510D01*
X6360D01*
X6140Y2730D01*
X5900D01*
X5880Y2710D01*
Y2630D01*
G01X9760Y2610D02*
X9740Y2590D01*
Y2500D01*
X9710Y2470D01*
X9030D01*
X8960Y2400D01*
X6410D01*
X6180Y2630D01*
X5980D01*
G01X9070Y3990D02*
X9040Y4020D01*
X8800D01*
X8660Y4160D01*
X5940D01*
X5890Y4110D01*
Y4060D01*
G01X5960Y5890D02*
X5950Y5900D01*
G01X9660Y5920D02*
Y5880D01*
X9590Y5810D01*
X6350D01*
X6110Y6050D01*
X5930D01*
X5850Y5970D01*
Y5900D01*
G01X5960Y5890D02*
X5980Y5910D01*
X6100D01*
X6240Y5770D01*
X6737D01*
X6757Y5750D01*
X9100D01*
X9120Y5770D01*
X9610D01*
X9660Y5820D01*
X9740D01*
X9760Y5840D01*
Y5920D01*
G01X6390Y7334D02*
X6334Y7390D01*
X5930D01*
X5890Y7350D01*
Y7300D01*
G01X6350Y1060D02*
Y1118D01*
X6372Y1140D01*
X6467D01*
X6503Y1119D01*
X6762Y860D01*
X9577D01*
X9650Y933D01*
Y960D01*
G01X9670Y4290D02*
Y4220D01*
X9630Y4180D01*
X8970D01*
X8900Y4250D01*
X7170D01*
X6660Y4760D01*
X6470D01*
X6380Y4670D01*
Y4370D01*
X6390Y4360D01*
G01Y7600D02*
X6425Y7635D01*
Y7647D01*
X6448Y7670D01*
X8220D01*
X8440Y7450D01*
X9630D01*
X9680Y7500D01*
Y7570D01*
G01X6450Y1060D02*
X6500D01*
X6750Y810D01*
X9730D01*
X9750Y830D01*
Y960D01*
G01X9770Y4290D02*
Y4260D01*
X9650Y4140D01*
X8920D01*
X8850Y4210D01*
X7070D01*
X6920Y4360D01*
X6490D01*
G01X7357Y6770D02*
X7339Y6789D01*
Y6812D01*
X7321Y6830D01*
X6920D01*
X6683Y7067D01*
Y7240D01*
G01X6490Y7600D02*
X8180D01*
X8370Y7410D01*
X9710D01*
X9780Y7480D01*
Y7570D01*
G01X7610Y3813D02*
X7350D01*
X7347Y3810D01*
G01X7660Y7157D02*
Y7200D01*
X7500Y7360D01*
G01X7660Y617D02*
Y770D01*
G01X9050Y660D02*
X8940Y770D01*
X7660D01*
G01X9160Y2310D02*
Y2050D01*
X9095Y1985D01*
X9000Y1890D01*
X8810D01*
X8410Y2290D01*
X7680D01*
G01X9170Y3990D02*
X9150Y3970D01*
Y3910D01*
X9130Y3890D01*
X9020D01*
X8980Y3930D01*
X8966Y3938D01*
X7924D01*
X7910Y3930D01*
X7867Y3887D01*
X7610D01*
G01X9080Y7270D02*
X9040Y7310D01*
X7813D01*
X7660Y7157D01*
G01X11290Y2267D02*
Y2300D01*
X11170Y2420D01*
X9090D01*
X9060Y2390D01*
Y2310D01*
G01X9133Y4950D02*
X9030D01*
X9000Y4920D01*
G01X9170Y3990D02*
Y4050D01*
X9210Y4090D01*
X9660D01*
X9700Y4130D01*
X11360D01*
X11556Y4326D01*
Y5184D01*
X11470Y5270D01*
Y5620D01*
X11310Y5780D01*
X9686D01*
X9636Y5730D01*
X9143D01*
X9060Y5647D01*
Y5620D01*
G01X11650Y1680D02*
Y1080D01*
X11330Y760D01*
X9190D01*
X9150Y720D01*
Y660D01*
G01X9670Y4290D02*
Y4310D01*
X9720Y4360D01*
X10230D01*
X10360Y4230D01*
X10930D01*
X10970Y4270D01*
Y4630D01*
X11350Y5010D01*
Y5120D01*
X11420Y5190D01*
Y5500D01*
X11250Y5670D01*
G01X9660Y5920D02*
Y6000D01*
X9690Y6030D01*
X10840D01*
X10850Y6040D01*
G01X10800Y7670D02*
X9700D01*
X9680Y7650D01*
Y7570D01*
G01X9760Y2610D02*
X9780Y2630D01*
X10470D01*
X10630Y2470D01*
X11340D01*
X11678Y2132D01*
Y1968D01*
X10670Y960D01*
X9750D01*
G01X11460Y5130D02*
Y5030D01*
X11060Y4630D01*
Y4240D01*
X11000Y4180D01*
X10270D01*
X10160Y4290D01*
X9770D01*
G01X10053Y4950D02*
X9980D01*
X9940Y4910D01*
G01X9760Y5920D02*
X10250D01*
X10290Y5880D01*
X11410D01*
X11480Y5950D01*
G01X10800Y7570D02*
X9780D01*
G01X11230Y6830D02*
Y6460D01*
X10960Y6190D01*
X10956D01*
X10850Y6084D01*
Y6040D01*
G01D02*
Y5970D01*
G01X11480Y5950D02*
Y6810D01*
X11200Y7090D01*
Y7370D01*
G01X11290Y2267D02*
X11393D01*
X11610Y2050D01*
G01X11480Y5950D02*
X11550Y5880D01*
Y5320D01*
G54D17*
G01X647Y4900D02*
X300D01*
X270Y4870D01*
Y4840D01*
X110Y4680D01*
Y1620D01*
X300Y1430D01*
Y1340D01*
X80Y1120D01*
Y390D01*
X400Y70D01*
X700D01*
X710Y80D01*
G01X220Y1370D02*
X60Y1530D01*
Y4760D01*
X100Y4800D01*
Y7920D01*
X60Y7960D01*
Y8390D01*
X120Y8450D01*
X130D01*
G01X573Y4710D02*
X380D01*
G01X410Y6480D02*
Y6236D01*
X676Y5970D01*
X990D01*
X1100Y6080D01*
X1610D01*
X1690Y6000D01*
Y5950D01*
G01X713Y6480D02*
X410D01*
G01X1370Y7580D02*
X780D01*
X440Y7920D01*
Y8000D01*
X190Y8250D01*
X130D01*
G01Y8350D02*
X710D01*
X787Y8273D01*
G01X710Y80D02*
X1690D01*
G01X717Y190D02*
Y87D01*
X710Y80D01*
G01X930Y250D02*
X920Y260D01*
X680D01*
X650Y230D01*
Y228D01*
X643Y221D01*
Y190D01*
G01X1730Y970D02*
Y1030D01*
X1700Y1060D01*
X660D01*
X560Y1160D01*
Y1247D01*
X573Y1260D01*
G01X647D02*
Y1577D01*
X650Y1580D01*
X700D01*
G01X450Y1260D02*
X573D01*
G01X700Y1580D02*
X1620D01*
G01X717Y1910D02*
Y1597D01*
X700Y1580D01*
G01X920Y2080D02*
X780D01*
X677Y1977D01*
Y1975D01*
X656Y1954D01*
Y1924D01*
X643Y1910D01*
G01X573Y2950D02*
X580Y2943D01*
Y2840D01*
X740Y2680D01*
X960D01*
X1030Y2750D01*
X1660D01*
X1720Y2690D01*
Y2630D01*
G01X640Y3210D02*
X647Y3203D01*
Y2950D01*
G01X420Y2960D02*
X563D01*
X573Y2950D01*
G01X640Y3210D02*
X730D01*
G01X717Y3560D02*
Y3223D01*
X730Y3210D01*
G01X790Y3943D02*
X723D01*
X640Y3860D01*
Y3663D01*
X582Y3604D01*
Y3268D01*
X640Y3210D01*
G01X890Y3640D02*
X692D01*
X643Y3591D01*
Y3560D01*
G01X573Y4710D02*
X560Y4697D01*
Y4560D01*
X790Y4330D01*
X1040D01*
X1180Y4470D01*
X1610D01*
X1730Y4350D01*
Y4290D01*
G01X677Y5033D02*
X647Y5003D01*
Y4900D01*
G01D02*
Y4710D01*
G01X790Y5033D02*
X677D01*
G01X750Y5530D02*
X740Y5540D01*
G01X916Y5424D02*
X734D01*
X713Y5403D01*
Y5330D01*
G01X460Y5940D02*
X620Y5780D01*
Y5630D01*
X700Y5550D01*
X730D01*
X740Y5540D01*
G01X490Y6400D02*
X750D01*
X780Y6430D01*
Y6473D01*
X787Y6480D01*
G01X653Y6730D02*
Y6623D01*
G01X1730Y7280D02*
Y7100D01*
X1470Y6840D01*
X680D01*
X650Y6810D01*
Y6733D01*
X653Y6730D01*
G01X683Y8200D02*
X550D01*
X520Y8170D01*
Y8140D01*
G01X683Y8200D02*
X690Y8193D01*
Y8090D01*
X710Y8070D01*
X1310D01*
X1730Y7650D01*
Y7580D01*
G01X930Y250D02*
Y330D01*
G01X1730Y670D02*
Y500D01*
X1480Y250D01*
X930D01*
G01X900Y650D02*
X1510D01*
X1530Y670D01*
G01X1720Y2330D02*
Y2150D01*
X1460Y1890D01*
X962D01*
X920Y1932D01*
Y2080D01*
G01X730Y3210D02*
X1590D01*
G01X1730Y3990D02*
Y3820D01*
X1420Y3510D01*
X1020D01*
X890Y3640D01*
G01X920Y3750D02*
X890Y3720D01*
Y3640D01*
G01X1590Y5033D02*
X790D01*
G01X787Y5330D02*
Y5035D01*
X790Y5033D01*
G01X916Y5424D02*
X1185Y5155D01*
X1425D01*
X1512Y5242D01*
Y5244D01*
X1532Y5265D01*
X1535D01*
X1690Y5420D01*
Y5650D01*
G01X740Y5540D02*
Y5543D01*
G01X787Y6480D02*
Y6527D01*
X840Y6580D01*
G01D02*
X1670D01*
G01X840D02*
X820Y6600D01*
Y6680D01*
X770Y6730D01*
X727D01*
G01X787Y8273D02*
X757Y8243D01*
Y8200D01*
G01X787Y8273D02*
X1187D01*
X1253Y8207D01*
X1367D01*
X1430Y8270D01*
X1677D01*
G01X1613Y180D02*
X1610Y183D01*
Y290D01*
X1725Y405D01*
G01X1830Y970D02*
Y1080D01*
X1800Y1110D01*
X1570D01*
X1520Y1160D01*
Y1277D01*
X1543Y1300D01*
G01X1380D02*
X1543D01*
G01X1617D02*
Y1577D01*
X1620Y1580D01*
G01X1573Y1870D02*
X1570Y1873D01*
Y1920D01*
X1620Y1970D01*
X1830D01*
G01X1520Y2630D02*
X1360D01*
G01X1587Y2980D02*
Y3207D01*
X1590Y3210D01*
G01X1513Y2980D02*
X1526Y2966D01*
Y2894D01*
X1570Y2850D01*
X1640D01*
X1820Y2670D01*
Y2630D01*
G01X1380Y2980D02*
X1513D01*
G01X1590Y3210D02*
X1630D01*
G01X1553Y3530D02*
Y3563D01*
X1710Y3720D01*
X1840D01*
G01X1530Y4290D02*
X1390D01*
G01X1523Y4760D02*
X1530Y4753D01*
Y4640D01*
X1830Y4340D01*
Y4290D01*
G01X1597Y4760D02*
Y5025D01*
X1590Y5033D01*
G01X1523Y4760D02*
X1390D01*
G01X1630Y5033D02*
X1590D01*
G01X1850Y5290D02*
X1631D01*
X1573Y5232D01*
Y5200D01*
G01X1490Y5950D02*
X1360D01*
G01X1790D02*
Y6020D01*
X1620Y6190D01*
Y6477D01*
X1623Y6480D01*
G01D02*
X1410D01*
G01X1593Y6770D02*
Y6670D01*
G01Y6770D02*
X1590Y6773D01*
Y6840D01*
X1830Y7080D01*
Y7280D01*
G01X1530Y7580D02*
X1370D01*
G01X1830D02*
Y7630D01*
X1440Y8020D01*
Y8120D01*
G01D02*
Y8160D01*
X1480Y8200D01*
X1603D01*
G01X1690Y80D02*
X2550D01*
G01X1687Y180D02*
Y83D01*
X1690Y80D01*
G01X1725Y405D02*
Y395D01*
X1870Y250D01*
G01X1725Y405D02*
X1830Y510D01*
Y670D01*
G01X1670Y1580D02*
X1620D01*
G01X1647Y1870D02*
Y1603D01*
X1670Y1580D01*
G01D02*
X2407D01*
X2410Y1577D01*
X2470D01*
X2473Y1580D01*
X2530D01*
G01X1830Y1970D02*
X1820Y1980D01*
Y2330D01*
G01X1920D02*
Y2050D01*
X2190Y1780D01*
X2490D01*
X2580Y1690D01*
X2583D01*
G01X2330Y2955D02*
X2165D01*
X1920Y2710D01*
Y2630D01*
G01X1630Y3210D02*
X2550D01*
G01X1627Y3530D02*
Y3213D01*
X1630Y3210D01*
G01X1880Y3600D02*
X1870D01*
X1840Y3630D01*
Y3720D01*
G01D02*
Y3980D01*
X1830Y3990D01*
G01X2540Y5033D02*
X1630D01*
G01X1647Y5200D02*
Y5050D01*
X1630Y5033D01*
G01X2503Y5170D02*
X2443Y5110D01*
X2190D01*
X1890Y5410D01*
Y5650D01*
G01X1790D02*
Y5350D01*
X1850Y5290D01*
G01X2340Y6500D02*
X2335Y6495D01*
Y6435D01*
X1890Y5990D01*
Y5950D01*
G01X1697Y6480D02*
Y6567D01*
X1710Y6580D01*
G01D02*
X2370D01*
X2385Y6565D01*
X2640D01*
G01X1667Y6770D02*
Y6583D01*
X1670Y6580D01*
G01D02*
X1710D01*
G01X1677Y8270D02*
Y8200D01*
G01Y8270D02*
X1680Y8273D01*
X2580D01*
G01X3493Y250D02*
X2810D01*
X2770Y290D01*
X2490D01*
X2450Y250D01*
X2160D01*
X2030Y380D01*
Y670D01*
G01X2483Y170D02*
X2110D01*
X1930Y350D01*
Y670D01*
G01X2130D02*
Y710D01*
X2180Y760D01*
X2383D01*
X2393Y750D01*
G01X2320Y1210D02*
X2080D01*
X1930Y1060D01*
Y970D01*
G01X2030D02*
Y1050D01*
X2060Y1080D01*
X3300D01*
G01X3523Y1870D02*
X3483Y1830D01*
X2229D01*
X2020Y2039D01*
Y2330D01*
G01X2800Y1980D02*
X2700Y1880D01*
X2260D01*
X2120Y2020D01*
Y2330D01*
G01X3260Y2770D02*
X3080D01*
X3030Y2720D01*
X2730D01*
X2680Y2770D01*
X2110D01*
X2020Y2680D01*
Y2630D01*
G01X2540Y3330D02*
X2280D01*
X1930Y3680D01*
Y3990D01*
G01X2030D02*
Y3740D01*
X2250Y3520D01*
X2380D01*
X2530Y3670D01*
X3000D01*
X3360Y3310D01*
X3460D01*
G01X2130Y3990D02*
Y4030D01*
X2190Y4090D01*
X2438D01*
X2464Y4064D01*
Y4034D01*
X2477Y4020D01*
G01X2340Y4770D02*
X1930Y4360D01*
Y4290D01*
G01X3270Y4660D02*
X3120Y4810D01*
X2760D01*
X2440Y4490D01*
X2160D01*
X2030Y4360D01*
Y4290D01*
G01X1990Y5650D02*
Y5420D01*
X2240Y5170D01*
X2339D01*
X2340Y5171D01*
X2381D01*
X2570Y5360D01*
X3020D01*
X3180Y5200D01*
X3453D01*
X3463Y5210D01*
G01X2190Y5650D02*
X2413D01*
X2493Y5570D01*
G01X2090Y5650D02*
Y5740D01*
X2106Y5756D01*
X2454D01*
X2560Y5650D01*
Y5577D01*
X2567Y5570D01*
G01X3250Y6490D02*
X2780D01*
X2500Y6210D01*
X2200D01*
X1990Y6000D01*
Y5950D01*
G01X2563Y6740D02*
X2543Y6760D01*
X2120D01*
X1930Y6950D01*
Y7280D01*
G01X3493Y6750D02*
X3453Y6790D01*
X2750D01*
X2730Y6810D01*
X2240D01*
X2030Y7020D01*
Y7280D01*
G01X2130D02*
X2160Y7310D01*
Y7344D01*
X2181Y7365D01*
X2715D01*
X2800Y7280D01*
Y7170D01*
G01X2030Y7580D02*
Y7679D01*
X2091Y7740D01*
X2330D01*
X2700Y8110D01*
X3320D01*
X3340Y8090D01*
G01X2340Y8080D02*
Y8060D01*
X1930Y7650D01*
Y7580D01*
G01X2810Y170D02*
X2745Y235D01*
X2517D01*
X2496Y214D01*
Y184D01*
X2483Y170D01*
G01X2470Y670D02*
X2230D01*
G01X3587Y270D02*
X3590Y273D01*
Y490D01*
X3410Y670D01*
X2470D01*
G01X2467Y750D02*
Y673D01*
X2470Y670D01*
G01X2340Y1310D02*
Y1230D01*
X2320Y1210D01*
G01X2463D02*
X2320D01*
G01X2220Y2330D02*
X2463D01*
X2573Y2220D01*
G01X2473Y2950D02*
X2468Y2955D01*
X2330D01*
G01Y2850D02*
Y2955D01*
G01X2403Y4020D02*
Y3977D01*
X2500Y3880D01*
X2990D01*
X3080Y3970D01*
X3673D01*
X3761Y3881D01*
G01X2230Y3990D02*
X2250Y4010D01*
X2390D01*
X2400Y4020D01*
X2403D01*
G01X2477D02*
X2780D01*
G01X2483Y4770D02*
X2340D01*
G01X2760Y5270D02*
X2551D01*
X2503Y5222D01*
Y5170D01*
G01X3800Y5033D02*
X3810Y5043D01*
Y5390D01*
X3600Y5600D01*
X3150D01*
X3030Y5480D01*
X2520D01*
X2493Y5507D01*
Y5570D01*
G01X2563Y6500D02*
X2340D01*
G01X2230Y7280D02*
X2443D01*
X2493Y7230D01*
G01X3567Y6750D02*
Y6827D01*
X3537Y6857D01*
X2813D01*
X2506Y7164D01*
Y7216D01*
X2493Y7230D01*
G01X2503Y8200D02*
X2370D01*
X2340Y8170D01*
Y8080D01*
G01X2550Y80D02*
X3840D01*
G01X2557Y170D02*
Y87D01*
X2550Y80D01*
G01X2537Y1210D02*
Y1573D01*
X2530Y1580D01*
G01X2657Y1690D02*
Y1583D01*
X2660Y1580D01*
G01X2530D02*
X2660D01*
G01D02*
X3530D01*
G01X2647Y2220D02*
Y2133D01*
X2800Y1980D01*
G01X2573Y2220D02*
Y2253D01*
X2630Y2310D01*
X3390D01*
X3520Y2180D01*
X3913D01*
X3920Y2173D01*
Y1590D01*
X3910Y1580D01*
G01X2547Y2950D02*
Y3207D01*
X2550Y3210D01*
G01X2630D02*
X3490D01*
G01X2550D02*
X2630D01*
G01X2617Y3420D02*
Y3223D01*
X2630Y3210D01*
G01X2543Y3420D02*
Y3333D01*
X2540Y3330D01*
G01X2557Y4770D02*
Y5015D01*
X2540Y5033D01*
G01X2580D02*
X2540D01*
G01X3510D02*
X2580D01*
G01X2577Y5170D02*
Y5035D01*
X2580Y5033D01*
G01X2573Y6643D02*
Y6730D01*
X2563Y6740D01*
G01X2637Y6500D02*
Y6562D01*
X2640Y6565D01*
G01D02*
X3278D01*
X3283Y6560D01*
X3560D01*
G01X2637Y6740D02*
X2660Y6717D01*
Y6585D01*
X2640Y6565D01*
G01X2567Y7230D02*
X2740D01*
X2800Y7170D01*
G01X2580Y8273D02*
X2577Y8270D01*
Y8200D01*
G01X3620Y8273D02*
X3413D01*
X3300Y8160D01*
X2930D01*
X2817Y8273D01*
X2580D01*
G01X3300Y1080D02*
X3453D01*
X3473Y1100D01*
G01X3260Y2770D02*
X3353D01*
X3413Y2830D01*
G01X3260Y2660D02*
Y2770D01*
G01X3433Y4660D02*
X3270D01*
G01X3483Y6490D02*
X3250D01*
G01X3340Y8090D02*
X3450Y8200D01*
X3553D01*
G01X3840Y80D02*
X3850Y90D01*
Y220D01*
X3803Y267D01*
X3590D01*
X3587Y270D01*
G01X3730Y180D02*
X3680Y130D01*
X3620D01*
X3500Y250D01*
X3493D01*
G01D02*
X3513Y270D01*
G01X3530Y1580D02*
X3540Y1570D01*
Y1107D01*
X3547Y1100D01*
G01X3530Y1580D02*
X3600D01*
G01X3597Y1870D02*
Y1583D01*
X3600Y1580D01*
G01D02*
X3910D01*
G01X3523Y1870D02*
Y1940D01*
X3553Y1970D01*
X3720D01*
X3750Y2000D01*
Y2070D01*
G01X3487Y2830D02*
Y3207D01*
X3490Y3210D01*
G01X3530D02*
X4450D01*
G01X3490D02*
X3530D01*
G01X3537Y3410D02*
Y3217D01*
X3530Y3210D01*
G01X3810Y3833D02*
X3537Y3560D01*
Y3410D01*
G01X3463D02*
Y3313D01*
X3460Y3310D01*
G01X3507Y4660D02*
Y5030D01*
X3510Y5033D01*
G01X3540D02*
X3510D01*
G01X3537Y5210D02*
Y5035D01*
X3540Y5033D01*
G01X3730Y5290D02*
X3490D01*
X3463Y5263D01*
Y5210D01*
G01X3800Y5033D02*
X3540D01*
G01X3493Y6750D02*
Y6653D01*
G01X3557Y6490D02*
Y6557D01*
X3560Y6560D01*
G01D02*
X4372D01*
X4388Y6544D01*
X4500D01*
G01X3567Y6750D02*
Y6567D01*
X3560Y6560D01*
G01X3620Y8273D02*
X3627Y8265D01*
Y8200D01*
G01X4420Y8273D02*
X3620D01*
G01X3930Y80D02*
X4480D01*
G01X3840D02*
X3930D01*
G01X3943Y620D02*
Y93D01*
X3930Y80D01*
G01X3910Y1580D02*
X4030D01*
G01X3950Y3833D02*
X3810D01*
G01D02*
X3761Y3881D01*
G01X4410Y5033D02*
X3800D01*
G01X4313Y1350D02*
X4326Y1336D01*
Y1184D01*
X4490Y1020D01*
X4780D01*
X5000Y1240D01*
X5320D01*
X5560Y1480D01*
X5710D01*
X5950Y1240D01*
Y1060D01*
G01X4210Y1340D02*
X4303D01*
X4313Y1350D01*
G01X4030Y1580D02*
X4370D01*
G01X4210Y2920D02*
X4363D01*
X4373Y2930D01*
G01X4170Y4740D02*
X4160Y4750D01*
Y4920D01*
X4190Y4950D01*
X4333D01*
G01X4170Y4740D02*
X4400D01*
X4440Y4780D01*
X4750D01*
X4850Y4680D01*
X5410D01*
X5500Y4770D01*
X5798D01*
X5910Y4658D01*
X5912D01*
X5990Y4580D01*
Y4360D01*
G01X4200Y6460D02*
Y6330D01*
X4510Y6020D01*
X5420D01*
X5450Y5990D01*
Y5900D01*
G01X4463Y6460D02*
X4200D01*
G01X4353Y8200D02*
X4230D01*
X4200Y8170D01*
Y8050D01*
G01D02*
X4590Y7660D01*
X5650D01*
X5711Y7721D01*
X5969D01*
X5990Y7700D01*
Y7600D01*
G01X5417Y83D02*
X5420Y80D01*
X4480D01*
G01X4477Y280D02*
Y83D01*
X4480Y80D01*
G01X4403Y280D02*
Y320D01*
X4433Y350D01*
X4620D01*
G01D02*
X4730Y240D01*
X5280D01*
X5440Y400D01*
X5700D01*
X5950Y650D01*
Y760D01*
G01X4670Y450D02*
Y400D01*
X4620Y350D01*
G01X4397Y1850D02*
Y1607D01*
X4370Y1580D01*
G01X4387Y1350D02*
Y1563D01*
X4370Y1580D01*
G01D02*
X5340D01*
G01X4680Y1870D02*
X4620Y1930D01*
X4372D01*
X4336Y1894D01*
Y1864D01*
X4323Y1850D01*
G01X5480Y2630D02*
Y2699D01*
X5409Y2770D01*
X4870D01*
X4820Y2720D01*
X4480D01*
X4450Y2750D01*
Y2822D01*
X4386Y2886D01*
Y2916D01*
X4373Y2930D01*
G01X4447D02*
Y3207D01*
X4450Y3210D01*
G01X4477Y3420D02*
Y3237D01*
X4450Y3210D01*
G01D02*
X5390D01*
G01X4403Y3323D02*
Y3420D01*
G01X5990Y4060D02*
Y4006D01*
X5824Y3840D01*
X5580D01*
X5270Y3530D01*
X4690D01*
X4580Y3640D01*
X4430D01*
X4410Y3620D01*
Y3557D01*
X4403Y3550D01*
Y3420D01*
G01X4487Y5120D02*
Y5040D01*
X4480Y5033D01*
G01X4664Y5306D02*
X4658Y5300D01*
X4462D01*
X4413Y5251D01*
Y5120D01*
G01X5360Y5033D02*
X4480D01*
G01X4407Y4950D02*
Y5030D01*
X4410Y5033D01*
G01X4480D02*
X4410D01*
G01X4413Y6720D02*
Y6623D01*
G01X4537Y6460D02*
Y6537D01*
X4530Y6544D01*
G01D02*
X5370D01*
G01X4487Y6720D02*
Y6557D01*
X4500Y6544D01*
G01D02*
X4530D01*
G01X5990Y7300D02*
X5960Y7270D01*
Y7234D01*
X5786Y7060D01*
X5540D01*
X5310Y6830D01*
X4450D01*
X4420Y6800D01*
Y6727D01*
X4413Y6720D01*
G01X4427Y8200D02*
Y8265D01*
X4420Y8273D01*
G01X5390D02*
X4420D01*
G01X4680Y1870D02*
Y2130D01*
G01X5480Y2330D02*
Y2080D01*
X5250Y1850D01*
X4700D01*
X4680Y1870D01*
G01X4664Y5306D02*
X4821Y5149D01*
X5189D01*
X5251Y5211D01*
X5292Y5235D01*
X5329D01*
X5395Y5301D01*
Y5355D01*
X5450Y5410D01*
Y5600D01*
G01X5750Y1060D02*
X5160D01*
G01X5283Y1500D02*
X5240D01*
X5155Y1415D01*
G01X6050Y1060D02*
Y1320D01*
X5840Y1530D01*
X5530D01*
X5400Y1400D01*
X5170D01*
X5155Y1415D01*
G01X5280Y2630D02*
X5100D01*
G01X5150Y2930D02*
X5303D01*
G01X5160Y4460D02*
X5450D01*
X5550Y4360D01*
X5790D01*
G01X5140Y4760D02*
Y4870D01*
X5160Y4890D01*
X5263D01*
G01X5140Y4760D02*
X5410D01*
X5480Y4830D01*
X5850D01*
X6090Y4590D01*
Y4360D01*
G01X5250Y5900D02*
X5110D01*
G01X5333Y6400D02*
X5160D01*
G01D02*
Y6390D01*
X5550Y6000D01*
Y5900D01*
G01X5313Y8200D02*
X5190D01*
X5160Y8170D01*
Y8060D01*
G01D02*
X5180Y8080D01*
X5870D01*
X6090Y7860D01*
Y7600D01*
G01X5417Y190D02*
Y83D01*
G01X6347Y80D02*
X6300D01*
X6220Y160D01*
X6130Y250D01*
X5760D01*
X5593Y83D01*
X5417D01*
G01X5640Y350D02*
X5470D01*
X5377Y257D01*
Y255D01*
X5356Y234D01*
Y204D01*
X5343Y190D01*
G01X5377Y1690D02*
Y1583D01*
X5380Y1580D01*
G01D02*
X6300D01*
G01X5357Y1500D02*
X5350Y1507D01*
Y1570D01*
X5340Y1580D01*
G01D02*
X5380D01*
G01X5303Y1690D02*
Y1803D01*
X5570Y2070D01*
X5580D01*
G01X5303Y2930D02*
X5290Y2917D01*
Y2870D01*
X5320Y2840D01*
X5410D01*
X5580Y2670D01*
Y2630D01*
G01X5377Y2930D02*
Y3197D01*
X5390Y3210D01*
G01D02*
X6330D01*
G01X5397Y3400D02*
Y3217D01*
X5390Y3210D01*
G01X6090Y4000D02*
Y4060D01*
G01X5337Y4890D02*
X5360Y4913D01*
Y5033D01*
G01X6330D02*
X5360D01*
G01X5367Y5120D02*
Y5040D01*
X5360Y5033D01*
G01X5293Y5120D02*
Y5151D01*
X5327Y5185D01*
X5349D01*
X5454Y5290D01*
X5610D01*
G01X5407Y6400D02*
Y6542D01*
X5410Y6544D01*
G01X5293Y6710D02*
Y6617D01*
G01X5410Y6544D02*
X6380D01*
G01X5367Y6710D02*
Y6547D01*
X5370Y6544D01*
G01D02*
X5410D01*
G01X5300Y6717D02*
X5293Y6710D01*
G01X5387Y8200D02*
Y8270D01*
X5390Y8273D01*
G01X6350D02*
X5390D01*
G01X5640Y350D02*
X5730D01*
X6050Y670D01*
Y760D01*
G01X5640Y250D02*
Y350D01*
G01X7263Y1850D02*
X6529D01*
X6459Y1920D01*
X6280D01*
X6260Y1900D01*
X6010D01*
X5910Y2000D01*
X5780Y2130D01*
Y2330D01*
G01X6320Y1847D02*
X6313Y1840D01*
X5900D01*
X5680Y2060D01*
Y2330D01*
G01X5620Y1950D02*
Y2020D01*
X5580Y2060D01*
Y2070D01*
G01D02*
Y2330D01*
G01X5680Y2630D02*
Y2681D01*
X5829Y2830D01*
X5870D01*
X5940Y2900D01*
X6110D01*
G01X5780Y2630D02*
Y2710D01*
X5850Y2780D01*
X6475D01*
X6566Y2727D01*
X6658Y2780D01*
X7020D01*
G01X7243Y5110D02*
X7050D01*
X6765Y5395D01*
X6365D01*
X6170Y5200D01*
X5970D01*
X5750Y5420D01*
Y5600D01*
G01X6313Y5120D02*
X5960D01*
X5650Y5430D01*
Y5600D01*
G01X5550D02*
Y5350D01*
X5610Y5290D01*
G01X7040Y6410D02*
X7020Y6430D01*
X6510D01*
X6220Y6140D01*
X5930D01*
X5750Y5960D01*
Y5900D01*
G01X6090Y6440D02*
Y6400D01*
X5650Y5960D01*
Y5900D01*
G01X6447Y2190D02*
X6440Y2197D01*
Y2240D01*
X6410Y2270D01*
X6330D01*
X6180Y2420D01*
X5936D01*
X5880Y2364D01*
Y2330D01*
G01X6373Y2190D02*
X6363Y2200D01*
X6290D01*
X6160Y2330D01*
X5980D01*
G01X6100Y3060D02*
Y2910D01*
X6110Y2900D01*
G01D02*
X6233D01*
X6253Y2880D01*
G01X6347Y5590D02*
Y5673D01*
X6335Y5685D01*
X5865D01*
X5850Y5670D01*
Y5600D01*
G01X5950D02*
X6263D01*
X6273Y5590D01*
G01X6323Y6440D02*
X6090D01*
G01X6273Y8200D02*
X6120D01*
X6090Y8170D01*
Y8080D01*
G01X6190Y7600D02*
Y7980D01*
X6090Y8080D01*
G01X6347Y80D02*
X7300D01*
G01X6347Y220D02*
Y80D01*
G01X6273Y220D02*
X6280Y227D01*
Y300D01*
G01X6520Y290D02*
X6290D01*
X6280Y300D01*
G01D02*
Y560D01*
X6150Y690D01*
Y760D01*
G01X6350D02*
Y700D01*
X6570Y480D01*
G01X7233Y200D02*
X6730D01*
X6250Y680D01*
Y760D01*
G01X6150Y1060D02*
Y1480D01*
X6130Y1500D01*
G01X7223Y1470D02*
X7143Y1390D01*
X6760D01*
X6670Y1480D01*
X6400D01*
X6250Y1330D01*
Y1060D01*
G01X6397Y1850D02*
Y1583D01*
X6400Y1580D01*
G01X6213Y1510D02*
X6140D01*
X6130Y1500D01*
G01X6287Y1510D02*
Y1567D01*
X6300Y1580D01*
G01D02*
X6400D01*
G01D02*
X7300D01*
G01X6320Y1847D02*
Y1730D01*
X6250Y1660D01*
X6240D01*
G01X6323Y1850D02*
X6320Y1847D01*
G01X6373Y2190D02*
Y2077D01*
X6550Y1900D01*
X7200D01*
X7220Y1920D01*
X7300D01*
X7330Y1890D01*
Y1857D01*
X7337Y1850D01*
G01X6327Y2880D02*
Y3207D01*
X6330Y3210D01*
G01D02*
X7220D01*
G01X6347Y3410D02*
Y3227D01*
X6330Y3210D01*
G01X6273Y3410D02*
X6280Y3417D01*
Y3860D01*
X6190Y3950D01*
Y4060D01*
G01X6273Y3323D02*
X6270Y3325D01*
Y3407D01*
X6273Y3410D01*
G01X6290Y4060D02*
Y4000D01*
X6740Y3550D01*
X6777D01*
X6779Y3552D01*
X7063D01*
X7273Y3343D01*
G01X6390Y4060D02*
Y4026D01*
X6441Y3975D01*
X6445D01*
X6570Y3850D01*
G01X6190Y4360D02*
Y4770D01*
X6130Y4830D01*
G01X6290Y4360D02*
Y4780D01*
X6330Y4820D01*
X7060D01*
X7110Y4870D01*
G01X6253Y4930D02*
X6230D01*
X6130Y4830D01*
G01X6387Y5120D02*
Y5040D01*
X6380Y5033D01*
G01X7320D02*
X6380D01*
G01X6327Y4930D02*
Y5030D01*
X6330Y5033D01*
G01X6380D02*
X6330D01*
G01X6570Y5300D02*
X6556Y5286D01*
Y5244D01*
X6526Y5214D01*
X6334D01*
X6313Y5193D01*
Y5120D01*
G01X7640Y5443D02*
X7637Y5440D01*
X7510D01*
X7350Y5600D01*
X6940D01*
X6830Y5490D01*
X6350D01*
X6315Y5525D01*
X6307D01*
X6273Y5559D01*
Y5590D01*
G01X6397Y6440D02*
Y6532D01*
X6410Y6544D01*
G01D02*
X7350D01*
G01X6377Y6720D02*
Y6547D01*
X6380Y6544D01*
G01D02*
X6410D01*
G01X6303Y6720D02*
X6290Y6733D01*
Y7120D01*
X6190Y7220D01*
Y7300D01*
G01X6303Y6720D02*
X6300Y6717D01*
Y6635D01*
X6303Y6633D01*
G01X7283Y6657D02*
X7275Y6650D01*
X6830D01*
X6340Y7140D01*
Y7141D01*
X6290Y7191D01*
Y7300D01*
G01X6390D02*
Y7334D01*
G01X7050Y8110D02*
X7030Y8090D01*
X6490D01*
X6290Y7890D01*
Y7600D01*
G01X6390Y7334D02*
X6446Y7390D01*
X6680D01*
X6754Y7316D01*
Y7244D01*
X6757Y7240D01*
G01X6347Y8200D02*
Y8270D01*
X6350Y8273D01*
G01X7390D02*
X6350D01*
G01X6630Y670D02*
X6540D01*
X6450Y760D01*
G01X6570Y480D02*
X6580Y470D01*
X6670D01*
X6707Y507D01*
Y580D01*
G01X6633D02*
Y667D01*
X6630Y670D01*
G01D02*
X7480D01*
X7540Y610D01*
Y220D01*
X7510Y190D01*
X7340D01*
X7330Y200D01*
X7307D01*
G01X6447Y2190D02*
X6570D01*
G01Y3850D02*
X6650D01*
X6697Y3897D01*
Y3970D01*
G01X6623D02*
X6630Y3977D01*
Y4010D01*
X6660Y4040D01*
X7180D01*
X7347Y3873D01*
Y3810D01*
G01X6490Y4060D02*
Y4050D01*
X6570Y3970D01*
X6623D01*
G01X6490Y7300D02*
X6623D01*
X6683Y7240D01*
G01X6757D02*
X7470D01*
G01X7307Y200D02*
X7300Y193D01*
Y80D01*
G01D02*
X7660D01*
G01X7233Y200D02*
X7230Y203D01*
Y280D01*
X7260Y310D01*
X7420D01*
X7460Y270D01*
G01X7300Y1580D02*
X7350D01*
G01X7297Y1470D02*
Y1577D01*
X7300Y1580D01*
G01X7050Y1470D02*
X7223D01*
G01X7230Y1660D02*
Y1817D01*
X7263Y1850D01*
G01X7153Y2840D02*
X7093Y2780D01*
X7020D01*
G01Y2680D02*
Y2780D01*
G01X7227Y2840D02*
Y3203D01*
X7220Y3210D01*
G01D02*
X7350D01*
G01X7273Y3560D02*
Y3343D01*
G01X7223Y4920D02*
X7160D01*
X7110Y4870D01*
G01X7317Y5110D02*
Y5035D01*
X7320Y5033D01*
G01X7297Y4920D02*
Y5010D01*
X7320Y5033D01*
G01X7520Y5300D02*
X7350D01*
X7250Y5200D01*
Y5117D01*
X7243Y5110D01*
G01X7273Y6410D02*
X7040D01*
G01X7283Y6770D02*
Y6657D01*
G01X7303Y8200D02*
X7140D01*
X7050Y8110D01*
G01X7350Y1580D02*
X8170D01*
G01X7337Y1850D02*
Y1593D01*
X7350Y1580D01*
G01X7337Y1850D02*
X7520D01*
X7680Y2010D01*
Y2103D01*
G01X7350Y3210D02*
X8180D01*
G01X7347Y3560D02*
Y3213D01*
X7350Y3210D01*
G01X7347Y3810D02*
Y3560D01*
G01X7650Y5033D02*
X7320D01*
G01X7347Y6410D02*
Y6542D01*
X7350Y6544D01*
G01D02*
X8028D01*
X8062Y6510D01*
X8160D01*
G01X7357Y6770D02*
Y6552D01*
X7350Y6544D01*
G01X7650Y6880D02*
X7467D01*
X7357Y6770D01*
G01X7377Y8200D02*
Y8260D01*
X7390Y8273D01*
G01X8250D02*
X7390D01*
G01X7660Y543D02*
Y80D01*
G01D02*
X8250D01*
G01X7680Y2290D02*
Y2177D01*
G01X7640Y5443D02*
Y5043D01*
X7650Y5033D01*
G01X8180D02*
X7650D01*
G01X9160Y5620D02*
Y5565D01*
X9130Y5535D01*
X9011D01*
X8936Y5610D01*
X7830D01*
X7737Y5517D01*
X7640D01*
G01X8340Y7023D02*
X8253D01*
X8080Y6850D01*
X7680D01*
X7650Y6880D01*
G01X7660Y7083D02*
X7650Y7073D01*
Y6880D01*
G01X8420Y390D02*
X8216D01*
X8186Y360D01*
Y294D01*
X8173Y280D01*
G01X9250Y960D02*
Y1020D01*
X9200Y1070D01*
X8300D01*
X8090Y1280D01*
Y1437D01*
X8103Y1450D01*
G01X8187Y1860D02*
Y1597D01*
X8170Y1580D01*
G01D02*
X9150D01*
G01X8177Y1450D02*
Y1573D01*
X8170Y1580D01*
G01X7960Y1450D02*
X8103D01*
G01X8450Y1930D02*
X8152D01*
X8113Y1891D01*
Y1860D01*
G01X8177Y2740D02*
Y3207D01*
X8180Y3210D01*
G01X9260Y2610D02*
Y2670D01*
X9190Y2740D01*
X8977D01*
X8804Y2640D01*
X8167D01*
X8103Y2704D01*
Y2740D01*
G01X7960Y2750D02*
X8093D01*
X8103Y2740D01*
G01X8217Y3430D02*
X8230Y3417D01*
Y3220D01*
X8220Y3210D01*
G01X8180D02*
X8220D01*
G01X8150Y3300D02*
Y3423D01*
X8143Y3430D01*
G01D02*
X8150Y3437D01*
Y3470D01*
X8190Y3510D01*
X9000D01*
X9270Y3780D01*
Y3990D01*
G01X7970Y4670D02*
X8093D01*
X8100Y4663D01*
Y4457D01*
X8177Y4380D01*
X8880D01*
X8900Y4400D01*
X9194D01*
X9270Y4324D01*
Y4290D01*
G01X8167Y4900D02*
Y5020D01*
X8180Y5033D01*
G01X7970Y4670D02*
Y4810D01*
X8060Y4900D01*
X8093D01*
G01X8250Y5033D02*
X8180D01*
G01X8183Y5130D02*
Y5161D01*
X8217Y5195D01*
X8450D01*
G01X9260Y5920D02*
Y5954D01*
X9184Y6030D01*
X8180D01*
X7970Y6240D01*
Y6310D01*
G01X8123D02*
X7970D01*
G01X8197D02*
X8200Y6313D01*
Y6470D01*
X8160Y6510D01*
G01X9190Y6513D02*
X8890D01*
X8886Y6510D01*
X8160D01*
G01X8093Y6690D02*
Y6583D01*
G01X8167Y6690D02*
Y6517D01*
X8160Y6510D01*
G01X8093Y6690D02*
X8100Y6697D01*
Y6790D01*
X8160Y6850D01*
X9040D01*
X9280Y7090D01*
Y7270D01*
G01X8173Y8200D02*
X8080D01*
X7980Y8100D01*
G01X8173Y8200D02*
X8160Y8187D01*
Y8100D01*
X8180Y8080D01*
X8620D01*
X8970Y7730D01*
X9170D01*
X9280Y7620D01*
Y7570D01*
G01X9080Y80D02*
X8250D01*
G01X8247Y280D02*
Y83D01*
X8250Y80D01*
G01X9250Y660D02*
Y370D01*
X9160Y280D01*
X9010D01*
X8980Y250D01*
X8560D01*
X8420Y390D01*
G01X8440Y500D02*
Y410D01*
X8420Y390D01*
G01X8450Y1860D02*
Y1930D01*
G01D02*
X8706D01*
X8791Y1845D01*
X9025D01*
X9260Y2080D01*
Y2310D01*
G01X8220Y3210D02*
X9130D01*
G01X8257Y5130D02*
Y5040D01*
X8250Y5033D01*
G01X9200D02*
X8250D01*
G01X8450Y5490D02*
Y5195D01*
G01D02*
X9049D01*
X9056Y5202D01*
X9070Y5210D01*
X9260Y5400D01*
Y5620D01*
G01X8340Y7097D02*
Y7130D01*
X8450Y7240D01*
X8970D01*
X9025Y7185D01*
X9129D01*
X9180Y7236D01*
Y7270D01*
G01X8247Y8200D02*
Y8270D01*
X8250Y8273D01*
G01X9220D02*
X8250D01*
G01X9077Y160D02*
Y83D01*
X9080Y80D01*
G01X10160Y60D02*
X9100D01*
X9080Y80D01*
G01X9003Y160D02*
X9010Y167D01*
Y200D01*
X9040Y230D01*
X9295D01*
G01X9050Y960D02*
X8870D01*
G01X9063Y1440D02*
X9060Y1437D01*
Y1400D01*
X9205Y1255D01*
Y1175D01*
X9350Y1030D01*
Y960D01*
G01X8920Y1440D02*
X9063D01*
G01X9330Y1880D02*
X9210D01*
X9073Y1743D01*
Y1650D01*
G01X9060Y2610D02*
X8900D01*
G01X9043Y3040D02*
Y3009D01*
X9077Y2975D01*
Y2973D01*
X9360Y2690D01*
Y2610D01*
G01X8910Y3040D02*
X9043D01*
G01X9117D02*
Y3197D01*
X9130Y3210D01*
G01X9070Y4290D02*
X8960D01*
X8930Y4320D01*
G01X9000Y4920D02*
X8990Y4910D01*
Y4710D01*
X9370Y4330D01*
Y4290D01*
G01X9060Y5920D02*
X8910D01*
G01X8920Y6440D02*
X8940Y6420D01*
Y6280D01*
X8970Y6250D01*
X9070D01*
X9360Y5960D01*
Y5920D01*
G01X9113Y6440D02*
X8920D01*
G01X9080Y7570D02*
X8920D01*
G01X8930Y8110D02*
Y7960D01*
X9100Y7790D01*
X9210D01*
X9380Y7620D01*
Y7570D01*
G01X9133Y8200D02*
X9020D01*
X8930Y8110D01*
G01X9295Y230D02*
X9350Y285D01*
Y660D01*
G01Y160D02*
Y175D01*
X9295Y230D01*
G01X9147Y1650D02*
Y1583D01*
X9150Y1580D01*
G01D02*
X10110D01*
G01X9137Y1440D02*
Y1567D01*
X9150Y1580D01*
G01X9330Y1880D02*
X9360D01*
Y2310D01*
G01X9220Y3370D02*
Y3497D01*
X9223Y3500D01*
G01X9297D02*
Y3213D01*
X9300Y3210D01*
G01X9130D02*
X9300D01*
G01D02*
X10070D01*
G01X9223Y3500D02*
X9220Y3503D01*
Y3640D01*
X9370Y3790D01*
Y3990D01*
G01X10110Y5033D02*
X9240D01*
G01X9227Y5150D02*
Y5045D01*
X9240Y5033D01*
G01D02*
X9200D01*
G01X9207Y4950D02*
Y5025D01*
X9200Y5033D01*
G01X9153Y5150D02*
Y5193D01*
X9366Y5406D01*
X9384D01*
G01X9360Y5620D02*
Y5430D01*
X9384Y5406D01*
G01X9133Y6730D02*
Y6633D01*
G01X9187Y6440D02*
Y6510D01*
X9190Y6513D01*
G01X10140Y6510D02*
X9914D01*
X9910Y6513D01*
X9190D01*
G01X9207Y6730D02*
Y6530D01*
X9190Y6513D01*
G01X9133Y6730D02*
X9130Y6733D01*
Y6830D01*
X9380Y7080D01*
Y7270D01*
G01X9207Y8200D02*
Y8260D01*
X9220Y8273D01*
G01X10140D02*
X9220D01*
G01X10083Y130D02*
X10073Y120D01*
X9520D01*
X9450Y190D01*
Y660D01*
G01X11013Y190D02*
X10983Y220D01*
X10271D01*
X10241Y250D01*
X10211D01*
X10030Y250D01*
X9970Y190D01*
X9720D01*
X9550Y360D01*
Y660D01*
G01X10340Y300D02*
X10231D01*
X10000Y300D01*
X9950Y250D01*
X9760D01*
X9650Y360D01*
Y660D01*
G01X9550Y960D02*
Y1040D01*
X9580Y1070D01*
X10610D01*
X10933Y1393D01*
Y1470D01*
G01X9811Y1229D02*
X9723Y1140D01*
X9550D01*
X9450Y1040D01*
Y960D01*
G01X10063Y1830D02*
X10030D01*
X9980Y1780D01*
X9680D01*
X9460Y2000D01*
Y2310D01*
G01X11023Y1900D02*
X10026D01*
X9966Y1840D01*
X9700D01*
X9560Y1980D01*
Y2310D01*
G01X10187Y2210D02*
X10202Y2196D01*
Y2056D01*
X10096Y1950D01*
X9990D01*
X9940Y1900D01*
X9720D01*
X9682Y1938D01*
Y1940D01*
X9660Y1962D01*
Y2310D01*
G01X10793Y2720D02*
X9590D01*
X9560Y2690D01*
Y2610D01*
G01X9883Y2830D02*
X9610D01*
X9460Y2680D01*
Y2610D01*
G01X9570Y3990D02*
Y3710D01*
X9730Y3550D01*
X9940D01*
X10020Y3630D01*
Y3660D01*
X10050Y3690D01*
X10530D01*
X10690Y3530D01*
X10920D01*
G01X9980Y3490D02*
X9690D01*
X9470Y3710D01*
Y3990D01*
G01X9670D02*
X9700Y4020D01*
Y4060D01*
X9720Y4080D01*
X10043D01*
X10104Y4019D01*
Y3954D01*
X10107Y3950D01*
G01X9940Y4910D02*
Y4820D01*
X9470Y4350D01*
Y4290D01*
G01X10973Y4850D02*
Y4770D01*
X10563Y4360D01*
X10294D01*
X10214Y4440D01*
X9670D01*
X9570Y4340D01*
Y4290D01*
G01X10103Y5130D02*
X9750D01*
X9460Y5420D01*
Y5620D01*
G01X11270Y5400D02*
X11080Y5590D01*
X10601D01*
X10461Y5450D01*
X10090D01*
X10040Y5400D01*
Y5210D01*
X10020Y5190D01*
X9790D01*
X9560Y5420D01*
Y5620D01*
G01X10137Y5580D02*
X10140Y5583D01*
Y5650D01*
X10079Y5711D01*
X9681D01*
X9660Y5690D01*
Y5620D01*
G01X10800Y6350D02*
X10720Y6430D01*
X10280D01*
X10185Y6335D01*
X10160Y6321D01*
X10139Y6300D01*
X9860D01*
X9560Y6000D01*
Y5920D01*
G01X9460D02*
Y6020D01*
X9880Y6440D01*
G01X9480Y7270D02*
Y6820D01*
X9650Y6650D01*
X10075D01*
X10083Y6643D01*
G01X11053Y6720D02*
X10410D01*
X10310Y6820D01*
X9690D01*
X9580Y6930D01*
Y7270D01*
G01X10077Y7260D02*
X10080Y7263D01*
Y7340D01*
X10060Y7360D01*
X9710D01*
X9680Y7330D01*
Y7270D01*
G01X9580Y7570D02*
Y7709D01*
X9621Y7750D01*
X9890D01*
X10220Y8080D01*
X10780D01*
X10820Y8120D01*
G01X9860Y8110D02*
X9610Y7860D01*
Y7810D01*
X9480Y7680D01*
Y7570D01*
G01X10130Y660D02*
X9750D01*
G01X10013Y1430D02*
X9811Y1229D01*
G01X9880Y1170D02*
X9870D01*
X9811Y1229D01*
G01X10063Y1830D02*
X10060Y1827D01*
Y1700D01*
X10020Y1660D01*
X10000D01*
G01X10120Y2310D02*
X9760D01*
G01X9993Y2940D02*
X9883Y2830D01*
G01X9880Y3050D02*
Y2833D01*
X9883Y2830D01*
G01X9980Y3290D02*
Y3490D01*
G01X10083Y3610D02*
Y3593D01*
X9980Y3490D01*
G01X9770Y3990D02*
X9993D01*
X10033Y3950D01*
G01X9760Y5620D02*
X10023D01*
X10063Y5580D01*
G01X10053Y6440D02*
X9880D01*
G01X9780Y7270D02*
X9993D01*
X10003Y7260D01*
G01X11110Y6840D02*
X10370D01*
X10003Y7207D01*
Y7260D01*
G01X10063Y8200D02*
X9950D01*
X9860Y8110D01*
G01X10157Y130D02*
Y63D01*
X10160Y60D01*
G01D02*
X11057D01*
X11087Y90D01*
Y190D01*
G01X10280Y140D02*
X10220Y200D01*
X10110D01*
X10083Y173D01*
Y130D01*
G01X10340Y300D02*
Y390D01*
X10217Y513D01*
Y530D01*
G01X10143D02*
Y647D01*
X10130Y660D01*
G01X11087Y190D02*
X11290D01*
X11320Y220D01*
Y600D01*
X11260Y660D01*
X10130D01*
G01X10150Y1580D02*
X10980D01*
G01X10110D02*
X10150D01*
G01X10137Y1830D02*
Y1593D01*
X10150Y1580D01*
G01X10087Y1430D02*
Y1557D01*
X10110Y1580D01*
G01X10187Y2210D02*
X10330D01*
G01X10113D02*
Y2303D01*
X10120Y2310D01*
G01X11084Y2146D02*
X10920Y2310D01*
X10120D01*
G01X10067Y2940D02*
Y3207D01*
X10070Y3210D01*
G01D02*
X10150D01*
G01D02*
X11040D01*
G01X10157Y3610D02*
Y3217D01*
X10150Y3210D01*
G01X10107Y3950D02*
X10320D01*
G01X10033D02*
X10030Y3947D01*
Y3880D01*
X10080Y3830D01*
X10570D01*
X10690Y3950D01*
X11070D01*
G01X10180Y5033D02*
X10110D01*
G01X10127Y4950D02*
Y5015D01*
X10110Y5033D01*
G01X11050D02*
X10180D01*
G01X10177Y5130D02*
Y5035D01*
X10180Y5033D01*
G01X10330Y5340D02*
X10110D01*
X10103Y5333D01*
Y5130D01*
G01X10063Y5580D02*
X10070Y5573D01*
Y5540D01*
X10110Y5500D01*
X10420D01*
X10590Y5670D01*
X11120D01*
X11343Y5447D01*
Y5183D01*
X11290Y5130D01*
X11140D01*
G01X10137Y5580D02*
X10310D01*
G01X10083Y6740D02*
Y6643D01*
G01X10157Y6740D02*
Y6527D01*
X10140Y6510D01*
G01X10127Y6440D02*
Y6497D01*
X10140Y6510D01*
G01X11000D02*
X10140D01*
G01X10077Y7260D02*
X10350D01*
G01X10137Y8200D02*
Y8270D01*
X10140Y8273D01*
G01X11127Y8200D02*
Y8235D01*
X11090Y8273D01*
X10140D01*
G01X10933Y1470D02*
X10850D01*
X10820Y1440D01*
Y1420D01*
G01X10900Y2640D02*
X10873D01*
X10793Y2720D01*
G01X10943Y2870D02*
X10793Y2720D01*
G01X11047Y4850D02*
Y4771D01*
X10800Y4524D01*
Y4320D01*
G01X10943Y6350D02*
X10800D01*
G01X11053Y8200D02*
X10900D01*
X10820Y8120D01*
G01X11240Y270D02*
X11062D01*
X11026Y234D01*
Y204D01*
X11013Y190D01*
G01X11097Y1900D02*
Y1697D01*
X10980Y1580D01*
G01D02*
X11010Y1550D01*
Y1473D01*
X11007Y1470D01*
G01X11097Y1900D02*
X11084Y1914D01*
Y2146D01*
G01X11023Y1900D02*
X11030Y1893D01*
Y1750D01*
X10980Y1700D01*
Y1690D01*
G01X11290Y2193D02*
X11130D01*
X11084Y2146D01*
G01X11017Y2870D02*
X11040D01*
X11430Y2480D01*
G01X11017Y2870D02*
Y3187D01*
X11040Y3210D01*
G01D02*
X11070Y3240D01*
Y3533D01*
X11077Y3540D01*
G01X10920Y3300D02*
Y3530D01*
G01D02*
X10993D01*
X11003Y3540D01*
G01X11070Y3950D02*
Y3547D01*
X11077Y3540D01*
G01X11070Y3950D02*
X11140Y4020D01*
X11210D01*
G01X11047Y4850D02*
X11050Y4853D01*
Y5033D01*
G01X10973Y4850D02*
Y4937D01*
X10970Y4940D01*
G01X11140Y5130D02*
Y5123D01*
X11050Y5033D01*
G01X11140Y5130D02*
Y5303D01*
X11147Y5310D01*
G01X11270Y5400D02*
X11100D01*
X11073Y5373D01*
Y5310D01*
G01X11017Y6350D02*
Y6492D01*
X11000Y6510D01*
G01X11127Y6720D02*
Y6543D01*
X11130Y6540D01*
X11100Y6510D01*
X11000D01*
G01X11053Y6720D02*
Y6633D01*
G01X11110Y6840D02*
X11120Y6830D01*
Y6727D01*
X11127Y6720D01*
G01Y8200D02*
X11120Y8193D01*
Y8000D01*
X11100Y7980D01*
Y7770D01*
X11120Y7750D01*
Y6850D01*
X11110Y6840D01*
G01X11280Y2020D02*
Y2183D01*
X11290Y2193D01*
G54D18*
G01X1530Y970D02*
X1350D01*
X1300Y920D01*
M02*
