G04 ================== begin FILE IDENTIFICATION RECORD ==================*
G04 Layout Name:  D:\misc\Janko\worklib\janko\physical\jankokeys3.brd*
G04 Film Name:    BOTTOM*
G04 File Format:  Gerber RS274X*
G04 File Origin:  15.2-s023*
G04 Origin Date:  Tue Nov 02 11:45:44 2010*
G04 ================== end FILE IDENTIFICATION RECORD ====================*
%FSLAX53Y53*MOIN*%
%IR0*IPPOS*OFA0.00000B0.00000*MIA0B0*SFA1.00000B1.00000*%
%ADD10C,.4*%
G75*
%LPD*%
G75*
G36*
G01X450Y681D02*
G02I0J-231D01*
G37*
G36*
G01X681Y2100D02*
G02I-231J0D01*
G37*
G36*
G01X1152Y1275D02*
G02I-231J0D01*
G37*
G36*
G01X1622Y450D02*
G02I-231J0D01*
G37*
G36*
G01Y2100D02*
G02I-231J0D01*
G37*
G36*
G01X2093Y1275D02*
G02I-231J0D01*
G37*
G36*
G01X2563Y450D02*
G02I-231J0D01*
G37*
G36*
G01Y2100D02*
G02I-231J0D01*
G37*
G36*
G01X3034Y1275D02*
G02I-231J0D01*
G37*
G36*
G01X3504Y450D02*
G02I-231J0D01*
G37*
G36*
G01Y2100D02*
G02I-231J0D01*
G37*
G36*
G01X3974Y1275D02*
G02I-231J0D01*
G37*
G36*
G01X4445Y450D02*
G02I-231J0D01*
G37*
G36*
G01Y2100D02*
G02I-231J0D01*
G37*
G36*
G01X4916Y1275D02*
G02I-231J0D01*
G37*
G36*
G01X5386Y450D02*
G02I-231J0D01*
G37*
G36*
G01Y2100D02*
G02I-231J0D01*
G37*
G36*
G01X5857Y1275D02*
G02I-231J0D01*
G37*
G36*
G01X6327Y450D02*
G02I-231J0D01*
G37*
G36*
G01Y2100D02*
G02I-231J0D01*
G37*
G36*
G01X6798Y1275D02*
G02I-231J0D01*
G37*
G36*
G01X7268Y450D02*
G02I-231J0D01*
G37*
G36*
G01Y2100D02*
G02I-231J0D01*
G37*
G36*
G01X7738Y1275D02*
G02I-231J0D01*
G37*
G36*
G01X8209Y450D02*
G02I-231J0D01*
G37*
G36*
G01Y2100D02*
G02I-231J0D01*
G37*
G36*
G01X8680Y1275D02*
G02I-231J0D01*
G37*
G36*
G01X9150Y450D02*
G02I-231J0D01*
G37*
G36*
G01Y2100D02*
G02I-231J0D01*
G37*
G36*
G01X9620Y1275D02*
G02I-231J0D01*
G37*
G36*
G01X10091Y450D02*
G02I-231J0D01*
G37*
G36*
G01Y2100D02*
G02I-231J0D01*
G37*
G36*
G01X10562Y1275D02*
G02I-231J0D01*
G37*
G36*
G01X11032Y450D02*
G02I-231J0D01*
G37*
G36*
G01Y2100D02*
G02I-231J0D01*
G37*
G36*
G01X11502Y1275D02*
G02I-231J0D01*
G37*
%LPC*%
G75*
G54D10*
X450Y450D03*
Y2100D03*
X920Y1275D03*
X1391Y450D03*
Y2100D03*
X1862Y1275D03*
X2332Y450D03*
Y2100D03*
X2802Y1275D03*
X3273Y450D03*
Y2100D03*
X3744Y1275D03*
X4214Y450D03*
Y2100D03*
X4684Y1275D03*
X5155Y450D03*
Y2100D03*
X5626Y1275D03*
X6096Y450D03*
Y2100D03*
X6566Y1275D03*
X7037Y450D03*
Y2100D03*
X7508Y1275D03*
X7978Y450D03*
Y2100D03*
X8449Y1275D03*
X8919Y450D03*
Y2100D03*
X9390Y1275D03*
X9860Y450D03*
Y2100D03*
X10330Y1275D03*
X10801Y450D03*
Y2100D03*
X11272Y1275D03*
M02*
