G04 ================== begin FILE IDENTIFICATION RECORD ==================*
G04 Layout Name:  D:\misc\Janko\worklib\janko\physical\jankokeys3.brd*
G04 Film Name:    TOP*
G04 File Format:  Gerber RS274X*
G04 File Origin:  15.2-s023*
G04 Origin Date:  Tue Nov 02 11:45:52 2010*
G04 ================== end FILE IDENTIFICATION RECORD ====================*
%FSLAX53Y53*MOIN*%
%IR0*IPPOS*OFA0.00000B0.00000*MIA0B0*SFA1.00000B1.00000*%
G75*
%LPD*%
G75*
G36*
G01X325Y376D02*
Y520D01*
X450Y592D01*
X575Y520D01*
Y376D01*
X450Y304D01*
X325Y376D01*
G37*
G36*
G01Y2026D02*
Y2170D01*
X450Y2242D01*
X575Y2170D01*
Y2026D01*
X450Y1954D01*
X325Y2026D01*
G37*
G36*
G01X796Y1201D02*
Y1345D01*
X920Y1417D01*
X1046Y1345D01*
Y1201D01*
X920Y1129D01*
X796Y1201D01*
G37*
G36*
G01X1266Y376D02*
Y520D01*
X1391Y592D01*
X1516Y520D01*
Y376D01*
X1391Y304D01*
X1266Y376D01*
G37*
G36*
G01Y2026D02*
Y2170D01*
X1391Y2242D01*
X1516Y2170D01*
Y2026D01*
X1391Y1954D01*
X1266Y2026D01*
G37*
G36*
G01X1736Y1201D02*
Y1345D01*
X1862Y1417D01*
X1986Y1345D01*
Y1201D01*
X1862Y1129D01*
X1736Y1201D01*
G37*
G36*
G01X2207Y376D02*
Y520D01*
X2332Y592D01*
X2457Y520D01*
Y376D01*
X2332Y304D01*
X2207Y376D01*
G37*
G36*
G01Y2026D02*
Y2170D01*
X2332Y2242D01*
X2457Y2170D01*
Y2026D01*
X2332Y1954D01*
X2207Y2026D01*
G37*
G36*
G01X2678Y1201D02*
Y1345D01*
X2802Y1417D01*
X2928Y1345D01*
Y1201D01*
X2802Y1129D01*
X2678Y1201D01*
G37*
G36*
G01X3148Y376D02*
Y520D01*
X3273Y592D01*
X3398Y520D01*
Y376D01*
X3273Y304D01*
X3148Y376D01*
G37*
G36*
G01Y2026D02*
Y2170D01*
X3273Y2242D01*
X3398Y2170D01*
Y2026D01*
X3273Y1954D01*
X3148Y2026D01*
G37*
G36*
G01X3618Y1201D02*
Y1345D01*
X3744Y1417D01*
X3868Y1345D01*
Y1201D01*
X3744Y1129D01*
X3618Y1201D01*
G37*
G36*
G01X4089Y376D02*
Y520D01*
X4214Y592D01*
X4339Y520D01*
Y376D01*
X4214Y304D01*
X4089Y376D01*
G37*
G36*
G01Y2026D02*
Y2170D01*
X4214Y2242D01*
X4339Y2170D01*
Y2026D01*
X4214Y1954D01*
X4089Y2026D01*
G37*
G36*
G01X4560Y1201D02*
Y1345D01*
X4684Y1417D01*
X4810Y1345D01*
Y1201D01*
X4684Y1129D01*
X4560Y1201D01*
G37*
G36*
G01X5030Y376D02*
Y520D01*
X5155Y592D01*
X5280Y520D01*
Y376D01*
X5155Y304D01*
X5030Y376D01*
G37*
G36*
G01Y2026D02*
Y2170D01*
X5155Y2242D01*
X5280Y2170D01*
Y2026D01*
X5155Y1954D01*
X5030Y2026D01*
G37*
G36*
G01X5500Y1201D02*
Y1345D01*
X5626Y1417D01*
X5750Y1345D01*
Y1201D01*
X5626Y1129D01*
X5500Y1201D01*
G37*
G36*
G01X5971Y376D02*
Y520D01*
X6096Y592D01*
X6221Y520D01*
Y376D01*
X6096Y304D01*
X5971Y376D01*
G37*
G36*
G01Y2026D02*
Y2170D01*
X6096Y2242D01*
X6221Y2170D01*
Y2026D01*
X6096Y1954D01*
X5971Y2026D01*
G37*
G36*
G01X6442Y1201D02*
Y1345D01*
X6566Y1417D01*
X6692Y1345D01*
Y1201D01*
X6566Y1129D01*
X6442Y1201D01*
G37*
G36*
G01X6912Y376D02*
Y520D01*
X7037Y592D01*
X7162Y520D01*
Y376D01*
X7037Y304D01*
X6912Y376D01*
G37*
G36*
G01Y2026D02*
Y2170D01*
X7037Y2242D01*
X7162Y2170D01*
Y2026D01*
X7037Y1954D01*
X6912Y2026D01*
G37*
G36*
G01X7382Y1201D02*
Y1345D01*
X7508Y1417D01*
X7632Y1345D01*
Y1201D01*
X7508Y1129D01*
X7382Y1201D01*
G37*
G36*
G01X7853Y376D02*
Y520D01*
X7978Y592D01*
X8103Y520D01*
Y376D01*
X7978Y304D01*
X7853Y376D01*
G37*
G36*
G01X7976Y1955D02*
X7856Y2025D01*
G02X7853Y2029I2J4D01*
G01Y2167D01*
G02X7856Y2171I5J0D01*
G01X7976Y2241D01*
G02X7980I2J-4D01*
G01X8100Y2171D01*
G02X8103Y2167I-2J-4D01*
G01Y2029D01*
G02X8100Y2025I-5J0D01*
G01X7980Y1955D01*
G02X7976I-2J4D01*
G37*
G36*
G01X8324Y1201D02*
Y1345D01*
X8449Y1417D01*
X8574Y1345D01*
Y1201D01*
X8449Y1129D01*
X8324Y1201D01*
G37*
G36*
G01X8794Y376D02*
Y520D01*
X8919Y592D01*
X9044Y520D01*
Y376D01*
X8919Y304D01*
X8794Y376D01*
G37*
G36*
G01Y2026D02*
Y2170D01*
X8919Y2242D01*
X9044Y2170D01*
Y2026D01*
X8919Y1954D01*
X8794Y2026D01*
G37*
G36*
G01X9264Y1201D02*
Y1345D01*
X9390Y1417D01*
X9514Y1345D01*
Y1201D01*
X9390Y1129D01*
X9264Y1201D01*
G37*
G36*
G01X9735Y376D02*
Y520D01*
X9860Y592D01*
X9985Y520D01*
Y376D01*
X9860Y304D01*
X9735Y376D01*
G37*
G36*
G01Y2026D02*
Y2170D01*
X9860Y2242D01*
X9985Y2170D01*
Y2026D01*
X9860Y1954D01*
X9735Y2026D01*
G37*
G36*
G01X10206Y1201D02*
Y1345D01*
X10330Y1417D01*
X10456Y1345D01*
Y1201D01*
X10330Y1129D01*
X10206Y1201D01*
G37*
G36*
G01X10676Y376D02*
Y520D01*
X10801Y592D01*
X10926Y520D01*
Y376D01*
X10801Y304D01*
X10676Y376D01*
G37*
G36*
G01Y2026D02*
Y2170D01*
X10801Y2242D01*
X10926Y2170D01*
Y2026D01*
X10801Y1954D01*
X10676Y2026D01*
G37*
G36*
G01X11146Y1201D02*
Y1345D01*
X11272Y1417D01*
X11396Y1345D01*
Y1201D01*
X11272Y1129D01*
X11146Y1201D01*
G37*
M02*
