G04 ================== begin FILE IDENTIFICATION RECORD ==================*
G04 Layout Name:  D:\MISC\JANKO\worklib\janko\physical\janko1.brd*
G04 Film Name:    BOTTOM*
G04 File Format:  Gerber RS274X*
G04 File Origin:  15.2-s023*
G04 Origin Date:  Mon Oct 25 16:19:04 2010*
G04 ================== end FILE IDENTIFICATION RECORD ====================*
%FSLAX53Y53*MOIN*%
%IR0*IPPOS*OFA0.00000B0.00000*MIA0B0*SFA1.00000B1.00000*%
%ADD11C,.125*%
%ADD10C,.076*%
%ADD12C,.05*%
%ADD13C,.6*%
G75*
%LPD*%
G75*
G36*
G01X450Y50D02*
G02I0J400D01*
G37*
G36*
G01Y1700D02*
G02I0J400D01*
G37*
G36*
G01Y3350D02*
G02I0J400D01*
G37*
G36*
G01Y5000D02*
G02I0J400D01*
G37*
G36*
G01Y6650D02*
G02I0J400D01*
G37*
G36*
G01X920Y875D02*
G02I0J400D01*
G37*
G36*
G01Y2525D02*
G02I0J400D01*
G37*
G36*
G01Y4175D02*
G02I0J400D01*
G37*
G36*
G01Y5825D02*
G02I0J400D01*
G37*
G36*
G01Y7475D02*
G02I0J400D01*
G37*
G36*
G01X1391Y50D02*
G02I0J400D01*
G37*
G36*
G01Y1700D02*
G02I0J400D01*
G37*
G36*
G01Y3350D02*
G02I0J400D01*
G37*
G36*
G01Y5000D02*
G02I0J400D01*
G37*
G36*
G01Y6650D02*
G02I0J400D01*
G37*
G36*
G01X1862Y875D02*
G02I0J400D01*
G37*
G36*
G01Y2525D02*
G02I0J400D01*
G37*
G36*
G01Y4175D02*
G02I0J400D01*
G37*
G36*
G01Y5825D02*
G02I0J400D01*
G37*
G36*
G01Y7475D02*
G02I0J400D01*
G37*
G36*
G01X2332Y50D02*
G02I0J400D01*
G37*
G36*
G01Y1700D02*
G02I0J400D01*
G37*
G36*
G01Y3350D02*
G02I0J400D01*
G37*
G36*
G01Y5000D02*
G02I0J400D01*
G37*
G36*
G01Y6650D02*
G02I0J400D01*
G37*
G36*
G01X2802Y875D02*
G02I0J400D01*
G37*
G36*
G01Y2525D02*
G02I0J400D01*
G37*
G36*
G01Y4175D02*
G02I0J400D01*
G37*
G36*
G01Y5825D02*
G02I0J400D01*
G37*
G36*
G01Y7475D02*
G02I0J400D01*
G37*
G36*
G01X3273Y50D02*
G02I0J400D01*
G37*
G36*
G01Y1700D02*
G02I0J400D01*
G37*
G36*
G01Y3350D02*
G02I0J400D01*
G37*
G36*
G01Y5000D02*
G02I0J400D01*
G37*
G36*
G01Y6650D02*
G02I0J400D01*
G37*
G36*
G01X3744Y875D02*
G02I0J400D01*
G37*
G36*
G01Y2525D02*
G02I0J400D01*
G37*
G36*
G01Y4175D02*
G02I0J400D01*
G37*
G36*
G01Y5825D02*
G02I0J400D01*
G37*
G36*
G01Y7475D02*
G02I0J400D01*
G37*
G36*
G01X4214Y50D02*
G02I0J400D01*
G37*
G36*
G01Y1700D02*
G02I0J400D01*
G37*
G36*
G01Y3350D02*
G02I0J400D01*
G37*
G36*
G01Y5000D02*
G02I0J400D01*
G37*
G36*
G01Y6650D02*
G02I0J400D01*
G37*
G36*
G01X4684Y875D02*
G02I0J400D01*
G37*
G36*
G01Y2525D02*
G02I0J400D01*
G37*
G36*
G01Y4175D02*
G02I0J400D01*
G37*
G36*
G01Y5825D02*
G02I0J400D01*
G37*
G36*
G01Y7475D02*
G02I0J400D01*
G37*
G36*
G01X4755Y450D02*
G02I400J0D01*
G37*
G36*
G01X5155Y1700D02*
G02I0J400D01*
G37*
G36*
G01X4755Y3750D02*
G02I400J0D01*
G37*
G36*
G01X5155Y5000D02*
G02I0J400D01*
G37*
G36*
G01X4755Y7050D02*
G02I400J0D01*
G37*
G36*
G01X5626Y875D02*
G02I0J400D01*
G37*
G36*
G01Y2525D02*
G02I0J400D01*
G37*
G36*
G01Y4175D02*
G02I0J400D01*
G37*
G36*
G01Y5825D02*
G02I0J400D01*
G37*
G36*
G01Y7475D02*
G02I0J400D01*
G37*
G36*
G01X5696Y450D02*
G02I400J0D01*
G37*
G36*
G01X6096Y1700D02*
G02I0J400D01*
G37*
G36*
G01X5696Y3750D02*
G02I400J0D01*
G37*
G36*
G01X6096Y5000D02*
G02I0J400D01*
G37*
G36*
G01X5696Y7050D02*
G02I400J0D01*
G37*
G36*
G01X6566Y875D02*
G02I0J400D01*
G37*
G36*
G01Y2525D02*
G02I0J400D01*
G37*
G36*
G01Y4175D02*
G02I0J400D01*
G37*
G36*
G01Y5825D02*
G02I0J400D01*
G37*
G36*
G01Y7475D02*
G02I0J400D01*
G37*
G36*
G01X6637Y450D02*
G02I400J0D01*
G37*
G36*
G01X7037Y1700D02*
G02I0J400D01*
G37*
G36*
G01Y3350D02*
G02I0J400D01*
G37*
G36*
G01Y5000D02*
G02I0J400D01*
G37*
G36*
G01Y6650D02*
G02I0J400D01*
G37*
G36*
G01X7508Y875D02*
G02I0J400D01*
G37*
G36*
G01Y2525D02*
G02I0J400D01*
G37*
G36*
G01Y4175D02*
G02I0J400D01*
G37*
G36*
G01Y5825D02*
G02I0J400D01*
G37*
G36*
G01Y7475D02*
G02I0J400D01*
G37*
G36*
G01X7578Y450D02*
G02I400J0D01*
G37*
G36*
G01X7978Y1700D02*
G02I0J400D01*
G37*
G36*
G01Y3350D02*
G02I0J400D01*
G37*
G36*
G01Y5000D02*
G02I0J400D01*
G37*
G36*
G01Y6650D02*
G02I0J400D01*
G37*
G36*
G01X8449Y875D02*
G02I0J400D01*
G37*
G36*
G01Y2525D02*
G02I0J400D01*
G37*
G36*
G01Y4175D02*
G02I0J400D01*
G37*
G36*
G01Y5825D02*
G02I0J400D01*
G37*
G36*
G01Y7475D02*
G02I0J400D01*
G37*
G36*
G01X8919Y50D02*
G02I0J400D01*
G37*
G36*
G01Y1700D02*
G02I0J400D01*
G37*
G36*
G01Y3350D02*
G02I0J400D01*
G37*
G36*
G01Y5000D02*
G02I0J400D01*
G37*
G36*
G01Y6650D02*
G02I0J400D01*
G37*
G36*
G01X9390Y875D02*
G02I0J400D01*
G37*
G36*
G01Y2525D02*
G02I0J400D01*
G37*
G36*
G01Y4175D02*
G02I0J400D01*
G37*
G36*
G01Y5825D02*
G02I0J400D01*
G37*
G36*
G01Y7475D02*
G02I0J400D01*
G37*
G36*
G01X9860Y50D02*
G02I0J400D01*
G37*
G36*
G01Y1700D02*
G02I0J400D01*
G37*
G36*
G01Y3350D02*
G02I0J400D01*
G37*
G36*
G01Y5000D02*
G02I0J400D01*
G37*
G36*
G01Y6650D02*
G02I0J400D01*
G37*
G36*
G01X10330Y875D02*
G02I0J400D01*
G37*
G36*
G01Y2525D02*
G02I0J400D01*
G37*
G36*
G01Y4175D02*
G02I0J400D01*
G37*
G36*
G01Y5825D02*
G02I0J400D01*
G37*
G36*
G01Y7475D02*
G02I0J400D01*
G37*
G36*
G01X10801Y50D02*
G02I0J400D01*
G37*
G36*
G01Y1700D02*
G02I0J400D01*
G37*
G36*
G01Y3350D02*
G02I0J400D01*
G37*
G36*
G01Y5000D02*
G02I0J400D01*
G37*
G36*
G01Y6650D02*
G02I0J400D01*
G37*
G36*
G01X11272Y875D02*
G02I0J400D01*
G37*
G36*
G01Y2525D02*
G02I0J400D01*
G37*
G36*
G01Y4175D02*
G02I0J400D01*
G37*
G36*
G01Y5825D02*
G02I0J400D01*
G37*
G36*
G01Y7475D02*
G02I0J400D01*
G37*
%LPC*%
G75*
G54D13*
X450Y450D03*
Y2100D03*
Y3750D03*
Y5400D03*
Y7050D03*
X920Y1275D03*
Y2925D03*
Y4575D03*
Y6225D03*
Y7875D03*
X1391Y450D03*
Y2100D03*
Y3750D03*
Y5400D03*
Y7050D03*
X1862Y1275D03*
Y2925D03*
Y4575D03*
Y6225D03*
Y7875D03*
X2332Y450D03*
Y2100D03*
Y3750D03*
Y5400D03*
Y7050D03*
X2802Y1275D03*
Y2925D03*
Y4575D03*
Y6225D03*
Y7875D03*
X3273Y450D03*
Y2100D03*
Y3750D03*
Y5400D03*
Y7050D03*
X3744Y1275D03*
Y2925D03*
Y4575D03*
Y6225D03*
Y7875D03*
X4214Y450D03*
Y2100D03*
Y3750D03*
Y5400D03*
Y7050D03*
X4684Y1275D03*
Y2925D03*
Y4575D03*
Y6225D03*
Y7875D03*
X5155Y450D03*
Y2100D03*
Y3750D03*
Y5400D03*
Y7050D03*
X5626Y1275D03*
Y2925D03*
Y4575D03*
Y6225D03*
Y7875D03*
X6096Y450D03*
Y2100D03*
Y3750D03*
Y5400D03*
Y7050D03*
X6566Y1275D03*
Y2925D03*
Y4575D03*
Y6225D03*
Y7875D03*
X7037Y450D03*
Y2100D03*
Y3750D03*
Y5400D03*
Y7050D03*
X7508Y1275D03*
Y2925D03*
Y4575D03*
Y6225D03*
Y7875D03*
X7978Y450D03*
Y2100D03*
Y3750D03*
Y5400D03*
Y7050D03*
X8449Y1275D03*
Y2925D03*
Y4575D03*
Y6225D03*
Y7875D03*
X8919Y450D03*
Y2100D03*
Y3750D03*
Y5400D03*
Y7050D03*
X9390Y1275D03*
Y2925D03*
Y4575D03*
Y6225D03*
Y7875D03*
X9860Y450D03*
Y2100D03*
Y3750D03*
Y5400D03*
Y7050D03*
X10330Y1275D03*
Y2925D03*
Y4575D03*
Y6225D03*
Y7875D03*
X10801Y450D03*
Y2100D03*
Y3750D03*
Y5400D03*
Y7050D03*
X11272Y1275D03*
Y2925D03*
Y4575D03*
Y6225D03*
Y7875D03*
%LPD*%
G75*
G36*
G01X450Y650D02*
G02I0J-200D01*
G37*
G54D10*
X250Y1000D03*
Y4500D03*
Y8000D03*
X5630Y740D03*
Y4030D03*
X5620Y7360D03*
X11510Y3790D03*
X11500Y7040D03*
X11610Y520D03*
G54D11*
X7500Y150D03*
Y8650D03*
G54D12*
G01X640Y760D02*
Y780D01*
G01D02*
X800Y940D01*
G01X810Y430D02*
X1050D01*
M02*
