G04 ================== begin FILE IDENTIFICATION RECORD ==================*
G04 Layout Name:  axis64_42_updated_holes.brd*
G04 Film Name:    SILK_TOP*
G04 File Format:  Gerber RS274X*
G04 File Origin:  Cadence Allegro 16.3-S021*
G04 Origin Date:  Wed Jan 26 10:44:53 2011*
G04 *
G04 Layer:  MANUFACTURING/AUTOSILK_TOP*
G04 *
G04 Offset:    (0.000 0.000)*
G04 Mirror:    No*
G04 Mode:      Positive*
G04 Rotation:  0*
G04 FullContactRelief:  No*
G04 UndefLineWidth:     10.000*
G04 ================== end FILE IDENTIFICATION RECORD ====================*
%FSLAX53Y53*MOIN*%
%IR0*IPPOS*OFA0.00000B0.00000*MIA0B0*SFA1.00000B1.00000*%
%ADD10C,.01*%
G75*
%LPD*%
G75*
G54D10*
G01X5642Y11256D02*
Y11346D01*
X5486D01*
Y11256D01*
X5642D01*
G01X5943Y10966D02*
Y11055D01*
X5787D01*
Y10966D01*
X5943D01*
G01X5846Y11363D02*
Y11452D01*
X5690D01*
Y11363D01*
X5846D01*
G01X5848Y11475D02*
Y11564D01*
X5692D01*
Y11475D01*
X5848D01*
G01X5848Y11699D02*
Y11788D01*
X5693D01*
Y11699D01*
X5848D01*
G01Y11587D02*
Y11676D01*
X5693D01*
Y11587D01*
X5848D01*
G01X5851Y11810D02*
Y11899D01*
X5695D01*
Y11810D01*
X5851D01*
G01X6162Y10871D02*
Y10960D01*
X6006D01*
Y10871D01*
X6162D01*
G01X6070Y11877D02*
Y11077D01*
X5970D01*
Y11877D01*
X6070D01*
G01X5965Y11557D02*
X5900D01*
Y11392D01*
X5975D01*
G01X7084Y11147D02*
X6928D01*
Y11236D01*
X7084D01*
Y11147D01*
G01X6947Y11756D02*
X7068D01*
Y11362D01*
X6947D01*
Y11756D01*
G01X6986Y11754D02*
Y11718D01*
X7029D01*
Y11754D01*
G01X7746Y11853D02*
Y11764D01*
X7902D01*
Y11853D01*
X7746D01*
G01X12302Y10848D02*
Y10937D01*
X12146D01*
Y10848D01*
X12302D01*
G01X12308Y10705D02*
Y10795D01*
X12152D01*
Y10705D01*
X12308D01*
G01X12297Y11119D02*
Y11208D01*
X12141D01*
Y11119D01*
X12297D01*
G01X12302Y10986D02*
Y11075D01*
X12146D01*
Y10986D01*
X12302D01*
G01X12310Y11417D02*
Y11506D01*
X12154D01*
Y11417D01*
X12310D01*
G01X12302Y11251D02*
Y11340D01*
X12146D01*
Y11251D01*
X12302D01*
G01X12320Y11705D02*
Y11795D01*
X12164D01*
Y11705D01*
X12320D01*
G01X12310Y11560D02*
Y11649D01*
X12154D01*
Y11560D01*
X12310D01*
G01X12652Y11657D02*
Y10857D01*
X12552D01*
Y11657D01*
X12652D01*
G01X12547Y11337D02*
X12482D01*
Y11172D01*
X12557D01*
G01X13849Y10971D02*
X14005D01*
Y10881D01*
X13849D01*
Y10971D01*
G01X14251Y11370D02*
X14372D01*
Y10976D01*
X14251D01*
Y11370D01*
G01X14289Y11368D02*
Y11332D01*
X14332D01*
Y11368D01*
G01X14542Y11079D02*
Y10990D01*
X14698D01*
Y11079D01*
X14542D01*
G01X16139Y10476D02*
Y10565D01*
X15983D01*
Y10476D01*
X16139D01*
G01Y10348D02*
Y10437D01*
X15983D01*
Y10348D01*
X16139D01*
G01X16144Y10874D02*
Y10963D01*
X15988D01*
Y10874D01*
X16144D01*
G01Y10741D02*
Y10830D01*
X15988D01*
Y10741D01*
X16144D01*
G01X16149Y10609D02*
Y10698D01*
X15993D01*
Y10609D01*
X16149D01*
G01X16144Y11139D02*
Y11228D01*
X15988D01*
Y11139D01*
X16144D01*
G01Y11006D02*
Y11096D01*
X15988D01*
Y11006D01*
X16144D01*
G01X16134Y11277D02*
Y11366D01*
X15978D01*
Y11277D01*
X16134D01*
G01X16489Y11193D02*
Y10393D01*
X16389D01*
Y11193D01*
X16489D01*
G01X16384Y10873D02*
X16319D01*
Y10708D01*
X16394D01*
G01X17215Y7271D02*
X17150D01*
Y7106D01*
X17225D01*
G01X17116Y8489D02*
Y7689D01*
X17016D01*
Y8489D01*
X17116D01*
G01X17011Y8169D02*
X16946D01*
Y8004D01*
X17021D01*
G01X17742Y6370D02*
Y6417D01*
X17342D01*
Y6370D01*
G01X17792Y6595D02*
Y6370D01*
X17292D01*
Y6595D01*
X17793D01*
G01X17320Y7591D02*
Y6791D01*
X17220D01*
Y7591D01*
X17320D01*
G01X17237Y7695D02*
X17371D01*
Y7764D01*
X17231D01*
Y7695D01*
G01X17227Y7797D02*
X17361D01*
Y7866D01*
X17221D01*
Y7797D01*
G01X17502Y8500D02*
X17398Y8153D01*
G01X17222Y8200D02*
X17356D01*
Y8269D01*
X17216D01*
Y8200D01*
G01X17222Y8098D02*
X17356D01*
Y8167D01*
X17216D01*
Y8098D01*
G01X17217Y8006D02*
X17351D01*
Y8076D01*
X17210D01*
Y8006D01*
G01X17212Y7909D02*
X17346D01*
Y7979D01*
X17205D01*
Y7909D01*
G01X17355Y8473D02*
X17221D01*
Y8404D01*
X17361D01*
Y8473D01*
G01X17410Y9078D02*
X17352D01*
Y8500D01*
X17431D01*
G01X17217Y8302D02*
X17351D01*
Y8371D01*
X17210D01*
Y8302D01*
G01X17340Y9936D02*
Y9889D01*
X17740D01*
Y9936D01*
G01X17290Y9711D02*
Y9936D01*
X17790D01*
Y9711D01*
X17289D01*
G01X17363Y10687D02*
X17484D01*
Y10293D01*
X17363D01*
Y10687D01*
G01X17401Y10685D02*
Y10649D01*
X17444D01*
Y10685D01*
G01X17583Y7319D02*
X17703D01*
Y6925D01*
X17583D01*
Y7319D01*
G01X17621Y7317D02*
Y7281D01*
X17664D01*
Y7317D01*
G01X17626Y7418D02*
Y7574D01*
X17715D01*
Y7418D01*
X17626D01*
G01X17577Y8314D02*
X17698D01*
Y7920D01*
X17577D01*
Y8314D01*
G01X17616Y8312D02*
Y8276D01*
X17659D01*
Y8312D01*
G01X17716Y8422D02*
X17560D01*
Y8511D01*
X17716D01*
Y8422D01*
G01X17835Y10282D02*
X17746D01*
Y10126D01*
X17835D01*
Y10282D01*
G01X17771Y10545D02*
X17615D01*
Y10634D01*
X17771D01*
Y10545D01*
G01X445Y3930D02*
X1055D01*
Y3320D01*
X445D01*
Y3930D01*
G01Y4827D02*
X1055D01*
Y4217D01*
X445D01*
Y4827D01*
G01Y5724D02*
X1055D01*
Y5114D01*
X445D01*
Y5724D01*
G01Y6621D02*
X1055D01*
Y6011D01*
X445D01*
Y6621D01*
G01Y7518D02*
X1055D01*
Y6908D01*
X445D01*
Y7518D01*
G01Y8415D02*
X1055D01*
Y7805D01*
X445D01*
Y8415D01*
G01Y9312D02*
X1055D01*
Y8702D01*
X445D01*
Y9312D01*
G01Y10209D02*
X1055D01*
Y9599D01*
X445D01*
Y10209D01*
G01Y11106D02*
X1055D01*
Y10496D01*
X445D01*
Y11106D01*
G01X675Y10801D02*
G03X750Y10726I75J0D01*
G01Y10876D02*
G03X675Y10801I0J-75D01*
G01X879Y10901D02*
Y10683D01*
X623D01*
G01D02*
Y10919D01*
X802D01*
G01X750Y10726D02*
G03X825Y10801I0J75D01*
G01D02*
G03X750Y10876I-75J0D01*
G01X1222Y3482D02*
X1832D01*
Y2872D01*
X1222D01*
Y3482D01*
G01Y4378D02*
X1832D01*
Y3768D01*
X1222D01*
Y4378D01*
G01Y5276D02*
X1832D01*
Y4666D01*
X1222D01*
Y5276D01*
G01Y6172D02*
X1832D01*
Y5562D01*
X1222D01*
Y6172D01*
G01Y7070D02*
X1832D01*
Y6460D01*
X1222D01*
Y7070D01*
G01Y7966D02*
X1832D01*
Y7357D01*
X1222D01*
Y7966D01*
G01Y8864D02*
X1832D01*
Y8254D01*
X1222D01*
Y8864D01*
G01Y9760D02*
X1832D01*
Y9151D01*
X1222D01*
Y9760D01*
G01Y10658D02*
X1832D01*
Y10048D01*
X1222D01*
Y10658D01*
G01Y11554D02*
X1832D01*
Y10944D01*
X1222D01*
Y11554D01*
G01X1999Y3930D02*
X2609D01*
Y3320D01*
X1999D01*
Y3930D01*
G01Y4827D02*
X2609D01*
Y4217D01*
X1999D01*
Y4827D01*
G01Y5724D02*
X2609D01*
Y5114D01*
X1999D01*
Y5724D01*
G01Y6621D02*
X2609D01*
Y6011D01*
X1999D01*
Y6621D01*
G01Y7518D02*
X2609D01*
Y6908D01*
X1999D01*
Y7518D01*
G01Y8415D02*
X2609D01*
Y7805D01*
X1999D01*
Y8415D01*
G01Y9312D02*
X2609D01*
Y8702D01*
X1999D01*
Y9312D01*
G01Y10209D02*
X2609D01*
Y9599D01*
X1999D01*
Y10209D01*
G01Y11106D02*
X2609D01*
Y10496D01*
X1999D01*
Y11106D01*
G01X2776Y3482D02*
X3386D01*
Y2872D01*
X2776D01*
Y3482D01*
G01Y4378D02*
X3386D01*
Y3768D01*
X2776D01*
Y4378D01*
G01Y5276D02*
X3386D01*
Y4666D01*
X2776D01*
Y5276D01*
G01Y6172D02*
X3386D01*
Y5562D01*
X2776D01*
Y6172D01*
G01Y7070D02*
X3386D01*
Y6460D01*
X2776D01*
Y7070D01*
G01Y7966D02*
X3386D01*
Y7357D01*
X2776D01*
Y7966D01*
G01Y8864D02*
X3386D01*
Y8254D01*
X2776D01*
Y8864D01*
G01Y9760D02*
X3386D01*
Y9151D01*
X2776D01*
Y9760D01*
G01Y10658D02*
X3386D01*
Y10048D01*
X2776D01*
Y10658D01*
G01X3552Y3930D02*
X4162D01*
Y3320D01*
X3552D01*
Y3930D01*
G01Y4827D02*
X4162D01*
Y4217D01*
X3552D01*
Y4827D01*
G01Y5724D02*
X4162D01*
Y5114D01*
X3552D01*
Y5724D01*
G01Y6621D02*
X4162D01*
Y6011D01*
X3552D01*
Y6621D01*
G01Y7518D02*
X4162D01*
Y6908D01*
X3552D01*
Y7518D01*
G01Y8415D02*
X4162D01*
Y7805D01*
X3552D01*
Y8415D01*
G01Y9312D02*
X4162D01*
Y8702D01*
X3552D01*
Y9312D01*
G01Y10209D02*
X4162D01*
Y9599D01*
X3552D01*
Y10209D01*
G01Y11106D02*
X4162D01*
Y10496D01*
X3552D01*
Y11106D01*
G01X4329Y3482D02*
X4939D01*
Y2872D01*
X4329D01*
Y3482D01*
G01Y4378D02*
X4939D01*
Y3768D01*
X4329D01*
Y4378D01*
G01Y5276D02*
X4939D01*
Y4666D01*
X4329D01*
Y5276D01*
G01Y6172D02*
X4939D01*
Y5562D01*
X4329D01*
Y6172D01*
G01Y7070D02*
X4939D01*
Y6460D01*
X4329D01*
Y7070D01*
G01Y7966D02*
X4939D01*
Y7357D01*
X4329D01*
Y7966D01*
G01Y8864D02*
X4939D01*
Y8254D01*
X4329D01*
Y8864D01*
G01Y9760D02*
X4939D01*
Y9151D01*
X4329D01*
Y9760D01*
G01Y10658D02*
X4939D01*
Y10048D01*
X4329D01*
Y10658D01*
G01X5106Y3930D02*
X5716D01*
Y3320D01*
X5106D01*
Y3930D01*
G01Y4827D02*
X5716D01*
Y4217D01*
X5106D01*
Y4827D01*
G01Y5724D02*
X5716D01*
Y5114D01*
X5106D01*
Y5724D01*
G01Y6621D02*
X5716D01*
Y6011D01*
X5106D01*
Y6621D01*
G01Y7518D02*
X5716D01*
Y6908D01*
X5106D01*
Y7518D01*
G01Y8415D02*
X5716D01*
Y7805D01*
X5106D01*
Y8415D01*
G01Y9312D02*
X5716D01*
Y8702D01*
X5106D01*
Y9312D01*
G01Y10209D02*
X5716D01*
Y9599D01*
X5106D01*
Y10209D01*
G01Y11106D02*
X5716D01*
Y10496D01*
X5106D01*
Y11106D01*
G01X5442Y11326D02*
Y11276D01*
X5427D01*
X5422Y11279D01*
X5418Y11282D01*
X5417Y11289D01*
X5418Y11295D01*
X5422Y11299D01*
X5427Y11302D01*
X5442D01*
G01X5427D02*
X5417Y11326D01*
G01X5379D02*
Y11276D01*
X5386Y11286D01*
G01Y11326D02*
X5371D01*
G01X5320D02*
Y11276D01*
X5344Y11312D01*
X5312D01*
G01X5743Y11035D02*
Y10985D01*
X5728D01*
X5723Y10988D01*
X5719Y10991D01*
X5718Y10998D01*
X5719Y11004D01*
X5723Y11009D01*
X5728Y11011D01*
X5743D01*
G01X5728D02*
X5718Y11035D01*
G01X5680D02*
Y10985D01*
X5687Y10995D01*
G01Y11035D02*
X5672D01*
G01X5643Y11028D02*
X5639Y11032D01*
X5635Y11034D01*
X5629Y11035D01*
X5623Y11034D01*
X5619Y11030D01*
X5616Y11024D01*
X5615Y11018D01*
X5616Y11011D01*
X5619Y11007D01*
X5624Y11004D01*
X5628Y11003D01*
X5633Y11004D01*
X5638Y11007D01*
X5636Y10985D01*
X5619D01*
G01X5646Y11433D02*
Y11383D01*
X5630D01*
X5625Y11385D01*
X5622Y11389D01*
X5621Y11395D01*
X5622Y11402D01*
X5626Y11406D01*
X5630Y11409D01*
X5646D01*
G01X5630D02*
X5621Y11433D01*
G01X5583D02*
Y11383D01*
X5590Y11393D01*
G01Y11433D02*
X5575D01*
G01X5546Y11423D02*
X5542Y11429D01*
X5537Y11432D01*
X5531Y11433D01*
X5526Y11432D01*
X5521Y11428D01*
X5518Y11423D01*
X5517Y11418D01*
X5518Y11412D01*
X5523Y11408D01*
X5527Y11406D01*
X5533D01*
G01X5527D02*
X5523Y11404D01*
X5520Y11399D01*
X5519Y11394D01*
X5520Y11389D01*
X5523Y11385D01*
X5529Y11383D01*
X5535Y11384D01*
X5540Y11387D01*
G01X5648Y11545D02*
Y11495D01*
X5633D01*
X5628Y11497D01*
X5624Y11501D01*
X5623Y11507D01*
X5624Y11514D01*
X5628Y11518D01*
X5633Y11521D01*
X5648D01*
G01X5633D02*
X5623Y11545D01*
G01X5585D02*
Y11495D01*
X5592Y11505D01*
G01Y11545D02*
X5577D01*
G01X5546Y11503D02*
X5542Y11498D01*
X5538Y11496D01*
X5533Y11495D01*
X5526Y11496D01*
X5522Y11501D01*
X5520Y11506D01*
X5521Y11511D01*
X5524Y11515D01*
X5536Y11523D01*
X5542Y11529D01*
X5546Y11537D01*
X5547Y11545D01*
X5520D01*
G01X5649Y11768D02*
Y11718D01*
X5633D01*
X5628Y11721D01*
X5625Y11724D01*
X5624Y11731D01*
X5625Y11737D01*
X5629Y11741D01*
X5633Y11744D01*
X5649D01*
G01X5633D02*
X5624Y11768D01*
G01X5586D02*
Y11718D01*
X5593Y11728D01*
G01Y11768D02*
X5578D01*
G01X5535Y11718D02*
X5540Y11720D01*
X5543Y11724D01*
X5546Y11729D01*
X5548Y11736D01*
X5548Y11743D01*
X5548Y11751D01*
X5546Y11757D01*
X5543Y11762D01*
X5540Y11766D01*
X5535Y11768D01*
X5529Y11766D01*
X5526Y11762D01*
X5523Y11757D01*
X5521Y11751D01*
X5521Y11743D01*
X5521Y11736D01*
X5523Y11729D01*
X5526Y11724D01*
X5529Y11720D01*
X5535Y11718D01*
G01X5649Y11656D02*
Y11606D01*
X5633D01*
X5628Y11609D01*
X5625Y11612D01*
X5624Y11619D01*
X5625Y11625D01*
X5629Y11629D01*
X5633Y11632D01*
X5649D01*
G01X5633D02*
X5624Y11656D01*
G01X5586D02*
Y11606D01*
X5593Y11616D01*
G01Y11656D02*
X5578D01*
G01X5535D02*
Y11606D01*
X5542Y11616D01*
G01Y11656D02*
X5527D01*
G01X5652Y11879D02*
Y11829D01*
X5636D01*
X5631Y11832D01*
X5628Y11835D01*
X5627Y11842D01*
X5628Y11849D01*
X5632Y11853D01*
X5636Y11855D01*
X5652D01*
G01X5636D02*
X5627Y11879D01*
G01X5599Y11874D02*
X5595Y11878D01*
X5590Y11879D01*
X5585Y11878D01*
X5580Y11873D01*
X5577Y11865D01*
X5576Y11858D01*
Y11849D01*
X5577Y11841D01*
X5580Y11834D01*
X5584Y11831D01*
X5588Y11829D01*
X5593Y11831D01*
X5597Y11834D01*
X5600Y11839D01*
X5601Y11846D01*
X5600Y11852D01*
X5597Y11858D01*
X5593Y11861D01*
X5588Y11862D01*
X5583Y11860D01*
X5580Y11856D01*
X5576Y11849D01*
G01X5883Y3482D02*
X6493D01*
Y2872D01*
X5883D01*
Y3482D01*
G01Y4378D02*
X6493D01*
Y3768D01*
X5883D01*
Y4378D01*
G01Y5276D02*
X6493D01*
Y4666D01*
X5883D01*
Y5276D01*
G01Y6172D02*
X6493D01*
Y5562D01*
X5883D01*
Y6172D01*
G01Y7070D02*
X6493D01*
Y6460D01*
X5883D01*
Y7070D01*
G01Y7966D02*
X6493D01*
Y7357D01*
X5883D01*
Y7966D01*
G01Y8864D02*
X6493D01*
Y8254D01*
X5883D01*
Y8864D01*
G01Y9760D02*
X6493D01*
Y9151D01*
X5883D01*
Y9760D01*
G01Y10658D02*
X6493D01*
Y10048D01*
X5883D01*
Y10658D01*
G01X5963Y10941D02*
Y10891D01*
X5947D01*
X5942Y10893D01*
X5939Y10897D01*
X5938Y10903D01*
X5939Y10910D01*
X5943Y10914D01*
X5947Y10917D01*
X5963D01*
G01X5947D02*
X5938Y10941D01*
G01X5899D02*
Y10891D01*
X5907Y10901D01*
G01Y10941D02*
X5892D01*
G01X5860Y10920D02*
X5856Y10914D01*
X5852Y10911D01*
X5847Y10909D01*
X5842Y10911D01*
X5839Y10914D01*
X5837Y10919D01*
X5836Y10925D01*
X5837Y10930D01*
X5839Y10935D01*
X5843Y10939D01*
X5848Y10941D01*
X5853Y10939D01*
X5857Y10934D01*
X5860Y10927D01*
X5860Y10918D01*
X5859Y10907D01*
X5857Y10902D01*
X5854Y10896D01*
X5849Y10892D01*
X5845Y10891D01*
X5841Y10892D01*
X5837Y10897D01*
G01X6209Y11107D02*
X6214Y11107D01*
X6219Y11110D01*
X6222Y11114D01*
X6223Y11120D01*
X6222Y11126D01*
X6218Y11131D01*
X6213Y11133D01*
X6206D01*
X6202Y11135D01*
X6199Y11139D01*
X6198Y11145D01*
X6200Y11151D01*
X6204Y11155D01*
X6209Y11157D01*
X6214Y11155D01*
X6219Y11151D01*
X6221Y11145D01*
X6220Y11139D01*
X6216Y11135D01*
X6213Y11133D01*
X6206D01*
X6201Y11131D01*
X6197Y11126D01*
X6195Y11120D01*
X6197Y11114D01*
X6200Y11110D01*
X6205Y11107D01*
X6209Y11107D01*
G01X6174Y11287D02*
X6177Y11282D01*
X6181Y11278D01*
X6185Y11277D01*
X6190Y11278D01*
X6194Y11282D01*
X6198Y11287D01*
X6199Y11293D01*
Y11327D01*
G01X6225Y11318D02*
X6229Y11323D01*
X6234Y11326D01*
X6239Y11327D01*
X6245Y11325D01*
X6249Y11321D01*
X6251Y11316D01*
X6250Y11311D01*
X6248Y11307D01*
X6235Y11298D01*
X6229Y11292D01*
X6225Y11284D01*
X6224Y11277D01*
X6251D01*
G01X6189Y11805D02*
Y11855D01*
X6181Y11845D01*
G01Y11805D02*
X6197D01*
G01X6660Y3033D02*
X7270D01*
Y2423D01*
X6660D01*
Y3033D01*
G01Y3930D02*
X7270D01*
Y3320D01*
X6660D01*
Y3930D01*
G01Y4827D02*
X7270D01*
Y4217D01*
X6660D01*
Y4827D01*
G01Y5724D02*
X7270D01*
Y5114D01*
X6660D01*
Y5724D01*
G01Y6621D02*
X7270D01*
Y6011D01*
X6660D01*
Y6621D01*
G01Y7518D02*
X7270D01*
Y6908D01*
X6660D01*
Y7518D01*
G01Y8415D02*
X7270D01*
Y7805D01*
X6660D01*
Y8415D01*
G01Y9312D02*
X7270D01*
Y8702D01*
X6660D01*
Y9312D01*
G01Y10209D02*
X7270D01*
Y9599D01*
X6660D01*
Y10209D01*
G01Y11106D02*
X7270D01*
Y10496D01*
X6660D01*
Y11106D01*
G01X7013Y11055D02*
X7017Y11053D01*
X7022Y11051D01*
X7027D01*
X7032Y11054D01*
X7037Y11058D01*
X7040Y11063D01*
X7043Y11071D01*
X7043Y11079D01*
X7042Y11086D01*
X7040Y11091D01*
X7036Y11096D01*
X7032Y11100D01*
X7027Y11101D01*
X7023D01*
X7019Y11100D01*
X7015Y11097D01*
X7012Y11094D01*
G01X6990D02*
X6987Y11098D01*
X6982Y11100D01*
X6976Y11101D01*
X6971Y11100D01*
X6966Y11096D01*
X6963Y11090D01*
X6962Y11084D01*
X6964Y11077D01*
X6967Y11073D01*
X6971Y11070D01*
X6976Y11069D01*
X6980Y11070D01*
X6986Y11073D01*
X6984Y11051D01*
X6967D01*
G01X6891Y11796D02*
Y11846D01*
X6884Y11836D01*
G01Y11796D02*
X6899D01*
G01X6966Y11835D02*
Y11800D01*
X6968Y11792D01*
X6974Y11787D01*
X6980Y11785D01*
X6986Y11787D01*
X6991Y11792D01*
X6994Y11800D01*
Y11835D01*
G01X7017Y11793D02*
X7021Y11789D01*
X7025Y11786D01*
X7031Y11785D01*
X7037Y11787D01*
X7041Y11790D01*
X7044Y11796D01*
X7045Y11803D01*
X7044Y11810D01*
X7040Y11814D01*
X7036Y11817D01*
X7031Y11818D01*
X7027Y11817D01*
X7021Y11814D01*
X7023Y11835D01*
X7040D01*
G01X7437Y3482D02*
X8047D01*
Y2872D01*
X7437D01*
Y3482D01*
G01Y4378D02*
X8047D01*
Y3768D01*
X7437D01*
Y4378D01*
G01Y5276D02*
X8047D01*
Y4666D01*
X7437D01*
Y5276D01*
G01Y6172D02*
X8047D01*
Y5562D01*
X7437D01*
Y6172D01*
G01Y7070D02*
X8047D01*
Y6460D01*
X7437D01*
Y7070D01*
G01Y7966D02*
X8047D01*
Y7357D01*
X7437D01*
Y7966D01*
G01Y8864D02*
X8047D01*
Y8254D01*
X7437D01*
Y8864D01*
G01Y9760D02*
X8047D01*
Y9151D01*
X7437D01*
Y9760D01*
G01Y10658D02*
X8047D01*
Y10048D01*
X7437D01*
Y10658D01*
G01X7945Y11784D02*
Y11834D01*
X7961D01*
X7966Y11831D01*
X7969Y11828D01*
X7971Y11821D01*
X7969Y11815D01*
X7966Y11810D01*
X7961Y11808D01*
X7945D01*
G01X7961D02*
X7971Y11784D01*
G01X8009D02*
Y11834D01*
X8001Y11824D01*
G01Y11784D02*
X8017D01*
G01X8048Y11825D02*
X8052Y11830D01*
X8056Y11833D01*
X8061Y11834D01*
X8068Y11832D01*
X8072Y11828D01*
X8073Y11823D01*
X8073Y11818D01*
X8070Y11814D01*
X8057Y11805D01*
X8052Y11800D01*
X8048Y11791D01*
X8047Y11784D01*
X8073D01*
G01X8099Y11825D02*
X8103Y11830D01*
X8107Y11833D01*
X8112Y11834D01*
X8119Y11832D01*
X8123Y11828D01*
X8124Y11823D01*
X8124Y11818D01*
X8121Y11814D01*
X8108Y11805D01*
X8103Y11800D01*
X8099Y11791D01*
X8098Y11784D01*
X8124D01*
G01X8214Y3033D02*
X8824D01*
Y2423D01*
X8214D01*
Y3033D01*
G01Y3930D02*
X8824D01*
Y3320D01*
X8214D01*
Y3930D01*
G01Y4827D02*
X8824D01*
Y4217D01*
X8214D01*
Y4827D01*
G01Y5724D02*
X8824D01*
Y5114D01*
X8214D01*
Y5724D01*
G01Y6621D02*
X8824D01*
Y6011D01*
X8214D01*
Y6621D01*
G01Y7518D02*
X8824D01*
Y6908D01*
X8214D01*
Y7518D01*
G01Y8415D02*
X8824D01*
Y7805D01*
X8214D01*
Y8415D01*
G01Y9312D02*
X8824D01*
Y8702D01*
X8214D01*
Y9312D01*
G01Y10209D02*
X8824D01*
Y9599D01*
X8214D01*
Y10209D01*
G01X8990Y3482D02*
X9600D01*
Y2872D01*
X8990D01*
Y3482D01*
G01Y4378D02*
X9600D01*
Y3768D01*
X8990D01*
Y4378D01*
G01Y5276D02*
X9600D01*
Y4666D01*
X8990D01*
Y5276D01*
G01Y6172D02*
X9600D01*
Y5562D01*
X8990D01*
Y6172D01*
G01Y7070D02*
X9600D01*
Y6460D01*
X8990D01*
Y7070D01*
G01Y7966D02*
X9600D01*
Y7357D01*
X8990D01*
Y7966D01*
G01Y8864D02*
X9600D01*
Y8254D01*
X8990D01*
Y8864D01*
G01Y9760D02*
X9600D01*
Y9151D01*
X8990D01*
Y9760D01*
G01Y10658D02*
X9600D01*
Y10048D01*
X8990D01*
Y10658D01*
G01X9767Y3033D02*
X10377D01*
Y2423D01*
X9767D01*
Y3033D01*
G01Y3930D02*
X10377D01*
Y3320D01*
X9767D01*
Y3930D01*
G01Y4827D02*
X10377D01*
Y4217D01*
X9767D01*
Y4827D01*
G01Y5724D02*
X10377D01*
Y5114D01*
X9767D01*
Y5724D01*
G01Y6621D02*
X10377D01*
Y6011D01*
X9767D01*
Y6621D01*
G01Y7518D02*
X10377D01*
Y6908D01*
X9767D01*
Y7518D01*
G01Y8415D02*
X10377D01*
Y7805D01*
X9767D01*
Y8415D01*
G01Y9312D02*
X10377D01*
Y8702D01*
X9767D01*
Y9312D01*
G01Y10209D02*
X10377D01*
Y9599D01*
X9767D01*
Y10209D01*
G01X10544Y3482D02*
X11154D01*
Y2872D01*
X10544D01*
Y3482D01*
G01Y4378D02*
X11154D01*
Y3768D01*
X10544D01*
Y4378D01*
G01Y5276D02*
X11154D01*
Y4666D01*
X10544D01*
Y5276D01*
G01Y6172D02*
X11154D01*
Y5562D01*
X10544D01*
Y6172D01*
G01Y7070D02*
X11154D01*
Y6460D01*
X10544D01*
Y7070D01*
G01Y7966D02*
X11154D01*
Y7357D01*
X10544D01*
Y7966D01*
G01Y8864D02*
X11154D01*
Y8254D01*
X10544D01*
Y8864D01*
G01Y9760D02*
X11154D01*
Y9151D01*
X10544D01*
Y9760D01*
G01Y10658D02*
X11154D01*
Y10048D01*
X10544D01*
Y10658D01*
G01X11321Y3033D02*
X11931D01*
Y2423D01*
X11321D01*
Y3033D01*
G01Y3930D02*
X11931D01*
Y3320D01*
X11321D01*
Y3930D01*
G01Y4827D02*
X11931D01*
Y4217D01*
X11321D01*
Y4827D01*
G01Y5724D02*
X11931D01*
Y5114D01*
X11321D01*
Y5724D01*
G01Y6621D02*
X11931D01*
Y6011D01*
X11321D01*
Y6621D01*
G01Y7518D02*
X11931D01*
Y6908D01*
X11321D01*
Y7518D01*
G01Y8415D02*
X11931D01*
Y7805D01*
X11321D01*
Y8415D01*
G01Y9312D02*
X11931D01*
Y8702D01*
X11321D01*
Y9312D01*
G01Y10209D02*
X11931D01*
Y9599D01*
X11321D01*
Y10209D01*
G01X12098Y2585D02*
X12708D01*
Y1975D01*
X12098D01*
Y2585D01*
G01Y3482D02*
X12708D01*
Y2872D01*
X12098D01*
Y3482D01*
G01Y4378D02*
X12708D01*
Y3768D01*
X12098D01*
Y4378D01*
G01Y5276D02*
X12708D01*
Y4666D01*
X12098D01*
Y5276D01*
G01Y6172D02*
X12708D01*
Y5562D01*
X12098D01*
Y6172D01*
G01Y7070D02*
X12708D01*
Y6460D01*
X12098D01*
Y7070D01*
G01Y7966D02*
X12708D01*
Y7357D01*
X12098D01*
Y7966D01*
G01Y8864D02*
X12708D01*
Y8254D01*
X12098D01*
Y8864D01*
G01Y9760D02*
X12708D01*
Y9151D01*
X12098D01*
Y9760D01*
G01Y10658D02*
X12708D01*
Y10048D01*
X12098D01*
Y10658D01*
G01X12103Y10918D02*
Y10868D01*
X12087D01*
X12082Y10870D01*
X12079Y10874D01*
X12078Y10880D01*
X12079Y10887D01*
X12083Y10891D01*
X12087Y10894D01*
X12103D01*
G01X12087D02*
X12078Y10918D01*
G01X12052Y10876D02*
X12048Y10871D01*
X12043Y10869D01*
X12038Y10868D01*
X12032Y10870D01*
X12027Y10874D01*
X12026Y10879D01*
X12027Y10884D01*
X12029Y10888D01*
X12042Y10896D01*
X12048Y10902D01*
X12052Y10910D01*
X12053Y10918D01*
X12026D01*
G01X12002Y10908D02*
X11999Y10914D01*
X11994Y10917D01*
X11988Y10918D01*
X11983Y10917D01*
X11978Y10913D01*
X11975Y10908D01*
X11974Y10903D01*
X11975Y10897D01*
X11980Y10893D01*
X11984Y10891D01*
X11990D01*
G01X11984D02*
X11980Y10889D01*
X11977Y10885D01*
X11976Y10880D01*
X11977Y10875D01*
X11980Y10870D01*
X11986Y10868D01*
X11992Y10869D01*
X11997Y10872D01*
G01X11973Y10730D02*
Y10780D01*
X11989D01*
X11994Y10777D01*
X11997Y10774D01*
X11999Y10767D01*
X11997Y10760D01*
X11993Y10756D01*
X11989Y10754D01*
X11973D01*
G01X11989D02*
X11999Y10730D01*
G01X12025Y10771D02*
X12029Y10776D01*
X12033Y10779D01*
X12038Y10780D01*
X12044Y10778D01*
X12049Y10774D01*
X12050Y10769D01*
X12050Y10764D01*
X12047Y10760D01*
X12034Y10751D01*
X12029Y10745D01*
X12025Y10737D01*
X12024Y10730D01*
X12050D01*
G01X12095D02*
Y10780D01*
X12072Y10744D01*
X12104D01*
G01X12098Y11188D02*
Y11138D01*
X12082D01*
X12077Y11141D01*
X12074Y11144D01*
X12073Y11151D01*
X12074Y11157D01*
X12078Y11162D01*
X12082Y11164D01*
X12098D01*
G01X12082D02*
X12073Y11188D01*
G01X12046Y11147D02*
X12043Y11142D01*
X12038Y11139D01*
X12033Y11138D01*
X12027Y11140D01*
X12022Y11144D01*
X12021Y11149D01*
X12022Y11154D01*
X12024Y11158D01*
X12037Y11167D01*
X12043Y11172D01*
X12046Y11181D01*
X12048Y11188D01*
X12021D01*
G01X11983D02*
Y11138D01*
X11991Y11148D01*
G01Y11188D02*
X11976D01*
G01X12103Y11056D02*
Y11006D01*
X12087D01*
X12082Y11008D01*
X12079Y11011D01*
X12078Y11018D01*
X12079Y11025D01*
X12083Y11029D01*
X12087Y11031D01*
X12103D01*
G01X12087D02*
X12078Y11056D01*
G01X12052Y11014D02*
X12048Y11009D01*
X12043Y11006D01*
X12038Y11006D01*
X12032Y11007D01*
X12027Y11011D01*
X12026Y11016D01*
X12027Y11021D01*
X12029Y11026D01*
X12042Y11034D01*
X12048Y11040D01*
X12052Y11048D01*
X12053Y11056D01*
X12026D01*
G01X12001Y11014D02*
X11997Y11009D01*
X11992Y11006D01*
X11987Y11006D01*
X11981Y11007D01*
X11976Y11011D01*
X11975Y11016D01*
X11976Y11021D01*
X11978Y11026D01*
X11991Y11034D01*
X11997Y11040D01*
X12001Y11048D01*
X12002Y11056D01*
X11975D01*
G01X11981Y11279D02*
Y11329D01*
X11996D01*
X12002Y11327D01*
X12005Y11323D01*
X12006Y11317D01*
X12005Y11310D01*
X12001Y11306D01*
X11996Y11303D01*
X11981D01*
G01X11996D02*
X12006Y11279D01*
G01X12032Y11321D02*
X12036Y11326D01*
X12041Y11328D01*
X12046Y11329D01*
X12052Y11327D01*
X12056Y11323D01*
X12058Y11318D01*
X12057Y11313D01*
X12054Y11309D01*
X12042Y11301D01*
X12036Y11295D01*
X12032Y11287D01*
X12031Y11279D01*
X12058D01*
G01X12095Y11329D02*
X12090Y11327D01*
X12086Y11323D01*
X12084Y11318D01*
X12082Y11312D01*
X12081Y11304D01*
X12082Y11297D01*
X12084Y11290D01*
X12086Y11285D01*
X12090Y11281D01*
X12095Y11279D01*
X12100Y11281D01*
X12104Y11285D01*
X12107Y11290D01*
X12109Y11297D01*
X12109Y11304D01*
X12109Y11312D01*
X12107Y11318D01*
X12104Y11323D01*
X12100Y11327D01*
X12095Y11329D01*
G01X11976Y11438D02*
Y11488D01*
X11992D01*
X11997Y11486D01*
X12001Y11482D01*
X12002Y11476D01*
X12001Y11469D01*
X11997Y11465D01*
X11992Y11462D01*
X11976D01*
G01X11992D02*
X12002Y11438D01*
G01X12040D02*
Y11488D01*
X12033Y11478D01*
G01Y11438D02*
X12048D01*
G01X12080Y11444D02*
X12085Y11440D01*
X12090Y11438D01*
X12095Y11440D01*
X12099Y11445D01*
X12103Y11452D01*
X12104Y11460D01*
Y11469D01*
X12103Y11476D01*
X12099Y11483D01*
X12096Y11486D01*
X12091Y11488D01*
X12086Y11486D01*
X12082Y11483D01*
X12080Y11478D01*
X12078Y11471D01*
X12080Y11466D01*
X12083Y11460D01*
X12087Y11456D01*
X12091Y11456D01*
X12096Y11457D01*
X12100Y11461D01*
X12104Y11469D01*
G01X11976Y11580D02*
Y11630D01*
X11992D01*
X11997Y11628D01*
X12001Y11625D01*
X12002Y11618D01*
X12001Y11611D01*
X11997Y11607D01*
X11992Y11605D01*
X11976D01*
G01X11992D02*
X12002Y11580D01*
G01X12040D02*
Y11630D01*
X12033Y11620D01*
G01Y11580D02*
X12048D01*
G01X12091D02*
X12096Y11581D01*
X12101Y11584D01*
X12104Y11588D01*
X12105Y11594D01*
X12104Y11600D01*
X12100Y11605D01*
X12094Y11607D01*
X12088D01*
X12084Y11609D01*
X12081Y11613D01*
X12080Y11619D01*
X12082Y11625D01*
X12086Y11629D01*
X12091Y11630D01*
X12096Y11629D01*
X12101Y11625D01*
X12103Y11619D01*
X12101Y11613D01*
X12098Y11609D01*
X12094Y11607D01*
X12088D01*
X12082Y11605D01*
X12078Y11600D01*
X12077Y11594D01*
X12078Y11588D01*
X12082Y11584D01*
X12087Y11581D01*
X12091Y11580D01*
G01X11981Y11739D02*
Y11789D01*
X11996D01*
X12002Y11787D01*
X12005Y11784D01*
X12006Y11777D01*
X12005Y11770D01*
X12001Y11766D01*
X11996Y11764D01*
X11981D01*
G01X11996D02*
X12006Y11739D01*
G01X12044D02*
Y11789D01*
X12037Y11779D01*
G01Y11739D02*
X12052D01*
G01X12094D02*
X12095Y11750D01*
X12097Y11759D01*
X12100Y11768D01*
X12103Y11777D01*
X12108Y11789D01*
X12083D01*
G01X12875Y3033D02*
X13485D01*
Y2423D01*
X12875D01*
Y3033D01*
G01Y3930D02*
X13485D01*
Y3320D01*
X12875D01*
Y3930D01*
G01Y4827D02*
X13485D01*
Y4217D01*
X12875D01*
Y4827D01*
G01Y5724D02*
X13485D01*
Y5114D01*
X12875D01*
Y5724D01*
G01Y6621D02*
X13485D01*
Y6011D01*
X12875D01*
Y6621D01*
G01Y7518D02*
X13485D01*
Y6908D01*
X12875D01*
Y7518D01*
G01Y8415D02*
X13485D01*
Y7805D01*
X12875D01*
Y8415D01*
G01Y9312D02*
X13485D01*
Y8702D01*
X12875D01*
Y9312D01*
G01Y10209D02*
X13485D01*
Y9599D01*
X12875D01*
Y10209D01*
G01X12791Y10887D02*
X12795Y10888D01*
X12801Y10890D01*
X12804Y10895D01*
X12805Y10900D01*
X12804Y10906D01*
X12800Y10911D01*
X12794Y10914D01*
X12788D01*
X12784Y10915D01*
X12781Y10920D01*
X12780Y10925D01*
X12782Y10931D01*
X12786Y10935D01*
X12791Y10937D01*
X12796Y10935D01*
X12801Y10931D01*
X12802Y10925D01*
X12801Y10920D01*
X12798Y10915D01*
X12794Y10914D01*
X12788D01*
X12782Y10911D01*
X12778Y10906D01*
X12777Y10900D01*
X12778Y10895D01*
X12782Y10890D01*
X12787Y10888D01*
X12791Y10887D01*
G01X12744Y11418D02*
X12747Y11413D01*
X12751Y11410D01*
X12755Y11408D01*
X12760Y11410D01*
X12764Y11413D01*
X12768Y11418D01*
X12769Y11425D01*
Y11458D01*
G01X12793Y11418D02*
X12797Y11412D01*
X12802Y11409D01*
X12808Y11408D01*
X12813Y11409D01*
X12818Y11413D01*
X12821Y11418D01*
X12822Y11423D01*
X12821Y11429D01*
X12816Y11433D01*
X12812Y11435D01*
X12806D01*
G01X12812D02*
X12815Y11437D01*
X12819Y11442D01*
X12820Y11447D01*
X12819Y11452D01*
X12815Y11456D01*
X12810Y11458D01*
X12804Y11457D01*
X12798Y11454D01*
G01X12771Y11586D02*
Y11636D01*
X12763Y11626D01*
G01Y11586D02*
X12778D01*
G01X13651Y2585D02*
X14261D01*
Y1975D01*
X13651D01*
Y2585D01*
G01Y3482D02*
X14261D01*
Y2872D01*
X13651D01*
Y3482D01*
G01Y4378D02*
X14261D01*
Y3768D01*
X13651D01*
Y4378D01*
G01Y5276D02*
X14261D01*
Y4666D01*
X13651D01*
Y5276D01*
G01Y6172D02*
X14261D01*
Y5562D01*
X13651D01*
Y6172D01*
G01Y7070D02*
X14261D01*
Y6460D01*
X13651D01*
Y7070D01*
G01Y7966D02*
X14261D01*
Y7357D01*
X13651D01*
Y7966D01*
G01Y8864D02*
X14261D01*
Y8254D01*
X13651D01*
Y8864D01*
G01Y9760D02*
X14261D01*
Y9151D01*
X13651D01*
Y9760D01*
G01X13920Y11062D02*
X13916Y11064D01*
X13911Y11066D01*
X13906D01*
X13901Y11063D01*
X13896Y11059D01*
X13893Y11054D01*
X13891Y11046D01*
X13890Y11038D01*
X13891Y11031D01*
X13893Y11026D01*
X13897Y11021D01*
X13901Y11018D01*
X13906Y11016D01*
X13910D01*
X13915Y11018D01*
X13918Y11020D01*
X13922Y11023D01*
G01X13943Y11026D02*
X13947Y11020D01*
X13952Y11017D01*
X13957Y11016D01*
X13962Y11017D01*
X13968Y11021D01*
X13971Y11026D01*
X13971Y11031D01*
X13970Y11037D01*
X13966Y11041D01*
X13961Y11043D01*
X13956D01*
G01X13961D02*
X13965Y11045D01*
X13968Y11049D01*
X13969Y11054D01*
X13968Y11059D01*
X13965Y11063D01*
X13959Y11066D01*
X13954Y11065D01*
X13948Y11062D01*
G01X14095Y11346D02*
X14145D01*
X14135Y11354D01*
G01X14095D02*
Y11339D01*
G01X14428Y3033D02*
X15038D01*
Y2423D01*
X14428D01*
Y3033D01*
G01Y3930D02*
X15038D01*
Y3320D01*
X14428D01*
Y3930D01*
G01Y4827D02*
X15038D01*
Y4217D01*
X14428D01*
Y4827D01*
G01Y5724D02*
X15038D01*
Y5114D01*
X14428D01*
Y5724D01*
G01Y6621D02*
X15038D01*
Y6011D01*
X14428D01*
Y6621D01*
G01Y7518D02*
X15038D01*
Y6908D01*
X14428D01*
Y7518D01*
G01Y8415D02*
X15038D01*
Y7805D01*
X14428D01*
Y8415D01*
G01Y9312D02*
X15038D01*
Y8702D01*
X14428D01*
Y9312D01*
G01Y10209D02*
X15038D01*
Y9599D01*
X14428D01*
Y10209D01*
G01X14481Y11368D02*
Y11333D01*
X14484Y11325D01*
X14489Y11320D01*
X14495Y11318D01*
X14502Y11320D01*
X14507Y11325D01*
X14509Y11333D01*
Y11368D01*
G01X14534Y11360D02*
X14538Y11365D01*
X14542Y11368D01*
X14548Y11368D01*
X14554Y11367D01*
X14558Y11363D01*
X14560Y11358D01*
X14559Y11353D01*
X14556Y11348D01*
X14544Y11340D01*
X14538Y11334D01*
X14534Y11326D01*
X14533Y11318D01*
X14560D01*
G01X14741Y11010D02*
Y11060D01*
X14757D01*
X14762Y11057D01*
X14765Y11054D01*
X14767Y11047D01*
X14765Y11041D01*
X14762Y11037D01*
X14757Y11034D01*
X14741D01*
G01X14757D02*
X14767Y11010D01*
G01X14805D02*
Y11060D01*
X14797Y11050D01*
G01Y11010D02*
X14813D01*
G01X14844Y11052D02*
X14848Y11057D01*
X14852Y11059D01*
X14857Y11060D01*
X14864Y11058D01*
X14868Y11054D01*
X14869Y11049D01*
X14869Y11044D01*
X14866Y11040D01*
X14853Y11032D01*
X14848Y11026D01*
X14844Y11017D01*
X14843Y11010D01*
X14869D01*
G01X14896Y11016D02*
X14901Y11012D01*
X14906Y11010D01*
X14911Y11012D01*
X14915Y11017D01*
X14918Y11024D01*
X14920Y11032D01*
Y11041D01*
X14918Y11048D01*
X14915Y11055D01*
X14911Y11058D01*
X14907Y11060D01*
X14902Y11058D01*
X14898Y11055D01*
X14896Y11050D01*
X14894Y11043D01*
X14896Y11037D01*
X14899Y11032D01*
X14902Y11028D01*
X14907Y11027D01*
X14912Y11029D01*
X14916Y11033D01*
X14920Y11041D01*
G01X15205Y2585D02*
X15815D01*
Y1975D01*
X15205D01*
Y2585D01*
G01Y3482D02*
X15815D01*
Y2872D01*
X15205D01*
Y3482D01*
G01Y4378D02*
X15815D01*
Y3768D01*
X15205D01*
Y4378D01*
G01Y5276D02*
X15815D01*
Y4666D01*
X15205D01*
Y5276D01*
G01Y6172D02*
X15815D01*
Y5562D01*
X15205D01*
Y6172D01*
G01Y7070D02*
X15815D01*
Y6460D01*
X15205D01*
Y7070D01*
G01Y7966D02*
X15815D01*
Y7357D01*
X15205D01*
Y7966D01*
G01Y8864D02*
X15815D01*
Y8254D01*
X15205D01*
Y8864D01*
G01Y9760D02*
X15815D01*
Y9151D01*
X15205D01*
Y9760D01*
G01X15982Y3033D02*
X16592D01*
Y2423D01*
X15982D01*
Y3033D01*
G01Y3930D02*
X16592D01*
Y3320D01*
X15982D01*
Y3930D01*
G01Y4827D02*
X16592D01*
Y4217D01*
X15982D01*
Y4827D01*
G01Y5724D02*
X16592D01*
Y5114D01*
X15982D01*
Y5724D01*
G01Y6621D02*
X16592D01*
Y6011D01*
X15982D01*
Y6621D01*
G01Y7518D02*
X16592D01*
Y6908D01*
X15982D01*
Y7518D01*
G01Y8415D02*
X16592D01*
Y7805D01*
X15982D01*
Y8415D01*
G01Y9312D02*
X16592D01*
Y8702D01*
X15982D01*
Y9312D01*
G01Y10209D02*
X16592D01*
Y9599D01*
X15982D01*
Y10209D01*
G01X15860Y10358D02*
Y10408D01*
X15876D01*
X15881Y10406D01*
X15884Y10403D01*
X15885Y10396D01*
X15884Y10389D01*
X15880Y10385D01*
X15876Y10383D01*
X15860D01*
G01X15876D02*
X15885Y10358D01*
G01X15924D02*
X15928Y10359D01*
X15933Y10362D01*
X15936Y10366D01*
X15938Y10372D01*
X15936Y10378D01*
X15933Y10383D01*
X15927Y10385D01*
X15921D01*
X15917Y10387D01*
X15914Y10391D01*
X15912Y10397D01*
X15914Y10403D01*
X15919Y10407D01*
X15924Y10408D01*
X15929Y10407D01*
X15933Y10403D01*
X15935Y10397D01*
X15934Y10391D01*
X15931Y10387D01*
X15927Y10385D01*
X15921D01*
X15915Y10383D01*
X15911Y10378D01*
X15910Y10372D01*
X15911Y10366D01*
X15914Y10362D01*
X15919Y10359D01*
X15924Y10358D01*
G01X15860Y10497D02*
Y10547D01*
X15876D01*
X15881Y10544D01*
X15884Y10541D01*
X15885Y10534D01*
X15884Y10527D01*
X15880Y10523D01*
X15876Y10521D01*
X15860D01*
G01X15876D02*
X15885Y10497D01*
G01X15922D02*
X15924Y10507D01*
X15926Y10517D01*
X15928Y10525D01*
X15931Y10534D01*
X15936Y10547D01*
X15911D01*
G01X15860Y10643D02*
Y10693D01*
X15876D01*
X15881Y10690D01*
X15884Y10687D01*
X15885Y10680D01*
X15884Y10674D01*
X15880Y10670D01*
X15876Y10667D01*
X15860D01*
G01X15876D02*
X15885Y10643D01*
G01X15912Y10664D02*
X15916Y10670D01*
X15920Y10673D01*
X15925Y10675D01*
X15929Y10673D01*
X15933Y10670D01*
X15935Y10665D01*
X15936Y10659D01*
X15935Y10654D01*
X15933Y10649D01*
X15929Y10645D01*
X15924Y10643D01*
X15919Y10645D01*
X15915Y10650D01*
X15912Y10657D01*
X15912Y10665D01*
X15913Y10676D01*
X15915Y10682D01*
X15918Y10688D01*
X15922Y10692D01*
X15927Y10693D01*
X15931Y10691D01*
X15934Y10687D01*
G01X15860Y10764D02*
Y10814D01*
X15876D01*
X15881Y10812D01*
X15884Y10809D01*
X15885Y10802D01*
X15884Y10795D01*
X15880Y10791D01*
X15876Y10789D01*
X15860D01*
G01X15876D02*
X15885Y10764D01*
G01X15910Y10772D02*
X15914Y10768D01*
X15918Y10765D01*
X15924Y10764D01*
X15929Y10766D01*
X15934Y10769D01*
X15937Y10775D01*
X15938Y10782D01*
X15936Y10789D01*
X15933Y10793D01*
X15929Y10796D01*
X15924Y10797D01*
X15920Y10796D01*
X15914Y10793D01*
X15916Y10814D01*
X15933D01*
G01X15860Y10894D02*
Y10944D01*
X15876D01*
X15881Y10942D01*
X15884Y10938D01*
X15885Y10932D01*
X15884Y10925D01*
X15880Y10921D01*
X15876Y10918D01*
X15860D01*
G01X15876D02*
X15885Y10894D01*
G01X15931D02*
Y10944D01*
X15908Y10908D01*
X15940D01*
G01X15860Y11028D02*
Y11078D01*
X15876D01*
X15881Y11075D01*
X15884Y11072D01*
X15885Y11066D01*
X15884Y11059D01*
X15880Y11055D01*
X15876Y11052D01*
X15860D01*
G01X15876D02*
X15885Y11028D01*
G01X15910Y11038D02*
X15914Y11032D01*
X15919Y11029D01*
X15924Y11028D01*
X15929Y11029D01*
X15934Y11033D01*
X15938Y11038D01*
X15938Y11043D01*
X15937Y11049D01*
X15933Y11053D01*
X15928Y11055D01*
X15922D01*
G01X15928D02*
X15932Y11057D01*
X15935Y11061D01*
X15936Y11066D01*
X15935Y11071D01*
X15932Y11075D01*
X15926Y11078D01*
X15921Y11077D01*
X15915Y11074D01*
G01X15873Y11166D02*
Y11216D01*
X15888D01*
X15893Y11214D01*
X15897Y11210D01*
X15898Y11204D01*
X15897Y11197D01*
X15893Y11193D01*
X15888Y11190D01*
X15873D01*
G01X15888D02*
X15898Y11166D01*
G01X15924Y11208D02*
X15928Y11213D01*
X15932Y11215D01*
X15937Y11216D01*
X15944Y11214D01*
X15948Y11210D01*
X15950Y11205D01*
X15949Y11200D01*
X15946Y11196D01*
X15934Y11188D01*
X15928Y11182D01*
X15924Y11174D01*
X15923Y11166D01*
X15950D01*
G01X15877Y11292D02*
Y11342D01*
X15893D01*
X15898Y11339D01*
X15901Y11336D01*
X15902Y11329D01*
X15901Y11322D01*
X15897Y11318D01*
X15893Y11316D01*
X15877D01*
G01X15893D02*
X15902Y11292D01*
G01X15940D02*
Y11342D01*
X15933Y11332D01*
G01Y11292D02*
X15948D01*
G01X16592Y10404D02*
X16597Y10405D01*
X16602Y10408D01*
X16605Y10412D01*
X16606Y10418D01*
X16605Y10424D01*
X16601Y10429D01*
X16596Y10431D01*
X16589D01*
X16586Y10433D01*
X16582Y10437D01*
X16581Y10443D01*
X16583Y10449D01*
X16587Y10453D01*
X16592Y10454D01*
X16598Y10453D01*
X16602Y10449D01*
X16604Y10443D01*
X16603Y10437D01*
X16599Y10433D01*
X16596Y10431D01*
X16589D01*
X16584Y10429D01*
X16580Y10424D01*
X16579Y10418D01*
X16580Y10412D01*
X16583Y10408D01*
X16588Y10405D01*
X16592Y10404D01*
G01X16555Y10816D02*
X16558Y10811D01*
X16562Y10808D01*
X16566Y10806D01*
X16571Y10808D01*
X16575Y10811D01*
X16579Y10816D01*
X16580Y10823D01*
Y10856D01*
G01X16626Y10806D02*
Y10856D01*
X16603Y10820D01*
X16634D01*
G01X16607Y11121D02*
Y11171D01*
X16600Y11161D01*
G01Y11121D02*
X16615D01*
G01X16859Y8383D02*
X16862Y8378D01*
X16866Y8374D01*
X16871Y8373D01*
X16876Y8374D01*
X16879Y8378D01*
X16883Y8383D01*
X16884Y8389D01*
Y8423D01*
G01X16911Y8394D02*
X16915Y8399D01*
X16919Y8403D01*
X16924Y8404D01*
X16929Y8403D01*
X16932Y8399D01*
X16934Y8394D01*
X16935Y8389D01*
X16934Y8384D01*
X16932Y8379D01*
X16928Y8374D01*
X16923Y8373D01*
X16918Y8374D01*
X16914Y8379D01*
X16911Y8387D01*
X16911Y8395D01*
X16912Y8406D01*
X16914Y8412D01*
X16917Y8418D01*
X16922Y8422D01*
X16926Y8423D01*
X16930Y8421D01*
X16934Y8417D01*
G01X17222Y6514D02*
X17217Y6510D01*
X17214Y6507D01*
X17212Y6502D01*
X17214Y6497D01*
X17217Y6493D01*
X17222Y6490D01*
X17229Y6488D01*
X17262D01*
G01X17212Y6451D02*
X17223Y6450D01*
X17232Y6448D01*
X17240Y6445D01*
X17249Y6442D01*
X17262Y6437D01*
Y6463D01*
G01X17185Y7649D02*
X17190Y7650D01*
X17195Y7652D01*
X17198Y7656D01*
X17199Y7662D01*
X17198Y7668D01*
X17194Y7673D01*
X17188Y7675D01*
X17182D01*
X17178Y7677D01*
X17175Y7681D01*
X17174Y7687D01*
X17176Y7693D01*
X17180Y7697D01*
X17185Y7699D01*
X17190Y7697D01*
X17195Y7693D01*
X17197Y7687D01*
X17195Y7681D01*
X17192Y7677D01*
X17188Y7675D01*
X17182D01*
X17176Y7673D01*
X17173Y7668D01*
X17171Y7662D01*
X17173Y7656D01*
X17176Y7652D01*
X17181Y7650D01*
X17185Y7649D01*
G01X17324Y8349D02*
Y8299D01*
X17309D01*
X17304Y8301D01*
X17300Y8305D01*
X17299Y8311D01*
X17300Y8318D01*
X17304Y8322D01*
X17309Y8325D01*
X17324D01*
G01X17309D02*
X17299Y8349D01*
G01X17253D02*
Y8299D01*
X17277Y8335D01*
X17245D01*
G01X17210Y8299D02*
X17215Y8300D01*
X17219Y8305D01*
X17221Y8310D01*
X17223Y8316D01*
X17224Y8324D01*
X17223Y8331D01*
X17221Y8338D01*
X17219Y8343D01*
X17215Y8347D01*
X17210Y8349D01*
X17205Y8347D01*
X17201Y8343D01*
X17198Y8338D01*
X17197Y8331D01*
X17196Y8324D01*
X17197Y8316D01*
X17198Y8310D01*
X17201Y8305D01*
X17205Y8300D01*
X17210Y8299D01*
G01X17078Y8534D02*
Y8584D01*
X17070Y8574D01*
G01Y8534D02*
X17086D01*
G01X17216Y10672D02*
Y10722D01*
X17208Y10712D01*
G01Y10672D02*
X17224D01*
G01X17316Y6639D02*
X17366D01*
X17356Y6647D01*
G01X17316D02*
Y6631D01*
G01X17459Y6821D02*
X17464Y6822D01*
X17469Y6824D01*
X17472Y6828D01*
X17473Y6834D01*
X17472Y6840D01*
X17468Y6845D01*
X17463Y6847D01*
X17456D01*
X17452Y6849D01*
X17449Y6853D01*
X17448Y6859D01*
X17450Y6865D01*
X17454Y6869D01*
X17459Y6871D01*
X17464Y6869D01*
X17469Y6865D01*
X17471Y6859D01*
X17470Y6853D01*
X17466Y6849D01*
X17463Y6847D01*
X17456D01*
X17451Y6845D01*
X17447Y6840D01*
X17445Y6834D01*
X17447Y6828D01*
X17450Y6824D01*
X17455Y6822D01*
X17459Y6821D01*
G01X17455Y7046D02*
X17450Y7042D01*
X17447Y7039D01*
X17445Y7034D01*
X17447Y7029D01*
X17450Y7025D01*
X17455Y7022D01*
X17462Y7020D01*
X17495D01*
G01X17453Y6996D02*
X17449Y6992D01*
X17446Y6988D01*
X17445Y6982D01*
X17447Y6976D01*
X17450Y6972D01*
X17456Y6969D01*
X17463Y6968D01*
X17469Y6969D01*
X17474Y6972D01*
X17477Y6977D01*
X17478Y6981D01*
X17477Y6986D01*
X17474Y6991D01*
X17495Y6990D01*
Y6972D01*
G01X17439Y7519D02*
Y7569D01*
X17431Y7559D01*
G01Y7519D02*
X17447D01*
G01X17517Y7495D02*
X17513Y7497D01*
X17509Y7499D01*
X17504D01*
X17498Y7497D01*
X17494Y7492D01*
X17491Y7487D01*
X17488Y7479D01*
X17487Y7472D01*
X17489Y7464D01*
X17491Y7459D01*
X17494Y7454D01*
X17499Y7451D01*
X17503Y7449D01*
X17508D01*
X17512Y7451D01*
X17516Y7453D01*
X17519Y7457D01*
G01X17562Y7449D02*
Y7499D01*
X17538Y7463D01*
X17570D01*
G01X17384Y7830D02*
X17434D01*
Y7814D01*
X17432Y7809D01*
X17429Y7806D01*
X17422Y7805D01*
X17415Y7806D01*
X17411Y7810D01*
X17409Y7814D01*
Y7830D01*
G01Y7814D02*
X17384Y7805D01*
G01X17394Y7780D02*
X17389Y7776D01*
X17385Y7771D01*
X17384Y7766D01*
X17385Y7761D01*
X17389Y7755D01*
X17394Y7752D01*
X17399Y7752D01*
X17405Y7753D01*
X17409Y7757D01*
X17411Y7762D01*
Y7768D01*
G01Y7762D02*
X17414Y7758D01*
X17418Y7755D01*
X17423Y7754D01*
X17428Y7755D01*
X17432Y7758D01*
X17434Y7764D01*
X17434Y7769D01*
X17430Y7775D01*
G01X17384Y7715D02*
X17385Y7711D01*
X17388Y7706D01*
X17392Y7703D01*
X17398Y7701D01*
X17404Y7703D01*
X17409Y7706D01*
X17411Y7712D01*
Y7718D01*
X17413Y7722D01*
X17417Y7725D01*
X17423Y7727D01*
X17429Y7725D01*
X17433Y7720D01*
X17434Y7715D01*
X17433Y7710D01*
X17429Y7706D01*
X17423Y7704D01*
X17417Y7705D01*
X17413Y7708D01*
X17411Y7712D01*
Y7718D01*
X17409Y7724D01*
X17404Y7728D01*
X17398Y7729D01*
X17392Y7728D01*
X17388Y7725D01*
X17385Y7720D01*
X17384Y7715D01*
G01X17413Y8521D02*
Y8571D01*
X17428D01*
X17433Y8569D01*
X17437Y8565D01*
X17438Y8559D01*
X17437Y8552D01*
X17433Y8548D01*
X17428Y8545D01*
X17413D01*
G01X17428D02*
X17438Y8521D01*
G01X17462Y8531D02*
X17466Y8525D01*
X17471Y8522D01*
X17477Y8521D01*
X17482Y8522D01*
X17487Y8526D01*
X17490Y8531D01*
X17491Y8536D01*
X17490Y8542D01*
X17485Y8546D01*
X17481Y8548D01*
X17475D01*
G01X17481D02*
X17484Y8550D01*
X17488Y8555D01*
X17489Y8560D01*
X17488Y8565D01*
X17484Y8569D01*
X17479Y8571D01*
X17473Y8570D01*
X17467Y8567D01*
G01X17526Y8521D02*
X17527Y8532D01*
X17529Y8541D01*
X17532Y8550D01*
X17535Y8559D01*
X17540Y8571D01*
X17515D01*
G01X17413Y8601D02*
Y8651D01*
X17428D01*
X17433Y8648D01*
X17437Y8645D01*
X17438Y8638D01*
X17437Y8632D01*
X17433Y8627D01*
X17428Y8625D01*
X17413D01*
G01X17428D02*
X17438Y8601D01*
G01X17462Y8611D02*
X17466Y8605D01*
X17471Y8602D01*
X17477Y8601D01*
X17482Y8602D01*
X17487Y8606D01*
X17490Y8611D01*
X17491Y8616D01*
X17490Y8622D01*
X17485Y8626D01*
X17481Y8627D01*
X17475D01*
G01X17481D02*
X17484Y8630D01*
X17488Y8634D01*
X17489Y8639D01*
X17488Y8644D01*
X17484Y8648D01*
X17479Y8651D01*
X17473Y8650D01*
X17467Y8647D01*
G01X17515Y8622D02*
X17520Y8627D01*
X17523Y8631D01*
X17529Y8632D01*
X17533Y8631D01*
X17536Y8627D01*
X17539Y8622D01*
X17539Y8617D01*
X17539Y8612D01*
X17536Y8607D01*
X17532Y8602D01*
X17528Y8601D01*
X17523Y8602D01*
X17518Y8607D01*
X17516Y8615D01*
X17515Y8623D01*
X17516Y8634D01*
X17518Y8640D01*
X17522Y8646D01*
X17526Y8650D01*
X17530Y8651D01*
X17535Y8649D01*
X17538Y8645D01*
G01X17413Y8672D02*
Y8722D01*
X17428D01*
X17433Y8719D01*
X17437Y8716D01*
X17438Y8709D01*
X17437Y8703D01*
X17433Y8699D01*
X17428Y8696D01*
X17413D01*
G01X17428D02*
X17438Y8672D01*
G01X17462Y8682D02*
X17466Y8676D01*
X17471Y8673D01*
X17477Y8672D01*
X17482Y8673D01*
X17487Y8677D01*
X17490Y8682D01*
X17491Y8687D01*
X17490Y8693D01*
X17485Y8697D01*
X17481Y8699D01*
X17475D01*
G01X17481D02*
X17484Y8701D01*
X17488Y8705D01*
X17489Y8710D01*
X17488Y8715D01*
X17484Y8719D01*
X17479Y8722D01*
X17473Y8721D01*
X17467Y8718D01*
G01X17513Y8679D02*
X17517Y8675D01*
X17522Y8673D01*
X17527Y8672D01*
X17533Y8674D01*
X17537Y8677D01*
X17541Y8683D01*
X17541Y8689D01*
X17540Y8696D01*
X17537Y8700D01*
X17532Y8704D01*
X17528Y8704D01*
X17523Y8704D01*
X17518Y8700D01*
X17520Y8722D01*
X17537D01*
G01X17408Y8743D02*
Y8793D01*
X17424D01*
X17429Y8791D01*
X17432Y8787D01*
X17434Y8781D01*
X17432Y8774D01*
X17429Y8770D01*
X17424Y8767D01*
X17408D01*
G01X17424D02*
X17434Y8743D01*
G01X17458Y8753D02*
X17462Y8747D01*
X17467Y8744D01*
X17473Y8743D01*
X17478Y8744D01*
X17483Y8748D01*
X17486Y8753D01*
X17487Y8758D01*
X17485Y8764D01*
X17481Y8768D01*
X17476Y8770D01*
X17471D01*
G01X17476D02*
X17480Y8772D01*
X17483Y8776D01*
X17485Y8781D01*
X17483Y8786D01*
X17480Y8791D01*
X17475Y8793D01*
X17469Y8792D01*
X17463Y8789D01*
G01X17531Y8743D02*
Y8793D01*
X17507Y8757D01*
X17539D01*
G01X17408Y8818D02*
Y8868D01*
X17424D01*
X17429Y8866D01*
X17432Y8863D01*
X17434Y8856D01*
X17432Y8849D01*
X17429Y8845D01*
X17424Y8843D01*
X17408D01*
G01X17424D02*
X17434Y8818D01*
G01X17458Y8828D02*
X17462Y8823D01*
X17467Y8819D01*
X17473Y8818D01*
X17478Y8819D01*
X17483Y8823D01*
X17486Y8828D01*
X17487Y8833D01*
X17485Y8839D01*
X17481Y8843D01*
X17476Y8845D01*
X17471D01*
G01X17476D02*
X17480Y8848D01*
X17483Y8852D01*
X17485Y8857D01*
X17483Y8862D01*
X17480Y8866D01*
X17475Y8868D01*
X17469Y8868D01*
X17463Y8864D01*
G01X17509Y8828D02*
X17513Y8823D01*
X17518Y8819D01*
X17524Y8818D01*
X17529Y8819D01*
X17534Y8823D01*
X17537Y8828D01*
X17538Y8833D01*
X17536Y8839D01*
X17532Y8843D01*
X17527Y8845D01*
X17522D01*
G01X17527D02*
X17531Y8848D01*
X17534Y8852D01*
X17536Y8857D01*
X17534Y8862D01*
X17531Y8866D01*
X17526Y8868D01*
X17520Y8868D01*
X17514Y8864D01*
G01X17404Y8898D02*
Y8948D01*
X17420D01*
X17425Y8945D01*
X17428Y8942D01*
X17430Y8935D01*
X17428Y8929D01*
X17424Y8925D01*
X17420Y8922D01*
X17404D01*
G01X17420D02*
X17430Y8898D01*
G01X17454Y8908D02*
X17458Y8902D01*
X17463Y8899D01*
X17469Y8898D01*
X17474Y8899D01*
X17479Y8903D01*
X17482Y8908D01*
X17482Y8913D01*
X17481Y8919D01*
X17477Y8923D01*
X17472Y8925D01*
X17467D01*
G01X17472D02*
X17476Y8927D01*
X17479Y8931D01*
X17481Y8936D01*
X17479Y8941D01*
X17476Y8945D01*
X17470Y8948D01*
X17465Y8947D01*
X17459Y8944D01*
G01X17507Y8940D02*
X17511Y8945D01*
X17515Y8947D01*
X17520Y8948D01*
X17526Y8946D01*
X17531Y8942D01*
X17532Y8937D01*
X17532Y8932D01*
X17529Y8928D01*
X17516Y8920D01*
X17511Y8914D01*
X17507Y8905D01*
X17506Y8898D01*
X17532D01*
G01X17376Y10787D02*
Y10751D01*
X17378Y10744D01*
X17383Y10739D01*
X17390Y10737D01*
X17396Y10739D01*
X17401Y10744D01*
X17404Y10751D01*
Y10787D01*
G01X17427Y10747D02*
X17431Y10741D01*
X17436Y10738D01*
X17441Y10737D01*
X17446Y10738D01*
X17451Y10742D01*
X17455Y10747D01*
X17455Y10752D01*
X17454Y10758D01*
X17450Y10762D01*
X17445Y10764D01*
X17439D01*
G01X17445D02*
X17449Y10766D01*
X17452Y10770D01*
X17453Y10775D01*
X17452Y10780D01*
X17449Y10785D01*
X17443Y10787D01*
X17438Y10786D01*
X17432Y10783D01*
G01X17529Y7342D02*
Y7392D01*
X17522Y7382D01*
G01Y7342D02*
X17537D01*
G01X17582Y8356D02*
X17632D01*
X17622Y8363D01*
G01X17582D02*
Y8348D01*
G01X17636Y8596D02*
X17632Y8599D01*
X17628Y8601D01*
X17623D01*
X17617Y8598D01*
X17612Y8594D01*
X17609Y8589D01*
X17607Y8581D01*
X17606Y8573D01*
X17607Y8566D01*
X17609Y8561D01*
X17613Y8556D01*
X17618Y8552D01*
X17622Y8551D01*
X17626D01*
X17631Y8552D01*
X17635Y8555D01*
X17638Y8558D01*
G01X17661Y8592D02*
X17665Y8597D01*
X17669Y8600D01*
X17674Y8601D01*
X17681Y8599D01*
X17685Y8595D01*
X17686Y8590D01*
X17686Y8585D01*
X17683Y8581D01*
X17670Y8572D01*
X17665Y8566D01*
X17661Y8558D01*
X17660Y8551D01*
X17686D01*
G01X17766Y9667D02*
X17716D01*
X17726Y9660D01*
G01X17766D02*
Y9675D01*
G01X17872Y10010D02*
Y9960D01*
X17856D01*
X17851Y9963D01*
X17848Y9966D01*
X17846Y9973D01*
X17848Y9979D01*
X17851Y9984D01*
X17856Y9986D01*
X17872D01*
G01X17856D02*
X17846Y10010D01*
G01X17808D02*
Y9960D01*
X17816Y9970D01*
G01Y10010D02*
X17800D01*
G01X17769Y9969D02*
X17765Y9964D01*
X17761Y9961D01*
X17756Y9960D01*
X17749Y9962D01*
X17745Y9966D01*
X17744Y9971D01*
X17744Y9976D01*
X17747Y9980D01*
X17760Y9989D01*
X17765Y9994D01*
X17769Y10003D01*
X17770Y10010D01*
X17744D01*
G01X17706D02*
Y9960D01*
X17714Y9970D01*
G01Y10010D02*
X17698D01*
G01X17813Y7317D02*
Y7282D01*
X17815Y7274D01*
X17821Y7269D01*
X17827Y7267D01*
X17833Y7269D01*
X17838Y7274D01*
X17841Y7282D01*
Y7317D01*
G01X17878Y7267D02*
Y7317D01*
X17870Y7307D01*
G01Y7267D02*
X17885D01*
G01X17842Y8299D02*
Y8263D01*
X17845Y8256D01*
X17850Y8251D01*
X17856Y8249D01*
X17863Y8251D01*
X17868Y8256D01*
X17870Y8263D01*
Y8299D01*
G01X17915Y8249D02*
Y8299D01*
X17891Y8263D01*
X17923D01*
G01X17860Y9793D02*
X17865Y9796D01*
X17868Y9800D01*
X17870Y9804D01*
X17868Y9809D01*
X17865Y9813D01*
X17860Y9817D01*
X17853Y9818D01*
X17820D01*
G01X17870Y9856D02*
X17820D01*
X17830Y9849D01*
G01X17870D02*
Y9864D01*
G01X17843Y10611D02*
X17839Y10614D01*
X17835Y10616D01*
X17830D01*
X17824Y10613D01*
X17820Y10609D01*
X17816Y10604D01*
X17814Y10596D01*
X17813Y10588D01*
X17815Y10581D01*
X17816Y10576D01*
X17820Y10571D01*
X17825Y10567D01*
X17829Y10566D01*
X17834D01*
X17838Y10567D01*
X17842Y10570D01*
X17845Y10573D01*
G01X17880Y10566D02*
Y10616D01*
X17872Y10606D01*
G01Y10566D02*
X17888D01*
M02*
