G04 ================== begin FILE IDENTIFICATION RECORD ==================*
G04 Layout Name:  axis64_42_updated_holes.brd*
G04 Film Name:    SOLDERMASK_TOP*
G04 File Format:  Gerber RS274X*
G04 File Origin:  Cadence Allegro 16.3-S021*
G04 Origin Date:  Wed Jan 26 10:45:04 2011*
G04 *
G04 Layer:  VIA CLASS/SOLDERMASK_TOP*
G04 Layer:  PIN/SOLDERMASK_TOP*
G04 *
G04 Offset:    (0.000 0.000)*
G04 Mirror:    No*
G04 Mode:      Positive*
G04 Rotation:  0*
G04 FullContactRelief:  No*
G04 UndefLineWidth:     0.000*
G04 ================== end FILE IDENTIFICATION RECORD ====================*
%FSLAX53Y53*MOIN*%
%IR0*IPPOS*OFA0.00000B0.00000*MIA0B0*SFA1.00000B1.00000*%
%ADD13C,.11*%
%ADD10C,.157*%
%ADD19O,.08X.034*%
%ADD18R,.08X.034*%
%ADD17C,.04*%
%ADD15C,.08*%
%ADD11C,.09*%
%ADD16R,.08X.08*%
%ADD20R,.05331X.04937*%
%ADD12C,.077008*%
%ADD21R,.06906X.06118*%
%ADD14R,.06118X.06906*%
%LPD*%
G75*
G54D10*
X750Y3625D03*
Y4522D03*
Y5419D03*
Y6316D03*
Y7213D03*
Y8110D03*
Y9007D03*
Y9904D03*
Y10801D03*
X1527Y3176D03*
Y4074D03*
Y4970D03*
Y5868D03*
Y6764D03*
Y7662D03*
Y8558D03*
Y9456D03*
Y10353D03*
Y11250D03*
X2304Y3625D03*
Y4522D03*
Y5419D03*
Y6316D03*
Y7213D03*
Y8110D03*
Y9007D03*
Y9904D03*
Y10801D03*
X3081Y3176D03*
Y4074D03*
Y4970D03*
Y5868D03*
Y6764D03*
Y7662D03*
Y8558D03*
Y9456D03*
Y10353D03*
X3857Y3625D03*
Y4522D03*
Y5419D03*
Y6316D03*
Y7213D03*
Y8110D03*
Y9007D03*
Y9904D03*
Y10801D03*
X4634Y3176D03*
Y4074D03*
Y4970D03*
Y5868D03*
Y6764D03*
Y7662D03*
Y8558D03*
Y9456D03*
Y10353D03*
X5411Y3625D03*
Y4522D03*
Y5419D03*
Y6316D03*
Y7213D03*
Y8110D03*
Y9007D03*
Y9904D03*
Y10801D03*
X6188Y3176D03*
Y4074D03*
Y4970D03*
Y5868D03*
Y6764D03*
Y7662D03*
Y8558D03*
Y9456D03*
Y10353D03*
X6965Y2728D03*
Y3625D03*
Y4522D03*
Y5419D03*
Y6316D03*
Y7213D03*
Y8110D03*
Y9007D03*
Y9904D03*
Y10801D03*
X7742Y3176D03*
Y4074D03*
Y4970D03*
Y5868D03*
Y6764D03*
Y7662D03*
Y8558D03*
Y9456D03*
Y10353D03*
X8518Y2728D03*
Y3625D03*
Y4522D03*
Y5419D03*
Y6316D03*
Y7213D03*
Y8110D03*
Y9007D03*
Y9904D03*
X9295Y3176D03*
Y4074D03*
Y4970D03*
Y5868D03*
Y6764D03*
Y7662D03*
Y8558D03*
Y9456D03*
Y10353D03*
X10072Y2728D03*
Y3625D03*
Y4522D03*
Y5419D03*
Y6316D03*
Y7213D03*
Y8110D03*
Y9007D03*
Y9904D03*
X10849Y3176D03*
Y4074D03*
Y4970D03*
Y5868D03*
Y6764D03*
Y7662D03*
Y8558D03*
Y9456D03*
Y10353D03*
X11626Y2728D03*
Y3625D03*
Y4522D03*
Y5419D03*
Y6316D03*
Y7213D03*
Y8110D03*
Y9007D03*
Y9904D03*
X12403Y2280D03*
Y3176D03*
Y4074D03*
Y4970D03*
Y5868D03*
Y6764D03*
Y7662D03*
Y8558D03*
Y9456D03*
Y10353D03*
X13180Y2728D03*
Y3625D03*
Y4522D03*
Y5419D03*
Y6316D03*
Y7213D03*
Y8110D03*
Y9007D03*
Y9904D03*
X13956Y2280D03*
Y3176D03*
Y4074D03*
Y4970D03*
Y5868D03*
Y6764D03*
Y7662D03*
Y8558D03*
Y9456D03*
X14733Y2728D03*
Y3625D03*
Y4522D03*
Y5419D03*
Y6316D03*
Y7213D03*
Y8110D03*
Y9007D03*
Y9904D03*
X15510Y2280D03*
Y3176D03*
Y4074D03*
Y4970D03*
Y5868D03*
Y6764D03*
Y7662D03*
Y8558D03*
Y9456D03*
X16287Y2728D03*
Y3625D03*
Y4522D03*
Y5419D03*
Y6316D03*
Y7213D03*
Y8110D03*
Y9007D03*
Y9904D03*
G54D20*
X17268Y7730D03*
X17334D03*
X17257Y7832D03*
X17324D03*
X17242Y7944D03*
X17309D03*
X17247Y8041D03*
X17314D03*
X17252Y8133D03*
X17319D03*
X17324Y8439D03*
X17257D03*
X17252Y8235D03*
X17319D03*
X17247Y8337D03*
X17314D03*
G54D11*
X550Y3475D03*
Y3775D03*
Y4372D03*
Y4672D03*
Y5269D03*
Y5569D03*
Y6166D03*
Y6466D03*
Y7063D03*
Y7363D03*
Y7960D03*
Y8260D03*
Y8857D03*
Y9157D03*
Y9754D03*
Y10054D03*
Y10651D03*
Y10951D03*
X1327Y3026D03*
Y3327D03*
Y3924D03*
Y4224D03*
Y4820D03*
Y5120D03*
Y5718D03*
Y6018D03*
Y6615D03*
Y6914D03*
Y7512D03*
Y7812D03*
Y8408D03*
Y8708D03*
Y9306D03*
Y9606D03*
Y10202D03*
Y10502D03*
Y11100D03*
Y11400D03*
X2104Y3475D03*
Y3775D03*
Y4372D03*
Y4672D03*
Y5269D03*
Y5569D03*
Y6166D03*
Y6466D03*
Y7063D03*
Y7363D03*
Y7960D03*
Y8260D03*
Y8857D03*
Y9157D03*
Y9754D03*
Y10054D03*
Y10651D03*
Y10951D03*
X2881Y3026D03*
Y3327D03*
Y3924D03*
Y4224D03*
Y4820D03*
Y5120D03*
Y5718D03*
Y6018D03*
Y6615D03*
Y6914D03*
Y7512D03*
Y7812D03*
Y8408D03*
Y8708D03*
Y9306D03*
Y9606D03*
Y10202D03*
Y10502D03*
X3657Y3475D03*
Y3775D03*
Y4372D03*
Y4672D03*
Y5269D03*
Y5569D03*
Y6166D03*
Y6466D03*
Y7063D03*
Y7363D03*
Y7960D03*
Y8260D03*
Y8857D03*
Y9157D03*
Y9754D03*
Y10054D03*
Y10651D03*
Y10951D03*
X4434Y3026D03*
Y3327D03*
Y3924D03*
Y4224D03*
Y4820D03*
Y5120D03*
Y5718D03*
Y6018D03*
Y6615D03*
Y6914D03*
Y7512D03*
Y7812D03*
Y8408D03*
Y8708D03*
Y9306D03*
Y9606D03*
Y10202D03*
Y10502D03*
X5211Y3475D03*
Y3775D03*
Y4372D03*
Y4672D03*
Y5269D03*
Y5569D03*
Y6166D03*
Y6466D03*
Y7063D03*
Y7363D03*
Y7960D03*
Y8260D03*
Y8857D03*
Y9157D03*
Y9754D03*
Y10054D03*
Y10651D03*
Y10951D03*
X5988Y3026D03*
Y3327D03*
Y3924D03*
Y4224D03*
Y4820D03*
Y5120D03*
Y5718D03*
Y6018D03*
Y6615D03*
Y6914D03*
Y7512D03*
Y7812D03*
Y8408D03*
Y8708D03*
Y9306D03*
Y9606D03*
Y10202D03*
Y10502D03*
X6765Y2578D03*
Y2878D03*
Y3475D03*
Y3775D03*
Y4372D03*
Y4672D03*
Y5269D03*
Y5569D03*
Y6166D03*
Y6466D03*
Y7063D03*
Y7363D03*
Y7960D03*
Y8260D03*
Y8857D03*
Y9157D03*
Y9754D03*
Y10054D03*
Y10651D03*
Y10951D03*
X7542Y3026D03*
Y3327D03*
Y3924D03*
Y4224D03*
Y4820D03*
Y5120D03*
Y5718D03*
Y6018D03*
Y6615D03*
Y6914D03*
Y7512D03*
Y7812D03*
Y8408D03*
Y8708D03*
Y9306D03*
Y9606D03*
Y10202D03*
Y10502D03*
X8318Y2578D03*
Y2878D03*
Y3475D03*
Y3775D03*
Y4372D03*
Y4672D03*
Y5269D03*
Y5569D03*
Y6166D03*
Y6466D03*
Y7063D03*
Y7363D03*
Y7960D03*
Y8260D03*
Y8857D03*
Y9157D03*
Y9754D03*
Y10054D03*
X9095Y3026D03*
Y3327D03*
Y3924D03*
Y4224D03*
Y4820D03*
Y5120D03*
Y5718D03*
Y6018D03*
Y6615D03*
Y6914D03*
Y7512D03*
Y7812D03*
Y8408D03*
Y8708D03*
Y9306D03*
Y9606D03*
Y10202D03*
Y10502D03*
X9872Y2578D03*
Y2878D03*
Y3475D03*
Y3775D03*
Y4372D03*
Y4672D03*
Y5269D03*
Y5569D03*
Y6166D03*
Y6466D03*
Y7063D03*
Y7363D03*
Y7960D03*
Y8260D03*
Y8857D03*
Y9157D03*
Y9754D03*
Y10054D03*
X10649Y3026D03*
Y3327D03*
Y3924D03*
Y4224D03*
Y4820D03*
Y5120D03*
Y5718D03*
Y6018D03*
Y6615D03*
Y6914D03*
Y7512D03*
Y7812D03*
Y8408D03*
Y8708D03*
Y9306D03*
Y9606D03*
Y10202D03*
Y10502D03*
X11426Y2578D03*
Y2878D03*
Y3475D03*
Y3775D03*
Y4372D03*
Y4672D03*
Y5269D03*
Y5569D03*
Y6166D03*
Y6466D03*
Y7063D03*
Y7363D03*
Y7960D03*
Y8260D03*
Y8857D03*
Y9157D03*
Y9754D03*
Y10054D03*
X12203Y2130D03*
Y2430D03*
Y3026D03*
Y3327D03*
Y3924D03*
Y4224D03*
Y4820D03*
Y5120D03*
Y5718D03*
Y6018D03*
Y6615D03*
Y6914D03*
Y7512D03*
Y7812D03*
Y8408D03*
Y8708D03*
Y9306D03*
Y9606D03*
Y10202D03*
Y10502D03*
X12980Y2578D03*
Y2878D03*
Y3475D03*
Y3775D03*
Y4372D03*
Y4672D03*
Y5269D03*
Y5569D03*
Y6166D03*
Y6466D03*
Y7063D03*
Y7363D03*
Y7960D03*
Y8260D03*
Y8857D03*
Y9157D03*
Y9754D03*
Y10054D03*
X13756Y2130D03*
Y2430D03*
Y3026D03*
Y3327D03*
Y3924D03*
Y4224D03*
Y4820D03*
Y5120D03*
Y5718D03*
Y6018D03*
Y6615D03*
Y6914D03*
Y7512D03*
Y7812D03*
Y8408D03*
Y8708D03*
Y9306D03*
Y9606D03*
X14533Y2578D03*
Y2878D03*
Y3475D03*
Y3775D03*
Y4372D03*
Y4672D03*
Y5269D03*
Y5569D03*
Y6166D03*
Y6466D03*
Y7063D03*
Y7363D03*
Y7960D03*
Y8260D03*
Y8857D03*
Y9157D03*
Y9754D03*
Y10054D03*
X15310Y2130D03*
Y2430D03*
Y3026D03*
Y3327D03*
Y3924D03*
Y4224D03*
Y4820D03*
Y5120D03*
Y5718D03*
Y6018D03*
Y6615D03*
Y6914D03*
Y7512D03*
Y7812D03*
Y8408D03*
Y8708D03*
Y9306D03*
Y9606D03*
X16087Y2578D03*
Y2878D03*
Y3475D03*
Y3775D03*
Y4372D03*
Y4672D03*
Y5269D03*
Y5569D03*
Y6166D03*
Y6466D03*
Y7063D03*
Y7363D03*
Y7960D03*
Y8260D03*
Y8857D03*
Y9157D03*
Y9754D03*
Y10054D03*
G54D21*
X17670Y7534D03*
Y7459D03*
X17791Y10241D03*
Y10167D03*
G54D12*
X750Y3425D03*
Y3825D03*
Y4322D03*
Y4722D03*
Y5219D03*
Y5619D03*
Y6116D03*
Y6516D03*
Y7013D03*
Y7413D03*
Y7910D03*
Y8310D03*
Y8807D03*
Y9207D03*
Y9704D03*
Y10104D03*
Y10601D03*
Y11001D03*
X1138Y2280D03*
Y4074D03*
Y5868D03*
Y7662D03*
Y9456D03*
Y11250D03*
X1527Y2976D03*
Y3376D03*
Y3874D03*
Y4274D03*
Y4770D03*
Y5171D03*
Y5668D03*
Y6068D03*
Y6564D03*
Y6964D03*
Y7462D03*
Y7862D03*
Y8358D03*
Y8758D03*
Y9256D03*
Y9656D03*
Y10152D03*
Y10552D03*
Y11050D03*
Y11450D03*
X2304Y3425D03*
Y3825D03*
Y4322D03*
Y4722D03*
Y5219D03*
Y5619D03*
Y6116D03*
Y6516D03*
Y7013D03*
Y7413D03*
Y7910D03*
Y8310D03*
Y8807D03*
Y9207D03*
Y9704D03*
Y10104D03*
Y10601D03*
Y11001D03*
X3081Y2976D03*
Y3376D03*
Y3874D03*
Y4274D03*
Y4770D03*
Y5171D03*
Y5668D03*
Y6068D03*
Y6564D03*
Y6964D03*
Y7462D03*
Y7862D03*
Y8358D03*
Y8758D03*
Y9256D03*
Y9656D03*
Y10152D03*
Y10552D03*
X3469Y2280D03*
Y4074D03*
Y5868D03*
Y7662D03*
Y9456D03*
Y11250D03*
X3857Y3425D03*
Y3825D03*
Y4322D03*
Y4722D03*
Y5219D03*
Y5619D03*
Y6116D03*
Y6516D03*
Y7013D03*
Y7413D03*
Y7910D03*
Y8310D03*
Y8807D03*
Y9207D03*
Y9704D03*
Y10104D03*
Y10601D03*
Y11001D03*
X4634Y2976D03*
Y3376D03*
Y3874D03*
Y4274D03*
Y4770D03*
Y5171D03*
Y5668D03*
Y6068D03*
Y6564D03*
Y6964D03*
Y7462D03*
Y7862D03*
Y8358D03*
Y8758D03*
Y9256D03*
Y9656D03*
Y10152D03*
Y10552D03*
X5411Y3425D03*
Y3825D03*
Y4322D03*
Y4722D03*
Y5219D03*
Y5619D03*
Y6116D03*
Y6516D03*
Y7013D03*
Y7413D03*
Y7910D03*
Y8310D03*
Y8807D03*
Y9207D03*
Y9704D03*
Y10104D03*
Y10601D03*
Y11001D03*
X5800Y2280D03*
Y4074D03*
Y5868D03*
Y7662D03*
Y9456D03*
Y11250D03*
X6188Y2976D03*
Y3376D03*
Y3874D03*
Y4274D03*
Y4770D03*
Y5171D03*
Y5668D03*
Y6068D03*
Y6564D03*
Y6964D03*
Y7462D03*
Y7862D03*
Y8358D03*
Y8758D03*
Y9256D03*
Y9656D03*
Y10152D03*
Y10552D03*
X6965Y2528D03*
Y2928D03*
Y3425D03*
Y3825D03*
Y4322D03*
Y4722D03*
Y5219D03*
Y5619D03*
Y6116D03*
Y6516D03*
Y7013D03*
Y7413D03*
Y7910D03*
Y8310D03*
Y8807D03*
Y9207D03*
Y9704D03*
Y10104D03*
Y10601D03*
Y11001D03*
X7742Y2976D03*
Y3376D03*
Y3874D03*
Y4274D03*
Y4770D03*
Y5171D03*
Y5668D03*
Y6068D03*
Y6564D03*
Y6964D03*
Y7462D03*
Y7862D03*
Y8358D03*
Y8758D03*
Y9256D03*
Y9656D03*
Y10152D03*
Y10552D03*
X8130Y2280D03*
Y4074D03*
Y5868D03*
Y7662D03*
Y9456D03*
Y11250D03*
X8518Y2528D03*
Y2928D03*
Y3425D03*
Y3825D03*
Y4322D03*
Y4722D03*
Y5219D03*
Y5619D03*
Y6116D03*
Y6516D03*
Y7013D03*
Y7413D03*
Y7910D03*
Y8310D03*
Y8807D03*
Y9207D03*
Y9704D03*
Y10104D03*
X9295Y2976D03*
Y3376D03*
Y3874D03*
Y4274D03*
Y4770D03*
Y5171D03*
Y5668D03*
Y6068D03*
Y6564D03*
Y6964D03*
Y7462D03*
Y7862D03*
Y8358D03*
Y8758D03*
Y9256D03*
Y9656D03*
Y10152D03*
Y10552D03*
X10072Y2528D03*
Y2928D03*
Y3425D03*
Y3825D03*
Y4322D03*
Y4722D03*
Y5219D03*
Y5619D03*
Y6116D03*
Y6516D03*
Y7013D03*
Y7413D03*
Y7910D03*
Y8310D03*
Y8807D03*
Y9207D03*
Y9704D03*
Y10104D03*
X10461Y2280D03*
Y4074D03*
Y5868D03*
Y7662D03*
Y9456D03*
Y11250D03*
X10849Y2976D03*
Y3376D03*
Y3874D03*
Y4274D03*
Y4770D03*
Y5171D03*
Y5668D03*
Y6068D03*
Y6564D03*
Y6964D03*
Y7462D03*
Y7862D03*
Y8358D03*
Y8758D03*
Y9256D03*
Y9656D03*
Y10152D03*
Y10552D03*
X11626Y2528D03*
Y2928D03*
Y3425D03*
Y3825D03*
Y4322D03*
Y4722D03*
Y5219D03*
Y5619D03*
Y6116D03*
Y6516D03*
Y7013D03*
Y7413D03*
Y7910D03*
Y8310D03*
Y8807D03*
Y9207D03*
Y9704D03*
Y10104D03*
X12403Y2080D03*
Y2480D03*
Y2976D03*
Y3376D03*
Y3874D03*
Y4274D03*
Y4770D03*
Y5171D03*
Y5668D03*
Y6068D03*
Y6564D03*
Y6964D03*
Y7462D03*
Y7862D03*
Y8358D03*
Y8758D03*
Y9256D03*
Y9656D03*
Y10152D03*
Y10552D03*
X12791Y2280D03*
Y4074D03*
Y5868D03*
Y7662D03*
Y9456D03*
Y11250D03*
X13180Y2528D03*
Y2928D03*
Y3425D03*
Y3825D03*
Y4322D03*
Y4722D03*
Y5219D03*
Y5619D03*
Y6116D03*
Y6516D03*
Y7013D03*
Y7413D03*
Y7910D03*
Y8310D03*
Y8807D03*
Y9207D03*
Y9704D03*
Y10104D03*
X13956Y2080D03*
Y2480D03*
Y2976D03*
Y3376D03*
Y3874D03*
Y4274D03*
Y4770D03*
Y5171D03*
Y5668D03*
Y6068D03*
Y6564D03*
Y6964D03*
Y7462D03*
Y7862D03*
Y8358D03*
Y8758D03*
Y9256D03*
Y9656D03*
X14733Y2528D03*
Y2928D03*
Y3425D03*
Y3825D03*
Y4322D03*
Y4722D03*
Y5219D03*
Y5619D03*
Y6116D03*
Y6516D03*
Y7013D03*
Y7413D03*
Y7910D03*
Y8310D03*
Y8807D03*
Y9207D03*
Y9704D03*
Y10104D03*
X15122Y2280D03*
Y4074D03*
Y5868D03*
Y7662D03*
Y9456D03*
Y11250D03*
X15510Y2080D03*
Y2480D03*
Y2976D03*
Y3376D03*
Y3874D03*
Y4274D03*
Y4770D03*
Y5171D03*
Y5668D03*
Y6068D03*
Y6564D03*
Y6964D03*
Y7462D03*
Y7862D03*
Y8358D03*
Y8758D03*
Y9256D03*
Y9656D03*
X16287Y2528D03*
Y2928D03*
Y3425D03*
Y3825D03*
Y4322D03*
Y4722D03*
Y5219D03*
Y5619D03*
Y6116D03*
Y6516D03*
Y7013D03*
Y7413D03*
Y7910D03*
Y8310D03*
Y8807D03*
Y9207D03*
Y9704D03*
Y10104D03*
X17452Y2280D03*
Y4074D03*
Y5868D03*
Y7662D03*
Y9456D03*
Y11250D03*
G54D13*
X950Y3525D03*
X850Y3775D03*
X950Y4422D03*
X850Y4672D03*
X950Y5319D03*
X850Y5569D03*
X950Y6216D03*
X850Y6466D03*
X950Y7113D03*
X850Y7363D03*
X950Y8010D03*
X850Y8260D03*
Y9157D03*
X950Y8907D03*
X850Y10054D03*
X950Y9804D03*
X850Y10951D03*
X950Y10701D03*
X1627Y3327D03*
Y4224D03*
Y5120D03*
Y6018D03*
Y6914D03*
Y7812D03*
Y8708D03*
Y9606D03*
Y10502D03*
Y11400D03*
X1727Y3077D03*
Y3974D03*
Y4870D03*
Y5768D03*
Y6664D03*
Y7562D03*
Y8458D03*
Y9356D03*
Y10252D03*
Y11150D03*
X2504Y3525D03*
X2404Y3775D03*
X2504Y4422D03*
X2404Y4672D03*
X2504Y5319D03*
X2404Y5569D03*
X2504Y6216D03*
X2404Y6466D03*
X2504Y7113D03*
X2404Y7363D03*
X2504Y8010D03*
X2404Y8260D03*
Y9157D03*
X2504Y8907D03*
X2404Y10054D03*
X2504Y9804D03*
X2404Y10951D03*
X2504Y10701D03*
X3281Y3077D03*
X3181Y3327D03*
X3281Y3974D03*
X3181Y4224D03*
X3281Y4870D03*
X3181Y5120D03*
X3281Y5768D03*
X3181Y6018D03*
X3281Y6664D03*
X3181Y6914D03*
X3281Y7562D03*
X3181Y7812D03*
X3281Y8458D03*
X3181Y8708D03*
X3281Y9356D03*
X3181Y9606D03*
X3281Y10252D03*
X3181Y10502D03*
X4057Y3525D03*
X3957Y3775D03*
X4057Y4422D03*
X3957Y4672D03*
X4057Y5319D03*
X3957Y5569D03*
X4057Y6216D03*
X3957Y6466D03*
X4057Y7113D03*
X3957Y7363D03*
X4057Y8010D03*
X3957Y8260D03*
Y9157D03*
X4057Y8907D03*
X3957Y10054D03*
X4057Y9804D03*
X3957Y10951D03*
X4057Y10701D03*
X4834Y3077D03*
X4734Y3327D03*
X4834Y3974D03*
X4734Y4224D03*
X4834Y4870D03*
X4734Y5120D03*
X4834Y5768D03*
X4734Y6018D03*
X4834Y6664D03*
X4734Y6914D03*
X4834Y7562D03*
X4734Y7812D03*
X4834Y8458D03*
X4734Y8708D03*
X4834Y9356D03*
X4734Y9606D03*
X4834Y10252D03*
X4734Y10502D03*
X5511Y3775D03*
Y4672D03*
Y5569D03*
Y6466D03*
Y7363D03*
Y8260D03*
Y9157D03*
Y10054D03*
Y10951D03*
X5611Y3525D03*
Y4422D03*
Y5319D03*
Y6216D03*
Y7113D03*
Y8010D03*
Y8907D03*
Y9804D03*
Y10701D03*
X6388Y3077D03*
X6288Y3327D03*
X6388Y3974D03*
X6288Y4224D03*
X6388Y4870D03*
X6288Y5120D03*
X6388Y5768D03*
X6288Y6018D03*
X6388Y6664D03*
X6288Y6914D03*
X6388Y7562D03*
X6288Y7812D03*
X6388Y8458D03*
X6288Y8708D03*
X6388Y9356D03*
X6288Y9606D03*
X6388Y10252D03*
X6288Y10502D03*
X7165Y2628D03*
X7065Y2878D03*
X7165Y3525D03*
X7065Y3775D03*
X7165Y4422D03*
X7065Y4672D03*
X7165Y5319D03*
X7065Y5569D03*
X7165Y6216D03*
X7065Y6466D03*
X7165Y7113D03*
X7065Y7363D03*
X7165Y8010D03*
X7065Y8260D03*
Y9157D03*
X7165Y8907D03*
X7065Y10054D03*
X7165Y9804D03*
X7065Y10951D03*
X7165Y10701D03*
X7942Y3077D03*
X7842Y3327D03*
X7942Y3974D03*
X7842Y4224D03*
X7942Y4870D03*
X7842Y5120D03*
X7942Y5768D03*
X7842Y6018D03*
X7942Y6664D03*
X7842Y6914D03*
X7942Y7562D03*
X7842Y7812D03*
X7942Y8458D03*
X7842Y8708D03*
X7942Y9356D03*
X7842Y9606D03*
X7942Y10252D03*
X7842Y10502D03*
X8718Y2628D03*
X8619Y2878D03*
X8718Y3525D03*
X8619Y3775D03*
X8718Y4422D03*
X8619Y4672D03*
X8718Y5319D03*
X8619Y5569D03*
X8718Y6216D03*
X8619Y6466D03*
X8718Y7113D03*
X8619Y7363D03*
X8718Y8010D03*
X8619Y8260D03*
Y9157D03*
X8718Y8907D03*
X8619Y10054D03*
X8718Y9804D03*
X9395Y3327D03*
Y4224D03*
Y5120D03*
Y6018D03*
Y6914D03*
Y7812D03*
Y8708D03*
Y9606D03*
Y10502D03*
X9495Y3077D03*
Y3974D03*
Y4870D03*
Y5768D03*
Y6664D03*
Y7562D03*
Y8458D03*
Y9356D03*
Y10252D03*
X10272Y2628D03*
X10172Y2878D03*
X10272Y3525D03*
X10172Y3775D03*
X10272Y4422D03*
X10172Y4672D03*
X10272Y5319D03*
X10172Y5569D03*
X10272Y6216D03*
X10172Y6466D03*
X10272Y7113D03*
X10172Y7363D03*
X10272Y8010D03*
X10172Y8260D03*
Y9157D03*
X10272Y8907D03*
X10172Y10054D03*
X10272Y9804D03*
X10949Y3327D03*
Y4224D03*
Y5120D03*
Y6018D03*
Y6914D03*
Y7812D03*
Y8708D03*
Y9606D03*
Y10502D03*
X11049Y3077D03*
Y3974D03*
Y4870D03*
Y5768D03*
Y6664D03*
Y7562D03*
Y8458D03*
Y9356D03*
Y10252D03*
X11826Y2628D03*
X11726Y2878D03*
X11826Y3525D03*
X11726Y3775D03*
X11826Y4422D03*
X11726Y4672D03*
X11826Y5319D03*
X11726Y5569D03*
X11826Y6216D03*
X11726Y6466D03*
X11826Y7113D03*
X11726Y7363D03*
X11826Y8010D03*
X11726Y8260D03*
Y9157D03*
X11826Y8907D03*
X11726Y10054D03*
X11826Y9804D03*
X12603Y2180D03*
X12503Y2430D03*
X12603Y3077D03*
X12503Y3327D03*
X12603Y3974D03*
X12503Y4224D03*
X12603Y4870D03*
X12503Y5120D03*
X12603Y5768D03*
X12503Y6018D03*
X12603Y6664D03*
X12503Y6914D03*
X12603Y7562D03*
X12503Y7812D03*
X12603Y8458D03*
X12503Y8708D03*
X12603Y9356D03*
X12503Y9606D03*
X12603Y10252D03*
X12503Y10502D03*
X13280Y2878D03*
Y3775D03*
Y4672D03*
Y5569D03*
Y6466D03*
Y7363D03*
Y8260D03*
Y9157D03*
Y10054D03*
X13380Y2628D03*
Y3525D03*
Y4422D03*
Y5319D03*
Y6216D03*
Y7113D03*
Y8010D03*
Y8907D03*
Y9804D03*
X14156Y2180D03*
X14056Y2430D03*
X14156Y3077D03*
X14056Y3327D03*
X14156Y3974D03*
X14056Y4224D03*
X14156Y4870D03*
X14056Y5120D03*
X14156Y5768D03*
X14056Y6018D03*
X14156Y6664D03*
X14056Y6914D03*
X14156Y7562D03*
X14056Y7812D03*
X14156Y8458D03*
X14056Y8708D03*
X14156Y9356D03*
X14056Y9606D03*
X14833Y2878D03*
Y3775D03*
Y4672D03*
Y5569D03*
Y6466D03*
Y7363D03*
Y8260D03*
Y9157D03*
Y10054D03*
X14933Y2628D03*
Y3525D03*
Y4422D03*
Y5319D03*
Y6216D03*
Y7113D03*
Y8010D03*
Y8907D03*
Y9804D03*
X15710Y2180D03*
X15610Y2430D03*
X15710Y3077D03*
X15610Y3327D03*
X15710Y3974D03*
X15610Y4224D03*
X15710Y4870D03*
X15610Y5120D03*
X15710Y5768D03*
X15610Y6018D03*
X15710Y6664D03*
X15610Y6914D03*
X15710Y7562D03*
X15610Y7812D03*
X15710Y8458D03*
X15610Y8708D03*
X15710Y9356D03*
X15610Y9606D03*
X16487Y2628D03*
X16387Y2878D03*
X16487Y3525D03*
X16387Y3775D03*
X16487Y4422D03*
X16387Y4672D03*
X16487Y5319D03*
X16387Y5569D03*
X16487Y6216D03*
X16387Y6466D03*
X16487Y7113D03*
X16387Y7363D03*
X16487Y8010D03*
X16387Y8260D03*
Y9157D03*
X16487Y8907D03*
X16387Y10054D03*
X16487Y9804D03*
G54D14*
X5526Y11301D03*
X5827Y11010D03*
X5732Y11520D03*
X5807D03*
X5730Y11408D03*
X5805D03*
X5601Y11301D03*
X5733Y11631D03*
X5808D03*
X5733Y11743D03*
X5808D03*
X5736Y11854D03*
X5811D03*
X6047Y10916D03*
X6122D03*
X5902Y11010D03*
X6969Y11191D03*
X7044D03*
X7787Y11809D03*
X7861D03*
X12267Y10750D03*
X12192D03*
X12262Y10893D03*
X12187D03*
X12262Y11031D03*
X12187D03*
X12257Y11163D03*
X12182D03*
X12195Y11462D03*
X12270D03*
X12262Y11296D03*
X12187D03*
X12195Y11605D03*
X12270D03*
X12205Y11750D03*
X12280D03*
X13889Y10926D03*
X13964D03*
X14657Y11035D03*
X14583D03*
X16024Y10393D03*
Y10520D03*
X16034Y10653D03*
X16029Y10786D03*
Y10918D03*
Y11051D03*
Y11184D03*
X16019Y11321D03*
X16099Y10393D03*
Y10520D03*
X16109Y10653D03*
X16104Y10786D03*
Y10918D03*
Y11051D03*
Y11184D03*
X16094Y11321D03*
X17601Y8467D03*
X17675D03*
X17655Y10589D03*
X17730D03*
G54D15*
X6020Y11127D03*
Y11227D03*
Y11527D03*
Y11427D03*
Y11327D03*
Y11727D03*
Y11627D03*
X12602Y10907D03*
Y11007D03*
Y11107D03*
Y11207D03*
Y11307D03*
Y11407D03*
Y11507D03*
X16439Y10443D03*
Y10543D03*
Y10643D03*
Y10743D03*
Y10843D03*
Y10943D03*
Y11043D03*
X17066Y7739D03*
Y7839D03*
Y7939D03*
Y8039D03*
Y8139D03*
Y8239D03*
Y8339D03*
X17442Y6495D03*
X17542D03*
X17270Y6841D03*
Y6941D03*
Y7041D03*
Y7141D03*
Y7241D03*
Y7341D03*
Y7441D03*
X17540Y9811D03*
X17440D03*
X17340D03*
X17642Y6495D03*
X17742D03*
X17640Y9811D03*
G54D16*
X6020Y11827D03*
X12602Y11607D03*
X16439Y11143D03*
X17066Y8439D03*
X17342Y6495D03*
X17270Y7541D03*
X17740Y9811D03*
G54D17*
X6621Y11384D03*
X6517Y11708D03*
X6693Y11684D03*
X7270Y11717D03*
X13923Y11360D03*
X14079Y11002D03*
X14020Y11393D03*
X14421Y10800D03*
X14416Y10905D03*
X14629Y11348D03*
X14911Y10800D03*
X15016Y11166D03*
X15327Y10955D03*
X15630Y10921D03*
X15773D03*
X16709Y9919D03*
X16943Y9122D03*
X17190Y9433D03*
X17071Y9776D03*
X17000Y10031D03*
X17427Y8730D03*
X17526Y7513D03*
X17755Y7496D03*
X17741Y7401D03*
X17526Y7832D03*
X17755Y7799D03*
X17576Y8588D03*
X17637Y10241D03*
X17573Y10762D03*
X17637Y10877D03*
X17906Y10418D03*
X17871Y10464D03*
X17844Y10512D03*
G54D18*
X6896Y11484D03*
Y11434D03*
Y11384D03*
Y11684D03*
Y11634D03*
Y11584D03*
Y11534D03*
X7119Y11384D03*
Y11434D03*
Y11484D03*
Y11534D03*
Y11584D03*
Y11634D03*
Y11684D03*
Y11734D03*
X14200Y11198D03*
Y11148D03*
Y11098D03*
Y11048D03*
Y10998D03*
Y11298D03*
Y11248D03*
X14423Y10998D03*
Y11048D03*
Y11098D03*
Y11148D03*
Y11198D03*
Y11248D03*
Y11298D03*
Y11348D03*
X17532Y6997D03*
Y6947D03*
Y7247D03*
Y7197D03*
Y7147D03*
Y7097D03*
Y7047D03*
X17526Y8192D03*
Y8142D03*
Y8092D03*
Y8042D03*
Y7992D03*
Y7942D03*
Y8242D03*
X17312Y10315D03*
X17535D03*
X17312Y10615D03*
Y10565D03*
Y10515D03*
Y10465D03*
Y10415D03*
Y10365D03*
X17535D03*
Y10415D03*
Y10465D03*
Y10515D03*
Y10565D03*
Y10615D03*
Y10665D03*
X17754Y6947D03*
Y6997D03*
Y7047D03*
Y7097D03*
Y7147D03*
Y7197D03*
Y7247D03*
Y7297D03*
X17749Y7942D03*
Y7992D03*
Y8042D03*
Y8092D03*
Y8142D03*
Y8192D03*
Y8242D03*
Y8292D03*
G54D19*
X6896Y11734D03*
X14200Y11348D03*
X17532Y7297D03*
X17526Y8292D03*
X17312Y10665D03*
M02*
