G04 ================== begin FILE IDENTIFICATION RECORD ==================*
G04 Layout Name:  axis64_42_updated_holes.brd*
G04 Film Name:    TOP*
G04 File Format:  Gerber RS274X*
G04 File Origin:  Cadence Allegro 16.3-S021*
G04 Origin Date:  Wed Jan 26 10:45:10 2011*
G04 *
G04 Layer:  ETCH/TOP*
G04 Layer:  PIN/TOP*
G04 Layer:  VIA CLASS/TOP*
G04 *
G04 Offset:    (0.000 0.000)*
G04 Mirror:    No*
G04 Mode:      Positive*
G04 Rotation:  0*
G04 FullContactRelief:  No*
G04 UndefLineWidth:     0.000*
G04 ================== end FILE IDENTIFICATION RECORD ====================*
%FSLAX53Y53*MOIN*%
%IR0*IPPOS*OFA0.00000B0.00000*MIA0B0*SFA1.00000B1.00000*%
%ADD11C,.1*%
%ADD17O,.07X.024*%
%ADD16R,.07X.024*%
%ADD15C,.03*%
%ADD13C,.07*%
%ADD10C,.08*%
%ADD14R,.07X.07*%
%ADD18R,.04331X.03937*%
%ADD19R,.05906X.05118*%
%ADD12R,.05118X.05906*%
%ADD20C,.02*%
G75*
%LPD*%
G75*
G36*
G01X553Y3684D02*
Y3724D01*
X679D01*
Y3684D01*
X553D01*
G37*
G36*
G01Y3526D02*
Y3566D01*
X679D01*
Y3526D01*
X553D01*
G37*
G36*
G01Y4581D02*
Y4621D01*
X679D01*
Y4581D01*
X553D01*
G37*
G36*
G01Y4423D02*
Y4463D01*
X679D01*
Y4423D01*
X553D01*
G37*
G36*
G01Y5478D02*
Y5518D01*
X679D01*
Y5478D01*
X553D01*
G37*
G36*
G01Y5320D02*
Y5360D01*
X679D01*
Y5320D01*
X553D01*
G37*
G36*
G01Y6375D02*
Y6415D01*
X679D01*
Y6375D01*
X553D01*
G37*
G36*
G01Y6217D02*
Y6257D01*
X679D01*
Y6217D01*
X553D01*
G37*
G36*
G01Y7272D02*
Y7312D01*
X679D01*
Y7272D01*
X553D01*
G37*
G36*
G01Y7114D02*
Y7154D01*
X679D01*
Y7114D01*
X553D01*
G37*
G36*
G01Y8169D02*
Y8209D01*
X679D01*
Y8169D01*
X553D01*
G37*
G36*
G01Y8011D02*
Y8051D01*
X679D01*
Y8011D01*
X553D01*
G37*
G36*
G01Y9066D02*
Y9106D01*
X679D01*
Y9066D01*
X553D01*
G37*
G36*
G01Y8908D02*
Y8948D01*
X679D01*
Y8908D01*
X553D01*
G37*
G36*
G01Y9963D02*
Y10003D01*
X679D01*
Y9963D01*
X553D01*
G37*
G36*
G01Y9805D02*
Y9845D01*
X679D01*
Y9805D01*
X553D01*
G37*
G36*
G01Y10702D02*
Y10742D01*
X679D01*
Y10702D01*
X553D01*
G37*
G36*
G01Y10860D02*
Y10900D01*
X679D01*
Y10860D01*
X553D01*
G37*
G36*
G01X820Y3684D02*
Y3724D01*
X946D01*
Y3684D01*
X820D01*
G37*
G36*
G01Y3526D02*
Y3566D01*
X946D01*
Y3526D01*
X820D01*
G37*
G36*
G01Y4581D02*
Y4621D01*
X946D01*
Y4581D01*
X820D01*
G37*
G36*
G01Y4423D02*
Y4463D01*
X946D01*
Y4423D01*
X820D01*
G37*
G36*
G01Y5478D02*
Y5518D01*
X946D01*
Y5478D01*
X820D01*
G37*
G36*
G01Y5320D02*
Y5360D01*
X946D01*
Y5320D01*
X820D01*
G37*
G36*
G01Y6375D02*
Y6415D01*
X946D01*
Y6375D01*
X820D01*
G37*
G36*
G01Y6217D02*
Y6257D01*
X946D01*
Y6217D01*
X820D01*
G37*
G36*
G01Y7272D02*
Y7312D01*
X946D01*
Y7272D01*
X820D01*
G37*
G36*
G01Y7114D02*
Y7154D01*
X946D01*
Y7114D01*
X820D01*
G37*
G36*
G01Y8169D02*
Y8209D01*
X946D01*
Y8169D01*
X820D01*
G37*
G36*
G01Y8011D02*
Y8051D01*
X946D01*
Y8011D01*
X820D01*
G37*
G36*
G01Y9066D02*
Y9106D01*
X946D01*
Y9066D01*
X820D01*
G37*
G36*
G01Y8908D02*
Y8948D01*
X946D01*
Y8908D01*
X820D01*
G37*
G36*
G01Y9963D02*
Y10003D01*
X946D01*
Y9963D01*
X820D01*
G37*
G36*
G01Y9805D02*
Y9845D01*
X946D01*
Y9805D01*
X820D01*
G37*
G36*
G01Y10702D02*
Y10742D01*
X946D01*
Y10702D01*
X820D01*
G37*
G36*
G01Y10860D02*
Y10900D01*
X946D01*
Y10860D01*
X820D01*
G37*
G36*
G01X1597Y3078D02*
Y3118D01*
X1723D01*
Y3078D01*
X1597D01*
G37*
G36*
G01X1330D02*
Y3118D01*
X1456D01*
Y3078D01*
X1330D01*
G37*
G36*
G01X1597Y3235D02*
Y3275D01*
X1723D01*
Y3235D01*
X1597D01*
G37*
G36*
G01X1330D02*
Y3275D01*
X1456D01*
Y3235D01*
X1330D01*
G37*
G36*
G01X1597Y3975D02*
Y4015D01*
X1723D01*
Y3975D01*
X1597D01*
G37*
G36*
G01X1330D02*
Y4015D01*
X1456D01*
Y3975D01*
X1330D01*
G37*
G36*
G01X1597Y4132D02*
Y4172D01*
X1723D01*
Y4132D01*
X1597D01*
G37*
G36*
G01X1330D02*
Y4172D01*
X1456D01*
Y4132D01*
X1330D01*
G37*
G36*
G01X1597Y4872D02*
Y4912D01*
X1723D01*
Y4872D01*
X1597D01*
G37*
G36*
G01X1330D02*
Y4912D01*
X1456D01*
Y4872D01*
X1330D01*
G37*
G36*
G01X1597Y5029D02*
Y5069D01*
X1723D01*
Y5029D01*
X1597D01*
G37*
G36*
G01X1330D02*
Y5069D01*
X1456D01*
Y5029D01*
X1330D01*
G37*
G36*
G01X1597Y5769D02*
Y5809D01*
X1723D01*
Y5769D01*
X1597D01*
G37*
G36*
G01X1330D02*
Y5809D01*
X1456D01*
Y5769D01*
X1330D01*
G37*
G36*
G01X1597Y5926D02*
Y5966D01*
X1723D01*
Y5926D01*
X1597D01*
G37*
G36*
G01X1330D02*
Y5966D01*
X1456D01*
Y5926D01*
X1330D01*
G37*
G36*
G01X1597Y6666D02*
Y6706D01*
X1723D01*
Y6666D01*
X1597D01*
G37*
G36*
G01X1330D02*
Y6706D01*
X1456D01*
Y6666D01*
X1330D01*
G37*
G36*
G01X1597Y6823D02*
Y6863D01*
X1723D01*
Y6823D01*
X1597D01*
G37*
G36*
G01X1330D02*
Y6863D01*
X1456D01*
Y6823D01*
X1330D01*
G37*
G36*
G01X1597Y7563D02*
Y7603D01*
X1723D01*
Y7563D01*
X1597D01*
G37*
G36*
G01X1330D02*
Y7603D01*
X1456D01*
Y7563D01*
X1330D01*
G37*
G36*
G01X1597Y7720D02*
Y7760D01*
X1723D01*
Y7720D01*
X1597D01*
G37*
G36*
G01X1330D02*
Y7760D01*
X1456D01*
Y7720D01*
X1330D01*
G37*
G36*
G01X1597Y8460D02*
Y8500D01*
X1723D01*
Y8460D01*
X1597D01*
G37*
G36*
G01X1330D02*
Y8500D01*
X1456D01*
Y8460D01*
X1330D01*
G37*
G36*
G01X1597Y8617D02*
Y8657D01*
X1723D01*
Y8617D01*
X1597D01*
G37*
G36*
G01X1330D02*
Y8657D01*
X1456D01*
Y8617D01*
X1330D01*
G37*
G36*
G01X1597Y9357D02*
Y9397D01*
X1723D01*
Y9357D01*
X1597D01*
G37*
G36*
G01X1330D02*
Y9397D01*
X1456D01*
Y9357D01*
X1330D01*
G37*
G36*
G01X1597Y9514D02*
Y9554D01*
X1723D01*
Y9514D01*
X1597D01*
G37*
G36*
G01X1330D02*
Y9554D01*
X1456D01*
Y9514D01*
X1330D01*
G37*
G36*
G01X1597Y10254D02*
Y10294D01*
X1723D01*
Y10254D01*
X1597D01*
G37*
G36*
G01X1330D02*
Y10294D01*
X1456D01*
Y10254D01*
X1330D01*
G37*
G36*
G01X1597Y10411D02*
Y10451D01*
X1723D01*
Y10411D01*
X1597D01*
G37*
G36*
G01X1330D02*
Y10451D01*
X1456D01*
Y10411D01*
X1330D01*
G37*
G36*
G01X1597Y11151D02*
Y11191D01*
X1723D01*
Y11151D01*
X1597D01*
G37*
G36*
G01X1330D02*
Y11191D01*
X1456D01*
Y11151D01*
X1330D01*
G37*
G36*
G01X1597Y11308D02*
Y11348D01*
X1723D01*
Y11308D01*
X1597D01*
G37*
G36*
G01X1330D02*
Y11348D01*
X1456D01*
Y11308D01*
X1330D01*
G37*
G36*
G01X2107Y3684D02*
Y3724D01*
X2233D01*
Y3684D01*
X2107D01*
G37*
G36*
G01Y3526D02*
Y3566D01*
X2233D01*
Y3526D01*
X2107D01*
G37*
G36*
G01Y4581D02*
Y4621D01*
X2233D01*
Y4581D01*
X2107D01*
G37*
G36*
G01Y4423D02*
Y4463D01*
X2233D01*
Y4423D01*
X2107D01*
G37*
G36*
G01Y5478D02*
Y5518D01*
X2233D01*
Y5478D01*
X2107D01*
G37*
G36*
G01Y5320D02*
Y5360D01*
X2233D01*
Y5320D01*
X2107D01*
G37*
G36*
G01Y6375D02*
Y6415D01*
X2233D01*
Y6375D01*
X2107D01*
G37*
G36*
G01Y6217D02*
Y6257D01*
X2233D01*
Y6217D01*
X2107D01*
G37*
G36*
G01Y7272D02*
Y7312D01*
X2233D01*
Y7272D01*
X2107D01*
G37*
G36*
G01Y7114D02*
Y7154D01*
X2233D01*
Y7114D01*
X2107D01*
G37*
G36*
G01Y8169D02*
Y8209D01*
X2233D01*
Y8169D01*
X2107D01*
G37*
G36*
G01Y8011D02*
Y8051D01*
X2233D01*
Y8011D01*
X2107D01*
G37*
G36*
G01Y9066D02*
Y9106D01*
X2233D01*
Y9066D01*
X2107D01*
G37*
G36*
G01Y8908D02*
Y8948D01*
X2233D01*
Y8908D01*
X2107D01*
G37*
G36*
G01Y9963D02*
Y10003D01*
X2233D01*
Y9963D01*
X2107D01*
G37*
G36*
G01Y9805D02*
Y9845D01*
X2233D01*
Y9805D01*
X2107D01*
G37*
G36*
G01Y10860D02*
Y10900D01*
X2233D01*
Y10860D01*
X2107D01*
G37*
G36*
G01Y10702D02*
Y10742D01*
X2233D01*
Y10702D01*
X2107D01*
G37*
G36*
G01X2374Y3684D02*
Y3724D01*
X2500D01*
Y3684D01*
X2374D01*
G37*
G36*
G01Y3526D02*
Y3566D01*
X2500D01*
Y3526D01*
X2374D01*
G37*
G36*
G01Y4581D02*
Y4621D01*
X2500D01*
Y4581D01*
X2374D01*
G37*
G36*
G01Y4423D02*
Y4463D01*
X2500D01*
Y4423D01*
X2374D01*
G37*
G36*
G01Y5478D02*
Y5518D01*
X2500D01*
Y5478D01*
X2374D01*
G37*
G36*
G01Y5320D02*
Y5360D01*
X2500D01*
Y5320D01*
X2374D01*
G37*
G36*
G01Y6375D02*
Y6415D01*
X2500D01*
Y6375D01*
X2374D01*
G37*
G36*
G01Y6217D02*
Y6257D01*
X2500D01*
Y6217D01*
X2374D01*
G37*
G36*
G01Y7272D02*
Y7312D01*
X2500D01*
Y7272D01*
X2374D01*
G37*
G36*
G01Y7114D02*
Y7154D01*
X2500D01*
Y7114D01*
X2374D01*
G37*
G36*
G01Y8169D02*
Y8209D01*
X2500D01*
Y8169D01*
X2374D01*
G37*
G36*
G01Y8011D02*
Y8051D01*
X2500D01*
Y8011D01*
X2374D01*
G37*
G36*
G01Y9066D02*
Y9106D01*
X2500D01*
Y9066D01*
X2374D01*
G37*
G36*
G01Y8908D02*
Y8948D01*
X2500D01*
Y8908D01*
X2374D01*
G37*
G36*
G01Y9963D02*
Y10003D01*
X2500D01*
Y9963D01*
X2374D01*
G37*
G36*
G01Y9805D02*
Y9845D01*
X2500D01*
Y9805D01*
X2374D01*
G37*
G36*
G01Y10860D02*
Y10900D01*
X2500D01*
Y10860D01*
X2374D01*
G37*
G36*
G01Y10702D02*
Y10742D01*
X2500D01*
Y10702D01*
X2374D01*
G37*
G36*
G01X2884Y3078D02*
Y3118D01*
X3010D01*
Y3078D01*
X2884D01*
G37*
G36*
G01Y3235D02*
Y3275D01*
X3010D01*
Y3235D01*
X2884D01*
G37*
G36*
G01Y3975D02*
Y4015D01*
X3010D01*
Y3975D01*
X2884D01*
G37*
G36*
G01Y4132D02*
Y4172D01*
X3010D01*
Y4132D01*
X2884D01*
G37*
G36*
G01Y4872D02*
Y4912D01*
X3010D01*
Y4872D01*
X2884D01*
G37*
G36*
G01Y5029D02*
Y5069D01*
X3010D01*
Y5029D01*
X2884D01*
G37*
G36*
G01Y5769D02*
Y5809D01*
X3010D01*
Y5769D01*
X2884D01*
G37*
G36*
G01Y5926D02*
Y5966D01*
X3010D01*
Y5926D01*
X2884D01*
G37*
G36*
G01Y6666D02*
Y6706D01*
X3010D01*
Y6666D01*
X2884D01*
G37*
G36*
G01Y6823D02*
Y6863D01*
X3010D01*
Y6823D01*
X2884D01*
G37*
G36*
G01Y7563D02*
Y7603D01*
X3010D01*
Y7563D01*
X2884D01*
G37*
G36*
G01Y7720D02*
Y7760D01*
X3010D01*
Y7720D01*
X2884D01*
G37*
G36*
G01Y8460D02*
Y8500D01*
X3010D01*
Y8460D01*
X2884D01*
G37*
G36*
G01Y8617D02*
Y8657D01*
X3010D01*
Y8617D01*
X2884D01*
G37*
G36*
G01Y9357D02*
Y9397D01*
X3010D01*
Y9357D01*
X2884D01*
G37*
G36*
G01Y9514D02*
Y9554D01*
X3010D01*
Y9514D01*
X2884D01*
G37*
G36*
G01Y10254D02*
Y10294D01*
X3010D01*
Y10254D01*
X2884D01*
G37*
G36*
G01Y10411D02*
Y10451D01*
X3010D01*
Y10411D01*
X2884D01*
G37*
G36*
G01X3151Y3078D02*
Y3118D01*
X3277D01*
Y3078D01*
X3151D01*
G37*
G36*
G01Y3235D02*
Y3275D01*
X3277D01*
Y3235D01*
X3151D01*
G37*
G36*
G01Y3975D02*
Y4015D01*
X3277D01*
Y3975D01*
X3151D01*
G37*
G36*
G01Y4132D02*
Y4172D01*
X3277D01*
Y4132D01*
X3151D01*
G37*
G36*
G01Y4872D02*
Y4912D01*
X3277D01*
Y4872D01*
X3151D01*
G37*
G36*
G01Y5029D02*
Y5069D01*
X3277D01*
Y5029D01*
X3151D01*
G37*
G36*
G01Y5769D02*
Y5809D01*
X3277D01*
Y5769D01*
X3151D01*
G37*
G36*
G01Y5926D02*
Y5966D01*
X3277D01*
Y5926D01*
X3151D01*
G37*
G36*
G01Y6666D02*
Y6706D01*
X3277D01*
Y6666D01*
X3151D01*
G37*
G36*
G01Y6823D02*
Y6863D01*
X3277D01*
Y6823D01*
X3151D01*
G37*
G36*
G01Y7563D02*
Y7603D01*
X3277D01*
Y7563D01*
X3151D01*
G37*
G36*
G01Y7720D02*
Y7760D01*
X3277D01*
Y7720D01*
X3151D01*
G37*
G36*
G01Y8460D02*
Y8500D01*
X3277D01*
Y8460D01*
X3151D01*
G37*
G36*
G01Y8617D02*
Y8657D01*
X3277D01*
Y8617D01*
X3151D01*
G37*
G36*
G01Y9357D02*
Y9397D01*
X3277D01*
Y9357D01*
X3151D01*
G37*
G36*
G01Y9514D02*
Y9554D01*
X3277D01*
Y9514D01*
X3151D01*
G37*
G36*
G01Y10254D02*
Y10294D01*
X3277D01*
Y10254D01*
X3151D01*
G37*
G36*
G01Y10411D02*
Y10451D01*
X3277D01*
Y10411D01*
X3151D01*
G37*
G36*
G01X3660Y3684D02*
Y3724D01*
X3786D01*
Y3684D01*
X3660D01*
G37*
G36*
G01Y3526D02*
Y3566D01*
X3786D01*
Y3526D01*
X3660D01*
G37*
G36*
G01Y4581D02*
Y4621D01*
X3786D01*
Y4581D01*
X3660D01*
G37*
G36*
G01Y4423D02*
Y4463D01*
X3786D01*
Y4423D01*
X3660D01*
G37*
G36*
G01Y5478D02*
Y5518D01*
X3786D01*
Y5478D01*
X3660D01*
G37*
G36*
G01Y5320D02*
Y5360D01*
X3786D01*
Y5320D01*
X3660D01*
G37*
G36*
G01Y6375D02*
Y6415D01*
X3786D01*
Y6375D01*
X3660D01*
G37*
G36*
G01Y6217D02*
Y6257D01*
X3786D01*
Y6217D01*
X3660D01*
G37*
G36*
G01Y7272D02*
Y7312D01*
X3786D01*
Y7272D01*
X3660D01*
G37*
G36*
G01Y7114D02*
Y7154D01*
X3786D01*
Y7114D01*
X3660D01*
G37*
G36*
G01Y8169D02*
Y8209D01*
X3786D01*
Y8169D01*
X3660D01*
G37*
G36*
G01Y8011D02*
Y8051D01*
X3786D01*
Y8011D01*
X3660D01*
G37*
G36*
G01Y9066D02*
Y9106D01*
X3786D01*
Y9066D01*
X3660D01*
G37*
G36*
G01Y8908D02*
Y8948D01*
X3786D01*
Y8908D01*
X3660D01*
G37*
G36*
G01Y9963D02*
Y10003D01*
X3786D01*
Y9963D01*
X3660D01*
G37*
G36*
G01Y9805D02*
Y9845D01*
X3786D01*
Y9805D01*
X3660D01*
G37*
G36*
G01Y10860D02*
Y10900D01*
X3786D01*
Y10860D01*
X3660D01*
G37*
G36*
G01Y10702D02*
Y10742D01*
X3786D01*
Y10702D01*
X3660D01*
G37*
G36*
G01X3927Y3684D02*
Y3724D01*
X4053D01*
Y3684D01*
X3927D01*
G37*
G36*
G01Y3526D02*
Y3566D01*
X4053D01*
Y3526D01*
X3927D01*
G37*
G36*
G01Y4581D02*
Y4621D01*
X4053D01*
Y4581D01*
X3927D01*
G37*
G36*
G01Y4423D02*
Y4463D01*
X4053D01*
Y4423D01*
X3927D01*
G37*
G36*
G01Y5478D02*
Y5518D01*
X4053D01*
Y5478D01*
X3927D01*
G37*
G36*
G01Y5320D02*
Y5360D01*
X4053D01*
Y5320D01*
X3927D01*
G37*
G36*
G01Y6375D02*
Y6415D01*
X4053D01*
Y6375D01*
X3927D01*
G37*
G36*
G01Y6217D02*
Y6257D01*
X4053D01*
Y6217D01*
X3927D01*
G37*
G36*
G01Y7272D02*
Y7312D01*
X4053D01*
Y7272D01*
X3927D01*
G37*
G36*
G01Y7114D02*
Y7154D01*
X4053D01*
Y7114D01*
X3927D01*
G37*
G36*
G01Y8169D02*
Y8209D01*
X4053D01*
Y8169D01*
X3927D01*
G37*
G36*
G01Y8011D02*
Y8051D01*
X4053D01*
Y8011D01*
X3927D01*
G37*
G36*
G01Y9066D02*
Y9106D01*
X4053D01*
Y9066D01*
X3927D01*
G37*
G36*
G01Y8908D02*
Y8948D01*
X4053D01*
Y8908D01*
X3927D01*
G37*
G36*
G01Y9963D02*
Y10003D01*
X4053D01*
Y9963D01*
X3927D01*
G37*
G36*
G01Y9805D02*
Y9845D01*
X4053D01*
Y9805D01*
X3927D01*
G37*
G36*
G01Y10860D02*
Y10900D01*
X4053D01*
Y10860D01*
X3927D01*
G37*
G36*
G01Y10702D02*
Y10742D01*
X4053D01*
Y10702D01*
X3927D01*
G37*
G36*
G01X4437Y3078D02*
Y3118D01*
X4563D01*
Y3078D01*
X4437D01*
G37*
G36*
G01Y3235D02*
Y3275D01*
X4563D01*
Y3235D01*
X4437D01*
G37*
G36*
G01Y3975D02*
Y4015D01*
X4563D01*
Y3975D01*
X4437D01*
G37*
G36*
G01Y4132D02*
Y4172D01*
X4563D01*
Y4132D01*
X4437D01*
G37*
G36*
G01Y4872D02*
Y4912D01*
X4563D01*
Y4872D01*
X4437D01*
G37*
G36*
G01Y5029D02*
Y5069D01*
X4563D01*
Y5029D01*
X4437D01*
G37*
G36*
G01Y5769D02*
Y5809D01*
X4563D01*
Y5769D01*
X4437D01*
G37*
G36*
G01Y5926D02*
Y5966D01*
X4563D01*
Y5926D01*
X4437D01*
G37*
G36*
G01Y6666D02*
Y6706D01*
X4563D01*
Y6666D01*
X4437D01*
G37*
G36*
G01Y6823D02*
Y6863D01*
X4563D01*
Y6823D01*
X4437D01*
G37*
G36*
G01Y7563D02*
Y7603D01*
X4563D01*
Y7563D01*
X4437D01*
G37*
G36*
G01Y7720D02*
Y7760D01*
X4563D01*
Y7720D01*
X4437D01*
G37*
G36*
G01Y8460D02*
Y8500D01*
X4563D01*
Y8460D01*
X4437D01*
G37*
G36*
G01Y8617D02*
Y8657D01*
X4563D01*
Y8617D01*
X4437D01*
G37*
G36*
G01Y9357D02*
Y9397D01*
X4563D01*
Y9357D01*
X4437D01*
G37*
G36*
G01Y9514D02*
Y9554D01*
X4563D01*
Y9514D01*
X4437D01*
G37*
G36*
G01Y10254D02*
Y10294D01*
X4563D01*
Y10254D01*
X4437D01*
G37*
G36*
G01Y10411D02*
Y10451D01*
X4563D01*
Y10411D01*
X4437D01*
G37*
G36*
G01X4704Y3078D02*
Y3118D01*
X4830D01*
Y3078D01*
X4704D01*
G37*
G36*
G01Y3235D02*
Y3275D01*
X4830D01*
Y3235D01*
X4704D01*
G37*
G36*
G01Y3975D02*
Y4015D01*
X4830D01*
Y3975D01*
X4704D01*
G37*
G36*
G01Y4132D02*
Y4172D01*
X4830D01*
Y4132D01*
X4704D01*
G37*
G36*
G01Y4872D02*
Y4912D01*
X4830D01*
Y4872D01*
X4704D01*
G37*
G36*
G01Y5029D02*
Y5069D01*
X4830D01*
Y5029D01*
X4704D01*
G37*
G36*
G01Y5769D02*
Y5809D01*
X4830D01*
Y5769D01*
X4704D01*
G37*
G36*
G01Y5926D02*
Y5966D01*
X4830D01*
Y5926D01*
X4704D01*
G37*
G36*
G01Y6666D02*
Y6706D01*
X4830D01*
Y6666D01*
X4704D01*
G37*
G36*
G01Y6823D02*
Y6863D01*
X4830D01*
Y6823D01*
X4704D01*
G37*
G36*
G01Y7563D02*
Y7603D01*
X4830D01*
Y7563D01*
X4704D01*
G37*
G36*
G01Y7720D02*
Y7760D01*
X4830D01*
Y7720D01*
X4704D01*
G37*
G36*
G01Y8460D02*
Y8500D01*
X4830D01*
Y8460D01*
X4704D01*
G37*
G36*
G01Y8617D02*
Y8657D01*
X4830D01*
Y8617D01*
X4704D01*
G37*
G36*
G01Y9357D02*
Y9397D01*
X4830D01*
Y9357D01*
X4704D01*
G37*
G36*
G01Y9514D02*
Y9554D01*
X4830D01*
Y9514D01*
X4704D01*
G37*
G36*
G01Y10254D02*
Y10294D01*
X4830D01*
Y10254D01*
X4704D01*
G37*
G36*
G01Y10411D02*
Y10451D01*
X4830D01*
Y10411D01*
X4704D01*
G37*
G36*
G01X5481Y3684D02*
Y3724D01*
X5607D01*
Y3684D01*
X5481D01*
G37*
G36*
G01Y3526D02*
Y3566D01*
X5607D01*
Y3526D01*
X5481D01*
G37*
G36*
G01X5214Y3684D02*
Y3724D01*
X5340D01*
Y3684D01*
X5214D01*
G37*
G36*
G01Y3526D02*
Y3566D01*
X5340D01*
Y3526D01*
X5214D01*
G37*
G36*
G01X5481Y4581D02*
Y4621D01*
X5607D01*
Y4581D01*
X5481D01*
G37*
G36*
G01Y4423D02*
Y4463D01*
X5607D01*
Y4423D01*
X5481D01*
G37*
G36*
G01X5214Y4581D02*
Y4621D01*
X5340D01*
Y4581D01*
X5214D01*
G37*
G36*
G01Y4423D02*
Y4463D01*
X5340D01*
Y4423D01*
X5214D01*
G37*
G36*
G01X5481Y5478D02*
Y5518D01*
X5607D01*
Y5478D01*
X5481D01*
G37*
G36*
G01Y5320D02*
Y5360D01*
X5607D01*
Y5320D01*
X5481D01*
G37*
G36*
G01X5214Y5478D02*
Y5518D01*
X5340D01*
Y5478D01*
X5214D01*
G37*
G36*
G01Y5320D02*
Y5360D01*
X5340D01*
Y5320D01*
X5214D01*
G37*
G36*
G01X5481Y6375D02*
Y6415D01*
X5607D01*
Y6375D01*
X5481D01*
G37*
G36*
G01Y6217D02*
Y6257D01*
X5607D01*
Y6217D01*
X5481D01*
G37*
G36*
G01X5214Y6375D02*
Y6415D01*
X5340D01*
Y6375D01*
X5214D01*
G37*
G36*
G01Y6217D02*
Y6257D01*
X5340D01*
Y6217D01*
X5214D01*
G37*
G36*
G01X5481Y7272D02*
Y7312D01*
X5607D01*
Y7272D01*
X5481D01*
G37*
G36*
G01Y7114D02*
Y7154D01*
X5607D01*
Y7114D01*
X5481D01*
G37*
G36*
G01X5214Y7272D02*
Y7312D01*
X5340D01*
Y7272D01*
X5214D01*
G37*
G36*
G01Y7114D02*
Y7154D01*
X5340D01*
Y7114D01*
X5214D01*
G37*
G36*
G01X5481Y8169D02*
Y8209D01*
X5607D01*
Y8169D01*
X5481D01*
G37*
G36*
G01Y8011D02*
Y8051D01*
X5607D01*
Y8011D01*
X5481D01*
G37*
G36*
G01X5214Y8169D02*
Y8209D01*
X5340D01*
Y8169D01*
X5214D01*
G37*
G36*
G01Y8011D02*
Y8051D01*
X5340D01*
Y8011D01*
X5214D01*
G37*
G36*
G01X5481Y9066D02*
Y9106D01*
X5607D01*
Y9066D01*
X5481D01*
G37*
G36*
G01Y8908D02*
Y8948D01*
X5607D01*
Y8908D01*
X5481D01*
G37*
G36*
G01X5214Y9066D02*
Y9106D01*
X5340D01*
Y9066D01*
X5214D01*
G37*
G36*
G01Y8908D02*
Y8948D01*
X5340D01*
Y8908D01*
X5214D01*
G37*
G36*
G01X5481Y9963D02*
Y10003D01*
X5607D01*
Y9963D01*
X5481D01*
G37*
G36*
G01Y9805D02*
Y9845D01*
X5607D01*
Y9805D01*
X5481D01*
G37*
G36*
G01X5214Y9963D02*
Y10003D01*
X5340D01*
Y9963D01*
X5214D01*
G37*
G36*
G01Y9805D02*
Y9845D01*
X5340D01*
Y9805D01*
X5214D01*
G37*
G36*
G01X5481Y10860D02*
Y10900D01*
X5607D01*
Y10860D01*
X5481D01*
G37*
G36*
G01Y10702D02*
Y10742D01*
X5607D01*
Y10702D01*
X5481D01*
G37*
G36*
G01X5214Y10860D02*
Y10900D01*
X5340D01*
Y10860D01*
X5214D01*
G37*
G36*
G01Y10702D02*
Y10742D01*
X5340D01*
Y10702D01*
X5214D01*
G37*
G36*
G01X5991Y3078D02*
Y3118D01*
X6117D01*
Y3078D01*
X5991D01*
G37*
G36*
G01Y3235D02*
Y3275D01*
X6117D01*
Y3235D01*
X5991D01*
G37*
G36*
G01Y3975D02*
Y4015D01*
X6117D01*
Y3975D01*
X5991D01*
G37*
G36*
G01Y4132D02*
Y4172D01*
X6117D01*
Y4132D01*
X5991D01*
G37*
G36*
G01Y4872D02*
Y4912D01*
X6117D01*
Y4872D01*
X5991D01*
G37*
G36*
G01Y5029D02*
Y5069D01*
X6117D01*
Y5029D01*
X5991D01*
G37*
G36*
G01Y5769D02*
Y5809D01*
X6117D01*
Y5769D01*
X5991D01*
G37*
G36*
G01Y5926D02*
Y5966D01*
X6117D01*
Y5926D01*
X5991D01*
G37*
G36*
G01Y6666D02*
Y6706D01*
X6117D01*
Y6666D01*
X5991D01*
G37*
G36*
G01Y6823D02*
Y6863D01*
X6117D01*
Y6823D01*
X5991D01*
G37*
G36*
G01Y7563D02*
Y7603D01*
X6117D01*
Y7563D01*
X5991D01*
G37*
G36*
G01Y7720D02*
Y7760D01*
X6117D01*
Y7720D01*
X5991D01*
G37*
G36*
G01Y8460D02*
Y8500D01*
X6117D01*
Y8460D01*
X5991D01*
G37*
G36*
G01Y8617D02*
Y8657D01*
X6117D01*
Y8617D01*
X5991D01*
G37*
G36*
G01Y9357D02*
Y9397D01*
X6117D01*
Y9357D01*
X5991D01*
G37*
G36*
G01Y9514D02*
Y9554D01*
X6117D01*
Y9514D01*
X5991D01*
G37*
G36*
G01Y10254D02*
Y10294D01*
X6117D01*
Y10254D01*
X5991D01*
G37*
G36*
G01Y10411D02*
Y10451D01*
X6117D01*
Y10411D01*
X5991D01*
G37*
G36*
G01X6258Y3078D02*
Y3118D01*
X6384D01*
Y3078D01*
X6258D01*
G37*
G36*
G01Y3235D02*
Y3275D01*
X6384D01*
Y3235D01*
X6258D01*
G37*
G36*
G01Y3975D02*
Y4015D01*
X6384D01*
Y3975D01*
X6258D01*
G37*
G36*
G01Y4132D02*
Y4172D01*
X6384D01*
Y4132D01*
X6258D01*
G37*
G36*
G01Y4872D02*
Y4912D01*
X6384D01*
Y4872D01*
X6258D01*
G37*
G36*
G01Y5029D02*
Y5069D01*
X6384D01*
Y5029D01*
X6258D01*
G37*
G36*
G01Y5769D02*
Y5809D01*
X6384D01*
Y5769D01*
X6258D01*
G37*
G36*
G01Y5926D02*
Y5966D01*
X6384D01*
Y5926D01*
X6258D01*
G37*
G36*
G01Y6666D02*
Y6706D01*
X6384D01*
Y6666D01*
X6258D01*
G37*
G36*
G01Y6823D02*
Y6863D01*
X6384D01*
Y6823D01*
X6258D01*
G37*
G36*
G01Y7563D02*
Y7603D01*
X6384D01*
Y7563D01*
X6258D01*
G37*
G36*
G01Y7720D02*
Y7760D01*
X6384D01*
Y7720D01*
X6258D01*
G37*
G36*
G01Y8460D02*
Y8500D01*
X6384D01*
Y8460D01*
X6258D01*
G37*
G36*
G01Y8617D02*
Y8657D01*
X6384D01*
Y8617D01*
X6258D01*
G37*
G36*
G01Y9357D02*
Y9397D01*
X6384D01*
Y9357D01*
X6258D01*
G37*
G36*
G01Y9514D02*
Y9554D01*
X6384D01*
Y9514D01*
X6258D01*
G37*
G36*
G01Y10254D02*
Y10294D01*
X6384D01*
Y10254D01*
X6258D01*
G37*
G36*
G01Y10411D02*
Y10451D01*
X6384D01*
Y10411D01*
X6258D01*
G37*
G36*
G01X6768Y2787D02*
Y2827D01*
X6894D01*
Y2787D01*
X6768D01*
G37*
G36*
G01Y2629D02*
Y2669D01*
X6894D01*
Y2629D01*
X6768D01*
G37*
G36*
G01Y3684D02*
Y3724D01*
X6894D01*
Y3684D01*
X6768D01*
G37*
G36*
G01Y3526D02*
Y3566D01*
X6894D01*
Y3526D01*
X6768D01*
G37*
G36*
G01Y4581D02*
Y4621D01*
X6894D01*
Y4581D01*
X6768D01*
G37*
G36*
G01Y4423D02*
Y4463D01*
X6894D01*
Y4423D01*
X6768D01*
G37*
G36*
G01Y5478D02*
Y5518D01*
X6894D01*
Y5478D01*
X6768D01*
G37*
G36*
G01Y5320D02*
Y5360D01*
X6894D01*
Y5320D01*
X6768D01*
G37*
G36*
G01Y6375D02*
Y6415D01*
X6894D01*
Y6375D01*
X6768D01*
G37*
G36*
G01Y6217D02*
Y6257D01*
X6894D01*
Y6217D01*
X6768D01*
G37*
G36*
G01Y7272D02*
Y7312D01*
X6894D01*
Y7272D01*
X6768D01*
G37*
G36*
G01Y7114D02*
Y7154D01*
X6894D01*
Y7114D01*
X6768D01*
G37*
G36*
G01Y8169D02*
Y8209D01*
X6894D01*
Y8169D01*
X6768D01*
G37*
G36*
G01Y8011D02*
Y8051D01*
X6894D01*
Y8011D01*
X6768D01*
G37*
G36*
G01Y9066D02*
Y9106D01*
X6894D01*
Y9066D01*
X6768D01*
G37*
G36*
G01Y8908D02*
Y8948D01*
X6894D01*
Y8908D01*
X6768D01*
G37*
G36*
G01Y9963D02*
Y10003D01*
X6894D01*
Y9963D01*
X6768D01*
G37*
G36*
G01Y9805D02*
Y9845D01*
X6894D01*
Y9805D01*
X6768D01*
G37*
G36*
G01Y10860D02*
Y10900D01*
X6894D01*
Y10860D01*
X6768D01*
G37*
G36*
G01Y10702D02*
Y10742D01*
X6894D01*
Y10702D01*
X6768D01*
G37*
G36*
G01X7035Y2787D02*
Y2827D01*
X7161D01*
Y2787D01*
X7035D01*
G37*
G36*
G01Y2629D02*
Y2669D01*
X7161D01*
Y2629D01*
X7035D01*
G37*
G36*
G01Y3684D02*
Y3724D01*
X7161D01*
Y3684D01*
X7035D01*
G37*
G36*
G01Y3526D02*
Y3566D01*
X7161D01*
Y3526D01*
X7035D01*
G37*
G36*
G01Y4581D02*
Y4621D01*
X7161D01*
Y4581D01*
X7035D01*
G37*
G36*
G01Y4423D02*
Y4463D01*
X7161D01*
Y4423D01*
X7035D01*
G37*
G36*
G01Y5478D02*
Y5518D01*
X7161D01*
Y5478D01*
X7035D01*
G37*
G36*
G01Y5320D02*
Y5360D01*
X7161D01*
Y5320D01*
X7035D01*
G37*
G36*
G01Y6375D02*
Y6415D01*
X7161D01*
Y6375D01*
X7035D01*
G37*
G36*
G01Y6217D02*
Y6257D01*
X7161D01*
Y6217D01*
X7035D01*
G37*
G36*
G01Y7272D02*
Y7312D01*
X7161D01*
Y7272D01*
X7035D01*
G37*
G36*
G01Y7114D02*
Y7154D01*
X7161D01*
Y7114D01*
X7035D01*
G37*
G36*
G01Y8169D02*
Y8209D01*
X7161D01*
Y8169D01*
X7035D01*
G37*
G36*
G01Y8011D02*
Y8051D01*
X7161D01*
Y8011D01*
X7035D01*
G37*
G36*
G01Y9066D02*
Y9106D01*
X7161D01*
Y9066D01*
X7035D01*
G37*
G36*
G01Y8908D02*
Y8948D01*
X7161D01*
Y8908D01*
X7035D01*
G37*
G36*
G01Y9963D02*
Y10003D01*
X7161D01*
Y9963D01*
X7035D01*
G37*
G36*
G01Y9805D02*
Y9845D01*
X7161D01*
Y9805D01*
X7035D01*
G37*
G36*
G01Y10860D02*
Y10900D01*
X7161D01*
Y10860D01*
X7035D01*
G37*
G36*
G01Y10702D02*
Y10742D01*
X7161D01*
Y10702D01*
X7035D01*
G37*
G36*
G01X7545Y3078D02*
Y3118D01*
X7671D01*
Y3078D01*
X7545D01*
G37*
G36*
G01Y3235D02*
Y3275D01*
X7671D01*
Y3235D01*
X7545D01*
G37*
G36*
G01Y3975D02*
Y4015D01*
X7671D01*
Y3975D01*
X7545D01*
G37*
G36*
G01Y4132D02*
Y4172D01*
X7671D01*
Y4132D01*
X7545D01*
G37*
G36*
G01Y4872D02*
Y4912D01*
X7671D01*
Y4872D01*
X7545D01*
G37*
G36*
G01Y5029D02*
Y5069D01*
X7671D01*
Y5029D01*
X7545D01*
G37*
G36*
G01Y5769D02*
Y5809D01*
X7671D01*
Y5769D01*
X7545D01*
G37*
G36*
G01Y5926D02*
Y5966D01*
X7671D01*
Y5926D01*
X7545D01*
G37*
G36*
G01Y6666D02*
Y6706D01*
X7671D01*
Y6666D01*
X7545D01*
G37*
G36*
G01Y6823D02*
Y6863D01*
X7671D01*
Y6823D01*
X7545D01*
G37*
G36*
G01Y7563D02*
Y7603D01*
X7671D01*
Y7563D01*
X7545D01*
G37*
G36*
G01Y7720D02*
Y7760D01*
X7671D01*
Y7720D01*
X7545D01*
G37*
G36*
G01Y8460D02*
Y8500D01*
X7671D01*
Y8460D01*
X7545D01*
G37*
G36*
G01Y8617D02*
Y8657D01*
X7671D01*
Y8617D01*
X7545D01*
G37*
G36*
G01Y9357D02*
Y9397D01*
X7671D01*
Y9357D01*
X7545D01*
G37*
G36*
G01Y9514D02*
Y9554D01*
X7671D01*
Y9514D01*
X7545D01*
G37*
G36*
G01Y10254D02*
Y10294D01*
X7671D01*
Y10254D01*
X7545D01*
G37*
G36*
G01Y10411D02*
Y10451D01*
X7671D01*
Y10411D01*
X7545D01*
G37*
G36*
G01X7812Y3078D02*
Y3118D01*
X7938D01*
Y3078D01*
X7812D01*
G37*
G36*
G01Y3235D02*
Y3275D01*
X7938D01*
Y3235D01*
X7812D01*
G37*
G36*
G01Y3975D02*
Y4015D01*
X7938D01*
Y3975D01*
X7812D01*
G37*
G36*
G01Y4132D02*
Y4172D01*
X7938D01*
Y4132D01*
X7812D01*
G37*
G36*
G01Y4872D02*
Y4912D01*
X7938D01*
Y4872D01*
X7812D01*
G37*
G36*
G01Y5029D02*
Y5069D01*
X7938D01*
Y5029D01*
X7812D01*
G37*
G36*
G01Y5769D02*
Y5809D01*
X7938D01*
Y5769D01*
X7812D01*
G37*
G36*
G01Y5926D02*
Y5966D01*
X7938D01*
Y5926D01*
X7812D01*
G37*
G36*
G01Y6666D02*
Y6706D01*
X7938D01*
Y6666D01*
X7812D01*
G37*
G36*
G01Y6823D02*
Y6863D01*
X7938D01*
Y6823D01*
X7812D01*
G37*
G36*
G01Y7563D02*
Y7603D01*
X7938D01*
Y7563D01*
X7812D01*
G37*
G36*
G01Y7720D02*
Y7760D01*
X7938D01*
Y7720D01*
X7812D01*
G37*
G36*
G01Y8460D02*
Y8500D01*
X7938D01*
Y8460D01*
X7812D01*
G37*
G36*
G01Y8617D02*
Y8657D01*
X7938D01*
Y8617D01*
X7812D01*
G37*
G36*
G01Y9357D02*
Y9397D01*
X7938D01*
Y9357D01*
X7812D01*
G37*
G36*
G01Y9514D02*
Y9554D01*
X7938D01*
Y9514D01*
X7812D01*
G37*
G36*
G01Y10254D02*
Y10294D01*
X7938D01*
Y10254D01*
X7812D01*
G37*
G36*
G01Y10411D02*
Y10451D01*
X7938D01*
Y10411D01*
X7812D01*
G37*
G36*
G01X8322Y2787D02*
Y2827D01*
X8448D01*
Y2787D01*
X8322D01*
G37*
G36*
G01Y2629D02*
Y2669D01*
X8448D01*
Y2629D01*
X8322D01*
G37*
G36*
G01Y3684D02*
Y3724D01*
X8448D01*
Y3684D01*
X8322D01*
G37*
G36*
G01Y3526D02*
Y3566D01*
X8448D01*
Y3526D01*
X8322D01*
G37*
G36*
G01Y4581D02*
Y4621D01*
X8448D01*
Y4581D01*
X8322D01*
G37*
G36*
G01Y4423D02*
Y4463D01*
X8448D01*
Y4423D01*
X8322D01*
G37*
G36*
G01Y5478D02*
Y5518D01*
X8448D01*
Y5478D01*
X8322D01*
G37*
G36*
G01Y5320D02*
Y5360D01*
X8448D01*
Y5320D01*
X8322D01*
G37*
G36*
G01Y6375D02*
Y6415D01*
X8448D01*
Y6375D01*
X8322D01*
G37*
G36*
G01Y6217D02*
Y6257D01*
X8448D01*
Y6217D01*
X8322D01*
G37*
G36*
G01Y7272D02*
Y7312D01*
X8448D01*
Y7272D01*
X8322D01*
G37*
G36*
G01Y7114D02*
Y7154D01*
X8448D01*
Y7114D01*
X8322D01*
G37*
G36*
G01Y8169D02*
Y8209D01*
X8448D01*
Y8169D01*
X8322D01*
G37*
G36*
G01Y8011D02*
Y8051D01*
X8448D01*
Y8011D01*
X8322D01*
G37*
G36*
G01Y9066D02*
Y9106D01*
X8448D01*
Y9066D01*
X8322D01*
G37*
G36*
G01Y8908D02*
Y8948D01*
X8448D01*
Y8908D01*
X8322D01*
G37*
G36*
G01Y9963D02*
Y10003D01*
X8448D01*
Y9963D01*
X8322D01*
G37*
G36*
G01Y9805D02*
Y9845D01*
X8448D01*
Y9805D01*
X8322D01*
G37*
G36*
G01X8589Y2787D02*
Y2827D01*
X8715D01*
Y2787D01*
X8589D01*
G37*
G36*
G01Y2629D02*
Y2669D01*
X8715D01*
Y2629D01*
X8589D01*
G37*
G36*
G01Y3684D02*
Y3724D01*
X8715D01*
Y3684D01*
X8589D01*
G37*
G36*
G01Y3526D02*
Y3566D01*
X8715D01*
Y3526D01*
X8589D01*
G37*
G36*
G01Y4581D02*
Y4621D01*
X8715D01*
Y4581D01*
X8589D01*
G37*
G36*
G01Y4423D02*
Y4463D01*
X8715D01*
Y4423D01*
X8589D01*
G37*
G36*
G01Y5478D02*
Y5518D01*
X8715D01*
Y5478D01*
X8589D01*
G37*
G36*
G01Y5320D02*
Y5360D01*
X8715D01*
Y5320D01*
X8589D01*
G37*
G36*
G01Y6375D02*
Y6415D01*
X8715D01*
Y6375D01*
X8589D01*
G37*
G36*
G01Y6217D02*
Y6257D01*
X8715D01*
Y6217D01*
X8589D01*
G37*
G36*
G01Y7272D02*
Y7312D01*
X8715D01*
Y7272D01*
X8589D01*
G37*
G36*
G01Y7114D02*
Y7154D01*
X8715D01*
Y7114D01*
X8589D01*
G37*
G36*
G01Y8169D02*
Y8209D01*
X8715D01*
Y8169D01*
X8589D01*
G37*
G36*
G01Y8011D02*
Y8051D01*
X8715D01*
Y8011D01*
X8589D01*
G37*
G36*
G01Y9066D02*
Y9106D01*
X8715D01*
Y9066D01*
X8589D01*
G37*
G36*
G01Y8908D02*
Y8948D01*
X8715D01*
Y8908D01*
X8589D01*
G37*
G36*
G01Y9963D02*
Y10003D01*
X8715D01*
Y9963D01*
X8589D01*
G37*
G36*
G01Y9805D02*
Y9845D01*
X8715D01*
Y9805D01*
X8589D01*
G37*
G36*
G01X9098Y3078D02*
Y3118D01*
X9224D01*
Y3078D01*
X9098D01*
G37*
G36*
G01Y3235D02*
Y3275D01*
X9224D01*
Y3235D01*
X9098D01*
G37*
G36*
G01Y3975D02*
Y4015D01*
X9224D01*
Y3975D01*
X9098D01*
G37*
G36*
G01Y4132D02*
Y4172D01*
X9224D01*
Y4132D01*
X9098D01*
G37*
G36*
G01Y4872D02*
Y4912D01*
X9224D01*
Y4872D01*
X9098D01*
G37*
G36*
G01Y5029D02*
Y5069D01*
X9224D01*
Y5029D01*
X9098D01*
G37*
G36*
G01Y5769D02*
Y5809D01*
X9224D01*
Y5769D01*
X9098D01*
G37*
G36*
G01Y5926D02*
Y5966D01*
X9224D01*
Y5926D01*
X9098D01*
G37*
G36*
G01Y6666D02*
Y6706D01*
X9224D01*
Y6666D01*
X9098D01*
G37*
G36*
G01Y6823D02*
Y6863D01*
X9224D01*
Y6823D01*
X9098D01*
G37*
G36*
G01Y7563D02*
Y7603D01*
X9224D01*
Y7563D01*
X9098D01*
G37*
G36*
G01Y7720D02*
Y7760D01*
X9224D01*
Y7720D01*
X9098D01*
G37*
G36*
G01Y8460D02*
Y8500D01*
X9224D01*
Y8460D01*
X9098D01*
G37*
G36*
G01Y8617D02*
Y8657D01*
X9224D01*
Y8617D01*
X9098D01*
G37*
G36*
G01Y9357D02*
Y9397D01*
X9224D01*
Y9357D01*
X9098D01*
G37*
G36*
G01Y9514D02*
Y9554D01*
X9224D01*
Y9514D01*
X9098D01*
G37*
G36*
G01Y10254D02*
Y10294D01*
X9224D01*
Y10254D01*
X9098D01*
G37*
G36*
G01Y10411D02*
Y10451D01*
X9224D01*
Y10411D01*
X9098D01*
G37*
G36*
G01X9365Y3078D02*
Y3118D01*
X9491D01*
Y3078D01*
X9365D01*
G37*
G36*
G01Y3235D02*
Y3275D01*
X9491D01*
Y3235D01*
X9365D01*
G37*
G36*
G01Y3975D02*
Y4015D01*
X9491D01*
Y3975D01*
X9365D01*
G37*
G36*
G01Y4132D02*
Y4172D01*
X9491D01*
Y4132D01*
X9365D01*
G37*
G36*
G01Y4872D02*
Y4912D01*
X9491D01*
Y4872D01*
X9365D01*
G37*
G36*
G01Y5029D02*
Y5069D01*
X9491D01*
Y5029D01*
X9365D01*
G37*
G36*
G01Y5769D02*
Y5809D01*
X9491D01*
Y5769D01*
X9365D01*
G37*
G36*
G01Y5926D02*
Y5966D01*
X9491D01*
Y5926D01*
X9365D01*
G37*
G36*
G01Y6666D02*
Y6706D01*
X9491D01*
Y6666D01*
X9365D01*
G37*
G36*
G01Y6823D02*
Y6863D01*
X9491D01*
Y6823D01*
X9365D01*
G37*
G36*
G01Y7563D02*
Y7603D01*
X9491D01*
Y7563D01*
X9365D01*
G37*
G36*
G01Y7720D02*
Y7760D01*
X9491D01*
Y7720D01*
X9365D01*
G37*
G36*
G01Y8460D02*
Y8500D01*
X9491D01*
Y8460D01*
X9365D01*
G37*
G36*
G01Y8617D02*
Y8657D01*
X9491D01*
Y8617D01*
X9365D01*
G37*
G36*
G01Y9357D02*
Y9397D01*
X9491D01*
Y9357D01*
X9365D01*
G37*
G36*
G01Y9514D02*
Y9554D01*
X9491D01*
Y9514D01*
X9365D01*
G37*
G36*
G01Y10254D02*
Y10294D01*
X9491D01*
Y10254D01*
X9365D01*
G37*
G36*
G01Y10411D02*
Y10451D01*
X9491D01*
Y10411D01*
X9365D01*
G37*
G36*
G01X9875Y2787D02*
Y2827D01*
X10001D01*
Y2787D01*
X9875D01*
G37*
G36*
G01Y2629D02*
Y2669D01*
X10001D01*
Y2629D01*
X9875D01*
G37*
G36*
G01Y3684D02*
Y3724D01*
X10001D01*
Y3684D01*
X9875D01*
G37*
G36*
G01Y3526D02*
Y3566D01*
X10001D01*
Y3526D01*
X9875D01*
G37*
G36*
G01Y4581D02*
Y4621D01*
X10001D01*
Y4581D01*
X9875D01*
G37*
G36*
G01Y4423D02*
Y4463D01*
X10001D01*
Y4423D01*
X9875D01*
G37*
G36*
G01Y5478D02*
Y5518D01*
X10001D01*
Y5478D01*
X9875D01*
G37*
G36*
G01Y5320D02*
Y5360D01*
X10001D01*
Y5320D01*
X9875D01*
G37*
G36*
G01Y6375D02*
Y6415D01*
X10001D01*
Y6375D01*
X9875D01*
G37*
G36*
G01Y6217D02*
Y6257D01*
X10001D01*
Y6217D01*
X9875D01*
G37*
G36*
G01Y7272D02*
Y7312D01*
X10001D01*
Y7272D01*
X9875D01*
G37*
G36*
G01Y7114D02*
Y7154D01*
X10001D01*
Y7114D01*
X9875D01*
G37*
G36*
G01Y8169D02*
Y8209D01*
X10001D01*
Y8169D01*
X9875D01*
G37*
G36*
G01Y8011D02*
Y8051D01*
X10001D01*
Y8011D01*
X9875D01*
G37*
G36*
G01Y8169D02*
Y8209D01*
X10001D01*
Y8169D01*
X9875D01*
G37*
G36*
G01Y8011D02*
Y8051D01*
X10001D01*
Y8011D01*
X9875D01*
G37*
G36*
G01Y9066D02*
Y9106D01*
X10001D01*
Y9066D01*
X9875D01*
G37*
G36*
G01Y8908D02*
Y8948D01*
X10001D01*
Y8908D01*
X9875D01*
G37*
G36*
G01Y9963D02*
Y10003D01*
X10001D01*
Y9963D01*
X9875D01*
G37*
G36*
G01Y9805D02*
Y9845D01*
X10001D01*
Y9805D01*
X9875D01*
G37*
G36*
G01X10142Y2787D02*
Y2827D01*
X10268D01*
Y2787D01*
X10142D01*
G37*
G36*
G01Y2629D02*
Y2669D01*
X10268D01*
Y2629D01*
X10142D01*
G37*
G36*
G01Y3684D02*
Y3724D01*
X10268D01*
Y3684D01*
X10142D01*
G37*
G36*
G01Y3526D02*
Y3566D01*
X10268D01*
Y3526D01*
X10142D01*
G37*
G36*
G01Y4581D02*
Y4621D01*
X10268D01*
Y4581D01*
X10142D01*
G37*
G36*
G01Y4423D02*
Y4463D01*
X10268D01*
Y4423D01*
X10142D01*
G37*
G36*
G01Y5478D02*
Y5518D01*
X10268D01*
Y5478D01*
X10142D01*
G37*
G36*
G01Y5320D02*
Y5360D01*
X10268D01*
Y5320D01*
X10142D01*
G37*
G36*
G01Y6375D02*
Y6415D01*
X10268D01*
Y6375D01*
X10142D01*
G37*
G36*
G01Y6217D02*
Y6257D01*
X10268D01*
Y6217D01*
X10142D01*
G37*
G36*
G01Y7272D02*
Y7312D01*
X10268D01*
Y7272D01*
X10142D01*
G37*
G36*
G01Y7114D02*
Y7154D01*
X10268D01*
Y7114D01*
X10142D01*
G37*
G36*
G01Y8169D02*
Y8209D01*
X10268D01*
Y8169D01*
X10142D01*
G37*
G36*
G01Y8011D02*
Y8051D01*
X10268D01*
Y8011D01*
X10142D01*
G37*
G36*
G01Y8169D02*
Y8209D01*
X10268D01*
Y8169D01*
X10142D01*
G37*
G36*
G01Y8011D02*
Y8051D01*
X10268D01*
Y8011D01*
X10142D01*
G37*
G36*
G01Y9066D02*
Y9106D01*
X10268D01*
Y9066D01*
X10142D01*
G37*
G36*
G01Y8908D02*
Y8948D01*
X10268D01*
Y8908D01*
X10142D01*
G37*
G36*
G01Y9963D02*
Y10003D01*
X10268D01*
Y9963D01*
X10142D01*
G37*
G36*
G01Y9805D02*
Y9845D01*
X10268D01*
Y9805D01*
X10142D01*
G37*
G36*
G01X10652Y3078D02*
Y3118D01*
X10778D01*
Y3078D01*
X10652D01*
G37*
G36*
G01Y3235D02*
Y3275D01*
X10778D01*
Y3235D01*
X10652D01*
G37*
G36*
G01Y3975D02*
Y4015D01*
X10778D01*
Y3975D01*
X10652D01*
G37*
G36*
G01Y4132D02*
Y4172D01*
X10778D01*
Y4132D01*
X10652D01*
G37*
G36*
G01Y4872D02*
Y4912D01*
X10778D01*
Y4872D01*
X10652D01*
G37*
G36*
G01Y5029D02*
Y5069D01*
X10778D01*
Y5029D01*
X10652D01*
G37*
G36*
G01Y5769D02*
Y5809D01*
X10778D01*
Y5769D01*
X10652D01*
G37*
G36*
G01Y5926D02*
Y5966D01*
X10778D01*
Y5926D01*
X10652D01*
G37*
G36*
G01Y6666D02*
Y6706D01*
X10778D01*
Y6666D01*
X10652D01*
G37*
G36*
G01Y6823D02*
Y6863D01*
X10778D01*
Y6823D01*
X10652D01*
G37*
G36*
G01Y7563D02*
Y7603D01*
X10778D01*
Y7563D01*
X10652D01*
G37*
G36*
G01Y7720D02*
Y7760D01*
X10778D01*
Y7720D01*
X10652D01*
G37*
G36*
G01Y8460D02*
Y8500D01*
X10778D01*
Y8460D01*
X10652D01*
G37*
G36*
G01Y8617D02*
Y8657D01*
X10778D01*
Y8617D01*
X10652D01*
G37*
G36*
G01Y9357D02*
Y9397D01*
X10778D01*
Y9357D01*
X10652D01*
G37*
G36*
G01Y9514D02*
Y9554D01*
X10778D01*
Y9514D01*
X10652D01*
G37*
G36*
G01Y10254D02*
Y10294D01*
X10778D01*
Y10254D01*
X10652D01*
G37*
G36*
G01Y10411D02*
Y10451D01*
X10778D01*
Y10411D01*
X10652D01*
G37*
G36*
G01X10919Y3078D02*
Y3118D01*
X11045D01*
Y3078D01*
X10919D01*
G37*
G36*
G01Y3235D02*
Y3275D01*
X11045D01*
Y3235D01*
X10919D01*
G37*
G36*
G01Y3975D02*
Y4015D01*
X11045D01*
Y3975D01*
X10919D01*
G37*
G36*
G01Y4132D02*
Y4172D01*
X11045D01*
Y4132D01*
X10919D01*
G37*
G36*
G01Y4872D02*
Y4912D01*
X11045D01*
Y4872D01*
X10919D01*
G37*
G36*
G01Y5029D02*
Y5069D01*
X11045D01*
Y5029D01*
X10919D01*
G37*
G36*
G01Y5769D02*
Y5809D01*
X11045D01*
Y5769D01*
X10919D01*
G37*
G36*
G01Y5926D02*
Y5966D01*
X11045D01*
Y5926D01*
X10919D01*
G37*
G36*
G01Y6666D02*
Y6706D01*
X11045D01*
Y6666D01*
X10919D01*
G37*
G36*
G01Y6823D02*
Y6863D01*
X11045D01*
Y6823D01*
X10919D01*
G37*
G36*
G01Y7563D02*
Y7603D01*
X11045D01*
Y7563D01*
X10919D01*
G37*
G36*
G01Y7720D02*
Y7760D01*
X11045D01*
Y7720D01*
X10919D01*
G37*
G36*
G01Y8460D02*
Y8500D01*
X11045D01*
Y8460D01*
X10919D01*
G37*
G36*
G01Y8617D02*
Y8657D01*
X11045D01*
Y8617D01*
X10919D01*
G37*
G36*
G01Y9357D02*
Y9397D01*
X11045D01*
Y9357D01*
X10919D01*
G37*
G36*
G01Y9514D02*
Y9554D01*
X11045D01*
Y9514D01*
X10919D01*
G37*
G36*
G01Y10254D02*
Y10294D01*
X11045D01*
Y10254D01*
X10919D01*
G37*
G36*
G01Y10411D02*
Y10451D01*
X11045D01*
Y10411D01*
X10919D01*
G37*
G36*
G01X11429Y2787D02*
Y2827D01*
X11555D01*
Y2787D01*
X11429D01*
G37*
G36*
G01Y2629D02*
Y2669D01*
X11555D01*
Y2629D01*
X11429D01*
G37*
G36*
G01Y3684D02*
Y3724D01*
X11555D01*
Y3684D01*
X11429D01*
G37*
G36*
G01Y3526D02*
Y3566D01*
X11555D01*
Y3526D01*
X11429D01*
G37*
G36*
G01Y4581D02*
Y4621D01*
X11555D01*
Y4581D01*
X11429D01*
G37*
G36*
G01Y4423D02*
Y4463D01*
X11555D01*
Y4423D01*
X11429D01*
G37*
G36*
G01Y5478D02*
Y5518D01*
X11555D01*
Y5478D01*
X11429D01*
G37*
G36*
G01Y5320D02*
Y5360D01*
X11555D01*
Y5320D01*
X11429D01*
G37*
G36*
G01Y6375D02*
Y6415D01*
X11555D01*
Y6375D01*
X11429D01*
G37*
G36*
G01Y6217D02*
Y6257D01*
X11555D01*
Y6217D01*
X11429D01*
G37*
G36*
G01Y7272D02*
Y7312D01*
X11555D01*
Y7272D01*
X11429D01*
G37*
G36*
G01Y7114D02*
Y7154D01*
X11555D01*
Y7114D01*
X11429D01*
G37*
G36*
G01Y8169D02*
Y8209D01*
X11555D01*
Y8169D01*
X11429D01*
G37*
G36*
G01Y8011D02*
Y8051D01*
X11555D01*
Y8011D01*
X11429D01*
G37*
G36*
G01Y9066D02*
Y9106D01*
X11555D01*
Y9066D01*
X11429D01*
G37*
G36*
G01Y8908D02*
Y8948D01*
X11555D01*
Y8908D01*
X11429D01*
G37*
G36*
G01Y9963D02*
Y10003D01*
X11555D01*
Y9963D01*
X11429D01*
G37*
G36*
G01Y9805D02*
Y9845D01*
X11555D01*
Y9805D01*
X11429D01*
G37*
G36*
G01X11696Y2787D02*
Y2827D01*
X11822D01*
Y2787D01*
X11696D01*
G37*
G36*
G01Y2629D02*
Y2669D01*
X11822D01*
Y2629D01*
X11696D01*
G37*
G36*
G01Y3684D02*
Y3724D01*
X11822D01*
Y3684D01*
X11696D01*
G37*
G36*
G01Y3526D02*
Y3566D01*
X11822D01*
Y3526D01*
X11696D01*
G37*
G36*
G01Y4581D02*
Y4621D01*
X11822D01*
Y4581D01*
X11696D01*
G37*
G36*
G01Y4423D02*
Y4463D01*
X11822D01*
Y4423D01*
X11696D01*
G37*
G36*
G01Y5478D02*
Y5518D01*
X11822D01*
Y5478D01*
X11696D01*
G37*
G36*
G01Y5320D02*
Y5360D01*
X11822D01*
Y5320D01*
X11696D01*
G37*
G36*
G01Y6375D02*
Y6415D01*
X11822D01*
Y6375D01*
X11696D01*
G37*
G36*
G01Y6217D02*
Y6257D01*
X11822D01*
Y6217D01*
X11696D01*
G37*
G36*
G01Y7272D02*
Y7312D01*
X11822D01*
Y7272D01*
X11696D01*
G37*
G36*
G01Y7114D02*
Y7154D01*
X11822D01*
Y7114D01*
X11696D01*
G37*
G36*
G01Y8169D02*
Y8209D01*
X11822D01*
Y8169D01*
X11696D01*
G37*
G36*
G01Y8011D02*
Y8051D01*
X11822D01*
Y8011D01*
X11696D01*
G37*
G36*
G01Y9066D02*
Y9106D01*
X11822D01*
Y9066D01*
X11696D01*
G37*
G36*
G01Y8908D02*
Y8948D01*
X11822D01*
Y8908D01*
X11696D01*
G37*
G36*
G01Y9963D02*
Y10003D01*
X11822D01*
Y9963D01*
X11696D01*
G37*
G36*
G01Y9805D02*
Y9845D01*
X11822D01*
Y9805D01*
X11696D01*
G37*
G36*
G01X12206Y2181D02*
Y2221D01*
X12332D01*
Y2181D01*
X12206D01*
G37*
G36*
G01Y2338D02*
Y2378D01*
X12332D01*
Y2338D01*
X12206D01*
G37*
G36*
G01Y3078D02*
Y3118D01*
X12332D01*
Y3078D01*
X12206D01*
G37*
G36*
G01Y3235D02*
Y3275D01*
X12332D01*
Y3235D01*
X12206D01*
G37*
G36*
G01Y3975D02*
Y4015D01*
X12332D01*
Y3975D01*
X12206D01*
G37*
G36*
G01Y4132D02*
Y4172D01*
X12332D01*
Y4132D01*
X12206D01*
G37*
G36*
G01Y4872D02*
Y4912D01*
X12332D01*
Y4872D01*
X12206D01*
G37*
G36*
G01Y5029D02*
Y5069D01*
X12332D01*
Y5029D01*
X12206D01*
G37*
G36*
G01Y5769D02*
Y5809D01*
X12332D01*
Y5769D01*
X12206D01*
G37*
G36*
G01Y5926D02*
Y5966D01*
X12332D01*
Y5926D01*
X12206D01*
G37*
G36*
G01Y6666D02*
Y6706D01*
X12332D01*
Y6666D01*
X12206D01*
G37*
G36*
G01Y6823D02*
Y6863D01*
X12332D01*
Y6823D01*
X12206D01*
G37*
G36*
G01Y7563D02*
Y7603D01*
X12332D01*
Y7563D01*
X12206D01*
G37*
G36*
G01Y7720D02*
Y7760D01*
X12332D01*
Y7720D01*
X12206D01*
G37*
G36*
G01Y8460D02*
Y8500D01*
X12332D01*
Y8460D01*
X12206D01*
G37*
G36*
G01Y8617D02*
Y8657D01*
X12332D01*
Y8617D01*
X12206D01*
G37*
G36*
G01Y9357D02*
Y9397D01*
X12332D01*
Y9357D01*
X12206D01*
G37*
G36*
G01Y9514D02*
Y9554D01*
X12332D01*
Y9514D01*
X12206D01*
G37*
G36*
G01Y10254D02*
Y10294D01*
X12332D01*
Y10254D01*
X12206D01*
G37*
G36*
G01Y10411D02*
Y10451D01*
X12332D01*
Y10411D01*
X12206D01*
G37*
G36*
G01X12473Y2181D02*
Y2221D01*
X12599D01*
Y2181D01*
X12473D01*
G37*
G36*
G01Y2338D02*
Y2378D01*
X12599D01*
Y2338D01*
X12473D01*
G37*
G36*
G01Y3078D02*
Y3118D01*
X12599D01*
Y3078D01*
X12473D01*
G37*
G36*
G01Y3235D02*
Y3275D01*
X12599D01*
Y3235D01*
X12473D01*
G37*
G36*
G01Y3975D02*
Y4015D01*
X12599D01*
Y3975D01*
X12473D01*
G37*
G36*
G01Y4132D02*
Y4172D01*
X12599D01*
Y4132D01*
X12473D01*
G37*
G36*
G01Y4872D02*
Y4912D01*
X12599D01*
Y4872D01*
X12473D01*
G37*
G36*
G01Y5029D02*
Y5069D01*
X12599D01*
Y5029D01*
X12473D01*
G37*
G36*
G01Y5769D02*
Y5809D01*
X12599D01*
Y5769D01*
X12473D01*
G37*
G36*
G01Y5926D02*
Y5966D01*
X12599D01*
Y5926D01*
X12473D01*
G37*
G36*
G01Y6666D02*
Y6706D01*
X12599D01*
Y6666D01*
X12473D01*
G37*
G36*
G01Y6823D02*
Y6863D01*
X12599D01*
Y6823D01*
X12473D01*
G37*
G36*
G01Y7563D02*
Y7603D01*
X12599D01*
Y7563D01*
X12473D01*
G37*
G36*
G01Y7720D02*
Y7760D01*
X12599D01*
Y7720D01*
X12473D01*
G37*
G36*
G01Y8460D02*
Y8500D01*
X12599D01*
Y8460D01*
X12473D01*
G37*
G36*
G01Y8617D02*
Y8657D01*
X12599D01*
Y8617D01*
X12473D01*
G37*
G36*
G01Y9357D02*
Y9397D01*
X12599D01*
Y9357D01*
X12473D01*
G37*
G36*
G01Y9514D02*
Y9554D01*
X12599D01*
Y9514D01*
X12473D01*
G37*
G36*
G01Y10254D02*
Y10294D01*
X12599D01*
Y10254D01*
X12473D01*
G37*
G36*
G01Y10411D02*
Y10451D01*
X12599D01*
Y10411D01*
X12473D01*
G37*
G36*
G01X12983Y2787D02*
Y2827D01*
X13109D01*
Y2787D01*
X12983D01*
G37*
G36*
G01Y2629D02*
Y2669D01*
X13109D01*
Y2629D01*
X12983D01*
G37*
G36*
G01Y3684D02*
Y3724D01*
X13109D01*
Y3684D01*
X12983D01*
G37*
G36*
G01Y3526D02*
Y3566D01*
X13109D01*
Y3526D01*
X12983D01*
G37*
G36*
G01Y4581D02*
Y4621D01*
X13109D01*
Y4581D01*
X12983D01*
G37*
G36*
G01Y4423D02*
Y4463D01*
X13109D01*
Y4423D01*
X12983D01*
G37*
G36*
G01Y5478D02*
Y5518D01*
X13109D01*
Y5478D01*
X12983D01*
G37*
G36*
G01Y5320D02*
Y5360D01*
X13109D01*
Y5320D01*
X12983D01*
G37*
G36*
G01Y6375D02*
Y6415D01*
X13109D01*
Y6375D01*
X12983D01*
G37*
G36*
G01Y6217D02*
Y6257D01*
X13109D01*
Y6217D01*
X12983D01*
G37*
G36*
G01Y7272D02*
Y7312D01*
X13109D01*
Y7272D01*
X12983D01*
G37*
G36*
G01Y7114D02*
Y7154D01*
X13109D01*
Y7114D01*
X12983D01*
G37*
G36*
G01Y8169D02*
Y8209D01*
X13109D01*
Y8169D01*
X12983D01*
G37*
G36*
G01Y8011D02*
Y8051D01*
X13109D01*
Y8011D01*
X12983D01*
G37*
G36*
G01Y9066D02*
Y9106D01*
X13109D01*
Y9066D01*
X12983D01*
G37*
G36*
G01Y8908D02*
Y8948D01*
X13109D01*
Y8908D01*
X12983D01*
G37*
G36*
G01Y9963D02*
Y10003D01*
X13109D01*
Y9963D01*
X12983D01*
G37*
G36*
G01Y9805D02*
Y9845D01*
X13109D01*
Y9805D01*
X12983D01*
G37*
G36*
G01X13250Y2787D02*
Y2827D01*
X13376D01*
Y2787D01*
X13250D01*
G37*
G36*
G01Y2629D02*
Y2669D01*
X13376D01*
Y2629D01*
X13250D01*
G37*
G36*
G01Y3684D02*
Y3724D01*
X13376D01*
Y3684D01*
X13250D01*
G37*
G36*
G01Y3526D02*
Y3566D01*
X13376D01*
Y3526D01*
X13250D01*
G37*
G36*
G01Y4581D02*
Y4621D01*
X13376D01*
Y4581D01*
X13250D01*
G37*
G36*
G01Y4423D02*
Y4463D01*
X13376D01*
Y4423D01*
X13250D01*
G37*
G36*
G01Y5478D02*
Y5518D01*
X13376D01*
Y5478D01*
X13250D01*
G37*
G36*
G01Y5320D02*
Y5360D01*
X13376D01*
Y5320D01*
X13250D01*
G37*
G36*
G01Y6375D02*
Y6415D01*
X13376D01*
Y6375D01*
X13250D01*
G37*
G36*
G01Y6217D02*
Y6257D01*
X13376D01*
Y6217D01*
X13250D01*
G37*
G36*
G01Y7272D02*
Y7312D01*
X13376D01*
Y7272D01*
X13250D01*
G37*
G36*
G01Y7114D02*
Y7154D01*
X13376D01*
Y7114D01*
X13250D01*
G37*
G36*
G01Y8169D02*
Y8209D01*
X13376D01*
Y8169D01*
X13250D01*
G37*
G36*
G01Y8011D02*
Y8051D01*
X13376D01*
Y8011D01*
X13250D01*
G37*
G36*
G01Y9066D02*
Y9106D01*
X13376D01*
Y9066D01*
X13250D01*
G37*
G36*
G01Y8908D02*
Y8948D01*
X13376D01*
Y8908D01*
X13250D01*
G37*
G36*
G01Y9963D02*
Y10003D01*
X13376D01*
Y9963D01*
X13250D01*
G37*
G36*
G01Y9805D02*
Y9845D01*
X13376D01*
Y9805D01*
X13250D01*
G37*
G36*
G01X13760Y2181D02*
Y2221D01*
X13886D01*
Y2181D01*
X13760D01*
G37*
G36*
G01Y2338D02*
Y2378D01*
X13886D01*
Y2338D01*
X13760D01*
G37*
G36*
G01Y3078D02*
Y3118D01*
X13886D01*
Y3078D01*
X13760D01*
G37*
G36*
G01Y3235D02*
Y3275D01*
X13886D01*
Y3235D01*
X13760D01*
G37*
G36*
G01Y3975D02*
Y4015D01*
X13886D01*
Y3975D01*
X13760D01*
G37*
G36*
G01Y4132D02*
Y4172D01*
X13886D01*
Y4132D01*
X13760D01*
G37*
G36*
G01Y4872D02*
Y4912D01*
X13886D01*
Y4872D01*
X13760D01*
G37*
G36*
G01Y5029D02*
Y5069D01*
X13886D01*
Y5029D01*
X13760D01*
G37*
G36*
G01Y5769D02*
Y5809D01*
X13886D01*
Y5769D01*
X13760D01*
G37*
G36*
G01Y5926D02*
Y5966D01*
X13886D01*
Y5926D01*
X13760D01*
G37*
G36*
G01Y6666D02*
Y6706D01*
X13886D01*
Y6666D01*
X13760D01*
G37*
G36*
G01Y6823D02*
Y6863D01*
X13886D01*
Y6823D01*
X13760D01*
G37*
G36*
G01Y7563D02*
Y7603D01*
X13886D01*
Y7563D01*
X13760D01*
G37*
G36*
G01Y7720D02*
Y7760D01*
X13886D01*
Y7720D01*
X13760D01*
G37*
G36*
G01Y8460D02*
Y8500D01*
X13886D01*
Y8460D01*
X13760D01*
G37*
G36*
G01Y8617D02*
Y8657D01*
X13886D01*
Y8617D01*
X13760D01*
G37*
G36*
G01Y9357D02*
Y9397D01*
X13886D01*
Y9357D01*
X13760D01*
G37*
G36*
G01Y9514D02*
Y9554D01*
X13886D01*
Y9514D01*
X13760D01*
G37*
G36*
G01X14027Y2181D02*
Y2221D01*
X14153D01*
Y2181D01*
X14027D01*
G37*
G36*
G01Y2338D02*
Y2378D01*
X14153D01*
Y2338D01*
X14027D01*
G37*
G36*
G01Y3078D02*
Y3118D01*
X14153D01*
Y3078D01*
X14027D01*
G37*
G36*
G01Y3235D02*
Y3275D01*
X14153D01*
Y3235D01*
X14027D01*
G37*
G36*
G01Y3975D02*
Y4015D01*
X14153D01*
Y3975D01*
X14027D01*
G37*
G36*
G01Y4132D02*
Y4172D01*
X14153D01*
Y4132D01*
X14027D01*
G37*
G36*
G01Y4872D02*
Y4912D01*
X14153D01*
Y4872D01*
X14027D01*
G37*
G36*
G01Y5029D02*
Y5069D01*
X14153D01*
Y5029D01*
X14027D01*
G37*
G36*
G01Y5769D02*
Y5809D01*
X14153D01*
Y5769D01*
X14027D01*
G37*
G36*
G01Y5926D02*
Y5966D01*
X14153D01*
Y5926D01*
X14027D01*
G37*
G36*
G01Y6666D02*
Y6706D01*
X14153D01*
Y6666D01*
X14027D01*
G37*
G36*
G01Y6823D02*
Y6863D01*
X14153D01*
Y6823D01*
X14027D01*
G37*
G36*
G01Y7563D02*
Y7603D01*
X14153D01*
Y7563D01*
X14027D01*
G37*
G36*
G01Y7720D02*
Y7760D01*
X14153D01*
Y7720D01*
X14027D01*
G37*
G36*
G01Y8460D02*
Y8500D01*
X14153D01*
Y8460D01*
X14027D01*
G37*
G36*
G01Y8617D02*
Y8657D01*
X14153D01*
Y8617D01*
X14027D01*
G37*
G36*
G01Y9357D02*
Y9397D01*
X14153D01*
Y9357D01*
X14027D01*
G37*
G36*
G01Y9514D02*
Y9554D01*
X14153D01*
Y9514D01*
X14027D01*
G37*
G36*
G01X14536Y2787D02*
Y2827D01*
X14662D01*
Y2787D01*
X14536D01*
G37*
G36*
G01Y2629D02*
Y2669D01*
X14662D01*
Y2629D01*
X14536D01*
G37*
G36*
G01Y3684D02*
Y3724D01*
X14662D01*
Y3684D01*
X14536D01*
G37*
G36*
G01Y3526D02*
Y3566D01*
X14662D01*
Y3526D01*
X14536D01*
G37*
G36*
G01Y4581D02*
Y4621D01*
X14662D01*
Y4581D01*
X14536D01*
G37*
G36*
G01Y4423D02*
Y4463D01*
X14662D01*
Y4423D01*
X14536D01*
G37*
G36*
G01Y5478D02*
Y5518D01*
X14662D01*
Y5478D01*
X14536D01*
G37*
G36*
G01Y5320D02*
Y5360D01*
X14662D01*
Y5320D01*
X14536D01*
G37*
G36*
G01Y6375D02*
Y6415D01*
X14662D01*
Y6375D01*
X14536D01*
G37*
G36*
G01Y6217D02*
Y6257D01*
X14662D01*
Y6217D01*
X14536D01*
G37*
G36*
G01Y7272D02*
Y7312D01*
X14662D01*
Y7272D01*
X14536D01*
G37*
G36*
G01Y7114D02*
Y7154D01*
X14662D01*
Y7114D01*
X14536D01*
G37*
G36*
G01Y8169D02*
Y8209D01*
X14662D01*
Y8169D01*
X14536D01*
G37*
G36*
G01Y8011D02*
Y8051D01*
X14662D01*
Y8011D01*
X14536D01*
G37*
G36*
G01Y9066D02*
Y9106D01*
X14662D01*
Y9066D01*
X14536D01*
G37*
G36*
G01Y8908D02*
Y8948D01*
X14662D01*
Y8908D01*
X14536D01*
G37*
G36*
G01Y9963D02*
Y10003D01*
X14662D01*
Y9963D01*
X14536D01*
G37*
G36*
G01Y9805D02*
Y9845D01*
X14662D01*
Y9805D01*
X14536D01*
G37*
G36*
G01X14803Y2787D02*
Y2827D01*
X14929D01*
Y2787D01*
X14803D01*
G37*
G36*
G01Y2629D02*
Y2669D01*
X14929D01*
Y2629D01*
X14803D01*
G37*
G36*
G01Y3684D02*
Y3724D01*
X14929D01*
Y3684D01*
X14803D01*
G37*
G36*
G01Y3526D02*
Y3566D01*
X14929D01*
Y3526D01*
X14803D01*
G37*
G36*
G01Y4581D02*
Y4621D01*
X14929D01*
Y4581D01*
X14803D01*
G37*
G36*
G01Y4423D02*
Y4463D01*
X14929D01*
Y4423D01*
X14803D01*
G37*
G36*
G01Y5478D02*
Y5518D01*
X14929D01*
Y5478D01*
X14803D01*
G37*
G36*
G01Y5320D02*
Y5360D01*
X14929D01*
Y5320D01*
X14803D01*
G37*
G36*
G01Y6375D02*
Y6415D01*
X14929D01*
Y6375D01*
X14803D01*
G37*
G36*
G01Y6217D02*
Y6257D01*
X14929D01*
Y6217D01*
X14803D01*
G37*
G36*
G01Y7272D02*
Y7312D01*
X14929D01*
Y7272D01*
X14803D01*
G37*
G36*
G01Y7114D02*
Y7154D01*
X14929D01*
Y7114D01*
X14803D01*
G37*
G36*
G01Y8169D02*
Y8209D01*
X14929D01*
Y8169D01*
X14803D01*
G37*
G36*
G01Y8011D02*
Y8051D01*
X14929D01*
Y8011D01*
X14803D01*
G37*
G36*
G01Y9066D02*
Y9106D01*
X14929D01*
Y9066D01*
X14803D01*
G37*
G36*
G01Y8908D02*
Y8948D01*
X14929D01*
Y8908D01*
X14803D01*
G37*
G36*
G01Y9963D02*
Y10003D01*
X14929D01*
Y9963D01*
X14803D01*
G37*
G36*
G01Y9805D02*
Y9845D01*
X14929D01*
Y9805D01*
X14803D01*
G37*
G36*
G01X15313Y2181D02*
Y2221D01*
X15439D01*
Y2181D01*
X15313D01*
G37*
G36*
G01Y2338D02*
Y2378D01*
X15439D01*
Y2338D01*
X15313D01*
G37*
G36*
G01Y3078D02*
Y3118D01*
X15439D01*
Y3078D01*
X15313D01*
G37*
G36*
G01Y3235D02*
Y3275D01*
X15439D01*
Y3235D01*
X15313D01*
G37*
G36*
G01Y3975D02*
Y4015D01*
X15439D01*
Y3975D01*
X15313D01*
G37*
G36*
G01Y4132D02*
Y4172D01*
X15439D01*
Y4132D01*
X15313D01*
G37*
G36*
G01Y4872D02*
Y4912D01*
X15439D01*
Y4872D01*
X15313D01*
G37*
G36*
G01Y5029D02*
Y5069D01*
X15439D01*
Y5029D01*
X15313D01*
G37*
G36*
G01Y5769D02*
Y5809D01*
X15439D01*
Y5769D01*
X15313D01*
G37*
G36*
G01Y5926D02*
Y5966D01*
X15439D01*
Y5926D01*
X15313D01*
G37*
G36*
G01Y6666D02*
Y6706D01*
X15439D01*
Y6666D01*
X15313D01*
G37*
G36*
G01Y6823D02*
Y6863D01*
X15439D01*
Y6823D01*
X15313D01*
G37*
G36*
G01Y7563D02*
Y7603D01*
X15439D01*
Y7563D01*
X15313D01*
G37*
G36*
G01Y7720D02*
Y7760D01*
X15439D01*
Y7720D01*
X15313D01*
G37*
G36*
G01Y8460D02*
Y8500D01*
X15439D01*
Y8460D01*
X15313D01*
G37*
G36*
G01Y8617D02*
Y8657D01*
X15439D01*
Y8617D01*
X15313D01*
G37*
G36*
G01Y9357D02*
Y9397D01*
X15439D01*
Y9357D01*
X15313D01*
G37*
G36*
G01Y9514D02*
Y9554D01*
X15439D01*
Y9514D01*
X15313D01*
G37*
G36*
G01X15580Y2181D02*
Y2221D01*
X15706D01*
Y2181D01*
X15580D01*
G37*
G36*
G01Y2338D02*
Y2378D01*
X15706D01*
Y2338D01*
X15580D01*
G37*
G36*
G01Y3078D02*
Y3118D01*
X15706D01*
Y3078D01*
X15580D01*
G37*
G36*
G01Y3235D02*
Y3275D01*
X15706D01*
Y3235D01*
X15580D01*
G37*
G36*
G01Y3975D02*
Y4015D01*
X15706D01*
Y3975D01*
X15580D01*
G37*
G36*
G01Y4132D02*
Y4172D01*
X15706D01*
Y4132D01*
X15580D01*
G37*
G36*
G01Y4872D02*
Y4912D01*
X15706D01*
Y4872D01*
X15580D01*
G37*
G36*
G01Y5029D02*
Y5069D01*
X15706D01*
Y5029D01*
X15580D01*
G37*
G36*
G01Y5769D02*
Y5809D01*
X15706D01*
Y5769D01*
X15580D01*
G37*
G36*
G01Y5926D02*
Y5966D01*
X15706D01*
Y5926D01*
X15580D01*
G37*
G36*
G01Y6666D02*
Y6706D01*
X15706D01*
Y6666D01*
X15580D01*
G37*
G36*
G01Y6823D02*
Y6863D01*
X15706D01*
Y6823D01*
X15580D01*
G37*
G36*
G01Y7563D02*
Y7603D01*
X15706D01*
Y7563D01*
X15580D01*
G37*
G36*
G01Y7720D02*
Y7760D01*
X15706D01*
Y7720D01*
X15580D01*
G37*
G36*
G01Y8460D02*
Y8500D01*
X15706D01*
Y8460D01*
X15580D01*
G37*
G36*
G01Y8617D02*
Y8657D01*
X15706D01*
Y8617D01*
X15580D01*
G37*
G36*
G01Y9357D02*
Y9397D01*
X15706D01*
Y9357D01*
X15580D01*
G37*
G36*
G01Y9514D02*
Y9554D01*
X15706D01*
Y9514D01*
X15580D01*
G37*
G36*
G01X16090Y2787D02*
Y2827D01*
X16216D01*
Y2787D01*
X16090D01*
G37*
G36*
G01Y2629D02*
Y2669D01*
X16216D01*
Y2629D01*
X16090D01*
G37*
G36*
G01Y3684D02*
Y3724D01*
X16216D01*
Y3684D01*
X16090D01*
G37*
G36*
G01Y3526D02*
Y3566D01*
X16216D01*
Y3526D01*
X16090D01*
G37*
G36*
G01Y4581D02*
Y4621D01*
X16216D01*
Y4581D01*
X16090D01*
G37*
G36*
G01Y4423D02*
Y4463D01*
X16216D01*
Y4423D01*
X16090D01*
G37*
G36*
G01Y5478D02*
Y5518D01*
X16216D01*
Y5478D01*
X16090D01*
G37*
G36*
G01Y5320D02*
Y5360D01*
X16216D01*
Y5320D01*
X16090D01*
G37*
G36*
G01Y6375D02*
Y6415D01*
X16216D01*
Y6375D01*
X16090D01*
G37*
G36*
G01Y6217D02*
Y6257D01*
X16216D01*
Y6217D01*
X16090D01*
G37*
G36*
G01Y7272D02*
Y7312D01*
X16216D01*
Y7272D01*
X16090D01*
G37*
G36*
G01Y7114D02*
Y7154D01*
X16216D01*
Y7114D01*
X16090D01*
G37*
G36*
G01Y8169D02*
Y8209D01*
X16216D01*
Y8169D01*
X16090D01*
G37*
G36*
G01Y8011D02*
Y8051D01*
X16216D01*
Y8011D01*
X16090D01*
G37*
G36*
G01Y9066D02*
Y9106D01*
X16216D01*
Y9066D01*
X16090D01*
G37*
G36*
G01Y8908D02*
Y8948D01*
X16216D01*
Y8908D01*
X16090D01*
G37*
G36*
G01Y9963D02*
Y10003D01*
X16216D01*
Y9963D01*
X16090D01*
G37*
G36*
G01Y9805D02*
Y9845D01*
X16216D01*
Y9805D01*
X16090D01*
G37*
G36*
G01X16357Y2787D02*
Y2827D01*
X16483D01*
Y2787D01*
X16357D01*
G37*
G36*
G01Y2629D02*
Y2669D01*
X16483D01*
Y2629D01*
X16357D01*
G37*
G36*
G01Y3684D02*
Y3724D01*
X16483D01*
Y3684D01*
X16357D01*
G37*
G36*
G01Y3526D02*
Y3566D01*
X16483D01*
Y3526D01*
X16357D01*
G37*
G36*
G01Y4581D02*
Y4621D01*
X16483D01*
Y4581D01*
X16357D01*
G37*
G36*
G01Y4423D02*
Y4463D01*
X16483D01*
Y4423D01*
X16357D01*
G37*
G36*
G01Y5478D02*
Y5518D01*
X16483D01*
Y5478D01*
X16357D01*
G37*
G36*
G01Y5320D02*
Y5360D01*
X16483D01*
Y5320D01*
X16357D01*
G37*
G36*
G01Y6375D02*
Y6415D01*
X16483D01*
Y6375D01*
X16357D01*
G37*
G36*
G01Y6217D02*
Y6257D01*
X16483D01*
Y6217D01*
X16357D01*
G37*
G36*
G01Y7272D02*
Y7312D01*
X16483D01*
Y7272D01*
X16357D01*
G37*
G36*
G01Y7114D02*
Y7154D01*
X16483D01*
Y7114D01*
X16357D01*
G37*
G36*
G01Y8169D02*
Y8209D01*
X16483D01*
Y8169D01*
X16357D01*
G37*
G36*
G01Y8011D02*
Y8051D01*
X16483D01*
Y8011D01*
X16357D01*
G37*
G36*
G01Y9066D02*
Y9106D01*
X16483D01*
Y9066D01*
X16357D01*
G37*
G36*
G01Y8908D02*
Y8948D01*
X16483D01*
Y8908D01*
X16357D01*
G37*
G36*
G01Y9963D02*
Y10003D01*
X16483D01*
Y9963D01*
X16357D01*
G37*
G36*
G01Y9805D02*
Y9845D01*
X16483D01*
Y9805D01*
X16357D01*
G37*
G54D10*
X550Y3475D03*
Y3775D03*
Y4372D03*
Y4672D03*
Y5269D03*
Y5569D03*
Y6166D03*
Y6466D03*
Y7063D03*
Y7363D03*
Y7960D03*
Y8260D03*
Y8857D03*
Y9157D03*
Y9754D03*
Y10054D03*
Y10651D03*
Y10951D03*
X1327Y3026D03*
Y3327D03*
Y3924D03*
Y4224D03*
Y4820D03*
Y5120D03*
Y5718D03*
Y6018D03*
Y6615D03*
Y6914D03*
Y7512D03*
Y7812D03*
Y8408D03*
Y8708D03*
Y9306D03*
Y9606D03*
Y10202D03*
Y10502D03*
Y11100D03*
Y11400D03*
X2104Y3475D03*
Y3775D03*
Y4372D03*
Y4672D03*
Y5269D03*
Y5569D03*
Y6166D03*
Y6466D03*
Y7063D03*
Y7363D03*
Y7960D03*
Y8260D03*
Y8857D03*
Y9157D03*
Y9754D03*
Y10054D03*
Y10651D03*
Y10951D03*
X2881Y3026D03*
Y3327D03*
Y3924D03*
Y4224D03*
Y4820D03*
Y5120D03*
Y5718D03*
Y6018D03*
Y6615D03*
Y6914D03*
Y7512D03*
Y7812D03*
Y8408D03*
Y8708D03*
Y9306D03*
Y9606D03*
Y10202D03*
Y10502D03*
X3657Y3475D03*
Y3775D03*
Y4372D03*
Y4672D03*
Y5269D03*
Y5569D03*
Y6166D03*
Y6466D03*
Y7063D03*
Y7363D03*
Y7960D03*
Y8260D03*
Y8857D03*
Y9157D03*
Y9754D03*
Y10054D03*
Y10651D03*
Y10951D03*
X4434Y3026D03*
Y3327D03*
Y3924D03*
Y4224D03*
Y4820D03*
Y5120D03*
Y5718D03*
Y6018D03*
Y6615D03*
Y6914D03*
Y7512D03*
Y7812D03*
Y8408D03*
Y8708D03*
Y9306D03*
Y9606D03*
Y10202D03*
Y10502D03*
X5211Y3475D03*
Y3775D03*
Y4372D03*
Y4672D03*
Y5269D03*
Y5569D03*
Y6166D03*
Y6466D03*
Y7063D03*
Y7363D03*
Y7960D03*
Y8260D03*
Y8857D03*
Y9157D03*
Y9754D03*
Y10054D03*
Y10651D03*
Y10951D03*
X5988Y3026D03*
Y3327D03*
Y3924D03*
Y4224D03*
Y4820D03*
Y5120D03*
Y5718D03*
Y6018D03*
Y6615D03*
Y6914D03*
Y7512D03*
Y7812D03*
Y8408D03*
Y8708D03*
Y9306D03*
Y9606D03*
Y10202D03*
Y10502D03*
X6765Y2578D03*
Y2878D03*
Y3475D03*
Y3775D03*
Y4372D03*
Y4672D03*
Y5269D03*
Y5569D03*
Y6166D03*
Y6466D03*
Y7063D03*
Y7363D03*
Y7960D03*
Y8260D03*
Y8857D03*
Y9157D03*
Y9754D03*
Y10054D03*
Y10651D03*
Y10951D03*
X7542Y3026D03*
Y3327D03*
Y3924D03*
Y4224D03*
Y4820D03*
Y5120D03*
Y5718D03*
Y6018D03*
Y6615D03*
Y6914D03*
Y7512D03*
Y7812D03*
Y8408D03*
Y8708D03*
Y9306D03*
Y9606D03*
Y10202D03*
Y10502D03*
X8318Y2578D03*
Y2878D03*
Y3475D03*
Y3775D03*
Y4372D03*
Y4672D03*
Y5269D03*
Y5569D03*
Y6166D03*
Y6466D03*
Y7063D03*
Y7363D03*
Y7960D03*
Y8260D03*
Y8857D03*
Y9157D03*
Y9754D03*
Y10054D03*
X9095Y3026D03*
Y3327D03*
Y3924D03*
Y4224D03*
Y4820D03*
Y5120D03*
Y5718D03*
Y6018D03*
Y6615D03*
Y6914D03*
Y7512D03*
Y7812D03*
Y8408D03*
Y8708D03*
Y9306D03*
Y9606D03*
Y10202D03*
Y10502D03*
X9872Y2578D03*
Y2878D03*
Y3475D03*
Y3775D03*
Y4372D03*
Y4672D03*
Y5269D03*
Y5569D03*
Y6166D03*
Y6466D03*
Y7063D03*
Y7363D03*
Y7960D03*
Y8260D03*
Y8857D03*
Y9157D03*
Y9754D03*
Y10054D03*
X10649Y3026D03*
Y3327D03*
Y3924D03*
Y4224D03*
Y4820D03*
Y5120D03*
Y5718D03*
Y6018D03*
Y6615D03*
Y6914D03*
Y7512D03*
Y7812D03*
Y8408D03*
Y8708D03*
Y9306D03*
Y9606D03*
Y10202D03*
Y10502D03*
X11426Y2578D03*
Y2878D03*
Y3475D03*
Y3775D03*
Y4372D03*
Y4672D03*
Y5269D03*
Y5569D03*
Y6166D03*
Y6466D03*
Y7063D03*
Y7363D03*
Y7960D03*
Y8260D03*
Y8857D03*
Y9157D03*
Y9754D03*
Y10054D03*
X12203Y2130D03*
Y2430D03*
Y3026D03*
Y3327D03*
Y3924D03*
Y4224D03*
Y4820D03*
Y5120D03*
Y5718D03*
Y6018D03*
Y6615D03*
Y6914D03*
Y7512D03*
Y7812D03*
Y8408D03*
Y8708D03*
Y9306D03*
Y9606D03*
Y10202D03*
Y10502D03*
X12980Y2578D03*
Y2878D03*
Y3475D03*
Y3775D03*
Y4372D03*
Y4672D03*
Y5269D03*
Y5569D03*
Y6166D03*
Y6466D03*
Y7063D03*
Y7363D03*
Y7960D03*
Y8260D03*
Y8857D03*
Y9157D03*
Y9754D03*
Y10054D03*
X13756Y2130D03*
Y2430D03*
Y3026D03*
Y3327D03*
Y3924D03*
Y4224D03*
Y4820D03*
Y5120D03*
Y5718D03*
Y6018D03*
Y6615D03*
Y6914D03*
Y7512D03*
Y7812D03*
Y8408D03*
Y8708D03*
Y9306D03*
Y9606D03*
X14533Y2578D03*
Y2878D03*
Y3475D03*
Y3775D03*
Y4372D03*
Y4672D03*
Y5269D03*
Y5569D03*
Y6166D03*
Y6466D03*
Y7063D03*
Y7363D03*
Y7960D03*
Y8260D03*
Y8857D03*
Y9157D03*
Y9754D03*
Y10054D03*
X15310Y2130D03*
Y2430D03*
Y3026D03*
Y3327D03*
Y3924D03*
Y4224D03*
Y4820D03*
Y5120D03*
Y5718D03*
Y6018D03*
Y6615D03*
Y6914D03*
Y7512D03*
Y7812D03*
Y8408D03*
Y8708D03*
Y9306D03*
Y9606D03*
X16087Y2578D03*
Y2878D03*
Y3475D03*
Y3775D03*
Y4372D03*
Y4672D03*
Y5269D03*
Y5569D03*
Y6166D03*
Y6466D03*
Y7063D03*
Y7363D03*
Y7960D03*
Y8260D03*
Y8857D03*
Y9157D03*
Y9754D03*
Y10054D03*
G54D20*
G01X550Y3775D02*
X480Y3705D01*
Y3541D01*
X546Y3475D01*
X550D01*
G01Y4672D02*
X480Y4602D01*
Y4438D01*
X546Y4372D01*
X550D01*
G01Y5569D02*
X480Y5499D01*
Y5335D01*
X546Y5269D01*
X550D01*
G01Y6466D02*
X480Y6396D01*
Y6232D01*
X546Y6166D01*
X550D01*
G01Y7363D02*
X480Y7293D01*
Y7129D01*
X546Y7063D01*
X550D01*
G01Y8260D02*
X480Y8190D01*
Y8026D01*
X546Y7960D01*
X550D01*
G01Y9157D02*
X480Y9087D01*
Y8923D01*
X546Y8857D01*
X550D01*
G01Y10054D02*
X480Y9984D01*
Y9820D01*
X546Y9754D01*
X550D01*
G01Y10951D02*
X480Y10881D01*
Y10717D01*
X546Y10651D01*
X550D01*
G01X926Y3549D02*
X866D01*
G01X857Y3704D02*
Y3767D01*
X848Y3776D01*
G01X926Y4446D02*
X866D01*
G01X857Y4601D02*
Y4664D01*
X848Y4673D01*
G01X926Y5343D02*
X866D01*
G01X857Y5498D02*
Y5561D01*
X848Y5570D01*
G01X926Y6240D02*
X866D01*
G01X857Y6395D02*
Y6458D01*
X848Y6467D01*
G01X926Y7137D02*
X866D01*
G01X857Y7292D02*
Y7355D01*
X848Y7364D01*
G01X926Y8034D02*
X866D01*
G01X857Y8189D02*
Y8252D01*
X848Y8261D01*
G01X926Y8931D02*
X866D01*
G01X857Y9086D02*
Y9149D01*
X848Y9158D01*
G01X926Y9828D02*
X866D01*
G01X857Y9983D02*
Y10046D01*
X848Y10055D01*
G01X857Y10880D02*
Y10943D01*
X848Y10952D01*
G01X926Y10725D02*
X866D01*
G01X950Y10701D02*
X926Y10725D01*
G01X1327Y3327D02*
X1257Y3257D01*
Y3093D01*
X1323Y3026D01*
X1327D01*
G01X1327Y4224D02*
X1257Y4154D01*
Y3990D01*
X1323Y3924D01*
X1327D01*
G01X1327Y5120D02*
X1257Y5051D01*
Y4887D01*
X1323Y4820D01*
X1327D01*
G01X1327Y6018D02*
X1257Y5948D01*
Y5784D01*
X1323Y5718D01*
X1327D01*
G01X1327Y6914D02*
X1257Y6845D01*
Y6681D01*
X1323Y6615D01*
X1327D01*
G01X1327Y7812D02*
X1257Y7742D01*
Y7578D01*
X1323Y7512D01*
X1327D01*
G01X1327Y8708D02*
X1257Y8639D01*
Y8475D01*
X1323Y8408D01*
X1327D01*
G01X1327Y9606D02*
X1257Y9536D01*
Y9372D01*
X1323Y9306D01*
X1327D01*
G01X1327Y10502D02*
X1257Y10433D01*
Y10269D01*
X1323Y10202D01*
X1327D01*
G01X1327Y11400D02*
X1257Y11330D01*
Y11166D01*
X1323Y11100D01*
X1327D01*
G01Y3026D02*
G01Y3924D02*
G01Y4820D02*
G01Y5718D02*
G01Y6615D02*
G01Y7512D02*
G01Y8408D02*
G01Y9306D02*
G01Y10202D02*
G01Y11100D02*
G01X1703Y3101D02*
X1643D01*
G01X1634Y3255D02*
Y3318D01*
X1624Y3328D01*
G01X1703Y3998D02*
X1643D01*
G01X1634Y4152D02*
Y4215D01*
X1624Y4225D01*
G01X1703Y4894D02*
X1643D01*
G01X1634Y5049D02*
Y5112D01*
X1624Y5122D01*
G01X1703Y5792D02*
X1643D01*
G01X1634Y5946D02*
Y6009D01*
X1624Y6019D01*
G01X1703Y6688D02*
X1643D01*
G01X1634Y6843D02*
Y6906D01*
X1624Y6916D01*
G01X1703Y7586D02*
X1643D01*
G01X1634Y7740D02*
Y7803D01*
X1624Y7813D01*
G01X1703Y8482D02*
X1643D01*
G01X1634Y8637D02*
Y8700D01*
X1624Y8710D01*
G01X1703Y9380D02*
X1643D01*
G01X1634Y9534D02*
Y9597D01*
X1624Y9607D01*
G01X1703Y10276D02*
X1643D01*
G01X1634Y10431D02*
Y10494D01*
X1624Y10504D01*
G01X1703Y11174D02*
X1643D01*
G01X1634Y11328D02*
Y11391D01*
X1624Y11401D01*
G01X2104Y3475D02*
G01X2104Y3775D02*
X2034Y3705D01*
Y3541D01*
X2100Y3475D01*
X2104D01*
G01Y4372D02*
G01X2104Y4672D02*
X2034Y4602D01*
Y4438D01*
X2100Y4372D01*
X2104D01*
G01Y5269D02*
G01X2104Y5569D02*
X2034Y5499D01*
Y5335D01*
X2100Y5269D01*
X2104D01*
G01Y6166D02*
G01X2104Y6466D02*
X2034Y6396D01*
Y6232D01*
X2100Y6166D01*
X2104D01*
G01Y7063D02*
G01X2104Y7363D02*
X2034Y7293D01*
Y7129D01*
X2100Y7063D01*
X2104D01*
G01Y7960D02*
G01X2104Y8260D02*
X2034Y8190D01*
Y8026D01*
X2100Y7960D01*
X2104D01*
G01Y8857D02*
G01X2104Y9157D02*
X2034Y9087D01*
Y8923D01*
X2100Y8857D01*
X2104D01*
G01Y9754D02*
G01X2104Y10054D02*
X2034Y9984D01*
Y9820D01*
X2100Y9754D01*
X2104D01*
G01Y10651D02*
G01X2104Y10951D02*
X2034Y10881D01*
Y10717D01*
X2100Y10651D01*
X2104D01*
G01X2480Y3549D02*
X2420D01*
G01X2410Y3704D02*
Y3767D01*
X2401Y3776D01*
G01X2480Y4446D02*
X2420D01*
G01X2410Y4601D02*
Y4664D01*
X2401Y4673D01*
G01X2480Y5343D02*
X2420D01*
G01X2410Y5498D02*
Y5561D01*
X2401Y5570D01*
G01X2480Y6240D02*
X2420D01*
G01X2410Y6395D02*
Y6458D01*
X2401Y6467D01*
G01X2480Y7137D02*
X2420D01*
G01X2410Y7292D02*
Y7355D01*
X2401Y7364D01*
G01X2480Y8034D02*
X2420D01*
G01X2410Y8189D02*
Y8252D01*
X2401Y8261D01*
G01X2480Y8931D02*
X2420D01*
G01X2410Y9086D02*
Y9149D01*
X2401Y9158D01*
G01X2480Y9828D02*
X2420D01*
G01X2410Y9983D02*
Y10046D01*
X2401Y10055D01*
G01X2480Y10725D02*
X2420D01*
G01X2410Y10880D02*
Y10943D01*
X2401Y10952D01*
G01X2881Y3327D02*
X2811Y3257D01*
Y3093D01*
X2877Y3026D01*
X2881D01*
G01X2881Y4224D02*
X2811Y4154D01*
Y3990D01*
X2877Y3924D01*
X2881D01*
G01X2881Y5120D02*
X2811Y5051D01*
Y4887D01*
X2877Y4820D01*
X2881D01*
G01X2881Y6018D02*
X2811Y5948D01*
Y5784D01*
X2877Y5718D01*
X2881D01*
G01X2881Y6914D02*
X2811Y6845D01*
Y6681D01*
X2877Y6615D01*
X2881D01*
G01X2881Y7812D02*
X2811Y7742D01*
Y7578D01*
X2877Y7512D01*
X2881D01*
G01X2881Y8708D02*
X2811Y8639D01*
Y8475D01*
X2877Y8408D01*
X2881D01*
G01X2881Y9606D02*
X2811Y9536D01*
Y9372D01*
X2877Y9306D01*
X2881D01*
G01X2881Y10502D02*
X2811Y10433D01*
Y10269D01*
X2877Y10202D01*
X2881D01*
G01Y3026D02*
G01Y3924D02*
G01Y4820D02*
G01Y5718D02*
G01Y6615D02*
G01Y7512D02*
G01Y8408D02*
G01Y9306D02*
G01Y10202D02*
G01X3257Y3101D02*
X3197D01*
G01X3187Y3255D02*
Y3318D01*
X3178Y3328D01*
G01X3257Y3998D02*
X3197D01*
G01X3187Y4152D02*
Y4215D01*
X3178Y4225D01*
G01X3257Y4894D02*
X3197D01*
G01X3187Y5049D02*
Y5112D01*
X3178Y5122D01*
G01X3257Y5792D02*
X3197D01*
G01X3187Y5946D02*
Y6009D01*
X3178Y6019D01*
G01X3257Y6688D02*
X3197D01*
G01X3187Y6843D02*
Y6906D01*
X3178Y6916D01*
G01X3257Y7586D02*
X3197D01*
G01X3187Y7740D02*
Y7803D01*
X3178Y7813D01*
G01X3257Y8482D02*
X3197D01*
G01X3187Y8637D02*
Y8700D01*
X3178Y8710D01*
G01X3257Y9380D02*
X3197D01*
G01X3187Y9534D02*
Y9597D01*
X3178Y9607D01*
G01X3257Y10276D02*
X3197D01*
G01X3187Y10431D02*
Y10494D01*
X3178Y10504D01*
G01X3657Y3475D02*
G01X3657Y3775D02*
X3587Y3705D01*
Y3541D01*
X3654Y3475D01*
X3657D01*
G01Y4372D02*
G01X3657Y4672D02*
X3587Y4602D01*
Y4438D01*
X3654Y4372D01*
X3657D01*
G01Y5269D02*
G01X3657Y5569D02*
X3587Y5499D01*
Y5335D01*
X3654Y5269D01*
X3657D01*
G01Y6166D02*
G01X3657Y6466D02*
X3587Y6396D01*
Y6232D01*
X3654Y6166D01*
X3657D01*
G01Y7063D02*
G01X3657Y7363D02*
X3587Y7293D01*
Y7129D01*
X3654Y7063D01*
X3657D01*
G01Y7960D02*
G01X3657Y8260D02*
X3587Y8190D01*
Y8026D01*
X3654Y7960D01*
X3657D01*
G01Y8857D02*
G01X3657Y9157D02*
X3587Y9087D01*
Y8923D01*
X3654Y8857D01*
X3657D01*
G01Y9754D02*
G01X3657Y10054D02*
X3587Y9984D01*
Y9820D01*
X3654Y9754D01*
X3657D01*
G01Y10651D02*
G01X3657Y10951D02*
X3587Y10881D01*
Y10717D01*
X3654Y10651D01*
X3657D01*
G01X4033Y3549D02*
X3973D01*
G01X3964Y3704D02*
Y3767D01*
X3955Y3776D01*
G01X4033Y4446D02*
X3973D01*
G01X3964Y4601D02*
Y4664D01*
X3955Y4673D01*
G01X4033Y5343D02*
X3973D01*
G01X3964Y5498D02*
Y5561D01*
X3955Y5570D01*
G01X4033Y6240D02*
X3973D01*
G01X3964Y6395D02*
Y6458D01*
X3955Y6467D01*
G01X4033Y7137D02*
X3973D01*
G01X3964Y7292D02*
Y7355D01*
X3955Y7364D01*
G01X4033Y8034D02*
X3973D01*
G01X3964Y8189D02*
Y8252D01*
X3955Y8261D01*
G01X4033Y8931D02*
X3973D01*
G01X3964Y9086D02*
Y9149D01*
X3955Y9158D01*
G01X4033Y9828D02*
X3973D01*
G01X3964Y9983D02*
Y10046D01*
X3955Y10055D01*
G01X4033Y10725D02*
X3973D01*
G01X3964Y10880D02*
Y10943D01*
X3955Y10952D01*
G01X4434Y3026D02*
G01X4434Y3327D02*
X4364Y3257D01*
Y3093D01*
X4431Y3026D01*
X4434D01*
G01Y3924D02*
G01X4434Y4224D02*
X4364Y4154D01*
Y3990D01*
X4431Y3924D01*
X4434D01*
G01Y4820D02*
G01X4434Y5120D02*
X4364Y5051D01*
Y4887D01*
X4431Y4820D01*
X4434D01*
G01Y5718D02*
G01X4434Y6018D02*
X4364Y5948D01*
Y5784D01*
X4431Y5718D01*
X4434D01*
G01Y6615D02*
G01X4434Y6914D02*
X4364Y6845D01*
Y6681D01*
X4431Y6615D01*
X4434D01*
G01Y7512D02*
G01X4434Y7812D02*
X4364Y7742D01*
Y7578D01*
X4431Y7512D01*
X4434D01*
G01Y8408D02*
G01X4434Y8708D02*
X4364Y8639D01*
Y8475D01*
X4431Y8408D01*
X4434D01*
G01Y9306D02*
G01X4434Y9606D02*
X4364Y9536D01*
Y9372D01*
X4431Y9306D01*
X4434D01*
G01Y10202D02*
G01X4434Y10502D02*
X4364Y10433D01*
Y10269D01*
X4431Y10202D01*
X4434D01*
G01X4810Y3101D02*
X4750D01*
G01X4741Y3255D02*
Y3318D01*
X4732Y3328D01*
G01X4810Y3998D02*
X4750D01*
G01X4741Y4152D02*
Y4215D01*
X4732Y4225D01*
G01X4810Y4894D02*
X4750D01*
G01X4741Y5049D02*
Y5112D01*
X4732Y5122D01*
G01X4810Y5792D02*
X4750D01*
G01X4741Y5946D02*
Y6009D01*
X4732Y6019D01*
G01X4810Y6688D02*
X4750D01*
G01X4741Y6843D02*
Y6906D01*
X4732Y6916D01*
G01X4810Y7586D02*
X4750D01*
G01X4741Y7740D02*
Y7803D01*
X4732Y7813D01*
G01X4810Y8482D02*
X4750D01*
G01X4741Y8637D02*
Y8700D01*
X4732Y8710D01*
G01X4810Y9380D02*
X4750D01*
G01X4741Y9534D02*
Y9597D01*
X4732Y9607D01*
G01X4810Y10276D02*
X4750D01*
G01X4741Y10431D02*
Y10494D01*
X4732Y10504D01*
G01X5211Y3775D02*
X5141Y3705D01*
Y3541D01*
X5208Y3475D01*
X5211D01*
G01X5211Y4672D02*
X5141Y4602D01*
Y4438D01*
X5208Y4372D01*
X5211D01*
G01X5211Y5569D02*
X5141Y5499D01*
Y5335D01*
X5208Y5269D01*
X5211D01*
G01X5211Y6466D02*
X5141Y6396D01*
Y6232D01*
X5208Y6166D01*
X5211D01*
G01X5211Y7363D02*
X5141Y7293D01*
Y7129D01*
X5208Y7063D01*
X5211D01*
G01X5211Y8260D02*
X5141Y8190D01*
Y8026D01*
X5208Y7960D01*
X5211D01*
G01X5211Y9157D02*
X5141Y9087D01*
Y8923D01*
X5208Y8857D01*
X5211D01*
G01X5211Y10054D02*
X5141Y9984D01*
Y9820D01*
X5208Y9754D01*
X5211D01*
G01X5211Y10951D02*
X5141Y10881D01*
Y10717D01*
X5208Y10651D01*
X5211D01*
G01Y3475D02*
G01X5518Y3704D02*
Y3767D01*
X5509Y3776D01*
G01X5211Y4372D02*
G01X5518Y4601D02*
Y4664D01*
X5509Y4673D01*
G01X5211Y5269D02*
G01X5518Y5498D02*
Y5561D01*
X5509Y5570D01*
G01X5211Y6166D02*
G01X5518Y6395D02*
Y6458D01*
X5509Y6467D01*
G01X5211Y7063D02*
G01X5518Y7292D02*
Y7355D01*
X5509Y7364D01*
G01X5211Y7960D02*
G01X5518Y8189D02*
Y8252D01*
X5509Y8261D01*
G01X5211Y8857D02*
G01X5518Y9086D02*
Y9149D01*
X5509Y9158D01*
G01X5211Y9754D02*
G01X5518Y9983D02*
Y10046D01*
X5509Y10055D01*
G01X5211Y10651D02*
G01X5518Y10880D02*
Y10943D01*
X5509Y10952D01*
G01X5587Y3549D02*
X5527D01*
G01X5587Y4446D02*
X5527D01*
G01X5587Y5343D02*
X5527D01*
G01X5587Y6240D02*
X5527D01*
G01X5587Y7137D02*
X5527D01*
G01X5587Y8034D02*
X5527D01*
G01X5587Y8931D02*
X5527D01*
G01X5587Y9828D02*
X5527D01*
G01X5587Y10725D02*
X5527D01*
G01X5526Y11301D02*
Y11241D01*
X5527Y11240D01*
Y11222D01*
X5739Y11010D01*
X5827D01*
G01X5732Y11520D02*
X5731Y11518D01*
X5730Y11478D01*
Y11408D01*
G01D02*
X5574D01*
X5526Y11361D01*
Y11301D01*
G01X6020Y11327D02*
X5708D01*
X5683Y11301D01*
X5601D01*
G01X6020Y11427D02*
X5879D01*
X5861Y11408D01*
X5805D01*
G01X5736Y11854D02*
X5733Y11851D01*
Y11743D01*
G01Y11631D02*
Y11743D01*
G01Y11631D02*
X5732Y11630D01*
Y11520D01*
G01X6020Y11527D02*
X5870D01*
X5863Y11520D01*
X5807D01*
G01X5808Y11631D02*
X5951D01*
X5955Y11627D01*
X6020D01*
G01X5808Y11743D02*
X5939D01*
X5955Y11727D01*
X6020D01*
G01X5988Y3026D02*
G01X5988Y3327D02*
X5918Y3257D01*
Y3093D01*
X5984Y3026D01*
X5988D01*
G01Y3924D02*
G01X5988Y4224D02*
X5918Y4154D01*
Y3990D01*
X5984Y3924D01*
X5988D01*
G01Y4820D02*
G01X5988Y5120D02*
X5918Y5051D01*
Y4887D01*
X5984Y4820D01*
X5988D01*
G01Y5718D02*
G01X5988Y6018D02*
X5918Y5948D01*
Y5784D01*
X5984Y5718D01*
X5988D01*
G01Y6615D02*
G01X5988Y6914D02*
X5918Y6845D01*
Y6681D01*
X5984Y6615D01*
X5988D01*
G01Y7512D02*
G01X5988Y7812D02*
X5918Y7742D01*
Y7578D01*
X5984Y7512D01*
X5988D01*
G01Y8408D02*
G01X5988Y8708D02*
X5918Y8639D01*
Y8475D01*
X5984Y8408D01*
X5988D01*
G01Y9306D02*
G01X5988Y9606D02*
X5918Y9536D01*
Y9372D01*
X5984Y9306D01*
X5988D01*
G01Y10202D02*
G01X5988Y10502D02*
X5918Y10433D01*
Y10269D01*
X5984Y10202D01*
X5988D01*
G01X6047Y10916D02*
X5991D01*
X5978Y10903D01*
X5850D01*
X5827Y10925D01*
Y11010D01*
G01X7044Y11191D02*
Y11132D01*
X6990Y11078D01*
X6629D01*
X6365Y10815D01*
X6088D01*
X6047Y10856D01*
Y10916D01*
G01X6020Y11127D02*
X6122Y11025D01*
Y10916D01*
G01X5902Y11010D02*
Y11213D01*
X5922Y11233D01*
X5949D01*
X5955Y11227D01*
X6020D01*
G01X6896Y11484D02*
X6606D01*
X6249Y11127D01*
X6020D01*
G01X6896Y11634D02*
X6394D01*
X6187Y11427D01*
X6020D01*
G01X6896Y11584D02*
X6448D01*
X6191Y11327D01*
X6020D01*
G01X6896Y11534D02*
X6526D01*
X6219Y11227D01*
X6020D01*
G01X7119Y11584D02*
X7352D01*
X7395Y11628D01*
Y11821D01*
X7392Y11825D01*
X6366D01*
X6167Y11627D01*
X6020D01*
G01Y11727D02*
X6183D01*
X6322Y11865D01*
X7479D01*
X7533Y11811D01*
Y11584D01*
X7483Y11534D01*
X7119D01*
G01X6020Y11527D02*
X6164D01*
X6423Y11785D01*
X7307D01*
X7334Y11758D01*
Y11658D01*
X7310Y11634D01*
X7119D01*
G01X5811Y11854D02*
X5928D01*
X5955Y11827D01*
X6020D01*
G01D02*
X6173D01*
X6252Y11905D01*
X7631D01*
X7671Y11865D01*
Y11559D01*
X7596Y11484D01*
X7119D01*
G01X6364Y3101D02*
X6304D01*
G01X6295Y3255D02*
Y3318D01*
X6286Y3328D01*
G01X6364Y3998D02*
X6304D01*
G01X6295Y4152D02*
Y4215D01*
X6286Y4225D01*
G01X6364Y4894D02*
X6304D01*
G01X6295Y5049D02*
Y5112D01*
X6286Y5122D01*
G01X6364Y5792D02*
X6304D01*
G01X6295Y5946D02*
Y6009D01*
X6286Y6019D01*
G01X6364Y6688D02*
X6304D01*
G01X6295Y6843D02*
Y6906D01*
X6286Y6916D01*
G01X6364Y7586D02*
X6304D01*
G01X6295Y7740D02*
Y7803D01*
X6286Y7813D01*
G01X6364Y8482D02*
X6304D01*
G01X6295Y8637D02*
Y8700D01*
X6286Y8710D01*
G01X6364Y9380D02*
X6304D01*
G01X6295Y9534D02*
Y9597D01*
X6286Y9607D01*
G01X6364Y10276D02*
X6304D01*
G01X6295Y10431D02*
Y10494D01*
X6286Y10504D01*
G01X6765Y2878D02*
X6695Y2808D01*
Y2644D01*
X6761Y2578D01*
X6765D01*
G01X6765Y3775D02*
X6695Y3705D01*
Y3541D01*
X6761Y3475D01*
X6765D01*
G01X6765Y4672D02*
X6695Y4602D01*
Y4438D01*
X6761Y4372D01*
X6765D01*
G01X6765Y5569D02*
X6695Y5499D01*
Y5335D01*
X6761Y5269D01*
X6765D01*
G01X6765Y6466D02*
X6695Y6396D01*
Y6232D01*
X6761Y6166D01*
X6765D01*
G01X6765Y7363D02*
X6695Y7293D01*
Y7129D01*
X6761Y7063D01*
X6765D01*
G01X6765Y8260D02*
X6695Y8190D01*
Y8026D01*
X6761Y7960D01*
X6765D01*
G01X6765Y9157D02*
X6695Y9087D01*
Y8923D01*
X6761Y8857D01*
X6765D01*
G01X6765Y10054D02*
X6695Y9984D01*
Y9820D01*
X6761Y9754D01*
X6765D01*
G01X6765Y10951D02*
X6695Y10881D01*
Y10717D01*
X6761Y10651D01*
X6765D01*
G01X6896Y11384D02*
X6621D01*
G01X6896Y11734D02*
X6543D01*
X6517Y11708D01*
G01X6896Y11684D02*
X6693D01*
G01X6765Y2578D02*
G01Y3475D02*
G01Y4372D02*
G01Y5269D02*
G01Y6166D02*
G01Y7063D02*
G01Y7960D02*
G01Y8857D02*
G01Y9754D02*
G01Y10651D02*
G01X6896Y11384D02*
Y11268D01*
X6969Y11195D01*
Y11191D01*
G01X7044D02*
Y11251D01*
X6995Y11300D01*
Y11674D01*
X7054Y11734D01*
X7119D01*
G01X7141Y2652D02*
X7081D01*
G01X7072Y2807D02*
Y2870D01*
X7062Y2879D01*
G01X7141Y3549D02*
X7081D01*
G01X7072Y3704D02*
Y3767D01*
X7062Y3776D01*
G01X7141Y4446D02*
X7081D01*
G01X7072Y4601D02*
Y4664D01*
X7062Y4673D01*
G01X7141Y5343D02*
X7081D01*
G01X7072Y5498D02*
Y5561D01*
X7062Y5570D01*
G01X7141Y6240D02*
X7081D01*
G01X7072Y6395D02*
Y6458D01*
X7062Y6467D01*
G01X7141Y7137D02*
X7081D01*
G01X7072Y7292D02*
Y7355D01*
X7062Y7364D01*
G01X7141Y8034D02*
X7081D01*
G01X7072Y8189D02*
Y8252D01*
X7062Y8261D01*
G01X7141Y8931D02*
X7081D01*
G01X7072Y9086D02*
Y9149D01*
X7062Y9158D01*
G01X7141Y9828D02*
X7081D01*
G01X7072Y9983D02*
Y10046D01*
X7062Y10055D01*
G01X7141Y10725D02*
X7081D01*
G01X7072Y10880D02*
Y10943D01*
X7062Y10952D01*
G01X7044Y11191D02*
X7799D01*
X7861Y11254D01*
Y11809D01*
G01X7119Y11434D02*
X7080D01*
X7040Y11394D01*
Y11373D01*
X7139Y11274D01*
X7724D01*
X7787Y11337D01*
Y11809D01*
G01X17637Y10877D02*
X17320D01*
X16255Y11942D01*
X7741D01*
X7715Y11916D01*
Y11497D01*
X7602Y11384D01*
X7119D01*
G01Y11684D02*
X7237D01*
X7270Y11717D01*
G01X7542Y3026D02*
G01X7542Y3327D02*
X7472Y3257D01*
Y3093D01*
X7538Y3026D01*
X7542D01*
G01Y3924D02*
G01X7542Y4224D02*
X7472Y4154D01*
Y3990D01*
X7538Y3924D01*
X7542D01*
G01Y4820D02*
G01X7542Y5120D02*
X7472Y5051D01*
Y4887D01*
X7538Y4820D01*
X7542D01*
G01Y5718D02*
G01X7542Y6018D02*
X7472Y5948D01*
Y5784D01*
X7538Y5718D01*
X7542D01*
G01Y6615D02*
G01X7542Y6914D02*
X7472Y6845D01*
Y6681D01*
X7538Y6615D01*
X7542D01*
G01Y7512D02*
G01X7542Y7812D02*
X7472Y7742D01*
Y7578D01*
X7538Y7512D01*
X7542D01*
G01Y8408D02*
G01X7542Y8708D02*
X7472Y8639D01*
Y8475D01*
X7538Y8408D01*
X7542D01*
G01Y9306D02*
G01X7542Y9606D02*
X7472Y9536D01*
Y9372D01*
X7538Y9306D01*
X7542D01*
G01Y10202D02*
G01X7542Y10502D02*
X7472Y10433D01*
Y10269D01*
X7538Y10202D01*
X7542D01*
G01X7918Y3101D02*
X7858D01*
G01X7848Y3255D02*
Y3318D01*
X7839Y3328D01*
G01X7918Y3998D02*
X7858D01*
G01X7848Y4152D02*
Y4215D01*
X7839Y4225D01*
G01X7918Y4894D02*
X7858D01*
G01X7848Y5049D02*
Y5112D01*
X7839Y5122D01*
G01X7918Y5792D02*
X7858D01*
G01X7848Y5946D02*
Y6009D01*
X7839Y6019D01*
G01X7918Y6688D02*
X7858D01*
G01X7848Y6843D02*
Y6906D01*
X7839Y6916D01*
G01X7918Y7586D02*
X7858D01*
G01X7848Y7740D02*
Y7803D01*
X7839Y7813D01*
G01X7918Y8482D02*
X7858D01*
G01X7848Y8637D02*
Y8700D01*
X7839Y8710D01*
G01X7918Y9380D02*
X7858D01*
G01X7848Y9534D02*
Y9597D01*
X7839Y9607D01*
G01X7918Y10276D02*
X7858D01*
G01X7848Y10431D02*
Y10494D01*
X7839Y10504D01*
G01X15327Y10955D02*
Y11559D01*
X14990Y11895D01*
X7814D01*
X7787Y11868D01*
Y11809D01*
G01X7861D02*
X12091D01*
X12149Y11750D01*
X12205D01*
G01X8318Y2578D02*
X8319D01*
G01Y2878D02*
X8249Y2808D01*
Y2644D01*
X8315Y2578D01*
X8318D01*
G01Y3475D02*
X8319D01*
G01Y3775D02*
X8249Y3705D01*
Y3541D01*
X8315Y3475D01*
X8318D01*
G01Y4372D02*
X8319D01*
G01Y4672D02*
X8249Y4602D01*
Y4438D01*
X8315Y4372D01*
X8318D01*
G01Y5269D02*
X8319D01*
G01Y5569D02*
X8249Y5499D01*
Y5335D01*
X8315Y5269D01*
X8318D01*
G01Y6166D02*
X8319D01*
G01Y6466D02*
X8249Y6396D01*
Y6232D01*
X8315Y6166D01*
X8318D01*
G01Y7063D02*
X8319D01*
G01Y7363D02*
X8249Y7293D01*
Y7129D01*
X8315Y7063D01*
X8318D01*
G01Y7960D02*
X8319D01*
G01Y8260D02*
X8249Y8190D01*
Y8026D01*
X8315Y7960D01*
X8318D01*
G01Y8857D02*
X8319D01*
G01Y9157D02*
X8249Y9087D01*
Y8923D01*
X8315Y8857D01*
X8318D01*
G01Y9754D02*
X8319D01*
G01Y10054D02*
X8249Y9984D01*
Y9820D01*
X8315Y9754D01*
X8318D01*
G01X8695Y2652D02*
X8635D01*
G01X8625Y2807D02*
Y2870D01*
X8616Y2879D01*
G01X8695Y3549D02*
X8635D01*
G01X8625Y3704D02*
Y3767D01*
X8616Y3776D01*
G01X8695Y4446D02*
X8635D01*
G01X8625Y4601D02*
Y4664D01*
X8616Y4673D01*
G01X8695Y5343D02*
X8635D01*
G01X8625Y5498D02*
Y5561D01*
X8616Y5570D01*
G01X8695Y6240D02*
X8635D01*
G01X8625Y6395D02*
Y6458D01*
X8616Y6467D01*
G01X8695Y7137D02*
X8635D01*
G01X8625Y7292D02*
Y7355D01*
X8616Y7364D01*
G01X8695Y8034D02*
X8635D01*
G01X8625Y8189D02*
Y8252D01*
X8616Y8261D01*
G01X8695Y8931D02*
X8635D01*
G01X8625Y9086D02*
Y9149D01*
X8616Y9158D01*
G01X8695Y9828D02*
X8635D01*
G01X8625Y9983D02*
Y10046D01*
X8616Y10055D01*
G01X9095Y3026D02*
G01X9095Y3327D02*
X9026Y3257D01*
Y3093D01*
X9092Y3026D01*
X9095D01*
G01Y3924D02*
G01X9095Y4224D02*
X9026Y4154D01*
Y3990D01*
X9092Y3924D01*
X9095D01*
G01Y4820D02*
G01X9095Y5120D02*
X9026Y5051D01*
Y4887D01*
X9092Y4820D01*
X9095D01*
G01Y5718D02*
G01X9095Y6018D02*
X9026Y5948D01*
Y5784D01*
X9092Y5718D01*
X9095D01*
G01Y6615D02*
G01X9095Y6914D02*
X9026Y6845D01*
Y6681D01*
X9092Y6615D01*
X9095D01*
G01Y7512D02*
G01X9095Y7812D02*
X9026Y7742D01*
Y7578D01*
X9092Y7512D01*
X9095D01*
G01X9095Y8708D02*
X9026Y8639D01*
Y8475D01*
X9092Y8408D01*
X9095D01*
G01D02*
G01Y9306D02*
G01X9095Y9606D02*
X9026Y9536D01*
Y9372D01*
X9092Y9306D01*
X9095D01*
G01Y10202D02*
G01X9095Y10502D02*
X9026Y10433D01*
Y10269D01*
X9092Y10202D01*
X9095D01*
G01X9402Y3255D02*
Y3318D01*
X9393Y3328D01*
G01X9402Y4152D02*
Y4215D01*
X9393Y4225D01*
G01X9402Y5049D02*
Y5112D01*
X9393Y5122D01*
G01X9402Y5946D02*
Y6009D01*
X9393Y6019D01*
G01X9402Y6843D02*
Y6906D01*
X9393Y6916D01*
G01X9402Y7740D02*
Y7803D01*
X9393Y7813D01*
G01X9402Y8637D02*
Y8700D01*
X9393Y8710D01*
G01X9402Y9534D02*
Y9597D01*
X9393Y9607D01*
G01X9402Y10431D02*
Y10494D01*
X9393Y10504D01*
G01X9471Y3101D02*
X9411D01*
G01X9471Y3998D02*
X9411D01*
G01X9471Y4894D02*
X9411D01*
G01X9471Y5792D02*
X9411D01*
G01X9471Y6688D02*
X9411D01*
G01X9471Y7586D02*
X9411D01*
G01X9471Y8482D02*
X9411D01*
G01X9471Y9380D02*
X9411D01*
G01X9471Y10276D02*
X9411D01*
G01X9872Y2578D02*
G01X9872Y2878D02*
X9802Y2808D01*
Y2644D01*
X9869Y2578D01*
X9872D01*
G01Y3475D02*
G01X9872Y3775D02*
X9802Y3705D01*
Y3541D01*
X9869Y3475D01*
X9872D01*
G01Y4372D02*
G01X9872Y4672D02*
X9802Y4602D01*
Y4438D01*
X9869Y4372D01*
X9872D01*
G01Y5269D02*
G01X9872Y5569D02*
X9802Y5499D01*
Y5335D01*
X9869Y5269D01*
X9872D01*
G01Y6166D02*
G01X9872Y6466D02*
X9802Y6396D01*
Y6232D01*
X9869Y6166D01*
X9872D01*
G01Y7063D02*
G01X9872Y7363D02*
X9802Y7293D01*
Y7129D01*
X9869Y7063D01*
X9872D01*
G01Y7960D02*
G01X9872Y8260D02*
X9802Y8190D01*
Y8026D01*
X9869Y7960D01*
X9872D01*
G01Y8857D02*
G01X9872Y9157D02*
X9802Y9087D01*
Y8923D01*
X9869Y8857D01*
X9872D01*
G01Y9754D02*
G01X9872Y10054D02*
X9802Y9984D01*
Y9820D01*
X9869Y9754D01*
X9872D01*
G01X10248Y2652D02*
X10188D01*
G01X10179Y2807D02*
Y2870D01*
X10170Y2879D01*
G01X10248Y3549D02*
X10188D01*
G01X10179Y3704D02*
Y3767D01*
X10170Y3776D01*
G01X10248Y4446D02*
X10188D01*
G01X10179Y4601D02*
Y4664D01*
X10170Y4673D01*
G01X10248Y5343D02*
X10188D01*
G01X10179Y5498D02*
Y5561D01*
X10170Y5570D01*
G01X10248Y6240D02*
X10188D01*
G01X10179Y6395D02*
Y6458D01*
X10170Y6467D01*
G01X10248Y7137D02*
X10188D01*
G01X10179Y7292D02*
Y7355D01*
X10170Y7364D01*
G01X10248Y8034D02*
X10188D01*
G01X10179Y8189D02*
Y8252D01*
X10170Y8261D01*
G01X10248Y8931D02*
X10188D01*
G01X10179Y9086D02*
Y9149D01*
X10170Y9158D01*
G01X10248Y9828D02*
X10188D01*
G01X10179Y9983D02*
Y10046D01*
X10170Y10055D01*
G01X10649Y3327D02*
X10579Y3257D01*
Y3093D01*
X10646Y3026D01*
X10649D01*
G01X10649Y4224D02*
X10579Y4154D01*
Y3990D01*
X10646Y3924D01*
X10649D01*
G01X10649Y5120D02*
X10579Y5051D01*
Y4887D01*
X10646Y4820D01*
X10649D01*
G01X10649Y6018D02*
X10579Y5948D01*
Y5784D01*
X10646Y5718D01*
X10649D01*
G01X10649Y6914D02*
X10579Y6845D01*
Y6681D01*
X10646Y6615D01*
X10649D01*
G01X10649Y7812D02*
X10579Y7742D01*
Y7578D01*
X10646Y7512D01*
X10649D01*
G01X10649Y8708D02*
X10579Y8639D01*
Y8475D01*
X10646Y8408D01*
X10649D01*
G01X10649Y9606D02*
X10579Y9536D01*
Y9372D01*
X10646Y9306D01*
X10649D01*
G01X10649Y10502D02*
X10579Y10433D01*
Y10269D01*
X10646Y10202D01*
X10649D01*
G01Y3026D02*
G01Y3924D02*
G01Y4820D02*
G01Y5718D02*
G01Y6615D02*
G01Y7512D02*
G01Y8408D02*
G01Y9306D02*
G01Y10202D02*
G01X11025Y3101D02*
X10965D01*
G01X10956Y3255D02*
Y3318D01*
X10947Y3328D01*
G01X11025Y3998D02*
X10965D01*
G01X10956Y4152D02*
Y4215D01*
X10947Y4225D01*
G01X11025Y4894D02*
X10965D01*
G01X10956Y5049D02*
Y5112D01*
X10947Y5122D01*
G01X11025Y5792D02*
X10965D01*
G01X10956Y5946D02*
Y6009D01*
X10947Y6019D01*
G01X11025Y6688D02*
X10965D01*
G01X10956Y6843D02*
Y6906D01*
X10947Y6916D01*
G01X11025Y7586D02*
X10965D01*
G01X10956Y7740D02*
Y7803D01*
X10947Y7813D01*
G01X11025Y8482D02*
X10965D01*
G01X10956Y8637D02*
Y8700D01*
X10947Y8710D01*
G01X11025Y9380D02*
X10965D01*
G01X10956Y9534D02*
Y9597D01*
X10947Y9607D01*
G01X11025Y10276D02*
X10965D01*
G01X10956Y10431D02*
Y10494D01*
X10947Y10504D01*
G01X11426Y2578D02*
G01X11426Y2878D02*
X11356Y2808D01*
Y2644D01*
X11422Y2578D01*
X11426D01*
G01Y3475D02*
G01X11426Y3775D02*
X11356Y3705D01*
Y3541D01*
X11422Y3475D01*
X11426D01*
G01Y4372D02*
G01X11426Y4672D02*
X11356Y4602D01*
Y4438D01*
X11422Y4372D01*
X11426D01*
G01Y5269D02*
G01X11426Y5569D02*
X11356Y5499D01*
Y5335D01*
X11422Y5269D01*
X11426D01*
G01Y6166D02*
G01X11426Y6466D02*
X11356Y6396D01*
Y6232D01*
X11422Y6166D01*
X11426D01*
G01Y7063D02*
G01X11426Y7363D02*
X11356Y7293D01*
Y7129D01*
X11422Y7063D01*
X11426D01*
G01Y7960D02*
G01X11426Y8260D02*
X11356Y8190D01*
Y8026D01*
X11422Y7960D01*
X11426D01*
G01Y8857D02*
G01X11426Y9157D02*
X11356Y9087D01*
Y8923D01*
X11422Y8857D01*
X11426D01*
G01X11426Y10054D02*
X11356Y9984D01*
Y9820D01*
X11422Y9754D01*
X11426D01*
G01D02*
G01X11802Y2652D02*
X11742D01*
G01X11733Y2807D02*
Y2870D01*
X11724Y2879D01*
G01X11802Y3549D02*
X11742D01*
G01X11733Y3704D02*
Y3767D01*
X11724Y3776D01*
G01X11802Y4446D02*
X11742D01*
G01X11733Y4601D02*
Y4664D01*
X11724Y4673D01*
G01X11802Y5343D02*
X11742D01*
G01X11733Y5498D02*
Y5561D01*
X11724Y5570D01*
G01X11802Y6240D02*
X11742D01*
G01X11733Y6395D02*
Y6458D01*
X11724Y6467D01*
G01X11802Y7137D02*
X11742D01*
G01X11733Y7292D02*
Y7355D01*
X11724Y7364D01*
G01X11802Y8034D02*
X11742D01*
G01X11733Y8189D02*
Y8252D01*
X11724Y8261D01*
G01X11802Y8931D02*
X11742D01*
G01X11733Y9086D02*
Y9149D01*
X11724Y9158D01*
G01X11733Y9983D02*
Y10046D01*
X11724Y10055D01*
G01X11802Y9828D02*
X11742D01*
G01X12203Y2130D02*
G01X12203Y2430D02*
X12133Y2360D01*
Y2196D01*
X12199Y2130D01*
X12203D01*
G01Y3026D02*
G01X12203Y3327D02*
X12133Y3257D01*
Y3093D01*
X12199Y3026D01*
X12203D01*
G01Y3924D02*
G01X12203Y4224D02*
X12133Y4154D01*
Y3990D01*
X12199Y3924D01*
X12203D01*
G01Y4820D02*
G01X12203Y5120D02*
X12133Y5051D01*
Y4887D01*
X12199Y4820D01*
X12203D01*
G01Y5718D02*
G01X12203Y6018D02*
X12133Y5948D01*
Y5784D01*
X12199Y5718D01*
X12203D01*
G01Y6615D02*
G01X12203Y6914D02*
X12133Y6845D01*
Y6681D01*
X12199Y6615D01*
X12203D01*
G01Y7512D02*
G01X12203Y7812D02*
X12133Y7742D01*
Y7578D01*
X12199Y7512D01*
X12203D01*
G01Y8408D02*
G01X12203Y8708D02*
X12133Y8639D01*
Y8475D01*
X12199Y8408D01*
X12203D01*
G01Y9306D02*
G01X12203Y9606D02*
X12133Y9536D01*
Y9372D01*
X12199Y9306D01*
X12203D01*
G01Y10202D02*
G01X12203Y10502D02*
X12133Y10433D01*
Y10269D01*
X12199Y10202D01*
X12203D01*
G01X12267Y10750D02*
X12445D01*
X12602Y10907D01*
G01X12262Y10893D02*
X12488D01*
X12602Y11007D01*
G01X13886Y10647D02*
X12236D01*
X12192Y10690D01*
Y10750D01*
G01X12187Y10893D02*
Y11031D01*
G01X12192Y10750D02*
Y10828D01*
X12187Y10833D01*
Y10893D01*
G01X12262Y11031D02*
X12526D01*
X12602Y11107D01*
G01X12257Y11163D02*
X12493D01*
X12537Y11207D01*
X12602D01*
G01X12187Y11296D02*
Y11228D01*
X12182Y11223D01*
Y11163D01*
G01X12187Y11031D02*
Y11099D01*
X12182Y11104D01*
Y11163D01*
G01X12262Y11296D02*
X12526D01*
X12537Y11307D01*
X12602D01*
G01Y11407D02*
X12537D01*
X12533Y11403D01*
X12430D01*
X12372Y11462D01*
X12270D01*
G01X12195Y11605D02*
Y11462D01*
G01D02*
Y11363D01*
X12187Y11355D01*
Y11296D01*
G01X12602Y11507D02*
X12537D01*
X12527Y11518D01*
X12474D01*
X12387Y11605D01*
X12270D01*
G01X12280Y11750D02*
X12459D01*
X12602Y11607D01*
G01X12205Y11750D02*
Y11674D01*
X12195Y11664D01*
Y11605D01*
G01X12579Y2204D02*
X12519D01*
G01X12510Y2358D02*
Y2421D01*
X12500Y2431D01*
G01X12579Y3101D02*
X12519D01*
G01X12510Y3255D02*
Y3318D01*
X12500Y3328D01*
G01X12579Y3998D02*
X12519D01*
G01X12510Y4152D02*
Y4215D01*
X12500Y4225D01*
G01X12579Y4894D02*
X12519D01*
G01X12510Y5049D02*
Y5112D01*
X12500Y5122D01*
G01X12579Y5792D02*
X12519D01*
G01X12510Y5946D02*
Y6009D01*
X12500Y6019D01*
G01X12579Y6688D02*
X12519D01*
G01X12510Y6843D02*
Y6906D01*
X12500Y6916D01*
G01X12579Y7586D02*
X12519D01*
G01X12510Y7740D02*
Y7803D01*
X12500Y7813D01*
G01X12579Y8482D02*
X12519D01*
G01X12510Y8637D02*
Y8700D01*
X12500Y8710D01*
G01X12579Y9380D02*
X12519D01*
G01X12510Y9534D02*
Y9597D01*
X12500Y9607D01*
G01X12579Y10276D02*
X12519D01*
G01X12510Y10431D02*
Y10494D01*
X12500Y10504D01*
G01X14200Y11098D02*
X13848D01*
X13657Y10907D01*
X12602D01*
G01X14200Y11248D02*
X13567D01*
X13474Y11156D01*
X12758D01*
X12706Y11207D01*
X12602D01*
G01X14200Y11198D02*
X13630D01*
X13538Y11107D01*
X12602D01*
G01X14200Y11148D02*
X13753D01*
X13612Y11007D01*
X12602D01*
G01Y11507D02*
X13193D01*
X13253Y11567D01*
X14754D01*
X14832Y11490D01*
Y11273D01*
X14706Y11148D01*
X14488D01*
X14423Y11148D01*
G01Y11198D02*
X14700D01*
X14770Y11269D01*
Y11459D01*
X14714Y11515D01*
X13357D01*
X13249Y11407D01*
X12602D01*
G01Y11307D02*
X12669D01*
X12724Y11362D01*
X13306D01*
X13413Y11469D01*
X14648D01*
X14712Y11406D01*
Y11280D01*
X14680Y11248D01*
X14423D01*
G01X12602Y11607D02*
X14801D01*
X14883Y11526D01*
Y11268D01*
X14713Y11098D01*
X14423D01*
G01X12980Y2578D02*
G01X12980Y2878D02*
X12910Y2808D01*
Y2644D01*
X12976Y2578D01*
X12980D01*
G01Y3475D02*
G01X12980Y3775D02*
X12910Y3705D01*
Y3541D01*
X12976Y3475D01*
X12980D01*
G01Y4372D02*
G01X12980Y4672D02*
X12910Y4602D01*
Y4438D01*
X12976Y4372D01*
X12980D01*
G01Y5269D02*
G01X12980Y5569D02*
X12910Y5499D01*
Y5335D01*
X12976Y5269D01*
X12980D01*
G01Y6166D02*
G01X12980Y6466D02*
X12910Y6396D01*
Y6232D01*
X12976Y6166D01*
X12980D01*
G01Y7063D02*
G01X12980Y7363D02*
X12910Y7293D01*
Y7129D01*
X12976Y7063D01*
X12980D01*
G01Y7960D02*
G01X12980Y8260D02*
X12910Y8190D01*
Y8026D01*
X12976Y7960D01*
X12980D01*
G01Y8857D02*
G01X12980Y9157D02*
X12910Y9087D01*
Y8923D01*
X12976Y8857D01*
X12980D01*
G01Y9754D02*
G01X12980Y10054D02*
X12910Y9984D01*
Y9820D01*
X12976Y9754D01*
X12980D01*
G01X13356Y2652D02*
X13296D01*
G01X13286Y2807D02*
Y2870D01*
X13277Y2879D01*
G01X13356Y3549D02*
X13296D01*
G01X13286Y3704D02*
Y3767D01*
X13277Y3776D01*
G01X13356Y4446D02*
X13296D01*
G01X13286Y4601D02*
Y4664D01*
X13277Y4673D01*
G01X13356Y5343D02*
X13296D01*
G01X13286Y5498D02*
Y5561D01*
X13277Y5570D01*
G01X13356Y6240D02*
X13296D01*
G01X13286Y6395D02*
Y6458D01*
X13277Y6467D01*
G01X13356Y7137D02*
X13296D01*
G01X13286Y7292D02*
Y7355D01*
X13277Y7364D01*
G01X13356Y8034D02*
X13296D01*
G01X13286Y8189D02*
Y8252D01*
X13277Y8261D01*
G01X13356Y8931D02*
X13296D01*
G01X13286Y9086D02*
Y9149D01*
X13277Y9158D01*
G01X13356Y9828D02*
X13296D01*
G01X13286Y9983D02*
Y10046D01*
X13277Y10055D01*
G01X13756Y2130D02*
X13757D01*
G01Y2430D02*
X13687Y2360D01*
Y2196D01*
X13753Y2130D01*
X13756D01*
G01Y3026D02*
X13757D01*
G01Y3327D02*
X13687Y3257D01*
Y3093D01*
X13753Y3026D01*
X13756D01*
G01Y3924D02*
X13757D01*
G01Y4224D02*
X13687Y4154D01*
Y3990D01*
X13753Y3924D01*
X13756D01*
G01Y4820D02*
X13757D01*
G01Y5120D02*
X13687Y5051D01*
Y4887D01*
X13753Y4820D01*
X13756D01*
G01Y5718D02*
X13757D01*
G01Y6018D02*
X13687Y5948D01*
Y5784D01*
X13753Y5718D01*
X13756D01*
G01Y6615D02*
X13757D01*
G01Y6914D02*
X13687Y6845D01*
Y6681D01*
X13753Y6615D01*
X13756D01*
G01Y7512D02*
X13757D01*
G01Y7812D02*
X13687Y7742D01*
Y7578D01*
X13753Y7512D01*
X13756D01*
G01Y8408D02*
X13757D01*
G01Y8708D02*
X13687Y8639D01*
Y8475D01*
X13753Y8408D01*
X13756D01*
G01Y9306D02*
X13757D01*
G01Y9606D02*
X13687Y9536D01*
Y9372D01*
X13753Y9306D01*
X13756D01*
G01X13886Y10647D02*
X14657D01*
G01X13889Y10926D02*
Y10650D01*
X13886Y10647D01*
G01X14133Y2204D02*
X14073D01*
G01X14063Y2358D02*
Y2421D01*
X14054Y2431D01*
G01X14133Y3101D02*
X14073D01*
G01X14063Y3255D02*
Y3318D01*
X14054Y3328D01*
G01X14133Y3998D02*
X14073D01*
G01X14063Y4152D02*
Y4215D01*
X14054Y4225D01*
G01X14133Y4894D02*
X14073D01*
G01X14063Y5049D02*
Y5112D01*
X14054Y5122D01*
G01X14133Y5792D02*
X14073D01*
G01X14063Y5946D02*
Y6009D01*
X14054Y6019D01*
G01X14133Y6688D02*
X14073D01*
G01X14063Y6843D02*
Y6906D01*
X14054Y6916D01*
G01X14133Y7586D02*
X14073D01*
G01X14063Y7740D02*
Y7803D01*
X14054Y7813D01*
G01X14133Y8482D02*
X14073D01*
G01X14063Y8637D02*
Y8700D01*
X14054Y8710D01*
G01X14133Y9380D02*
X14073D01*
G01X14063Y9534D02*
Y9597D01*
X14054Y9607D01*
G01X14200Y10998D02*
X14223D01*
G01X13964Y10926D02*
X14003D01*
X14079Y11002D01*
G01D02*
X14131D01*
X14135Y10998D01*
X14200D01*
G01Y11298D02*
X13985D01*
X13923Y11360D01*
G01X14020Y11393D02*
X14079D01*
X14123Y11348D01*
X14200D01*
G01X14533Y2878D02*
X14464Y2808D01*
Y2644D01*
X14530Y2578D01*
X14533D01*
G01X14533Y3775D02*
X14464Y3705D01*
Y3541D01*
X14530Y3475D01*
X14533D01*
G01X14533Y4672D02*
X14464Y4602D01*
Y4438D01*
X14530Y4372D01*
X14533D01*
G01X14533Y5569D02*
X14464Y5499D01*
Y5335D01*
X14530Y5269D01*
X14533D01*
G01X14533Y6466D02*
X14464Y6396D01*
Y6232D01*
X14530Y6166D01*
X14533D01*
G01X14533Y7363D02*
X14464Y7293D01*
Y7129D01*
X14530Y7063D01*
X14533D01*
G01X14533Y8260D02*
X14464Y8190D01*
Y8026D01*
X14530Y7960D01*
X14533D01*
G01X14533Y9157D02*
X14464Y9087D01*
Y8923D01*
X14530Y8857D01*
X14533D01*
G01X14533Y10054D02*
X14464Y9984D01*
Y9820D01*
X14530Y9754D01*
X14533D01*
G01X14223Y10998D02*
X14421Y10800D01*
G01X14416Y10905D02*
Y10992D01*
X14423Y10998D01*
G01X14223D02*
X14265D01*
X14321Y11055D01*
Y11278D01*
X14341Y11298D01*
X14423D01*
G01Y11048D02*
X14513D01*
X14527Y11035D01*
X14583D01*
G01X14423Y11348D02*
X14629D01*
G01X14533Y2578D02*
G01Y3475D02*
G01Y4372D02*
G01Y5269D02*
G01Y6166D02*
G01Y7063D02*
G01Y7960D02*
G01Y8857D02*
G01Y9754D02*
G01X14657Y10647D02*
X15149D01*
X15789Y10006D01*
Y9787D01*
X16018Y9558D01*
X16507D01*
X16943Y9122D01*
G01X14657Y10647D02*
Y11035D01*
G01X15010D02*
X14657D01*
G01X14909Y2652D02*
X14849D01*
G01X14840Y2807D02*
Y2870D01*
X14831Y2879D01*
G01X14909Y3549D02*
X14849D01*
G01X14840Y3704D02*
Y3767D01*
X14831Y3776D01*
G01X14909Y4446D02*
X14849D01*
G01X14840Y4601D02*
Y4664D01*
X14831Y4673D01*
G01X14840Y5498D02*
Y5561D01*
X14831Y5570D01*
G01X14909Y5343D02*
X14849D01*
G01X14909Y6240D02*
X14849D01*
G01X14840Y6395D02*
Y6458D01*
X14831Y6467D01*
G01X14909Y7137D02*
X14849D01*
G01X14840Y7292D02*
Y7355D01*
X14831Y7364D01*
G01X14909Y8034D02*
X14849D01*
G01X14840Y8189D02*
Y8252D01*
X14831Y8261D01*
G01X14909Y8931D02*
X14849D01*
G01X14840Y9086D02*
Y9149D01*
X14831Y9158D01*
G01X14909Y9828D02*
X14849D01*
G01X14840Y9983D02*
Y10046D01*
X14831Y10055D01*
G01X16709Y9919D02*
X16449Y10178D01*
X16256D01*
X16222Y10144D01*
X15775D01*
X15119Y10800D01*
X14911D01*
G01X16029Y11051D02*
X15643D01*
X15502Y10910D01*
X15134D01*
X15010Y11034D01*
Y11035D01*
G01X15016Y11166D02*
Y11041D01*
X15010Y11035D01*
G01X15310Y2130D02*
G01X15310Y2430D02*
X15240Y2360D01*
Y2196D01*
X15307Y2130D01*
X15310D01*
G01Y3026D02*
G01X15310Y3327D02*
X15240Y3257D01*
Y3093D01*
X15307Y3026D01*
X15310D01*
G01Y3924D02*
G01X15310Y4224D02*
X15240Y4154D01*
Y3990D01*
X15307Y3924D01*
X15310D01*
G01Y4820D02*
G01X15310Y5120D02*
X15240Y5051D01*
Y4887D01*
X15307Y4820D01*
X15310D01*
G01Y5718D02*
G01X15310Y6018D02*
X15240Y5948D01*
Y5784D01*
X15307Y5718D01*
X15310D01*
G01Y6615D02*
G01X15310Y6914D02*
X15240Y6845D01*
Y6681D01*
X15307Y6615D01*
X15310D01*
G01Y7512D02*
G01X15310Y7812D02*
X15240Y7742D01*
Y7578D01*
X15307Y7512D01*
X15310D01*
G01Y8408D02*
G01X15310Y8708D02*
X15240Y8639D01*
Y8475D01*
X15307Y8408D01*
X15310D01*
G01Y9306D02*
G01X15310Y9606D02*
X15240Y9536D01*
Y9372D01*
X15307Y9306D01*
X15310D01*
G01X15686Y2204D02*
X15626D01*
G01X15617Y2358D02*
Y2421D01*
X15608Y2431D01*
G01X15686Y3101D02*
X15626D01*
G01X15617Y3255D02*
Y3318D01*
X15608Y3328D01*
G01X15686Y3998D02*
X15626D01*
G01X15617Y4152D02*
Y4215D01*
X15608Y4225D01*
G01X15686Y4894D02*
X15626D01*
G01X15617Y5049D02*
Y5112D01*
X15608Y5122D01*
G01X15686Y5792D02*
X15626D01*
G01X15617Y5946D02*
Y6009D01*
X15608Y6019D01*
G01X15686Y6688D02*
X15626D01*
G01X15617Y6843D02*
Y6906D01*
X15608Y6916D01*
G01X15686Y7586D02*
X15626D01*
G01X15617Y7740D02*
Y7803D01*
X15608Y7813D01*
G01X15686Y8482D02*
X15626D01*
G01X15617Y8637D02*
Y8700D01*
X15608Y8710D01*
G01X15686Y9380D02*
X15626D01*
G01X15617Y9534D02*
Y9597D01*
X15608Y9607D01*
G01X15630Y10921D02*
Y10357D01*
X15803Y10184D01*
X16205D01*
X16240Y10218D01*
X16466D01*
X16506Y10178D01*
X16668D01*
X17071Y9776D01*
G01X17000Y10031D02*
X16812Y10218D01*
X16522D01*
X16482Y10258D01*
X16223D01*
X16189Y10224D01*
X15886D01*
X15773Y10337D01*
Y10921D01*
G01X16087Y2578D02*
G01X16087Y2878D02*
X16017Y2808D01*
Y2644D01*
X16084Y2578D01*
X16087D01*
G01Y3475D02*
G01X16087Y3775D02*
X16017Y3705D01*
Y3541D01*
X16084Y3475D01*
X16087D01*
G01Y4372D02*
G01X16087Y4672D02*
X16017Y4602D01*
Y4438D01*
X16084Y4372D01*
X16087D01*
G01Y5269D02*
G01X16087Y5569D02*
X16017Y5499D01*
Y5335D01*
X16084Y5269D01*
X16087D01*
G01Y6166D02*
G01X16087Y6466D02*
X16017Y6396D01*
Y6232D01*
X16084Y6166D01*
X16087D01*
G01Y7063D02*
G01X16087Y7363D02*
X16017Y7293D01*
Y7129D01*
X16084Y7063D01*
X16087D01*
G01Y7960D02*
G01X16087Y8260D02*
X16017Y8190D01*
Y8026D01*
X16084Y7960D01*
X16087D01*
G01Y8857D02*
G01X16087Y9157D02*
X16017Y9087D01*
Y8923D01*
X16084Y8857D01*
X16087D01*
G01Y9754D02*
G01X16087Y10054D02*
X16017Y9984D01*
Y9820D01*
X16084Y9754D01*
X16087D01*
G01X17749Y8964D02*
X17732Y8946D01*
X17476D01*
X17125Y9298D01*
Y9880D01*
X17093Y9913D01*
Y10156D01*
X16950Y10298D01*
X16206D01*
X16195Y10288D01*
X16070D01*
X16024Y10333D01*
Y10393D01*
G01Y10520D02*
Y10583D01*
X16034Y10594D01*
Y10653D01*
G01X16024Y10393D02*
Y10520D01*
G01X16099Y10393D02*
X16214D01*
X16264Y10443D01*
X16439D01*
G01Y10543D02*
X16345D01*
X16323Y10520D01*
X16099D01*
G01X16029Y10786D02*
Y10918D01*
G01X16034Y10653D02*
Y10721D01*
X16029Y10726D01*
Y10786D01*
G01X16109Y10653D02*
X16253D01*
X16263Y10643D01*
X16439D01*
G01Y10743D02*
X16281D01*
X16239Y10786D01*
X16104D01*
G01X16439Y10843D02*
X16305D01*
X16230Y10918D01*
X16104D01*
G01X16029Y11184D02*
Y11252D01*
X16019Y11262D01*
Y11321D01*
G01X16029Y11051D02*
Y11184D01*
G01Y10918D02*
Y11051D01*
G01X16104D02*
X16195D01*
X16303Y10943D01*
X16439D01*
G01Y11043D02*
X16332D01*
X16191Y11184D01*
X16104D01*
G01X16094Y11321D02*
X16195D01*
X16374Y11143D01*
X16439D01*
G01X16463Y2652D02*
X16403D01*
G01X16394Y2807D02*
Y2870D01*
X16385Y2879D01*
G01X16463Y3549D02*
X16403D01*
G01X16394Y3704D02*
Y3767D01*
X16385Y3776D01*
G01X16487Y3525D02*
X16816Y3854D01*
Y5327D01*
X17066Y5577D01*
Y7739D01*
G01X16463Y4446D02*
X16403D01*
G01X16394Y4601D02*
Y4664D01*
X16385Y4673D01*
G01X16487Y4422D02*
Y4543D01*
X16735Y4791D01*
Y5413D01*
X16898Y5577D01*
Y7763D01*
X16974Y7839D01*
X17066D01*
G01X16463Y5343D02*
X16403D01*
G01X16394Y5498D02*
Y5561D01*
X16385Y5570D01*
G01X17066Y7939D02*
X16923D01*
X16847Y7863D01*
Y5688D01*
X16849Y5686D01*
Y5681D01*
X16487Y5319D01*
G01X16463Y6240D02*
X16403D01*
G01X16394Y6395D02*
Y6458D01*
X16385Y6467D01*
G01X17066Y8039D02*
X16934D01*
X16783Y7888D01*
Y6281D01*
X16719Y6216D01*
X16487D01*
G01X16463Y7137D02*
X16403D01*
G01X16394Y7292D02*
Y7355D01*
X16385Y7364D01*
G01X17066Y8139D02*
X16950D01*
X16702Y7891D01*
Y7133D01*
X16682Y7113D01*
X16487D01*
G01X16463Y8034D02*
X16403D01*
G01X16394Y8189D02*
Y8252D01*
X16385Y8261D01*
G01X17066Y8239D02*
X16933D01*
X16704Y8010D01*
X16487D01*
G01X16463Y8931D02*
X16403D01*
G01X16394Y9086D02*
Y9149D01*
X16385Y9158D01*
G01X17066Y8339D02*
X16962D01*
X16898Y8403D01*
Y8806D01*
X16797Y8907D01*
X16487D01*
G01X16463Y9828D02*
X16403D01*
G01X16394Y9983D02*
Y10046D01*
X16385Y10055D01*
G01X17069Y8434D02*
Y9380D01*
X16645Y9804D01*
X16487D01*
G01X16439Y10443D02*
X16504D01*
X16532Y10415D01*
X17312D01*
G01Y10465D02*
X17076D01*
X16998Y10543D01*
X16439D01*
G01Y10843D02*
X16504D01*
X16507Y10839D01*
X17302D01*
X17304Y10837D01*
X17408D01*
X17470Y10775D01*
Y10590D01*
X17487Y10573D01*
X17527D01*
X17535Y10565D01*
G01X17312D02*
X17144D01*
X16966Y10743D01*
X16439D01*
G01X17312Y10515D02*
X17120D01*
X16992Y10643D01*
X16439D01*
G01X17542Y6495D02*
Y6294D01*
X17489Y6241D01*
X17202D01*
X17142Y6302D01*
Y7549D01*
X17202Y7609D01*
X17340D01*
X17382Y7567D01*
X17588D01*
X17636Y7616D01*
Y8145D01*
X17684Y8192D01*
X17749D01*
G01X17066Y7739D02*
X17207D01*
X17216Y7730D01*
X17268D01*
G01X17066Y7839D02*
X17199D01*
X17206Y7832D01*
X17257D01*
G01X17066Y7939D02*
X17185D01*
X17190Y7944D01*
X17242D01*
G01X17066Y8039D02*
X17193D01*
X17195Y8041D01*
X17247D01*
G01X17066Y8139D02*
X17194D01*
X17201Y8133D01*
X17252D01*
G01X17066Y8239D02*
X17197D01*
X17201Y8235D01*
X17252D01*
G01X17066Y8339D02*
X17193D01*
X17195Y8337D01*
X17247D01*
G01X17066Y8439D02*
X17206D01*
X17257Y8439D01*
G01X17190Y9433D02*
Y9564D01*
X17186Y9569D01*
G01X17312Y10315D02*
X17196D01*
X17166Y10285D01*
Y9589D01*
X17186Y9569D01*
G01D02*
X17684D01*
X17740Y9625D01*
Y9811D01*
G01X17754Y6997D02*
X17794D01*
X17819Y6972D01*
Y6776D01*
X17712Y6668D01*
X17478D01*
X17442Y6632D01*
Y6495D01*
G01X17532Y6947D02*
Y6838D01*
X17342Y6648D01*
Y6495D01*
G01X17270Y6841D02*
X17316Y6887D01*
X17332D01*
X17442Y6997D01*
X17532D01*
G01X17270Y6941D02*
X17324Y6994D01*
X17372D01*
X17425Y7047D01*
X17532D01*
G01Y7297D02*
X17392D01*
X17336Y7353D01*
Y7440D01*
X17335Y7441D01*
X17270D01*
G01X17532Y7147D02*
X17342D01*
X17335Y7141D01*
X17270D01*
G01X17532Y7197D02*
X17314D01*
X17270Y7241D01*
G01X17532Y7247D02*
X17364D01*
X17270Y7341D01*
G01X17532Y7097D02*
X17466D01*
X17466Y7098D01*
X17398D01*
X17341Y7041D01*
X17270D01*
G01Y7541D02*
X17347D01*
X17435Y7452D01*
X17573D01*
X17601Y7425D01*
Y7329D01*
X17677Y7253D01*
X17684D01*
X17689Y7247D01*
X17754D01*
G01X17334Y7730D02*
X17388D01*
X17429Y7770D01*
Y7934D01*
X17487Y7992D01*
X17526D01*
G01X17324Y7832D02*
X17326D01*
X17378Y7883D01*
Y7940D01*
X17480Y8042D01*
X17526D01*
G01Y8092D02*
X17459D01*
X17311Y7944D01*
X17309D01*
G01X17526Y8142D02*
X17418D01*
X17316Y8041D01*
X17314D01*
G01X17526Y8192D02*
X17381D01*
X17321Y8133D01*
X17319D01*
G01X17749Y8242D02*
X17684D01*
X17488Y8439D01*
X17324D01*
G01X17319Y8235D02*
X17371D01*
X17378Y8242D01*
X17526D01*
G01X17314Y8337D02*
X17459D01*
X17503Y8292D01*
X17526D01*
G01X17427Y8730D02*
X17743D01*
X17749Y8724D01*
G01X17440Y9811D02*
Y9701D01*
X17410Y9671D01*
X17290D01*
X17270Y9691D01*
Y9908D01*
X17378Y10016D01*
Y10589D01*
X17352Y10615D01*
X17312D01*
G01Y10665D02*
X17377D01*
X17419Y10623D01*
Y9998D01*
X17340Y9918D01*
Y9811D01*
G01X17642Y6495D02*
Y6430D01*
X17644Y6428D01*
Y6326D01*
X17660Y6310D01*
X17900D01*
X17959Y6368D01*
Y7898D01*
X17814Y8042D01*
X17749D01*
G01X17742Y6495D02*
X17908Y6661D01*
Y7069D01*
X17882Y7096D01*
G01X17642Y6495D02*
X17864Y6717D01*
Y7019D01*
X17836Y7047D01*
X17754D01*
G01X17532Y6947D02*
X17596D01*
X17602Y6953D01*
X17631D01*
X17651Y6973D01*
Y7109D01*
X17689Y7147D01*
X17754D01*
G01D02*
X17838Y7147D01*
X17858Y7167D01*
Y7205D01*
X17859Y7206D01*
Y7461D01*
X17779Y7541D01*
X17737D01*
X17730Y7534D01*
X17670D01*
G01X17755Y7496D02*
X17819Y7432D01*
Y7223D01*
X17802Y7205D01*
X17762D01*
X17754Y7197D01*
G01X17741Y7401D02*
Y7353D01*
X17754Y7339D01*
Y7297D01*
G01X17882Y7096D02*
X17821D01*
X17819Y7097D01*
X17754D01*
G01X17526Y7513D02*
X17590D01*
X17611Y7534D01*
X17670D01*
G01X17749Y8092D02*
X17696D01*
X17676Y8072D01*
Y7694D01*
X17789Y7581D01*
X17795D01*
X17904Y7472D01*
Y7118D01*
X17882Y7096D01*
G01X17670Y7459D02*
X17684D01*
X17741Y7401D01*
G01X17526Y7942D02*
Y7832D01*
G01X17755Y7799D02*
Y7894D01*
X17749Y7900D01*
Y7942D01*
G01Y8724D02*
Y8481D01*
G01D02*
Y8292D01*
G01X17675Y8467D02*
X17735D01*
X17749Y8481D01*
G01X17601Y8467D02*
Y8563D01*
X17576Y8588D01*
G01X17749Y8292D02*
X17814D01*
X17819Y8287D01*
X17832D01*
X17850Y8269D01*
G01X17749Y8964D02*
Y8724D01*
G01X17791Y10167D02*
Y10111D01*
X17836Y10066D01*
Y9546D01*
X17749Y9459D01*
Y8964D01*
G01X17540Y9811D02*
Y10268D01*
X17535Y10273D01*
Y10315D01*
G01X17640Y9811D02*
Y10020D01*
X17787Y10167D01*
X17791D01*
G01X17787Y10241D02*
X17637D01*
G01X17791D02*
X17787D01*
G01X17535Y10365D02*
X17664D01*
X17787Y10241D01*
G01X17791Y10167D02*
X17860D01*
X17963Y10270D01*
Y10623D01*
X17821Y10765D01*
X17730D01*
G01X17655Y10589D02*
Y10680D01*
X17573Y10762D01*
G01X17730Y10765D02*
Y10589D01*
G01X17535Y10615D02*
X17629D01*
X17655Y10589D01*
G01X17906Y10418D02*
X17603D01*
X17600Y10415D01*
X17535D01*
G01X17871Y10464D02*
X17870Y10465D01*
X17535D01*
G01X17844Y10512D02*
X17799D01*
X17796Y10515D01*
X17535D01*
G01Y10665D02*
Y10736D01*
X17528Y10743D01*
Y10781D01*
X17554Y10807D01*
X17592D01*
X17618Y10781D01*
Y10774D01*
X17627Y10765D01*
X17730D01*
G54D11*
X950Y3525D03*
X850Y3775D03*
X950Y4422D03*
X850Y4672D03*
X950Y5319D03*
X850Y5569D03*
X950Y6216D03*
X850Y6466D03*
X950Y7113D03*
X850Y7363D03*
X950Y8010D03*
X850Y8260D03*
Y9157D03*
X950Y8907D03*
X850Y10054D03*
X950Y9804D03*
X850Y10951D03*
X950Y10701D03*
X1627Y3327D03*
Y4224D03*
Y5120D03*
Y6018D03*
Y6914D03*
Y7812D03*
Y8708D03*
Y9606D03*
Y10502D03*
Y11400D03*
X1727Y3077D03*
Y3974D03*
Y4870D03*
Y5768D03*
Y6664D03*
Y7562D03*
Y8458D03*
Y9356D03*
Y10252D03*
Y11150D03*
X2504Y3525D03*
X2404Y3775D03*
X2504Y4422D03*
X2404Y4672D03*
X2504Y5319D03*
X2404Y5569D03*
X2504Y6216D03*
X2404Y6466D03*
X2504Y7113D03*
X2404Y7363D03*
X2504Y8010D03*
X2404Y8260D03*
Y9157D03*
X2504Y8907D03*
X2404Y10054D03*
X2504Y9804D03*
X2404Y10951D03*
X2504Y10701D03*
X3281Y3077D03*
X3181Y3327D03*
X3281Y3974D03*
X3181Y4224D03*
X3281Y4870D03*
X3181Y5120D03*
X3281Y5768D03*
X3181Y6018D03*
X3281Y6664D03*
X3181Y6914D03*
X3281Y7562D03*
X3181Y7812D03*
X3281Y8458D03*
X3181Y8708D03*
X3281Y9356D03*
X3181Y9606D03*
X3281Y10252D03*
X3181Y10502D03*
X4057Y3525D03*
X3957Y3775D03*
X4057Y4422D03*
X3957Y4672D03*
X4057Y5319D03*
X3957Y5569D03*
X4057Y6216D03*
X3957Y6466D03*
X4057Y7113D03*
X3957Y7363D03*
X4057Y8010D03*
X3957Y8260D03*
Y9157D03*
X4057Y8907D03*
X3957Y10054D03*
X4057Y9804D03*
X3957Y10951D03*
X4057Y10701D03*
X4834Y3077D03*
X4734Y3327D03*
X4834Y3974D03*
X4734Y4224D03*
X4834Y4870D03*
X4734Y5120D03*
X4834Y5768D03*
X4734Y6018D03*
X4834Y6664D03*
X4734Y6914D03*
X4834Y7562D03*
X4734Y7812D03*
X4834Y8458D03*
X4734Y8708D03*
X4834Y9356D03*
X4734Y9606D03*
X4834Y10252D03*
X4734Y10502D03*
X5511Y3775D03*
Y4672D03*
Y5569D03*
Y6466D03*
Y7363D03*
Y8260D03*
Y9157D03*
Y10054D03*
Y10951D03*
X5611Y3525D03*
Y4422D03*
Y5319D03*
Y6216D03*
Y7113D03*
Y8010D03*
Y8907D03*
Y9804D03*
Y10701D03*
X6388Y3077D03*
X6288Y3327D03*
X6388Y3974D03*
X6288Y4224D03*
X6388Y4870D03*
X6288Y5120D03*
X6388Y5768D03*
X6288Y6018D03*
X6388Y6664D03*
X6288Y6914D03*
X6388Y7562D03*
X6288Y7812D03*
X6388Y8458D03*
X6288Y8708D03*
X6388Y9356D03*
X6288Y9606D03*
X6388Y10252D03*
X6288Y10502D03*
X7165Y2628D03*
X7065Y2878D03*
X7165Y3525D03*
X7065Y3775D03*
X7165Y4422D03*
X7065Y4672D03*
X7165Y5319D03*
X7065Y5569D03*
X7165Y6216D03*
X7065Y6466D03*
X7165Y7113D03*
X7065Y7363D03*
X7165Y8010D03*
X7065Y8260D03*
Y9157D03*
X7165Y8907D03*
X7065Y10054D03*
X7165Y9804D03*
X7065Y10951D03*
X7165Y10701D03*
X7942Y3077D03*
X7842Y3327D03*
X7942Y3974D03*
X7842Y4224D03*
X7942Y4870D03*
X7842Y5120D03*
X7942Y5768D03*
X7842Y6018D03*
X7942Y6664D03*
X7842Y6914D03*
X7942Y7562D03*
X7842Y7812D03*
X7942Y8458D03*
X7842Y8708D03*
X7942Y9356D03*
X7842Y9606D03*
X7942Y10252D03*
X7842Y10502D03*
X8718Y2628D03*
X8619Y2878D03*
X8718Y3525D03*
X8619Y3775D03*
X8718Y4422D03*
X8619Y4672D03*
X8718Y5319D03*
X8619Y5569D03*
X8718Y6216D03*
X8619Y6466D03*
X8718Y7113D03*
X8619Y7363D03*
X8718Y8010D03*
X8619Y8260D03*
Y9157D03*
X8718Y8907D03*
X8619Y10054D03*
X8718Y9804D03*
X9395Y3327D03*
Y4224D03*
Y5120D03*
Y6018D03*
Y6914D03*
Y7812D03*
Y8708D03*
Y9606D03*
Y10502D03*
X9495Y3077D03*
Y3974D03*
Y4870D03*
Y5768D03*
Y6664D03*
Y7562D03*
Y8458D03*
Y9356D03*
Y10252D03*
X10272Y2628D03*
X10172Y2878D03*
X10272Y3525D03*
X10172Y3775D03*
X10272Y4422D03*
X10172Y4672D03*
X10272Y5319D03*
X10172Y5569D03*
X10272Y6216D03*
X10172Y6466D03*
X10272Y7113D03*
X10172Y7363D03*
X10272Y8010D03*
X10172Y8260D03*
Y9157D03*
X10272Y8907D03*
X10172Y10054D03*
X10272Y9804D03*
X10949Y3327D03*
Y4224D03*
Y5120D03*
Y6018D03*
Y6914D03*
Y7812D03*
Y8708D03*
Y9606D03*
Y10502D03*
X11049Y3077D03*
Y3974D03*
Y4870D03*
Y5768D03*
Y6664D03*
Y7562D03*
Y8458D03*
Y9356D03*
Y10252D03*
X11826Y2628D03*
X11726Y2878D03*
X11826Y3525D03*
X11726Y3775D03*
X11826Y4422D03*
X11726Y4672D03*
X11826Y5319D03*
X11726Y5569D03*
X11826Y6216D03*
X11726Y6466D03*
X11826Y7113D03*
X11726Y7363D03*
X11826Y8010D03*
X11726Y8260D03*
Y9157D03*
X11826Y8907D03*
X11726Y10054D03*
X11826Y9804D03*
X12603Y2180D03*
X12503Y2430D03*
X12603Y3077D03*
X12503Y3327D03*
X12603Y3974D03*
X12503Y4224D03*
X12603Y4870D03*
X12503Y5120D03*
X12603Y5768D03*
X12503Y6018D03*
X12603Y6664D03*
X12503Y6914D03*
X12603Y7562D03*
X12503Y7812D03*
X12603Y8458D03*
X12503Y8708D03*
X12603Y9356D03*
X12503Y9606D03*
X12603Y10252D03*
X12503Y10502D03*
X13280Y2878D03*
Y3775D03*
Y4672D03*
Y5569D03*
Y6466D03*
Y7363D03*
Y8260D03*
Y9157D03*
Y10054D03*
X13380Y2628D03*
Y3525D03*
Y4422D03*
Y5319D03*
Y6216D03*
Y7113D03*
Y8010D03*
Y8907D03*
Y9804D03*
X14156Y2180D03*
X14056Y2430D03*
X14156Y3077D03*
X14056Y3327D03*
X14156Y3974D03*
X14056Y4224D03*
X14156Y4870D03*
X14056Y5120D03*
X14156Y5768D03*
X14056Y6018D03*
X14156Y6664D03*
X14056Y6914D03*
X14156Y7562D03*
X14056Y7812D03*
X14156Y8458D03*
X14056Y8708D03*
X14156Y9356D03*
X14056Y9606D03*
X14833Y2878D03*
Y3775D03*
Y4672D03*
Y5569D03*
Y6466D03*
Y7363D03*
Y8260D03*
Y9157D03*
Y10054D03*
X14933Y2628D03*
Y3525D03*
Y4422D03*
Y5319D03*
Y6216D03*
Y7113D03*
Y8010D03*
Y8907D03*
Y9804D03*
X15710Y2180D03*
X15610Y2430D03*
X15710Y3077D03*
X15610Y3327D03*
X15710Y3974D03*
X15610Y4224D03*
X15710Y4870D03*
X15610Y5120D03*
X15710Y5768D03*
X15610Y6018D03*
X15710Y6664D03*
X15610Y6914D03*
X15710Y7562D03*
X15610Y7812D03*
X15710Y8458D03*
X15610Y8708D03*
X15710Y9356D03*
X15610Y9606D03*
X16487Y2628D03*
X16387Y2878D03*
X16487Y3525D03*
X16387Y3775D03*
X16487Y4422D03*
X16387Y4672D03*
X16487Y5319D03*
X16387Y5569D03*
X16487Y6216D03*
X16387Y6466D03*
X16487Y7113D03*
X16387Y7363D03*
X16487Y8010D03*
X16387Y8260D03*
Y9157D03*
X16487Y8907D03*
X16387Y10054D03*
X16487Y9804D03*
G54D12*
X5526Y11301D03*
X5827Y11010D03*
X5732Y11520D03*
X5807D03*
X5730Y11408D03*
X5805D03*
X5601Y11301D03*
X5733Y11631D03*
X5808D03*
X5733Y11743D03*
X5808D03*
X5736Y11854D03*
X5811D03*
X6047Y10916D03*
X6122D03*
X5902Y11010D03*
X6969Y11191D03*
X7044D03*
X7787Y11809D03*
X7861D03*
X12267Y10750D03*
X12192D03*
X12262Y10893D03*
X12187D03*
X12262Y11031D03*
X12187D03*
X12257Y11163D03*
X12182D03*
X12195Y11462D03*
X12270D03*
X12262Y11296D03*
X12187D03*
X12195Y11605D03*
X12270D03*
X12205Y11750D03*
X12280D03*
X13889Y10926D03*
X13964D03*
X14657Y11035D03*
X14583D03*
X16024Y10393D03*
Y10520D03*
X16034Y10653D03*
X16029Y10786D03*
Y10918D03*
Y11051D03*
Y11184D03*
X16019Y11321D03*
X16099Y10393D03*
Y10520D03*
X16109Y10653D03*
X16104Y10786D03*
Y10918D03*
Y11051D03*
Y11184D03*
X16094Y11321D03*
X17601Y8467D03*
X17675D03*
X17655Y10589D03*
X17730D03*
G54D13*
X6020Y11127D03*
Y11227D03*
Y11527D03*
Y11427D03*
Y11327D03*
Y11727D03*
Y11627D03*
X12602Y10907D03*
Y11007D03*
Y11107D03*
Y11207D03*
Y11307D03*
Y11407D03*
Y11507D03*
X16439Y10443D03*
Y10543D03*
Y10643D03*
Y10743D03*
Y10843D03*
Y10943D03*
Y11043D03*
X17066Y7739D03*
Y7839D03*
Y7939D03*
Y8039D03*
Y8139D03*
Y8239D03*
Y8339D03*
X17442Y6495D03*
X17542D03*
X17270Y6841D03*
Y6941D03*
Y7041D03*
Y7141D03*
Y7241D03*
Y7341D03*
Y7441D03*
X17540Y9811D03*
X17440D03*
X17340D03*
X17642Y6495D03*
X17742D03*
X17640Y9811D03*
G54D14*
X6020Y11827D03*
X12602Y11607D03*
X16439Y11143D03*
X17066Y8439D03*
X17342Y6495D03*
X17270Y7541D03*
X17740Y9811D03*
G54D15*
X6621Y11384D03*
X6517Y11708D03*
X6693Y11684D03*
X7270Y11717D03*
X13923Y11360D03*
X14079Y11002D03*
X14020Y11393D03*
X14421Y10800D03*
X14416Y10905D03*
X14629Y11348D03*
X14911Y10800D03*
X15016Y11166D03*
X15327Y10955D03*
X15630Y10921D03*
X15773D03*
X16709Y9919D03*
X16943Y9122D03*
X17190Y9433D03*
X17071Y9776D03*
X17000Y10031D03*
X17427Y8730D03*
X17526Y7513D03*
X17755Y7496D03*
X17741Y7401D03*
X17526Y7832D03*
X17755Y7799D03*
X17576Y8588D03*
X17637Y10241D03*
X17573Y10762D03*
X17637Y10877D03*
X17906Y10418D03*
X17871Y10464D03*
X17844Y10512D03*
G54D16*
X6896Y11484D03*
Y11434D03*
Y11384D03*
Y11684D03*
Y11634D03*
Y11584D03*
Y11534D03*
X7119Y11384D03*
Y11434D03*
Y11484D03*
Y11534D03*
Y11584D03*
Y11634D03*
Y11684D03*
Y11734D03*
X14200Y11198D03*
Y11148D03*
Y11098D03*
Y11048D03*
Y10998D03*
Y11298D03*
Y11248D03*
X14423Y10998D03*
Y11048D03*
Y11098D03*
Y11148D03*
Y11198D03*
Y11248D03*
Y11298D03*
Y11348D03*
X17532Y6997D03*
Y6947D03*
Y7247D03*
Y7197D03*
Y7147D03*
Y7097D03*
Y7047D03*
X17526Y8192D03*
Y8142D03*
Y8092D03*
Y8042D03*
Y7992D03*
Y7942D03*
Y8242D03*
X17312Y10315D03*
X17535D03*
X17312Y10615D03*
Y10565D03*
Y10515D03*
Y10465D03*
Y10415D03*
Y10365D03*
X17535D03*
Y10415D03*
Y10465D03*
Y10515D03*
Y10565D03*
Y10615D03*
Y10665D03*
X17754Y6947D03*
Y6997D03*
Y7047D03*
Y7097D03*
Y7147D03*
Y7197D03*
Y7247D03*
Y7297D03*
X17749Y7942D03*
Y7992D03*
Y8042D03*
Y8092D03*
Y8142D03*
Y8192D03*
Y8242D03*
Y8292D03*
G54D17*
X6896Y11734D03*
X14200Y11348D03*
X17532Y7297D03*
X17526Y8292D03*
X17312Y10665D03*
G54D18*
X17268Y7730D03*
X17334D03*
X17257Y7832D03*
X17324D03*
X17242Y7944D03*
X17309D03*
X17247Y8041D03*
X17314D03*
X17252Y8133D03*
X17319D03*
X17324Y8439D03*
X17257D03*
X17252Y8235D03*
X17319D03*
X17247Y8337D03*
X17314D03*
G54D19*
X17670Y7534D03*
Y7459D03*
X17791Y10241D03*
Y10167D03*
M02*
